<svg width="679" height="411" viewBox="0 0 679 411" fill="none" xmlns="http://www.w3.org/2000/svg">
<path fill-rule="evenodd" clip-rule="evenodd" d="M129.05 161.091L135.972 145.475L132.238 146.172C127.8 146.999 123.859 147.404 120.404 147.404C115.463 147.404 109.524 146.628 102.562 145.04C95.6588 143.37 86.4379 140.628 74.8799 136.801L74.8704 136.798L74.6759 136.736C77.7171 132.513 80.2657 127.768 82.3281 122.512C84.7623 116.308 87.0909 108.02 89.3268 97.6888L99.5692 49.6992L99.5702 49.6944C101.334 41.6439 102.737 35.9641 103.784 32.6011L103.787 32.5893C104.828 29.1712 106.166 25.8243 107.804 22.5478C112.94 12.4268 118.999 7.99554 125.814 7.99554C129.007 7.99554 131.172 9.03076 132.64 10.9099C134.183 12.8856 135.093 15.8759 135.093 20.1522C135.093 24.7122 134.076 30.4087 131.959 37.2865C129.847 44.076 127.21 50.4006 124.053 56.2646L122.157 59.7858L137.889 57.4175L138.338 56.429C140.697 51.2395 142.616 45.5949 144.1 39.5011C145.577 33.4389 146.344 28.3171 146.344 24.1805C146.344 19.6701 145.581 15.6276 143.991 12.1025C142.468 8.4772 140.145 5.64962 137.002 3.72413C133.884 1.73635 130.283 0.772888 126.274 0.772888C122.539 0.772888 118.782 1.75097 115.021 3.63122C111.268 5.50784 107.682 8.17772 104.258 11.6021C100.832 15.0282 97.8148 18.9616 95.2032 23.393C92.4305 28.0676 89.9976 33.5737 87.8917 39.8915L87.8882 39.9021L87.8847 39.9127C85.8598 46.2211 83.6568 54.9665 81.2728 66.1173L81.2723 66.1196L73.1006 104.561L73.0988 104.57C71.4938 112.289 69.9777 118.264 68.5557 122.53L68.5507 122.545L68.5459 122.56C67.3647 126.301 65.8357 129.896 63.9582 133.348C52.0734 129.994 41.2274 128.298 31.436 128.298C22.5164 128.298 15.2131 129.662 9.67775 132.554C4.04994 135.494 0.892426 139.811 0.892426 145.491C0.892426 150.781 3.65262 154.973 8.64129 158.017L8.65819 158.027L8.67528 158.037C13.6854 160.96 20.1323 162.338 27.868 162.338C34.5733 162.338 41.2593 161.06 47.9159 158.524L47.9256 158.52L47.9353 158.516C54.235 156.041 59.7787 152.636 64.5482 148.295C69.3877 149.661 74.261 151.126 79.1683 152.69L79.1703 152.691C85.7019 154.766 91.0187 156.384 95.1142 157.543L95.1355 157.549L95.157 157.555C99.3452 158.641 103.535 159.572 107.725 160.348L107.736 160.35L107.748 160.352C113.546 161.357 118.241 161.877 121.785 161.877C123.618 161.877 125.693 161.67 127.995 161.273L129.05 161.091ZM43.9991 152.054C48.0494 150.318 51.6278 148.065 54.746 145.295C41.31 141.269 31.1978 139.319 24.3001 139.319C18.6162 139.319 14.6601 140.073 12.1927 141.364C10.9885 141.994 10.1937 142.723 9.69369 143.508C9.19888 144.285 8.92075 145.228 8.92075 146.411C8.92075 148.422 10.1665 150.488 13.8404 152.47C17.4622 154.347 22.1426 155.345 27.9831 155.345C33.5431 155.345 38.8764 154.25 43.9991 152.054Z" fill="black"/>
<path fill-rule="evenodd" clip-rule="evenodd" d="M195.89 131.589L207.702 85.5965L192.296 91.9886L191.797 93.7134C188.538 90.6617 184.252 89.1657 179.103 89.1657C172.724 89.1657 166.338 92.0182 159.98 97.3432C153.693 102.596 148.433 109.295 144.184 117.399L144.18 117.406L144.177 117.413C139.998 125.535 137.855 133.405 137.855 141.002C137.855 146.609 139.199 151.318 142.095 154.916C145.042 158.577 149.09 160.381 154.012 160.381C162.255 160.381 170.407 154.682 178.487 144.426L178.489 144.423C180.349 142.053 182.067 139.641 183.643 137.186C182.975 140.935 182.627 143.645 182.627 145.26C182.627 149.006 183.613 152.395 185.618 155.358L185.637 155.387L185.657 155.414C187.76 158.306 190.452 160.036 193.72 160.036C196.056 160.036 198.398 158.732 200.661 156.792L200.665 156.788C203.006 154.771 206.23 151.379 210.307 146.687L210.315 146.677L212.779 143.766L208.41 139.398L206.997 140.895C204.464 143.58 202.35 145.527 200.645 146.789C198.847 148.118 197.824 148.44 197.403 148.44C196.89 148.44 196.219 148.206 195.442 146.89C194.656 145.56 194.223 143.929 194.223 141.923C194.223 139.56 194.752 136.144 195.889 131.595L195.89 131.589ZM185.641 98.5404C187.351 99.7785 188.629 101.497 189.448 103.786L188.56 107.243C186.955 113.509 185.517 118.343 184.247 121.778C183.001 125.152 181.269 128.549 179.039 131.968L179.023 131.991L179.008 132.016C175.315 138.045 171.643 142.581 168.016 145.701C164.387 148.821 161.151 150.166 158.271 150.166C156.157 150.166 154.635 149.369 153.485 147.712C152.327 145.933 151.638 143.304 151.638 139.621C151.638 136.45 152.383 132.294 153.965 127.095C155.615 121.923 157.632 117.221 160.011 112.982C163.07 107.612 166.375 103.529 169.894 100.657L169.903 100.649L169.912 100.641C173.471 97.6635 176.598 96.3884 179.333 96.3884C181.743 96.3884 183.797 97.0934 185.578 98.4931L185.609 98.5174L185.641 98.5404Z" fill="black"/>
<path fill-rule="evenodd" clip-rule="evenodd" d="M671.76 372.171L678.092 377.448L676.942 378.969C669.295 389.083 661.744 396.544 654.268 401.233L654.257 401.24L654.247 401.246C646.741 405.826 638.635 408.126 629.966 408.126C619.59 408.126 611.097 404.643 604.696 397.589C598.314 390.556 595.211 381.317 595.211 370.078C595.211 358.738 598.174 347.327 604.03 335.864L604.034 335.856C609.995 324.307 617.41 314.758 626.295 307.249C635.313 299.609 644.416 295.614 653.571 295.614C658.983 295.614 663.577 297.209 667.174 300.523C670.91 303.851 672.772 308.184 672.772 313.351C672.772 323.528 667.213 333.417 656.752 343.006C646.492 352.411 632.669 360.371 615.37 366.935C615.333 367.509 615.314 368.129 615.314 368.797C615.314 376.824 617.513 383.221 621.774 388.159C626.009 392.947 631.428 395.343 638.2 395.343C643.491 395.343 648.66 393.719 653.738 390.375C658.874 386.871 664.46 381.368 670.486 373.775L671.76 372.171ZM642.444 340.132C647.074 335.382 650.797 330.294 653.628 324.869C656.463 319.435 657.793 314.695 657.793 310.606C657.793 308.006 657.194 306.429 656.35 305.506C655.537 304.617 654.191 304.006 651.924 304.006C645.095 304.006 637.566 309.462 629.448 321.941C622.223 333.107 617.717 345.056 615.912 357.806C627.363 352.408 636.179 346.504 642.444 340.132Z" fill="black"/>
<path fill-rule="evenodd" clip-rule="evenodd" d="M542.533 319.719C544.469 320.098 546.349 320.292 548.17 320.292C553.13 320.292 557.599 319.529 561.539 317.953L561.554 317.947L561.569 317.94C562.566 317.522 563.566 317.039 564.569 316.492C560.394 322.949 556.796 328.696 553.774 333.732C549.731 340.47 546.409 346.496 543.816 351.804C536.691 365.934 532.994 377.853 532.994 387.462C532.994 393.271 534.417 398.111 537.493 401.746L537.508 401.762L537.522 401.779C540.757 405.436 545.114 407.211 550.365 407.211C556.595 407.211 563.06 404.372 569.717 399.098C576.944 393.464 582.355 388.685 585.886 384.776L587.087 383.446L581.59 377.263L580.091 378.696C574.583 383.963 569.893 387.852 566.008 390.412C562.054 393.018 559.207 394.062 557.319 394.062C555.945 394.062 554.728 393.5 553.593 392.092C552.439 390.541 551.816 388.608 551.816 386.181C551.816 378.869 554.512 367.562 560.113 352.098C565.809 336.585 573.025 320.817 581.765 304.793L581.782 304.762L584.527 299.274H571.74L571.169 299.787C566.712 303.798 560.992 305.861 553.842 305.861C551.891 305.861 549.729 305.616 547.349 305.11C548.367 301.115 548.889 297.393 548.889 293.954C548.889 288.317 547.673 283.55 545.057 279.825C542.424 275.952 538.856 273.838 534.445 273.838C530.225 273.838 526.729 275.703 524.07 279.203C521.422 282.686 520.185 287.112 520.185 292.307C520.185 302.846 525.1 311.056 534.592 316.822C525.586 342.574 509.927 374.877 486.6 391.121C484.255 392.718 481.662 393.513 478.768 393.513C475.966 393.513 473.808 392.454 472.116 390.264C470.383 388.022 469.423 384.954 469.423 380.874C469.423 378.309 470.107 373.744 471.571 367.037L471.573 367.027L485.121 307.666H514.8L516.905 297.444H487.312L500.407 239.828L478.31 248.574L468.174 297.444H421.021L434.116 239.828L412.019 248.574L412.003 248.649L412 248.651V248.664L401.883 297.444H384.313L382.209 307.666H399.784L388.377 363.997L388.376 364.003C386.54 372.818 385.59 379.688 385.59 384.534C385.59 391.138 387.413 396.701 391.209 401.039L391.231 401.064L391.253 401.088C395.221 405.329 400.475 407.394 406.804 407.394C411.977 407.394 417.082 405.415 422.088 401.693L422.094 401.688C427.169 397.882 433.329 391.511 440.557 382.691L441.705 381.29L436.265 375.85L432.633 379.482L432.611 379.505C427.005 385.477 422.924 389.3 420.308 391.121C417.964 392.718 415.371 393.513 412.477 393.513C409.675 393.513 407.517 392.454 405.825 390.264C404.092 388.022 403.132 384.954 403.132 380.874C403.132 378.309 403.816 373.744 405.279 367.037L405.281 367.027L418.829 307.666H466.075L454.668 363.997L454.667 364.003C452.831 372.818 451.882 379.688 451.882 384.534C451.882 391.138 453.704 396.701 457.5 401.039L457.522 401.064L457.545 401.088C461.512 405.329 466.766 407.394 473.095 407.394C478.268 407.394 483.373 405.415 488.379 401.693L488.385 401.688C513.444 382.893 532.463 348.308 542.533 319.719ZM531.688 289.563C531.688 288.202 532.021 287.264 532.539 286.592C533.247 285.711 533.816 285.524 534.262 285.524C535.526 285.524 536.716 286.146 537.817 288.148L537.835 288.18L537.854 288.213C539.061 290.223 539.765 293.172 539.765 297.248C539.765 298.472 539.673 299.903 539.484 301.549C534.025 297.692 531.688 293.67 531.688 289.563Z" fill="black"/>
<path fill-rule="evenodd" clip-rule="evenodd" d="M372.403 377.448L366.07 372.171L364.797 373.775C358.771 381.368 353.185 386.871 348.049 390.375C342.971 393.719 337.802 395.343 332.511 395.343C325.739 395.343 320.32 392.947 316.084 388.159C311.824 383.221 309.624 376.824 309.624 368.797C309.624 368.129 309.644 367.509 309.681 366.935C326.98 360.371 340.802 352.411 351.063 343.006C361.524 333.417 367.083 323.528 367.083 313.351C367.083 308.184 365.221 303.851 361.485 300.523C357.887 297.209 353.294 295.614 347.882 295.614C338.727 295.614 329.624 299.609 320.606 307.249C311.72 314.758 304.305 324.307 298.344 335.856L298.341 335.864C292.484 347.327 289.521 358.738 289.521 370.078C289.521 381.317 292.625 390.556 299.007 397.589C305.408 404.643 313.9 408.126 324.276 408.126C332.946 408.126 341.052 405.826 348.558 401.246L348.568 401.24L348.578 401.233C356.055 396.544 363.606 389.083 371.253 378.969L372.403 377.448ZM347.939 324.869C345.108 330.294 341.385 335.382 336.755 340.132C330.49 346.504 321.674 352.408 310.223 357.806C312.027 345.056 316.534 333.107 323.759 321.941C331.877 309.462 339.406 304.006 346.235 304.006C348.501 304.006 349.847 304.617 350.661 305.506C351.505 306.429 352.103 308.006 352.103 310.606C352.103 314.695 350.774 319.435 347.939 324.869Z" fill="black"/>
<path fill-rule="evenodd" clip-rule="evenodd" d="M283.361 386.629L273.519 408.83L272.464 409.012C268.849 409.636 265.62 409.956 262.792 409.956C257.257 409.956 249.868 409.142 240.675 407.548L240.663 407.546L240.652 407.544C234.018 406.315 227.384 404.841 220.752 403.122L220.73 403.116L220.709 403.11C214.214 401.272 205.774 398.703 195.396 395.406L195.393 395.406C187.365 392.846 179.393 390.453 171.478 388.228C163.899 395.238 155.049 400.725 144.947 404.694L144.937 404.698L144.927 404.702C134.468 408.686 123.98 410.688 113.473 410.688C101.302 410.688 91.279 408.518 83.5531 404.011L83.536 404.001L83.5191 403.991C75.8599 399.318 71.7645 392.999 71.7645 385.083C71.7645 376.597 76.4383 370.084 85.0987 365.56C93.6667 361.084 105.066 358.928 119.146 358.928C134.826 358.928 152.261 361.689 171.434 367.169C174.664 361.362 177.276 355.3 179.272 348.981L179.277 348.965L179.282 348.95C181.564 342.105 183.985 332.554 186.54 320.263L186.542 320.255L199.535 259.134C203.322 241.42 206.815 227.56 210.017 217.586L210.02 217.575L210.024 217.564C213.351 207.581 217.187 198.907 221.544 191.562C225.649 184.596 230.387 178.421 235.759 173.048C241.13 167.678 246.73 163.514 252.565 160.596C258.408 157.675 264.202 156.177 269.929 156.177C276.11 156.177 281.612 157.66 286.36 160.689C291.132 163.611 294.677 167.909 297.015 173.481C299.464 178.907 300.658 185.167 300.658 192.212C300.658 198.657 299.461 206.699 297.124 216.291C294.78 225.916 291.752 234.819 288.035 242.996L287.586 243.984L265.54 247.303L267.436 243.782C272.494 234.388 276.715 224.261 280.095 213.398C283.478 202.401 285.129 193.219 285.129 185.808C285.129 178.861 283.654 173.811 280.979 170.387C278.379 167.06 274.562 165.3 269.197 165.3C257.719 165.3 247.768 172.81 239.508 189.088C236.875 194.355 234.722 199.739 233.048 205.238L233.045 205.25C231.365 210.649 229.124 219.724 226.319 232.526L226.318 232.532L210.033 308.833C206.485 325.23 202.798 338.339 198.961 348.118C195.498 356.941 191.171 364.836 185.972 371.788L187.837 372.385L187.846 372.388C206.239 378.478 220.937 382.849 231.959 385.515C243.085 388.054 252.622 389.304 260.596 389.304C266.178 389.304 272.518 388.651 279.626 387.325L283.361 386.629ZM158.538 384.23L157.371 383.889L157.362 383.887C135.568 377.312 119.086 374.091 107.8 374.091C98.6992 374.091 92.1801 375.292 88.0041 377.477C85.9455 378.554 84.51 379.841 83.5828 381.297C82.6608 382.744 82.1691 384.469 82.1691 386.547C82.1691 390.367 84.5912 393.972 90.6193 397.222C96.5947 400.321 104.24 401.931 113.656 401.931C122.656 401.931 131.294 400.156 139.585 396.603C146.815 393.504 153.128 389.379 158.538 384.23Z" fill="black"/>
</svg>
