%TF.GenerationSoftware,KiCad,Pcbnew,7.0.6*%
%TF.CreationDate,2024-02-12T15:48:59-05:00*%
%TF.ProjectId,lalettre2040-tripple-stagger-hotswap-pcb,6c616c65-7474-4726-9532-3034302d7472,rev?*%
%TF.SameCoordinates,PX1ea85bbPY7e0978f*%
%TF.FileFunction,Legend,Bot*%
%TF.FilePolarity,Positive*%
%FSLAX46Y46*%
G04 Gerber Fmt 4.6, Leading zero omitted, Abs format (unit mm)*
G04 Created by KiCad (PCBNEW 7.0.6) date 2024-02-12 15:48:59*
%MOMM*%
%LPD*%
G01*
G04 APERTURE LIST*
G04 Aperture macros list*
%AMRoundRect*
0 Rectangle with rounded corners*
0 $1 Rounding radius*
0 $2 $3 $4 $5 $6 $7 $8 $9 X,Y pos of 4 corners*
0 Add a 4 corners polygon primitive as box body*
4,1,4,$2,$3,$4,$5,$6,$7,$8,$9,$2,$3,0*
0 Add four circle primitives for the rounded corners*
1,1,$1+$1,$2,$3*
1,1,$1+$1,$4,$5*
1,1,$1+$1,$6,$7*
1,1,$1+$1,$8,$9*
0 Add four rect primitives between the rounded corners*
20,1,$1+$1,$2,$3,$4,$5,0*
20,1,$1+$1,$4,$5,$6,$7,0*
20,1,$1+$1,$6,$7,$8,$9,0*
20,1,$1+$1,$8,$9,$2,$3,0*%
%AMRotRect*
0 Rectangle, with rotation*
0 The origin of the aperture is its center*
0 $1 length*
0 $2 width*
0 $3 Rotation angle, in degrees counterclockwise*
0 Add horizontal line*
21,1,$1,$2,0,0,$3*%
G04 Aperture macros list end*
%ADD10C,0.150000*%
%ADD11C,0.120000*%
%ADD12C,0.200000*%
%ADD13C,0.127000*%
%ADD14C,1.750000*%
%ADD15C,3.000000*%
%ADD16C,3.987800*%
%ADD17RotRect,2.486250X2.202500X187.000000*%
%ADD18RotRect,2.550000X2.500000X187.000000*%
%ADD19RotRect,2.576750X2.222500X187.000000*%
%ADD20RotRect,2.550000X2.500000X7.000000*%
%ADD21O,1.700000X1.700000*%
%ADD22R,1.700000X1.700000*%
%ADD23RoundRect,0.135000X-0.185000X0.135000X-0.185000X-0.135000X0.185000X-0.135000X0.185000X0.135000X0*%
%ADD24RoundRect,0.225000X0.399625X-0.177622X0.344784X0.269024X-0.399625X0.177622X-0.344784X-0.269024X0*%
%ADD25RotRect,2.550000X2.500000X173.000000*%
%ADD26RotRect,2.550000X2.500000X353.000000*%
%ADD27RoundRect,0.140000X0.140000X0.170000X-0.140000X0.170000X-0.140000X-0.170000X0.140000X-0.170000X0*%
%ADD28RoundRect,0.140000X0.170000X-0.140000X0.170000X0.140000X-0.170000X0.140000X-0.170000X-0.140000X0*%
%ADD29R,1.700000X1.000000*%
%ADD30RoundRect,0.225000X0.344784X-0.269024X0.399625X0.177622X-0.344784X0.269024X-0.399625X-0.177622X0*%
%ADD31RoundRect,0.140000X0.219203X0.021213X0.021213X0.219203X-0.219203X-0.021213X-0.021213X-0.219203X0*%
%ADD32RoundRect,0.250000X-0.350000X-0.650000X0.350000X-0.650000X0.350000X0.650000X-0.350000X0.650000X0*%
%ADD33RoundRect,0.150000X-0.150000X-0.625000X0.150000X-0.625000X0.150000X0.625000X-0.150000X0.625000X0*%
%ADD34RotRect,2.486250X2.500000X7.000000*%
%ADD35RoundRect,0.150000X0.650000X0.150000X-0.650000X0.150000X-0.650000X-0.150000X0.650000X-0.150000X0*%
%ADD36RoundRect,0.135000X-0.135000X-0.185000X0.135000X-0.185000X0.135000X0.185000X-0.135000X0.185000X0*%
%ADD37C,3.048000*%
%ADD38RoundRect,0.140000X0.021213X-0.219203X0.219203X-0.021213X-0.021213X0.219203X-0.219203X0.021213X0*%
%ADD39RoundRect,0.140000X-0.219203X-0.021213X-0.021213X-0.219203X0.219203X0.021213X0.021213X0.219203X0*%
%ADD40RoundRect,0.140000X-0.140000X-0.170000X0.140000X-0.170000X0.140000X0.170000X-0.140000X0.170000X0*%
%ADD41RoundRect,0.135000X0.035355X-0.226274X0.226274X-0.035355X-0.035355X0.226274X-0.226274X0.035355X0*%
%ADD42RotRect,2.486250X2.500000X173.000000*%
%ADD43RotRect,1.400000X1.200000X45.000000*%
%ADD44RoundRect,0.140000X-0.021213X0.219203X-0.219203X0.021213X0.021213X-0.219203X0.219203X-0.021213X0*%
%ADD45RoundRect,0.150000X0.587500X0.150000X-0.587500X0.150000X-0.587500X-0.150000X0.587500X-0.150000X0*%
%ADD46R,3.100000X3.100000*%
%ADD47RoundRect,0.020000X0.080000X0.400000X-0.080000X0.400000X-0.080000X-0.400000X0.080000X-0.400000X0*%
%ADD48RoundRect,0.006000X0.414000X0.094000X-0.414000X0.094000X-0.414000X-0.094000X0.414000X-0.094000X0*%
%ADD49RoundRect,0.140000X-0.170000X0.140000X-0.170000X-0.140000X0.170000X-0.140000X0.170000X0.140000X0*%
G04 APERTURE END LIST*
D10*
X72210618Y5971604D02*
X72565099Y5928079D01*
X72565099Y5928079D02*
X72686968Y6920625D01*
X71643449Y6041243D02*
X71707285Y6561149D01*
X71707285Y6561149D02*
X71754340Y6651324D01*
X71754340Y6651324D02*
X71831039Y6689883D01*
X71831039Y6689883D02*
X71972831Y6672474D01*
X71972831Y6672474D02*
X72037924Y6616504D01*
X71649252Y6088508D02*
X71714345Y6032538D01*
X71714345Y6032538D02*
X71891585Y6010776D01*
X71891585Y6010776D02*
X71968285Y6049335D01*
X71968285Y6049335D02*
X72015339Y6139511D01*
X72015339Y6139511D02*
X72026946Y6234039D01*
X72026946Y6234039D02*
X72003104Y6332920D01*
X72003104Y6332920D02*
X71938012Y6388889D01*
X71938012Y6388889D02*
X71760771Y6410651D01*
X71760771Y6410651D02*
X71695678Y6466620D01*
X70308028Y6301166D02*
X70337673Y6249549D01*
X70337673Y6249549D02*
X70438214Y6189228D01*
X70438214Y6189228D02*
X70509110Y6180523D01*
X70509110Y6180523D02*
X70621258Y6214729D01*
X70621258Y6214729D02*
X70703760Y6300553D01*
X70703760Y6300553D02*
X70750815Y6390728D01*
X70750815Y6390728D02*
X70809476Y6575432D01*
X70809476Y6575432D02*
X70826886Y6717225D01*
X70826886Y6717225D02*
X70814651Y6910633D01*
X70814651Y6910633D02*
X70790810Y7009514D01*
X70790810Y7009514D02*
X70731520Y7112747D01*
X70731520Y7112747D02*
X70630980Y7173069D01*
X70630980Y7173069D02*
X70560083Y7181774D01*
X70560083Y7181774D02*
X70447936Y7147567D01*
X70447936Y7147567D02*
X70406684Y7104656D01*
X69739603Y6946680D02*
X69658356Y6284982D01*
X70058635Y6907507D02*
X69994799Y6387602D01*
X69994799Y6387602D02*
X69947744Y6297426D01*
X69947744Y6297426D02*
X69871045Y6258867D01*
X69871045Y6258867D02*
X69764701Y6271925D01*
X69764701Y6271925D02*
X69699608Y6327894D01*
X69699608Y6327894D02*
X69669963Y6379510D01*
X69303876Y6328507D02*
X69385122Y6990204D01*
X69425745Y7321053D02*
X69455390Y7269436D01*
X69455390Y7269436D02*
X69414139Y7226525D01*
X69414139Y7226525D02*
X69384494Y7278141D01*
X69384494Y7278141D02*
X69425745Y7321053D01*
X69425745Y7321053D02*
X69414139Y7226525D01*
X68843051Y6385089D02*
X68919750Y6423648D01*
X68919750Y6423648D02*
X68966805Y6513824D01*
X68966805Y6513824D02*
X69071264Y7364578D01*
X68453122Y6432966D02*
X68529822Y6471525D01*
X68529822Y6471525D02*
X68576876Y6561701D01*
X68576876Y6561701D02*
X68681336Y7412455D01*
X67891756Y6549870D02*
X67956849Y6493901D01*
X67956849Y6493901D02*
X68098642Y6476491D01*
X68098642Y6476491D02*
X68175341Y6515050D01*
X68175341Y6515050D02*
X68222396Y6605226D01*
X68222396Y6605226D02*
X68268822Y6983339D01*
X68268822Y6983339D02*
X68244981Y7082219D01*
X68244981Y7082219D02*
X68179888Y7138188D01*
X68179888Y7138188D02*
X68038095Y7155598D01*
X68038095Y7155598D02*
X67961396Y7117039D01*
X67961396Y7117039D02*
X67914341Y7026863D01*
X67914341Y7026863D02*
X67902735Y6932335D01*
X67902735Y6932335D02*
X68245609Y6794282D01*
X68226314Y7516301D02*
X68102560Y7387566D01*
X67531472Y6546131D02*
X67612719Y7207828D01*
X67589505Y7018772D02*
X67565664Y7117652D01*
X67565664Y7117652D02*
X67536019Y7169269D01*
X67536019Y7169269D02*
X67470926Y7225238D01*
X67470926Y7225238D02*
X67400030Y7233943D01*
X66792866Y6684797D02*
X66857959Y6628828D01*
X66857959Y6628828D02*
X66999751Y6611418D01*
X66999751Y6611418D02*
X67076450Y6649977D01*
X67076450Y6649977D02*
X67123505Y6740153D01*
X67123505Y6740153D02*
X67169932Y7118266D01*
X67169932Y7118266D02*
X67146090Y7217146D01*
X67146090Y7217146D02*
X67080997Y7273115D01*
X67080997Y7273115D02*
X66939205Y7290525D01*
X66939205Y7290525D02*
X66862505Y7251966D01*
X66862505Y7251966D02*
X66815451Y7161790D01*
X66815451Y7161790D02*
X66803844Y7067262D01*
X66803844Y7067262D02*
X67146718Y6929209D01*
X66093626Y7730186D02*
X65668249Y7782416D01*
X65759068Y6763755D02*
X65880937Y7756301D01*
X65298243Y6820337D02*
X65379489Y7482034D01*
X65356276Y7292978D02*
X65332434Y7391858D01*
X65332434Y7391858D02*
X65302789Y7443475D01*
X65302789Y7443475D02*
X65237697Y7499444D01*
X65237697Y7499444D02*
X65166800Y7508149D01*
X64837417Y6876919D02*
X64918664Y7538616D01*
X64959287Y7869465D02*
X64988931Y7817849D01*
X64988931Y7817849D02*
X64947680Y7774937D01*
X64947680Y7774937D02*
X64918035Y7826554D01*
X64918035Y7826554D02*
X64959287Y7869465D01*
X64959287Y7869465D02*
X64947680Y7774937D01*
X64564183Y7582141D02*
X64442313Y6589595D01*
X64558379Y7534877D02*
X64493286Y7590846D01*
X64493286Y7590846D02*
X64351494Y7608256D01*
X64351494Y7608256D02*
X64274795Y7569697D01*
X64274795Y7569697D02*
X64233543Y7526785D01*
X64233543Y7526785D02*
X64186489Y7436610D01*
X64186489Y7436610D02*
X64151669Y7153025D01*
X64151669Y7153025D02*
X64175510Y7054144D01*
X64175510Y7054144D02*
X64205155Y7002528D01*
X64205155Y7002528D02*
X64270248Y6946559D01*
X64270248Y6946559D02*
X64412040Y6929149D01*
X64412040Y6929149D02*
X64488740Y6967708D01*
X63703079Y7016198D02*
X63779779Y7054757D01*
X63779779Y7054757D02*
X63826833Y7144933D01*
X63826833Y7144933D02*
X63931293Y7995687D01*
X63141713Y7133102D02*
X63206806Y7077133D01*
X63206806Y7077133D02*
X63348598Y7059723D01*
X63348598Y7059723D02*
X63425298Y7098282D01*
X63425298Y7098282D02*
X63472353Y7188458D01*
X63472353Y7188458D02*
X63518779Y7566571D01*
X63518779Y7566571D02*
X63494938Y7665451D01*
X63494938Y7665451D02*
X63429845Y7721420D01*
X63429845Y7721420D02*
X63288052Y7738830D01*
X63288052Y7738830D02*
X63211353Y7700271D01*
X63211353Y7700271D02*
X63164298Y7610095D01*
X63164298Y7610095D02*
X63152692Y7515567D01*
X63152692Y7515567D02*
X63495566Y7377514D01*
X62255511Y7241914D02*
X62143364Y7207707D01*
X62143364Y7207707D02*
X61966123Y7229470D01*
X61966123Y7229470D02*
X61901030Y7285439D01*
X61901030Y7285439D02*
X61871386Y7337055D01*
X61871386Y7337055D02*
X61847544Y7435936D01*
X61847544Y7435936D02*
X61859151Y7530464D01*
X61859151Y7530464D02*
X61906205Y7620640D01*
X61906205Y7620640D02*
X61947457Y7663551D01*
X61947457Y7663551D02*
X62024156Y7702111D01*
X62024156Y7702111D02*
X62171752Y7731965D01*
X62171752Y7731965D02*
X62248451Y7770524D01*
X62248451Y7770524D02*
X62289703Y7813436D01*
X62289703Y7813436D02*
X62336757Y7903611D01*
X62336757Y7903611D02*
X62348364Y7998140D01*
X62348364Y7998140D02*
X62324522Y8097020D01*
X62324522Y8097020D02*
X62294878Y8148637D01*
X62294878Y8148637D02*
X62229785Y8204606D01*
X62229785Y8204606D02*
X62052544Y8226368D01*
X62052544Y8226368D02*
X61940397Y8192162D01*
X61692888Y7934692D02*
X61409304Y7969512D01*
X61627167Y8278598D02*
X61522708Y7427844D01*
X61522708Y7427844D02*
X61475653Y7337668D01*
X61475653Y7337668D02*
X61398954Y7299109D01*
X61398954Y7299109D02*
X61328058Y7307814D01*
X60760889Y7377454D02*
X60824725Y7897359D01*
X60824725Y7897359D02*
X60871780Y7987535D01*
X60871780Y7987535D02*
X60948479Y8026094D01*
X60948479Y8026094D02*
X61090272Y8008684D01*
X61090272Y8008684D02*
X61155364Y7952715D01*
X60766692Y7424718D02*
X60831785Y7368749D01*
X60831785Y7368749D02*
X61009025Y7346986D01*
X61009025Y7346986D02*
X61085725Y7385546D01*
X61085725Y7385546D02*
X61132779Y7475721D01*
X61132779Y7475721D02*
X61144386Y7570250D01*
X61144386Y7570250D02*
X61120545Y7669130D01*
X61120545Y7669130D02*
X61055452Y7725099D01*
X61055452Y7725099D02*
X60878211Y7746862D01*
X60878211Y7746862D02*
X60813118Y7802831D01*
X60168622Y8121848D02*
X60069966Y7318358D01*
X60069966Y7318358D02*
X60093807Y7219478D01*
X60093807Y7219478D02*
X60123452Y7167861D01*
X60123452Y7167861D02*
X60188545Y7111892D01*
X60188545Y7111892D02*
X60294889Y7098835D01*
X60294889Y7098835D02*
X60371589Y7137394D01*
X60093179Y7507415D02*
X60158272Y7451446D01*
X60158272Y7451446D02*
X60300064Y7434036D01*
X60300064Y7434036D02*
X60376764Y7472595D01*
X60376764Y7472595D02*
X60418015Y7515507D01*
X60418015Y7515507D02*
X60465070Y7605682D01*
X60465070Y7605682D02*
X60499889Y7889267D01*
X60499889Y7889267D02*
X60476048Y7988148D01*
X60476048Y7988148D02*
X60446403Y8039764D01*
X60446403Y8039764D02*
X60381310Y8095733D01*
X60381310Y8095733D02*
X60239518Y8113143D01*
X60239518Y8113143D02*
X60162819Y8074584D01*
X59495109Y8204545D02*
X59396453Y7401055D01*
X59396453Y7401055D02*
X59420294Y7302175D01*
X59420294Y7302175D02*
X59449939Y7250558D01*
X59449939Y7250558D02*
X59515032Y7194589D01*
X59515032Y7194589D02*
X59621376Y7181532D01*
X59621376Y7181532D02*
X59698076Y7220091D01*
X59419666Y7590112D02*
X59484759Y7534143D01*
X59484759Y7534143D02*
X59626551Y7516733D01*
X59626551Y7516733D02*
X59703251Y7555292D01*
X59703251Y7555292D02*
X59744502Y7598204D01*
X59744502Y7598204D02*
X59791557Y7688379D01*
X59791557Y7688379D02*
X59826376Y7971964D01*
X59826376Y7971964D02*
X59802535Y8070845D01*
X59802535Y8070845D02*
X59772890Y8122461D01*
X59772890Y8122461D02*
X59707797Y8178430D01*
X59707797Y8178430D02*
X59566005Y8195840D01*
X59566005Y8195840D02*
X59489306Y8157281D01*
X58781601Y7668456D02*
X58846694Y7612487D01*
X58846694Y7612487D02*
X58988486Y7595077D01*
X58988486Y7595077D02*
X59065186Y7633637D01*
X59065186Y7633637D02*
X59112240Y7723812D01*
X59112240Y7723812D02*
X59158667Y8101925D01*
X59158667Y8101925D02*
X59134825Y8200806D01*
X59134825Y8200806D02*
X59069732Y8256775D01*
X59069732Y8256775D02*
X58927940Y8274185D01*
X58927940Y8274185D02*
X58851241Y8235626D01*
X58851241Y8235626D02*
X58804186Y8145450D01*
X58804186Y8145450D02*
X58792579Y8050922D01*
X58792579Y8050922D02*
X59135454Y7912869D01*
X58421317Y7664717D02*
X58502563Y8326414D01*
X58479350Y8137358D02*
X58455509Y8236239D01*
X58455509Y8236239D02*
X58425864Y8287855D01*
X58425864Y8287855D02*
X58360771Y8343824D01*
X58360771Y8343824D02*
X58289875Y8352529D01*
X57393322Y7790939D02*
X57515191Y8783485D01*
X57515191Y8783485D02*
X57231607Y8818305D01*
X57231607Y8818305D02*
X57154907Y8779746D01*
X57154907Y8779746D02*
X57113656Y8736834D01*
X57113656Y8736834D02*
X57066601Y8646658D01*
X57066601Y8646658D02*
X57049191Y8504866D01*
X57049191Y8504866D02*
X57073033Y8405985D01*
X57073033Y8405985D02*
X57102678Y8354369D01*
X57102678Y8354369D02*
X57167771Y8298400D01*
X57167771Y8298400D02*
X57451355Y8263580D01*
X56235142Y8029099D02*
X56264787Y7977482D01*
X56264787Y7977482D02*
X56365328Y7917161D01*
X56365328Y7917161D02*
X56436224Y7908456D01*
X56436224Y7908456D02*
X56548372Y7942663D01*
X56548372Y7942663D02*
X56630874Y8028486D01*
X56630874Y8028486D02*
X56677929Y8118661D01*
X56677929Y8118661D02*
X56736590Y8303365D01*
X56736590Y8303365D02*
X56754000Y8445158D01*
X56754000Y8445158D02*
X56741765Y8638567D01*
X56741765Y8638567D02*
X56717924Y8737447D01*
X56717924Y8737447D02*
X56658634Y8840680D01*
X56658634Y8840680D02*
X56558093Y8901002D01*
X56558093Y8901002D02*
X56487197Y8909707D01*
X56487197Y8909707D02*
X56375050Y8875500D01*
X56375050Y8875500D02*
X56333798Y8832589D01*
X55720203Y8524115D02*
X55608055Y8489909D01*
X55608055Y8489909D02*
X55566804Y8446997D01*
X55566804Y8446997D02*
X55519749Y8356821D01*
X55519749Y8356821D02*
X55502339Y8215029D01*
X55502339Y8215029D02*
X55526181Y8116148D01*
X55526181Y8116148D02*
X55555825Y8064532D01*
X55555825Y8064532D02*
X55620918Y8008563D01*
X55620918Y8008563D02*
X55904503Y7973743D01*
X55904503Y7973743D02*
X56026372Y8966289D01*
X56026372Y8966289D02*
X55778236Y8996756D01*
X55778236Y8996756D02*
X55701536Y8958197D01*
X55701536Y8958197D02*
X55660285Y8915286D01*
X55660285Y8915286D02*
X55613230Y8825110D01*
X55613230Y8825110D02*
X55601624Y8730582D01*
X55601624Y8730582D02*
X55625465Y8631701D01*
X55625465Y8631701D02*
X55655110Y8580085D01*
X55655110Y8580085D02*
X55720203Y8524115D01*
X55720203Y8524115D02*
X55968339Y8493648D01*
X54745066Y8787777D02*
X54486579Y8147842D01*
X54486579Y8147842D02*
X54390585Y8831302D01*
X53635825Y8252302D02*
X54061202Y8200072D01*
X53848514Y8226187D02*
X53970383Y9218733D01*
X53970383Y9218733D02*
X54023869Y9068236D01*
X54023869Y9068236D02*
X54083159Y8965002D01*
X54083159Y8965002D02*
X54148252Y8909033D01*
X53328399Y8386002D02*
X53287147Y8343090D01*
X53287147Y8343090D02*
X53316792Y8291474D01*
X53316792Y8291474D02*
X53358044Y8334386D01*
X53358044Y8334386D02*
X53328399Y8386002D01*
X53328399Y8386002D02*
X53316792Y8291474D01*
X52942388Y9344955D02*
X52871492Y9353660D01*
X52871492Y9353660D02*
X52794793Y9315101D01*
X52794793Y9315101D02*
X52753541Y9272189D01*
X52753541Y9272189D02*
X52706487Y9182013D01*
X52706487Y9182013D02*
X52647825Y8997309D01*
X52647825Y8997309D02*
X52618809Y8760989D01*
X52618809Y8760989D02*
X52631044Y8567580D01*
X52631044Y8567580D02*
X52654885Y8468699D01*
X52654885Y8468699D02*
X52684530Y8417083D01*
X52684530Y8417083D02*
X52749623Y8361114D01*
X52749623Y8361114D02*
X52820519Y8352409D01*
X52820519Y8352409D02*
X52897218Y8390968D01*
X52897218Y8390968D02*
X52938470Y8433879D01*
X52938470Y8433879D02*
X52985524Y8524055D01*
X52985524Y8524055D02*
X53044186Y8708759D01*
X53044186Y8708759D02*
X53073202Y8945080D01*
X53073202Y8945080D02*
X53060967Y9138488D01*
X53060967Y9138488D02*
X53037126Y9237369D01*
X53037126Y9237369D02*
X53007481Y9288986D01*
X53007481Y9288986D02*
X52942388Y9344955D01*
X51831891Y9385353D02*
X51802246Y9436970D01*
X51802246Y9436970D02*
X51737153Y9492939D01*
X51737153Y9492939D02*
X51559913Y9514701D01*
X51559913Y9514701D02*
X51483213Y9476142D01*
X51483213Y9476142D02*
X51441962Y9433231D01*
X51441962Y9433231D02*
X51394907Y9343055D01*
X51394907Y9343055D02*
X51383300Y9248527D01*
X51383300Y9248527D02*
X51401339Y9102382D01*
X51401339Y9102382D02*
X51757076Y8482983D01*
X51757076Y8482983D02*
X51296251Y8539565D01*
X50957295Y9588694D02*
X50886399Y9597399D01*
X50886399Y9597399D02*
X50809699Y9558839D01*
X50809699Y9558839D02*
X50768448Y9515928D01*
X50768448Y9515928D02*
X50721393Y9425752D01*
X50721393Y9425752D02*
X50662732Y9241048D01*
X50662732Y9241048D02*
X50633716Y9004728D01*
X50633716Y9004728D02*
X50645950Y8811319D01*
X50645950Y8811319D02*
X50669792Y8712438D01*
X50669792Y8712438D02*
X50699437Y8660821D01*
X50699437Y8660821D02*
X50764530Y8604852D01*
X50764530Y8604852D02*
X50835426Y8596147D01*
X50835426Y8596147D02*
X50912125Y8634707D01*
X50912125Y8634707D02*
X50953377Y8677618D01*
X50953377Y8677618D02*
X51000431Y8767794D01*
X51000431Y8767794D02*
X51059092Y8952498D01*
X51059092Y8952498D02*
X51088109Y9188818D01*
X51088109Y9188818D02*
X51075874Y9382227D01*
X51075874Y9382227D02*
X51052033Y9481108D01*
X51052033Y9481108D02*
X51022388Y9532725D01*
X51022388Y9532725D02*
X50957295Y9588694D01*
X50413967Y9559453D02*
X50384322Y9611069D01*
X50384322Y9611069D02*
X50319229Y9667038D01*
X50319229Y9667038D02*
X50141989Y9688801D01*
X50141989Y9688801D02*
X50065290Y9650241D01*
X50065290Y9650241D02*
X50024038Y9607330D01*
X50024038Y9607330D02*
X49976983Y9517154D01*
X49976983Y9517154D02*
X49965377Y9422626D01*
X49965377Y9422626D02*
X49983415Y9276481D01*
X49983415Y9276481D02*
X50339152Y8657082D01*
X50339152Y8657082D02*
X49878327Y8713664D01*
X49321508Y9453706D02*
X49240262Y8792009D01*
X49545175Y9810057D02*
X49635366Y9079333D01*
X49635366Y9079333D02*
X49174541Y9135915D01*
X72368889Y4330080D02*
X72490758Y5322626D01*
X72049856Y4369252D02*
X72113692Y4889157D01*
X72113692Y4889157D02*
X72160747Y4979333D01*
X72160747Y4979333D02*
X72237447Y5017892D01*
X72237447Y5017892D02*
X72343791Y5004835D01*
X72343791Y5004835D02*
X72408884Y4948866D01*
X72408884Y4948866D02*
X72438528Y4897249D01*
X71882966Y5061417D02*
X71599382Y5096237D01*
X71817245Y5405323D02*
X71712786Y4554569D01*
X71712786Y4554569D02*
X71665731Y4464394D01*
X71665731Y4464394D02*
X71589031Y4425834D01*
X71589031Y4425834D02*
X71518135Y4434539D01*
X71457590Y5113647D02*
X71174005Y5148467D01*
X71391869Y5457553D02*
X71287409Y4606799D01*
X71287409Y4606799D02*
X71240354Y4516623D01*
X71240354Y4516623D02*
X71163655Y4478064D01*
X71163655Y4478064D02*
X71092759Y4486769D01*
X70925869Y5178934D02*
X70804000Y4186388D01*
X70920066Y5131670D02*
X70854973Y5187639D01*
X70854973Y5187639D02*
X70713180Y5205049D01*
X70713180Y5205049D02*
X70636481Y5166490D01*
X70636481Y5166490D02*
X70595230Y5123578D01*
X70595230Y5123578D02*
X70548175Y5033402D01*
X70548175Y5033402D02*
X70513355Y4749818D01*
X70513355Y4749818D02*
X70537197Y4650937D01*
X70537197Y4650937D02*
X70566841Y4599320D01*
X70566841Y4599320D02*
X70631934Y4543351D01*
X70631934Y4543351D02*
X70773727Y4525941D01*
X70773727Y4525941D02*
X70850426Y4564500D01*
X70212361Y4642845D02*
X70135662Y4604286D01*
X70135662Y4604286D02*
X69993869Y4621696D01*
X69993869Y4621696D02*
X69928776Y4677665D01*
X69928776Y4677665D02*
X69904935Y4776545D01*
X69904935Y4776545D02*
X69910738Y4823810D01*
X69910738Y4823810D02*
X69957793Y4913985D01*
X69957793Y4913985D02*
X70034492Y4952544D01*
X70034492Y4952544D02*
X70140837Y4939487D01*
X70140837Y4939487D02*
X70217536Y4978046D01*
X70217536Y4978046D02*
X70264591Y5068222D01*
X70264591Y5068222D02*
X70270394Y5115486D01*
X70270394Y5115486D02*
X70246553Y5214367D01*
X70246553Y5214367D02*
X70181460Y5270336D01*
X70181460Y5270336D02*
X70075116Y5283393D01*
X70075116Y5283393D02*
X69998416Y5244834D01*
X69580099Y4768454D02*
X69538847Y4725542D01*
X69538847Y4725542D02*
X69568492Y4673925D01*
X69568492Y4673925D02*
X69609744Y4716837D01*
X69609744Y4716837D02*
X69580099Y4768454D01*
X69580099Y4768454D02*
X69568492Y4673925D01*
X69643935Y5288359D02*
X69602684Y5245447D01*
X69602684Y5245447D02*
X69632329Y5193831D01*
X69632329Y5193831D02*
X69673580Y5236742D01*
X69673580Y5236742D02*
X69643935Y5288359D01*
X69643935Y5288359D02*
X69632329Y5193831D01*
X68809963Y5822548D02*
X69291339Y4468072D01*
X68030105Y5918302D02*
X68511482Y4563827D01*
X67416510Y5609829D02*
X67317854Y4806339D01*
X67317854Y4806339D02*
X67341695Y4707458D01*
X67341695Y4707458D02*
X67371340Y4655842D01*
X67371340Y4655842D02*
X67436433Y4599873D01*
X67436433Y4599873D02*
X67542777Y4586815D01*
X67542777Y4586815D02*
X67619477Y4625375D01*
X67341067Y4995396D02*
X67406160Y4939427D01*
X67406160Y4939427D02*
X67547952Y4922017D01*
X67547952Y4922017D02*
X67624652Y4960576D01*
X67624652Y4960576D02*
X67665903Y5003487D01*
X67665903Y5003487D02*
X67712958Y5093663D01*
X67712958Y5093663D02*
X67747778Y5377248D01*
X67747778Y5377248D02*
X67723936Y5476128D01*
X67723936Y5476128D02*
X67694291Y5527745D01*
X67694291Y5527745D02*
X67629199Y5583714D01*
X67629199Y5583714D02*
X67487406Y5601124D01*
X67487406Y5601124D02*
X67410707Y5562565D01*
X66980783Y4991656D02*
X67062030Y5653354D01*
X67102653Y5984202D02*
X67132298Y5932586D01*
X67132298Y5932586D02*
X67091046Y5889674D01*
X67091046Y5889674D02*
X67061401Y5941291D01*
X67061401Y5941291D02*
X67102653Y5984202D01*
X67102653Y5984202D02*
X67091046Y5889674D01*
X66813893Y5683821D02*
X66530308Y5718641D01*
X66748172Y6027727D02*
X66643712Y5176973D01*
X66643712Y5176973D02*
X66596658Y5086798D01*
X66596658Y5086798D02*
X66519958Y5048238D01*
X66519958Y5048238D02*
X66449062Y5056943D01*
X66200926Y5087411D02*
X66322795Y6079957D01*
X65881893Y5126583D02*
X65945730Y5646488D01*
X65945730Y5646488D02*
X65992784Y5736664D01*
X65992784Y5736664D02*
X66069484Y5775223D01*
X66069484Y5775223D02*
X66175828Y5762165D01*
X66175828Y5762165D02*
X66240921Y5706196D01*
X66240921Y5706196D02*
X66270566Y5654580D01*
X65289627Y5870977D02*
X65208380Y5209280D01*
X65608659Y5831805D02*
X65544823Y5311900D01*
X65544823Y5311900D02*
X65497768Y5221724D01*
X65497768Y5221724D02*
X65421069Y5183165D01*
X65421069Y5183165D02*
X65314725Y5196222D01*
X65314725Y5196222D02*
X65249632Y5252192D01*
X65249632Y5252192D02*
X65219987Y5303808D01*
X64853900Y5252805D02*
X64975769Y6245351D01*
X64929343Y5867238D02*
X64864250Y5923207D01*
X64864250Y5923207D02*
X64722458Y5940617D01*
X64722458Y5940617D02*
X64645758Y5902058D01*
X64645758Y5902058D02*
X64604507Y5859146D01*
X64604507Y5859146D02*
X64557452Y5768970D01*
X64557452Y5768970D02*
X64522632Y5485386D01*
X64522632Y5485386D02*
X64546474Y5386505D01*
X64546474Y5386505D02*
X64576119Y5334889D01*
X64576119Y5334889D02*
X64641212Y5278919D01*
X64641212Y5278919D02*
X64783004Y5261510D01*
X64783004Y5261510D02*
X64859703Y5300069D01*
X64191994Y5430030D02*
X64150742Y5387118D01*
X64150742Y5387118D02*
X64180387Y5335502D01*
X64180387Y5335502D02*
X64221638Y5378413D01*
X64221638Y5378413D02*
X64191994Y5430030D01*
X64191994Y5430030D02*
X64180387Y5335502D01*
X63512677Y5465463D02*
X63577770Y5409494D01*
X63577770Y5409494D02*
X63719562Y5392084D01*
X63719562Y5392084D02*
X63796261Y5430643D01*
X63796261Y5430643D02*
X63837513Y5473555D01*
X63837513Y5473555D02*
X63884567Y5563730D01*
X63884567Y5563730D02*
X63919387Y5847315D01*
X63919387Y5847315D02*
X63895546Y5946196D01*
X63895546Y5946196D02*
X63865901Y5997812D01*
X63865901Y5997812D02*
X63800808Y6053781D01*
X63800808Y6053781D02*
X63659016Y6071191D01*
X63659016Y6071191D02*
X63582316Y6032632D01*
X63081497Y5470428D02*
X63158196Y5508988D01*
X63158196Y5508988D02*
X63199447Y5551899D01*
X63199447Y5551899D02*
X63246502Y5642075D01*
X63246502Y5642075D02*
X63281322Y5925660D01*
X63281322Y5925660D02*
X63257480Y6024540D01*
X63257480Y6024540D02*
X63227836Y6076157D01*
X63227836Y6076157D02*
X63162743Y6132126D01*
X63162743Y6132126D02*
X63056399Y6145183D01*
X63056399Y6145183D02*
X62979699Y6106624D01*
X62979699Y6106624D02*
X62938448Y6063712D01*
X62938448Y6063712D02*
X62891393Y5973537D01*
X62891393Y5973537D02*
X62856573Y5689952D01*
X62856573Y5689952D02*
X62880415Y5591071D01*
X62880415Y5591071D02*
X62910060Y5539455D01*
X62910060Y5539455D02*
X62975152Y5483486D01*
X62975152Y5483486D02*
X63081497Y5470428D01*
X62514328Y5540068D02*
X62595574Y6201765D01*
X62583967Y6107237D02*
X62554323Y6158854D01*
X62554323Y6158854D02*
X62489230Y6214823D01*
X62489230Y6214823D02*
X62382886Y6227880D01*
X62382886Y6227880D02*
X62306186Y6189321D01*
X62306186Y6189321D02*
X62259131Y6099145D01*
X62259131Y6099145D02*
X62195295Y5579240D01*
X62259131Y6099145D02*
X62235290Y6198026D01*
X62235290Y6198026D02*
X62170197Y6253995D01*
X62170197Y6253995D02*
X62063853Y6267053D01*
X62063853Y6267053D02*
X61987153Y6228493D01*
X61987153Y6228493D02*
X61940099Y6138318D01*
X61940099Y6138318D02*
X61876262Y5618413D01*
X61117733Y6767035D02*
X61599109Y5412559D01*
X60741924Y5757692D02*
X60863794Y6750238D01*
X60817367Y6372125D02*
X60752274Y6428094D01*
X60752274Y6428094D02*
X60610482Y6445504D01*
X60610482Y6445504D02*
X60533783Y6406945D01*
X60533783Y6406945D02*
X60492531Y6364033D01*
X60492531Y6364033D02*
X60445476Y6273858D01*
X60445476Y6273858D02*
X60410657Y5990273D01*
X60410657Y5990273D02*
X60434498Y5891392D01*
X60434498Y5891392D02*
X60464143Y5839776D01*
X60464143Y5839776D02*
X60529236Y5783807D01*
X60529236Y5783807D02*
X60671028Y5766397D01*
X60671028Y5766397D02*
X60747728Y5804956D01*
X59749379Y5879561D02*
X59813215Y6399466D01*
X59813215Y6399466D02*
X59860270Y6489642D01*
X59860270Y6489642D02*
X59936969Y6528201D01*
X59936969Y6528201D02*
X60078761Y6510791D01*
X60078761Y6510791D02*
X60143854Y6454822D01*
X59755182Y5926825D02*
X59820275Y5870856D01*
X59820275Y5870856D02*
X59997515Y5849094D01*
X59997515Y5849094D02*
X60074215Y5887653D01*
X60074215Y5887653D02*
X60121269Y5977829D01*
X60121269Y5977829D02*
X60132876Y6072357D01*
X60132876Y6072357D02*
X60109034Y6171237D01*
X60109034Y6171237D02*
X60043941Y6227207D01*
X60043941Y6227207D02*
X59866701Y6248969D01*
X59866701Y6248969D02*
X59801608Y6304938D01*
X59081669Y6009522D02*
X59146762Y5953553D01*
X59146762Y5953553D02*
X59288554Y5936143D01*
X59288554Y5936143D02*
X59365253Y5974702D01*
X59365253Y5974702D02*
X59406505Y6017614D01*
X59406505Y6017614D02*
X59453559Y6107790D01*
X59453559Y6107790D02*
X59488379Y6391374D01*
X59488379Y6391374D02*
X59464538Y6490255D01*
X59464538Y6490255D02*
X59434893Y6541872D01*
X59434893Y6541872D02*
X59369800Y6597841D01*
X59369800Y6597841D02*
X59228008Y6615251D01*
X59228008Y6615251D02*
X59151308Y6576691D01*
X58650489Y6014488D02*
X58727188Y6053047D01*
X58727188Y6053047D02*
X58768440Y6095959D01*
X58768440Y6095959D02*
X58815494Y6186134D01*
X58815494Y6186134D02*
X58850314Y6469719D01*
X58850314Y6469719D02*
X58826473Y6568600D01*
X58826473Y6568600D02*
X58796828Y6620216D01*
X58796828Y6620216D02*
X58731735Y6676185D01*
X58731735Y6676185D02*
X58625391Y6689243D01*
X58625391Y6689243D02*
X58548691Y6650683D01*
X58548691Y6650683D02*
X58507440Y6607772D01*
X58507440Y6607772D02*
X58460385Y6517596D01*
X58460385Y6517596D02*
X58425565Y6234012D01*
X58425565Y6234012D02*
X58449407Y6135131D01*
X58449407Y6135131D02*
X58479052Y6083514D01*
X58479052Y6083514D02*
X58544144Y6027545D01*
X58544144Y6027545D02*
X58650489Y6014488D01*
X58164566Y6745825D02*
X58083320Y6084127D01*
X58152960Y6651297D02*
X58123315Y6702913D01*
X58123315Y6702913D02*
X58058222Y6758882D01*
X58058222Y6758882D02*
X57951878Y6771940D01*
X57951878Y6771940D02*
X57875178Y6733380D01*
X57875178Y6733380D02*
X57828124Y6643205D01*
X57828124Y6643205D02*
X57764287Y6123300D01*
X57451058Y6209736D02*
X57374359Y6171177D01*
X57374359Y6171177D02*
X57232566Y6188587D01*
X57232566Y6188587D02*
X57167474Y6244556D01*
X57167474Y6244556D02*
X57143632Y6343436D01*
X57143632Y6343436D02*
X57149435Y6390701D01*
X57149435Y6390701D02*
X57196490Y6480876D01*
X57196490Y6480876D02*
X57273190Y6519435D01*
X57273190Y6519435D02*
X57379534Y6506378D01*
X57379534Y6506378D02*
X57456233Y6544937D01*
X57456233Y6544937D02*
X57503288Y6635113D01*
X57503288Y6635113D02*
X57509091Y6682377D01*
X57509091Y6682377D02*
X57485250Y6781258D01*
X57485250Y6781258D02*
X57420157Y6837227D01*
X57420157Y6837227D02*
X57313813Y6850284D01*
X57313813Y6850284D02*
X57237113Y6811725D01*
X56888436Y6902514D02*
X56766566Y5909968D01*
X56882632Y6855250D02*
X56817539Y6911219D01*
X56817539Y6911219D02*
X56675747Y6928629D01*
X56675747Y6928629D02*
X56599048Y6890070D01*
X56599048Y6890070D02*
X56557796Y6847158D01*
X56557796Y6847158D02*
X56510742Y6756982D01*
X56510742Y6756982D02*
X56475922Y6473398D01*
X56475922Y6473398D02*
X56499763Y6374517D01*
X56499763Y6374517D02*
X56529408Y6322900D01*
X56529408Y6322900D02*
X56594501Y6266931D01*
X56594501Y6266931D02*
X56736293Y6249521D01*
X56736293Y6249521D02*
X56812993Y6288081D01*
X56027332Y6336571D02*
X56104032Y6375130D01*
X56104032Y6375130D02*
X56145283Y6418042D01*
X56145283Y6418042D02*
X56192338Y6508217D01*
X56192338Y6508217D02*
X56227157Y6791802D01*
X56227157Y6791802D02*
X56203316Y6890683D01*
X56203316Y6890683D02*
X56173671Y6942299D01*
X56173671Y6942299D02*
X56108578Y6998268D01*
X56108578Y6998268D02*
X56002234Y7011326D01*
X56002234Y7011326D02*
X55925535Y6972767D01*
X55925535Y6972767D02*
X55884283Y6929855D01*
X55884283Y6929855D02*
X55837229Y6839679D01*
X55837229Y6839679D02*
X55802409Y6556095D01*
X55802409Y6556095D02*
X55826250Y6457214D01*
X55826250Y6457214D02*
X55855895Y6405597D01*
X55855895Y6405597D02*
X55920988Y6349628D01*
X55920988Y6349628D02*
X56027332Y6336571D01*
X55353819Y6419268D02*
X55430519Y6457827D01*
X55430519Y6457827D02*
X55471770Y6500739D01*
X55471770Y6500739D02*
X55518825Y6590914D01*
X55518825Y6590914D02*
X55553644Y6874499D01*
X55553644Y6874499D02*
X55529803Y6973380D01*
X55529803Y6973380D02*
X55500158Y7024996D01*
X55500158Y7024996D02*
X55435065Y7080965D01*
X55435065Y7080965D02*
X55328721Y7094023D01*
X55328721Y7094023D02*
X55252022Y7055464D01*
X55252022Y7055464D02*
X55210770Y7012552D01*
X55210770Y7012552D02*
X55163716Y6922376D01*
X55163716Y6922376D02*
X55128896Y6638792D01*
X55128896Y6638792D02*
X55152737Y6539911D01*
X55152737Y6539911D02*
X55182382Y6488294D01*
X55182382Y6488294D02*
X55247475Y6432325D01*
X55247475Y6432325D02*
X55353819Y6419268D01*
X54867897Y7150605D02*
X54786650Y6488907D01*
X54856290Y7056077D02*
X54826645Y7107693D01*
X54826645Y7107693D02*
X54761552Y7163662D01*
X54761552Y7163662D02*
X54655208Y7176720D01*
X54655208Y7176720D02*
X54578509Y7138161D01*
X54578509Y7138161D02*
X54531454Y7047985D01*
X54531454Y7047985D02*
X54467618Y6528080D01*
X54076433Y7151831D02*
X54153132Y7190390D01*
X54153132Y7190390D02*
X54194383Y7233302D01*
X54194383Y7233302D02*
X54241438Y7323478D01*
X54241438Y7323478D02*
X54247241Y7370742D01*
X54247241Y7370742D02*
X54223400Y7469622D01*
X54223400Y7469622D02*
X54193755Y7521239D01*
X54193755Y7521239D02*
X54128662Y7577208D01*
X54128662Y7577208D02*
X53986870Y7594618D01*
X53986870Y7594618D02*
X53910171Y7556059D01*
X53910171Y7556059D02*
X53868919Y7513147D01*
X53868919Y7513147D02*
X53821865Y7422971D01*
X53821865Y7422971D02*
X53816061Y7375707D01*
X53816061Y7375707D02*
X53839903Y7276827D01*
X53839903Y7276827D02*
X53869548Y7225210D01*
X53869548Y7225210D02*
X53934640Y7169241D01*
X53934640Y7169241D02*
X54076433Y7151831D01*
X54076433Y7151831D02*
X54141526Y7095862D01*
X54141526Y7095862D02*
X54171170Y7044245D01*
X54171170Y7044245D02*
X54195012Y6945365D01*
X54195012Y6945365D02*
X54171799Y6756308D01*
X54171799Y6756308D02*
X54124744Y6666133D01*
X54124744Y6666133D02*
X54083492Y6623221D01*
X54083492Y6623221D02*
X54006793Y6584662D01*
X54006793Y6584662D02*
X53865001Y6602072D01*
X53865001Y6602072D02*
X53799908Y6658041D01*
X53799908Y6658041D02*
X53770263Y6709657D01*
X53770263Y6709657D02*
X53746422Y6808538D01*
X53746422Y6808538D02*
X53769635Y6997595D01*
X53769635Y6997595D02*
X53816690Y7087770D01*
X53816690Y7087770D02*
X53857941Y7130682D01*
X53857941Y7130682D02*
X53934640Y7169241D01*
X53171564Y7694725D02*
X53526045Y7651200D01*
X53526045Y7651200D02*
X53503460Y7174207D01*
X53503460Y7174207D02*
X53473815Y7225823D01*
X53473815Y7225823D02*
X53408722Y7281792D01*
X53408722Y7281792D02*
X53231482Y7303555D01*
X53231482Y7303555D02*
X53154782Y7264996D01*
X53154782Y7264996D02*
X53113531Y7222084D01*
X53113531Y7222084D02*
X53066476Y7131908D01*
X53066476Y7131908D02*
X53037460Y6895588D01*
X53037460Y6895588D02*
X53061301Y6796707D01*
X53061301Y6796707D02*
X53090946Y6745090D01*
X53090946Y6745090D02*
X53156039Y6689121D01*
X53156039Y6689121D02*
X53333279Y6667359D01*
X53333279Y6667359D02*
X53409979Y6705918D01*
X53409979Y6705918D02*
X53451230Y6748830D01*
X52291165Y7850801D02*
X52772541Y6496326D01*
X51809012Y6854515D02*
X51885711Y6893075D01*
X51885711Y6893075D02*
X51932766Y6983250D01*
X51932766Y6983250D02*
X52037226Y7834004D01*
X51206395Y6928508D02*
X51270231Y7448413D01*
X51270231Y7448413D02*
X51317286Y7538588D01*
X51317286Y7538588D02*
X51393985Y7577148D01*
X51393985Y7577148D02*
X51535778Y7559738D01*
X51535778Y7559738D02*
X51600870Y7503769D01*
X51212198Y6975772D02*
X51277291Y6919803D01*
X51277291Y6919803D02*
X51454531Y6898040D01*
X51454531Y6898040D02*
X51531231Y6936599D01*
X51531231Y6936599D02*
X51578285Y7026775D01*
X51578285Y7026775D02*
X51589892Y7121303D01*
X51589892Y7121303D02*
X51566051Y7220184D01*
X51566051Y7220184D02*
X51500958Y7276153D01*
X51500958Y7276153D02*
X51323717Y7297915D01*
X51323717Y7297915D02*
X51258625Y7353884D01*
X50898341Y7350145D02*
X50331172Y7419785D01*
X49823921Y7098254D02*
X49900620Y7136813D01*
X49900620Y7136813D02*
X49947675Y7226989D01*
X49947675Y7226989D02*
X50052134Y8077743D01*
X49262555Y7215158D02*
X49327648Y7159189D01*
X49327648Y7159189D02*
X49469440Y7141779D01*
X49469440Y7141779D02*
X49546140Y7180338D01*
X49546140Y7180338D02*
X49593194Y7270514D01*
X49593194Y7270514D02*
X49639621Y7648626D01*
X49639621Y7648626D02*
X49615779Y7747507D01*
X49615779Y7747507D02*
X49550686Y7803476D01*
X49550686Y7803476D02*
X49408894Y7820886D01*
X49408894Y7820886D02*
X49332195Y7782327D01*
X49332195Y7782327D02*
X49285140Y7692151D01*
X49285140Y7692151D02*
X49273533Y7597623D01*
X49273533Y7597623D02*
X49616407Y7459570D01*
X49089861Y7860058D02*
X48806277Y7894878D01*
X49024140Y8203965D02*
X48919681Y7353211D01*
X48919681Y7353211D02*
X48872626Y7263035D01*
X48872626Y7263035D02*
X48795927Y7224476D01*
X48795927Y7224476D02*
X48725031Y7233181D01*
X48664485Y7912288D02*
X48380900Y7947108D01*
X48598764Y8256194D02*
X48494304Y7405440D01*
X48494304Y7405440D02*
X48447250Y7315265D01*
X48447250Y7315265D02*
X48370550Y7276705D01*
X48370550Y7276705D02*
X48299654Y7285410D01*
X48051518Y7315878D02*
X48132764Y7977575D01*
X48109551Y7788519D02*
X48085710Y7887399D01*
X48085710Y7887399D02*
X48056065Y7939016D01*
X48056065Y7939016D02*
X47990972Y7994985D01*
X47990972Y7994985D02*
X47920076Y8003690D01*
X47312911Y7454544D02*
X47378004Y7398575D01*
X47378004Y7398575D02*
X47519797Y7381165D01*
X47519797Y7381165D02*
X47596496Y7419724D01*
X47596496Y7419724D02*
X47643551Y7509900D01*
X47643551Y7509900D02*
X47689977Y7888013D01*
X47689977Y7888013D02*
X47666136Y7986893D01*
X47666136Y7986893D02*
X47601043Y8042862D01*
X47601043Y8042862D02*
X47459250Y8060272D01*
X47459250Y8060272D02*
X47382551Y8021713D01*
X47382551Y8021713D02*
X47335496Y7931537D01*
X47335496Y7931537D02*
X47323890Y7837009D01*
X47323890Y7837009D02*
X47666764Y7698956D01*
X123953158Y5612386D02*
X123334111Y5612386D01*
X123334111Y5612386D02*
X123667444Y5231434D01*
X123667444Y5231434D02*
X123524587Y5231434D01*
X123524587Y5231434D02*
X123429349Y5183815D01*
X123429349Y5183815D02*
X123381730Y5136196D01*
X123381730Y5136196D02*
X123334111Y5040958D01*
X123334111Y5040958D02*
X123334111Y4802863D01*
X123334111Y4802863D02*
X123381730Y4707625D01*
X123381730Y4707625D02*
X123429349Y4660005D01*
X123429349Y4660005D02*
X123524587Y4612386D01*
X123524587Y4612386D02*
X123810301Y4612386D01*
X123810301Y4612386D02*
X123905539Y4660005D01*
X123905539Y4660005D02*
X123953158Y4707625D01*
X123048396Y5612386D02*
X122715063Y4612386D01*
X122715063Y4612386D02*
X122381730Y5612386D01*
X122143634Y5612386D02*
X121524587Y5612386D01*
X121524587Y5612386D02*
X121857920Y5231434D01*
X121857920Y5231434D02*
X121715063Y5231434D01*
X121715063Y5231434D02*
X121619825Y5183815D01*
X121619825Y5183815D02*
X121572206Y5136196D01*
X121572206Y5136196D02*
X121524587Y5040958D01*
X121524587Y5040958D02*
X121524587Y4802863D01*
X121524587Y4802863D02*
X121572206Y4707625D01*
X121572206Y4707625D02*
X121619825Y4660005D01*
X121619825Y4660005D02*
X121715063Y4612386D01*
X121715063Y4612386D02*
X122000777Y4612386D01*
X122000777Y4612386D02*
X122096015Y4660005D01*
X122096015Y4660005D02*
X122143634Y4707625D01*
X115666492Y897625D02*
X115714111Y850005D01*
X115714111Y850005D02*
X115856968Y802386D01*
X115856968Y802386D02*
X115952206Y802386D01*
X115952206Y802386D02*
X116095063Y850005D01*
X116095063Y850005D02*
X116190301Y945244D01*
X116190301Y945244D02*
X116237920Y1040482D01*
X116237920Y1040482D02*
X116285539Y1230958D01*
X116285539Y1230958D02*
X116285539Y1373815D01*
X116285539Y1373815D02*
X116237920Y1564291D01*
X116237920Y1564291D02*
X116190301Y1659529D01*
X116190301Y1659529D02*
X116095063Y1754767D01*
X116095063Y1754767D02*
X115952206Y1802386D01*
X115952206Y1802386D02*
X115856968Y1802386D01*
X115856968Y1802386D02*
X115714111Y1754767D01*
X115714111Y1754767D02*
X115666492Y1707148D01*
X114761730Y802386D02*
X115237920Y802386D01*
X115237920Y802386D02*
X115237920Y1802386D01*
X114428396Y802386D02*
X114428396Y1802386D01*
X113856968Y802386D02*
X114285539Y1373815D01*
X113856968Y1802386D02*
X114428396Y1230958D01*
X125985242Y802386D02*
X126318575Y1278577D01*
X126556670Y802386D02*
X126556670Y1802386D01*
X126556670Y1802386D02*
X126175718Y1802386D01*
X126175718Y1802386D02*
X126080480Y1754767D01*
X126080480Y1754767D02*
X126032861Y1707148D01*
X126032861Y1707148D02*
X125985242Y1611910D01*
X125985242Y1611910D02*
X125985242Y1469053D01*
X125985242Y1469053D02*
X126032861Y1373815D01*
X126032861Y1373815D02*
X126080480Y1326196D01*
X126080480Y1326196D02*
X126175718Y1278577D01*
X126175718Y1278577D02*
X126556670Y1278577D01*
X125604289Y850005D02*
X125461432Y802386D01*
X125461432Y802386D02*
X125223337Y802386D01*
X125223337Y802386D02*
X125128099Y850005D01*
X125128099Y850005D02*
X125080480Y897625D01*
X125080480Y897625D02*
X125032861Y992863D01*
X125032861Y992863D02*
X125032861Y1088101D01*
X125032861Y1088101D02*
X125080480Y1183339D01*
X125080480Y1183339D02*
X125128099Y1230958D01*
X125128099Y1230958D02*
X125223337Y1278577D01*
X125223337Y1278577D02*
X125413813Y1326196D01*
X125413813Y1326196D02*
X125509051Y1373815D01*
X125509051Y1373815D02*
X125556670Y1421434D01*
X125556670Y1421434D02*
X125604289Y1516672D01*
X125604289Y1516672D02*
X125604289Y1611910D01*
X125604289Y1611910D02*
X125556670Y1707148D01*
X125556670Y1707148D02*
X125509051Y1754767D01*
X125509051Y1754767D02*
X125413813Y1802386D01*
X125413813Y1802386D02*
X125175718Y1802386D01*
X125175718Y1802386D02*
X125032861Y1754767D01*
X124747146Y1802386D02*
X124175718Y1802386D01*
X124461432Y802386D02*
X124461432Y1802386D01*
X120952861Y1754767D02*
X121048099Y1802386D01*
X121048099Y1802386D02*
X121190956Y1802386D01*
X121190956Y1802386D02*
X121333813Y1754767D01*
X121333813Y1754767D02*
X121429051Y1659529D01*
X121429051Y1659529D02*
X121476670Y1564291D01*
X121476670Y1564291D02*
X121524289Y1373815D01*
X121524289Y1373815D02*
X121524289Y1230958D01*
X121524289Y1230958D02*
X121476670Y1040482D01*
X121476670Y1040482D02*
X121429051Y945244D01*
X121429051Y945244D02*
X121333813Y850005D01*
X121333813Y850005D02*
X121190956Y802386D01*
X121190956Y802386D02*
X121095718Y802386D01*
X121095718Y802386D02*
X120952861Y850005D01*
X120952861Y850005D02*
X120905242Y897625D01*
X120905242Y897625D02*
X120905242Y1230958D01*
X120905242Y1230958D02*
X121095718Y1230958D01*
X120476670Y802386D02*
X120476670Y1802386D01*
X120476670Y1802386D02*
X119905242Y802386D01*
X119905242Y802386D02*
X119905242Y1802386D01*
X119429051Y802386D02*
X119429051Y1802386D01*
X119429051Y1802386D02*
X119190956Y1802386D01*
X119190956Y1802386D02*
X119048099Y1754767D01*
X119048099Y1754767D02*
X118952861Y1659529D01*
X118952861Y1659529D02*
X118905242Y1564291D01*
X118905242Y1564291D02*
X118857623Y1373815D01*
X118857623Y1373815D02*
X118857623Y1230958D01*
X118857623Y1230958D02*
X118905242Y1040482D01*
X118905242Y1040482D02*
X118952861Y945244D01*
X118952861Y945244D02*
X119048099Y850005D01*
X119048099Y850005D02*
X119190956Y802386D01*
X119190956Y802386D02*
X119429051Y802386D01*
X118142920Y4612386D02*
X118142920Y5612386D01*
X117476254Y5612386D02*
X117285778Y5612386D01*
X117285778Y5612386D02*
X117190540Y5564767D01*
X117190540Y5564767D02*
X117095302Y5469529D01*
X117095302Y5469529D02*
X117047683Y5279053D01*
X117047683Y5279053D02*
X117047683Y4945720D01*
X117047683Y4945720D02*
X117095302Y4755244D01*
X117095302Y4755244D02*
X117190540Y4660005D01*
X117190540Y4660005D02*
X117285778Y4612386D01*
X117285778Y4612386D02*
X117476254Y4612386D01*
X117476254Y4612386D02*
X117571492Y4660005D01*
X117571492Y4660005D02*
X117666730Y4755244D01*
X117666730Y4755244D02*
X117714349Y4945720D01*
X117714349Y4945720D02*
X117714349Y5279053D01*
X117714349Y5279053D02*
X117666730Y5469529D01*
X117666730Y5469529D02*
X117571492Y5564767D01*
X117571492Y5564767D02*
X117476254Y5612386D01*
X121604874Y7341767D02*
X121938207Y7817958D01*
X122176302Y7341767D02*
X122176302Y8341767D01*
X122176302Y8341767D02*
X121795350Y8341767D01*
X121795350Y8341767D02*
X121700112Y8294148D01*
X121700112Y8294148D02*
X121652493Y8246529D01*
X121652493Y8246529D02*
X121604874Y8151291D01*
X121604874Y8151291D02*
X121604874Y8008434D01*
X121604874Y8008434D02*
X121652493Y7913196D01*
X121652493Y7913196D02*
X121700112Y7865577D01*
X121700112Y7865577D02*
X121795350Y7817958D01*
X121795350Y7817958D02*
X122176302Y7817958D01*
X121176302Y7865577D02*
X120842969Y7865577D01*
X120700112Y7341767D02*
X121176302Y7341767D01*
X121176302Y7341767D02*
X121176302Y8341767D01*
X121176302Y8341767D02*
X120700112Y8341767D01*
X120319159Y7389386D02*
X120176302Y7341767D01*
X120176302Y7341767D02*
X119938207Y7341767D01*
X119938207Y7341767D02*
X119842969Y7389386D01*
X119842969Y7389386D02*
X119795350Y7437006D01*
X119795350Y7437006D02*
X119747731Y7532244D01*
X119747731Y7532244D02*
X119747731Y7627482D01*
X119747731Y7627482D02*
X119795350Y7722720D01*
X119795350Y7722720D02*
X119842969Y7770339D01*
X119842969Y7770339D02*
X119938207Y7817958D01*
X119938207Y7817958D02*
X120128683Y7865577D01*
X120128683Y7865577D02*
X120223921Y7913196D01*
X120223921Y7913196D02*
X120271540Y7960815D01*
X120271540Y7960815D02*
X120319159Y8056053D01*
X120319159Y8056053D02*
X120319159Y8151291D01*
X120319159Y8151291D02*
X120271540Y8246529D01*
X120271540Y8246529D02*
X120223921Y8294148D01*
X120223921Y8294148D02*
X120128683Y8341767D01*
X120128683Y8341767D02*
X119890588Y8341767D01*
X119890588Y8341767D02*
X119747731Y8294148D01*
X119319159Y7865577D02*
X118985826Y7865577D01*
X118842969Y7341767D02*
X119319159Y7341767D01*
X119319159Y7341767D02*
X119319159Y8341767D01*
X119319159Y8341767D02*
X118842969Y8341767D01*
X118557254Y8341767D02*
X117985826Y8341767D01*
X118271540Y7341767D02*
X118271540Y8341767D01*
X191284157Y11536223D02*
X192276703Y11658093D01*
X192276703Y11658093D02*
X192247686Y11894413D01*
X192247686Y11894413D02*
X192183012Y12030402D01*
X192183012Y12030402D02*
X192076878Y12113324D01*
X192076878Y12113324D02*
X191976546Y12148981D01*
X191976546Y12148981D02*
X191781686Y12173032D01*
X191781686Y12173032D02*
X191639894Y12155622D01*
X191639894Y12155622D02*
X191456641Y12085145D01*
X191456641Y12085145D02*
X191367916Y12026274D01*
X191367916Y12026274D02*
X191284994Y11920139D01*
X191284994Y11920139D02*
X191255140Y11772544D01*
X191255140Y11772544D02*
X191284157Y11536223D01*
X192166440Y12556111D02*
X192090997Y13170544D01*
X192090997Y13170544D02*
X191753508Y12793269D01*
X191753508Y12793269D02*
X191736098Y12935061D01*
X191736098Y12935061D02*
X191677227Y13023786D01*
X191677227Y13023786D02*
X191624160Y13065247D01*
X191624160Y13065247D02*
X191523828Y13100904D01*
X191523828Y13100904D02*
X191287508Y13071888D01*
X191287508Y13071888D02*
X191198783Y13013017D01*
X191198783Y13013017D02*
X191157322Y12959950D01*
X191157322Y12959950D02*
X191121664Y12859618D01*
X191121664Y12859618D02*
X191156484Y12576034D01*
X191156484Y12576034D02*
X191215355Y12487309D01*
X191215355Y12487309D02*
X191268422Y12445848D01*
X191655689Y13980675D02*
X190993992Y13899429D01*
X192062818Y13790781D02*
X191382873Y13467411D01*
X191382873Y13467411D02*
X191307431Y14081844D01*
X160558624Y7763603D02*
X161551170Y7885473D01*
X161551170Y7885473D02*
X161522153Y8121793D01*
X161522153Y8121793D02*
X161457479Y8257782D01*
X161457479Y8257782D02*
X161351345Y8340704D01*
X161351345Y8340704D02*
X161251013Y8376361D01*
X161251013Y8376361D02*
X161056153Y8400412D01*
X161056153Y8400412D02*
X160914361Y8383002D01*
X160914361Y8383002D02*
X160731108Y8312525D01*
X160731108Y8312525D02*
X160642383Y8253654D01*
X160642383Y8253654D02*
X160559461Y8147519D01*
X160559461Y8147519D02*
X160529607Y7999924D01*
X160529607Y7999924D02*
X160558624Y7763603D01*
X161440907Y8783491D02*
X161365464Y9397924D01*
X161365464Y9397924D02*
X161027975Y9020649D01*
X161027975Y9020649D02*
X161010565Y9162441D01*
X161010565Y9162441D02*
X160951694Y9251166D01*
X160951694Y9251166D02*
X160898627Y9292627D01*
X160898627Y9292627D02*
X160798295Y9328284D01*
X160798295Y9328284D02*
X160561975Y9299268D01*
X160561975Y9299268D02*
X160473250Y9240397D01*
X160473250Y9240397D02*
X160431789Y9187330D01*
X160431789Y9187330D02*
X160396131Y9086998D01*
X160396131Y9086998D02*
X160430951Y8803414D01*
X160430951Y8803414D02*
X160489822Y8714689D01*
X160489822Y8714689D02*
X160542889Y8673228D01*
X161324841Y9728773D02*
X161249398Y10343206D01*
X161249398Y10343206D02*
X160911909Y9965931D01*
X160911909Y9965931D02*
X160894499Y10107723D01*
X160894499Y10107723D02*
X160835628Y10196448D01*
X160835628Y10196448D02*
X160782561Y10237909D01*
X160782561Y10237909D02*
X160682229Y10273566D01*
X160682229Y10273566D02*
X160445909Y10244550D01*
X160445909Y10244550D02*
X160357184Y10185679D01*
X160357184Y10185679D02*
X160315723Y10132612D01*
X160315723Y10132612D02*
X160280065Y10032280D01*
X160280065Y10032280D02*
X160314885Y9748696D01*
X160314885Y9748696D02*
X160373756Y9659971D01*
X160373756Y9659971D02*
X160426823Y9618510D01*
X122842971Y21914019D02*
X122700114Y21866400D01*
X122700114Y21866400D02*
X122652495Y21818781D01*
X122652495Y21818781D02*
X122604876Y21723543D01*
X122604876Y21723543D02*
X122604876Y21580686D01*
X122604876Y21580686D02*
X122652495Y21485448D01*
X122652495Y21485448D02*
X122700114Y21437828D01*
X122700114Y21437828D02*
X122795352Y21390209D01*
X122795352Y21390209D02*
X123176304Y21390209D01*
X123176304Y21390209D02*
X123176304Y22390209D01*
X123176304Y22390209D02*
X122842971Y22390209D01*
X122842971Y22390209D02*
X122747733Y22342590D01*
X122747733Y22342590D02*
X122700114Y22294971D01*
X122700114Y22294971D02*
X122652495Y22199733D01*
X122652495Y22199733D02*
X122652495Y22104495D01*
X122652495Y22104495D02*
X122700114Y22009257D01*
X122700114Y22009257D02*
X122747733Y21961638D01*
X122747733Y21961638D02*
X122842971Y21914019D01*
X122842971Y21914019D02*
X123176304Y21914019D01*
X121985828Y22390209D02*
X121795352Y22390209D01*
X121795352Y22390209D02*
X121700114Y22342590D01*
X121700114Y22342590D02*
X121604876Y22247352D01*
X121604876Y22247352D02*
X121557257Y22056876D01*
X121557257Y22056876D02*
X121557257Y21723543D01*
X121557257Y21723543D02*
X121604876Y21533067D01*
X121604876Y21533067D02*
X121700114Y21437828D01*
X121700114Y21437828D02*
X121795352Y21390209D01*
X121795352Y21390209D02*
X121985828Y21390209D01*
X121985828Y21390209D02*
X122081066Y21437828D01*
X122081066Y21437828D02*
X122176304Y21533067D01*
X122176304Y21533067D02*
X122223923Y21723543D01*
X122223923Y21723543D02*
X122223923Y22056876D01*
X122223923Y22056876D02*
X122176304Y22247352D01*
X122176304Y22247352D02*
X122081066Y22342590D01*
X122081066Y22342590D02*
X121985828Y22390209D01*
X120938209Y22390209D02*
X120747733Y22390209D01*
X120747733Y22390209D02*
X120652495Y22342590D01*
X120652495Y22342590D02*
X120557257Y22247352D01*
X120557257Y22247352D02*
X120509638Y22056876D01*
X120509638Y22056876D02*
X120509638Y21723543D01*
X120509638Y21723543D02*
X120557257Y21533067D01*
X120557257Y21533067D02*
X120652495Y21437828D01*
X120652495Y21437828D02*
X120747733Y21390209D01*
X120747733Y21390209D02*
X120938209Y21390209D01*
X120938209Y21390209D02*
X121033447Y21437828D01*
X121033447Y21437828D02*
X121128685Y21533067D01*
X121128685Y21533067D02*
X121176304Y21723543D01*
X121176304Y21723543D02*
X121176304Y22056876D01*
X121176304Y22056876D02*
X121128685Y22247352D01*
X121128685Y22247352D02*
X121033447Y22342590D01*
X121033447Y22342590D02*
X120938209Y22390209D01*
X120223923Y22390209D02*
X119652495Y22390209D01*
X119938209Y21390209D02*
X119938209Y22390209D01*
X119366780Y21437828D02*
X119223923Y21390209D01*
X119223923Y21390209D02*
X118985828Y21390209D01*
X118985828Y21390209D02*
X118890590Y21437828D01*
X118890590Y21437828D02*
X118842971Y21485448D01*
X118842971Y21485448D02*
X118795352Y21580686D01*
X118795352Y21580686D02*
X118795352Y21675924D01*
X118795352Y21675924D02*
X118842971Y21771162D01*
X118842971Y21771162D02*
X118890590Y21818781D01*
X118890590Y21818781D02*
X118985828Y21866400D01*
X118985828Y21866400D02*
X119176304Y21914019D01*
X119176304Y21914019D02*
X119271542Y21961638D01*
X119271542Y21961638D02*
X119319161Y22009257D01*
X119319161Y22009257D02*
X119366780Y22104495D01*
X119366780Y22104495D02*
X119366780Y22199733D01*
X119366780Y22199733D02*
X119319161Y22294971D01*
X119319161Y22294971D02*
X119271542Y22342590D01*
X119271542Y22342590D02*
X119176304Y22390209D01*
X119176304Y22390209D02*
X118938209Y22390209D01*
X118938209Y22390209D02*
X118795352Y22342590D01*
X118366780Y21914019D02*
X118033447Y21914019D01*
X117890590Y21390209D02*
X118366780Y21390209D01*
X118366780Y21390209D02*
X118366780Y22390209D01*
X118366780Y22390209D02*
X117890590Y22390209D01*
X116985828Y21390209D02*
X117462018Y21390209D01*
X117462018Y21390209D02*
X117462018Y22390209D01*
%TO.C,G1*%
G36*
X117882052Y72159840D02*
G01*
X117960106Y72141530D01*
X118045532Y72109872D01*
X118131609Y72067902D01*
X118211613Y72018659D01*
X118278823Y71965180D01*
X118308467Y71934855D01*
X118346155Y71887195D01*
X118383164Y71828730D01*
X118420618Y71757083D01*
X118459640Y71669879D01*
X118501353Y71564741D01*
X118546880Y71439292D01*
X118597345Y71291154D01*
X118598792Y71286800D01*
X118684572Y71013575D01*
X118760737Y70738596D01*
X118827779Y70458937D01*
X118886195Y70171672D01*
X118936478Y69873878D01*
X118979124Y69562626D01*
X119014628Y69234993D01*
X119043483Y68888053D01*
X119066186Y68518880D01*
X119070453Y68420188D01*
X119072317Y68303598D01*
X119069300Y68207011D01*
X119061172Y68127301D01*
X119047706Y68061341D01*
X119028673Y68006005D01*
X118983206Y67918858D01*
X118912743Y67817155D01*
X118824703Y67713957D01*
X118722622Y67613030D01*
X118610034Y67518137D01*
X118490476Y67433042D01*
X118478410Y67425219D01*
X118392572Y67369022D01*
X118325512Y67323745D01*
X118274363Y67287132D01*
X118236260Y67256929D01*
X118208336Y67230883D01*
X118187723Y67206738D01*
X118171556Y67182240D01*
X118150635Y67140950D01*
X118132962Y67091703D01*
X118119337Y67033739D01*
X118109586Y66964640D01*
X118103535Y66881992D01*
X118101011Y66783377D01*
X118101839Y66666380D01*
X118105844Y66528584D01*
X118112854Y66367573D01*
X118117248Y66281367D01*
X118130244Y66056135D01*
X118146438Y65808688D01*
X118165618Y65541383D01*
X118187569Y65256577D01*
X118212078Y64956626D01*
X118238930Y64643889D01*
X118267911Y64320720D01*
X118298809Y63989479D01*
X118331408Y63652521D01*
X118365495Y63312203D01*
X118400856Y62970883D01*
X118437277Y62630917D01*
X118474544Y62294663D01*
X118512444Y61964476D01*
X118545599Y61675235D01*
X118577978Y61378934D01*
X118606499Y61101374D01*
X118631504Y60839076D01*
X118653338Y60588563D01*
X118672343Y60346355D01*
X118673715Y60314835D01*
X118672261Y60240930D01*
X118666075Y60158538D01*
X118656094Y60076223D01*
X118643258Y60002548D01*
X118628502Y59946078D01*
X118608663Y59896733D01*
X118559738Y59810686D01*
X118498294Y59734280D01*
X118428981Y59672884D01*
X118356447Y59631866D01*
X118332252Y59624195D01*
X118299261Y59618695D01*
X118287831Y59618896D01*
X118234619Y59627708D01*
X118165023Y59647877D01*
X118083394Y59677715D01*
X117994084Y59715538D01*
X117901444Y59759657D01*
X117809826Y59808388D01*
X117718456Y59863574D01*
X117624742Y59931965D01*
X117544222Y60007200D01*
X117472610Y60093939D01*
X117405624Y60196841D01*
X117338980Y60320568D01*
X117309574Y60380722D01*
X117280623Y60445550D01*
X117258049Y60505915D01*
X117240158Y60567852D01*
X117225254Y60637391D01*
X117211640Y60720567D01*
X117197621Y60823410D01*
X117186408Y60916492D01*
X117172488Y61057051D01*
X117161771Y61202819D01*
X117154249Y61356062D01*
X117149914Y61519046D01*
X117148757Y61694034D01*
X117150771Y61883293D01*
X117155947Y62089087D01*
X117164278Y62313682D01*
X117175754Y62559342D01*
X117190368Y62828334D01*
X117199556Y62991025D01*
X117210461Y63194550D01*
X117219911Y63386188D01*
X117227953Y63568837D01*
X117234629Y63745394D01*
X117239985Y63918755D01*
X117244065Y64091816D01*
X117246913Y64267476D01*
X117248573Y64448630D01*
X117249090Y64638175D01*
X117248508Y64839008D01*
X117246872Y65054026D01*
X117244226Y65286126D01*
X117240614Y65538204D01*
X117236081Y65813157D01*
X117235650Y65838121D01*
X117233023Y65992896D01*
X117230370Y66153619D01*
X117227760Y66315756D01*
X117225265Y66474774D01*
X117222954Y66626141D01*
X117220898Y66765324D01*
X117219168Y66887790D01*
X117217832Y66989006D01*
X117216651Y67069495D01*
X117214693Y67168520D01*
X117212369Y67257351D01*
X117209791Y67332870D01*
X117207069Y67391959D01*
X117204312Y67431498D01*
X117201630Y67448369D01*
X117198678Y67452265D01*
X117180130Y67473330D01*
X117146942Y67509457D01*
X117101379Y67558232D01*
X117045704Y67617237D01*
X116982181Y67684057D01*
X116913075Y67756277D01*
X116872603Y67798639D01*
X116750933Y67929077D01*
X116646682Y68046497D01*
X116557949Y68153504D01*
X116482835Y68252704D01*
X116419441Y68346701D01*
X116365866Y68438099D01*
X116320211Y68529504D01*
X116280576Y68623521D01*
X116252293Y68701086D01*
X116229516Y68775532D01*
X116211304Y68852075D01*
X116196442Y68936637D01*
X116183716Y69035141D01*
X116171913Y69153507D01*
X116170928Y69164658D01*
X116161185Y69314130D01*
X116156417Y69474013D01*
X116156523Y69637146D01*
X116161400Y69796367D01*
X116170946Y69944514D01*
X116185059Y70074426D01*
X116215438Y70260249D01*
X116272186Y70506716D01*
X116344973Y70733649D01*
X116433710Y70940848D01*
X116538306Y71128110D01*
X116658673Y71295235D01*
X116794719Y71442020D01*
X116852138Y71495211D01*
X116934869Y71566280D01*
X117019077Y71630965D01*
X117110382Y71693251D01*
X117214401Y71757124D01*
X117336753Y71826569D01*
X117420787Y71873095D01*
X117488660Y71911423D01*
X117541285Y71942567D01*
X117582431Y71969111D01*
X117615868Y71993643D01*
X117645365Y72018748D01*
X117674690Y72047012D01*
X117707613Y72081020D01*
X117734585Y72108932D01*
X117765695Y72138291D01*
X117789695Y72154610D01*
X117812674Y72161646D01*
X117840720Y72163157D01*
X117882052Y72159840D01*
G37*
G36*
X121832287Y71533907D02*
G01*
X121875158Y71521893D01*
X121931247Y71503878D01*
X121996228Y71481284D01*
X122065774Y71455533D01*
X122135562Y71428048D01*
X122172201Y71413212D01*
X122246258Y71383589D01*
X122319548Y71354662D01*
X122380536Y71331001D01*
X122490130Y71289079D01*
X122568442Y71149138D01*
X122587780Y71114759D01*
X122627455Y71044843D01*
X122673305Y70964613D01*
X122721080Y70881491D01*
X122766534Y70802903D01*
X122769354Y70798043D01*
X122865258Y70628271D01*
X122946160Y70475282D01*
X123013496Y70336107D01*
X123068707Y70207776D01*
X123113230Y70087319D01*
X123171976Y69913258D01*
X123172728Y69689520D01*
X123173481Y69465781D01*
X123096478Y69394087D01*
X123011228Y69327701D01*
X122900587Y69269676D01*
X122770304Y69226439D01*
X122760384Y69223996D01*
X122734774Y69218784D01*
X122704985Y69214551D01*
X122668316Y69211198D01*
X122622065Y69208629D01*
X122563533Y69206746D01*
X122490019Y69205451D01*
X122398821Y69204647D01*
X122287238Y69204236D01*
X122152570Y69204121D01*
X121621610Y69204121D01*
X121581601Y69165834D01*
X121530642Y69103701D01*
X121492309Y69021100D01*
X121475335Y68929011D01*
X121480301Y68830871D01*
X121507789Y68730115D01*
X121520289Y68699512D01*
X121542527Y68652551D01*
X121570197Y68603018D01*
X121605217Y68548103D01*
X121649507Y68484995D01*
X121704987Y68410882D01*
X121773575Y68322956D01*
X121857190Y68218403D01*
X121898183Y68167249D01*
X121964802Y68082074D01*
X122017917Y68010716D01*
X122060000Y67949670D01*
X122093523Y67895431D01*
X122120958Y67844495D01*
X122134684Y67817882D01*
X122169133Y67754787D01*
X122211280Y67680909D01*
X122257027Y67603369D01*
X122302277Y67529291D01*
X122384302Y67394553D01*
X122451996Y67275732D01*
X122505841Y67171239D01*
X122547089Y67078253D01*
X122576989Y66993949D01*
X122596794Y66915508D01*
X122607754Y66840105D01*
X122609736Y66781820D01*
X122595827Y66690791D01*
X122559673Y66612175D01*
X122500994Y66545595D01*
X122419508Y66490675D01*
X122314937Y66447038D01*
X122277413Y66435759D01*
X122230521Y66425199D01*
X122177224Y66417627D01*
X122111062Y66412171D01*
X122025576Y66407959D01*
X121853344Y66395171D01*
X121670778Y66366800D01*
X121505261Y66324204D01*
X121358179Y66267836D01*
X121230920Y66198144D01*
X121124871Y66115580D01*
X121082169Y66073428D01*
X121026334Y66006286D01*
X120986325Y65937374D01*
X120957223Y65859167D01*
X120951369Y65838014D01*
X120942935Y65797316D01*
X120938554Y65754143D01*
X120938536Y65705276D01*
X120943192Y65647491D01*
X120952833Y65577568D01*
X120967770Y65492286D01*
X120988313Y65388423D01*
X121014774Y65262758D01*
X121086765Y64935604D01*
X121222643Y64360913D01*
X121368397Y63797987D01*
X121526100Y63239312D01*
X121697824Y62677368D01*
X121885641Y62104641D01*
X122033891Y61666712D01*
X122013680Y61597190D01*
X121992090Y61544809D01*
X121951770Y61497265D01*
X121897034Y61471082D01*
X121881383Y61467927D01*
X121812325Y61466273D01*
X121731073Y61479634D01*
X121643533Y61506710D01*
X121555613Y61546202D01*
X121545157Y61551817D01*
X121469452Y61598444D01*
X121390360Y61655925D01*
X121314552Y61718784D01*
X121248699Y61781541D01*
X121199470Y61838718D01*
X121177524Y61869892D01*
X121159076Y61900603D01*
X121143057Y61934519D01*
X121127863Y61976035D01*
X121111890Y62029543D01*
X121093534Y62099437D01*
X121071192Y62190111D01*
X121055275Y62253217D01*
X121029328Y62350590D01*
X120996857Y62468112D01*
X120958566Y62603349D01*
X120915156Y62753869D01*
X120867331Y62917239D01*
X120815794Y63091025D01*
X120761246Y63272793D01*
X120704392Y63460111D01*
X120693917Y63494458D01*
X120622058Y63731800D01*
X120557792Y63947473D01*
X120500468Y64143882D01*
X120449437Y64323432D01*
X120404048Y64488529D01*
X120363650Y64641576D01*
X120327594Y64784980D01*
X120295229Y64921146D01*
X120265904Y65052477D01*
X120238971Y65181380D01*
X120237659Y65187863D01*
X120219643Y65275440D01*
X120199506Y65371151D01*
X120179615Y65463851D01*
X120162336Y65542395D01*
X120160044Y65552657D01*
X120126578Y65713903D01*
X120103005Y65854630D01*
X120089356Y65977959D01*
X120085662Y66087012D01*
X120091951Y66184913D01*
X120108255Y66274782D01*
X120134604Y66359742D01*
X120171027Y66442916D01*
X120187517Y66474791D01*
X120234874Y66552616D01*
X120287872Y66618388D01*
X120349011Y66673259D01*
X120420790Y66718386D01*
X120505706Y66754921D01*
X120606259Y66784021D01*
X120724948Y66806839D01*
X120864272Y66824529D01*
X121026729Y66838246D01*
X121104951Y66844240D01*
X121252815Y66859747D01*
X121378181Y66879774D01*
X121483142Y66905171D01*
X121569790Y66936788D01*
X121640218Y66975478D01*
X121696518Y67022091D01*
X121740784Y67077476D01*
X121775108Y67142486D01*
X121798914Y67198023D01*
X121749539Y67311428D01*
X121736488Y67340959D01*
X121689013Y67441695D01*
X121634900Y67546446D01*
X121572561Y67657891D01*
X121500410Y67778711D01*
X121416861Y67911586D01*
X121320326Y68059196D01*
X121209218Y68224223D01*
X121187703Y68255829D01*
X121112652Y68366375D01*
X121049574Y68459904D01*
X120996303Y68539733D01*
X120950675Y68609183D01*
X120910524Y68671571D01*
X120873686Y68730216D01*
X120837996Y68788437D01*
X120801288Y68849553D01*
X120798415Y68854367D01*
X120761789Y68914534D01*
X120726417Y68970681D01*
X120696204Y69016718D01*
X120675051Y69046554D01*
X120647084Y69087799D01*
X120610391Y69168749D01*
X120591661Y69253661D01*
X120591965Y69336311D01*
X120612376Y69410474D01*
X120625016Y69433873D01*
X120669308Y69490267D01*
X120729764Y69545823D01*
X120800273Y69595341D01*
X120874722Y69633625D01*
X120960725Y69665164D01*
X121098895Y69698110D01*
X121242770Y69710475D01*
X121395892Y69702467D01*
X121561806Y69674297D01*
X121591440Y69667979D01*
X121651799Y69657270D01*
X121707532Y69651697D01*
X121768724Y69650502D01*
X121845460Y69652923D01*
X121923233Y69657792D01*
X122001401Y69667544D01*
X122068477Y69683338D01*
X122132482Y69707158D01*
X122201437Y69740988D01*
X122288126Y69799002D01*
X122356567Y69870946D01*
X122403176Y69953013D01*
X122426964Y70042766D01*
X122426945Y70137771D01*
X122402130Y70235593D01*
X122398983Y70243876D01*
X122383354Y70285452D01*
X122363360Y70339072D01*
X122342536Y70395264D01*
X122334456Y70416782D01*
X122298251Y70505625D01*
X122254953Y70600292D01*
X122202657Y70704622D01*
X122139460Y70822453D01*
X122063454Y70957624D01*
X122026613Y71022860D01*
X121983003Y71102061D01*
X121942508Y71177586D01*
X121908437Y71243246D01*
X121884102Y71292852D01*
X121875187Y71312364D01*
X121848121Y71375928D01*
X121825729Y71434934D01*
X121809580Y71484684D01*
X121801243Y71520483D01*
X121802289Y71537633D01*
X121806959Y71538498D01*
X121832287Y71533907D01*
G37*
G36*
X120886514Y71536183D02*
G01*
X120935257Y71520725D01*
X120997782Y71494835D01*
X121076795Y71457454D01*
X121175003Y71407521D01*
X121180105Y71404874D01*
X121244259Y71372655D01*
X121306253Y71343264D01*
X121359249Y71319848D01*
X121396406Y71305559D01*
X121432829Y71292861D01*
X121455597Y71278753D01*
X121468289Y71256374D01*
X121478522Y71217561D01*
X121480688Y71209268D01*
X121493045Y71170528D01*
X121512978Y71114104D01*
X121538792Y71044591D01*
X121568793Y70966583D01*
X121601285Y70884677D01*
X121638330Y70792231D01*
X121676616Y70694578D01*
X121706584Y70614418D01*
X121729233Y70548282D01*
X121745561Y70492699D01*
X121756566Y70444200D01*
X121763247Y70399315D01*
X121766602Y70354574D01*
X121767629Y70306507D01*
X121767628Y70292666D01*
X121765044Y70221402D01*
X121757277Y70166349D01*
X121743290Y70119553D01*
X121719033Y70072767D01*
X121678426Y70016777D01*
X121629513Y69962914D01*
X121578759Y69918227D01*
X121532629Y69889770D01*
X121531489Y69889292D01*
X121502398Y69879908D01*
X121453175Y69866776D01*
X121388651Y69851073D01*
X121313657Y69833978D01*
X121233024Y69816670D01*
X121063451Y69779600D01*
X120888958Y69736491D01*
X120737538Y69692790D01*
X120607736Y69647868D01*
X120498097Y69601092D01*
X120407165Y69551832D01*
X120333484Y69499457D01*
X120275600Y69443337D01*
X120232056Y69382840D01*
X120210432Y69333507D01*
X120193707Y69257917D01*
X120189928Y69177009D01*
X120200235Y69100862D01*
X120213473Y69059420D01*
X120241126Y68991383D01*
X120280483Y68905761D01*
X120330401Y68804850D01*
X120389739Y68690947D01*
X120457354Y68566350D01*
X120532105Y68433355D01*
X120585025Y68339831D01*
X120649200Y68222669D01*
X120701279Y68121600D01*
X120742511Y68033441D01*
X120774145Y67955008D01*
X120797430Y67883117D01*
X120813616Y67814585D01*
X120823952Y67746229D01*
X120829685Y67674864D01*
X120829867Y67671340D01*
X120833088Y67583943D01*
X120831870Y67517164D01*
X120825186Y67466225D01*
X120812005Y67426349D01*
X120791299Y67392756D01*
X120762040Y67360670D01*
X120752930Y67352134D01*
X120683127Y67299738D01*
X120591496Y67248194D01*
X120481418Y67199221D01*
X120356273Y67154536D01*
X120271226Y67127273D01*
X120158429Y67090403D01*
X120065658Y67058763D01*
X119990065Y67031071D01*
X119928801Y67006043D01*
X119879019Y66982396D01*
X119837868Y66958849D01*
X119802502Y66934117D01*
X119770070Y66906919D01*
X119737726Y66875971D01*
X119690398Y66819928D01*
X119647987Y66740798D01*
X119629262Y66674712D01*
X119613791Y66585696D01*
X119602449Y66480163D01*
X119595413Y66362684D01*
X119592862Y66237831D01*
X119594972Y66110173D01*
X119601923Y65984283D01*
X119613892Y65864730D01*
X119615163Y65854863D01*
X119624584Y65789044D01*
X119637236Y65711423D01*
X119653486Y65620099D01*
X119673701Y65513165D01*
X119698247Y65388720D01*
X119727492Y65244860D01*
X119761802Y65079680D01*
X119801545Y64891278D01*
X119806214Y64869306D01*
X119821237Y64798989D01*
X119836945Y64726121D01*
X119853838Y64648441D01*
X119872417Y64563689D01*
X119893185Y64469606D01*
X119916641Y64363931D01*
X119943287Y64244406D01*
X119973624Y64108769D01*
X120008154Y63954763D01*
X120047378Y63780125D01*
X120091796Y63582598D01*
X120122446Y63445763D01*
X120179462Y63187376D01*
X120230522Y62950218D01*
X120276114Y62731834D01*
X120316726Y62529767D01*
X120352847Y62341561D01*
X120384965Y62164759D01*
X120413569Y61996905D01*
X120439147Y61835542D01*
X120448762Y61771210D01*
X120462008Y61678776D01*
X120474709Y61586163D01*
X120486321Y61497649D01*
X120496299Y61417517D01*
X120504100Y61350047D01*
X120509179Y61299519D01*
X120510993Y61270214D01*
X120510992Y61269008D01*
X120509850Y61257284D01*
X120503254Y61251756D01*
X120486357Y61252599D01*
X120454309Y61259984D01*
X120402260Y61274085D01*
X120302840Y61303565D01*
X120126979Y61368269D01*
X119974631Y61442550D01*
X119845902Y61526324D01*
X119740896Y61619505D01*
X119659718Y61722007D01*
X119602471Y61833746D01*
X119569260Y61954635D01*
X119562950Y62003653D01*
X119559264Y62063027D01*
X119560303Y62111323D01*
X119560887Y62133031D01*
X119558145Y62175965D01*
X119551227Y62235435D01*
X119539984Y62312221D01*
X119524270Y62407104D01*
X119503936Y62520865D01*
X119478836Y62654285D01*
X119448820Y62808145D01*
X119413742Y62983227D01*
X119373453Y63180310D01*
X119327807Y63400175D01*
X119276654Y63643605D01*
X119219849Y63911380D01*
X119193243Y64036355D01*
X119143383Y64271008D01*
X119098407Y64483437D01*
X119057924Y64675632D01*
X119021543Y64849584D01*
X118988872Y65007283D01*
X118959520Y65150721D01*
X118933097Y65281888D01*
X118909211Y65402774D01*
X118887471Y65515370D01*
X118867486Y65621667D01*
X118848864Y65723655D01*
X118831214Y65823325D01*
X118814145Y65922668D01*
X118797267Y66023674D01*
X118780187Y66128334D01*
X118762515Y66238639D01*
X118755957Y66280418D01*
X118736332Y66416003D01*
X118722993Y66531299D01*
X118716021Y66630021D01*
X118715500Y66715883D01*
X118721512Y66792598D01*
X118734139Y66863882D01*
X118753465Y66933449D01*
X118779572Y67005013D01*
X118828903Y67108282D01*
X118912770Y67233053D01*
X119016873Y67345085D01*
X119139341Y67443127D01*
X119278302Y67525929D01*
X119431887Y67592242D01*
X119598225Y67640815D01*
X119775445Y67670399D01*
X119802585Y67673591D01*
X119837417Y67680459D01*
X119864868Y67692885D01*
X119893313Y67715256D01*
X119931122Y67751958D01*
X119988017Y67820522D01*
X120029025Y67902680D01*
X120046772Y67992600D01*
X120041573Y68092004D01*
X120013743Y68202609D01*
X120013680Y68202798D01*
X119996160Y68251658D01*
X119975939Y68300071D01*
X119951058Y68351670D01*
X119919557Y68410089D01*
X119879478Y68478961D01*
X119828862Y68561919D01*
X119765749Y68662598D01*
X119724702Y68728793D01*
X119677483Y68808081D01*
X119634545Y68883452D01*
X119597807Y68951345D01*
X119569188Y69008194D01*
X119550606Y69050435D01*
X119543981Y69074505D01*
X119543780Y69076023D01*
X119535339Y69095930D01*
X119516965Y69130024D01*
X119492076Y69171888D01*
X119490081Y69175126D01*
X119431953Y69291033D01*
X119399082Y69406423D01*
X119390967Y69519956D01*
X119407107Y69630290D01*
X119447001Y69736084D01*
X119510147Y69835997D01*
X119596045Y69928689D01*
X119704193Y70012817D01*
X119834090Y70087042D01*
X119983541Y70148501D01*
X120151013Y70193549D01*
X120333749Y70220309D01*
X120533563Y70229146D01*
X120642695Y70234614D01*
X120756638Y70255884D01*
X120850415Y70293162D01*
X120923986Y70346405D01*
X120977308Y70415573D01*
X121010341Y70500621D01*
X121023043Y70601510D01*
X121015373Y70718197D01*
X121011865Y70741967D01*
X121003037Y70794644D01*
X120992600Y70844493D01*
X120979226Y70895976D01*
X120961587Y70953555D01*
X120938356Y71021692D01*
X120908205Y71104849D01*
X120869808Y71207487D01*
X120847659Y71266860D01*
X120817220Y71352599D01*
X120796638Y71418668D01*
X120785627Y71467581D01*
X120783897Y71501854D01*
X120791162Y71524000D01*
X120807132Y71536535D01*
X120831522Y71541973D01*
X120848846Y71542269D01*
X120886514Y71536183D01*
G37*
G36*
X122808822Y71432388D02*
G01*
X122842534Y71420481D01*
X122894841Y71401110D01*
X122963040Y71375299D01*
X123044431Y71344069D01*
X123136312Y71308443D01*
X123235982Y71269445D01*
X123670981Y71098500D01*
X123755276Y70965468D01*
X123772793Y70938327D01*
X123812065Y70879245D01*
X123861088Y70807002D01*
X123916538Y70726448D01*
X123975090Y70642431D01*
X124033418Y70559801D01*
X124053907Y70530945D01*
X124190496Y70336093D01*
X124311518Y70158489D01*
X124418074Y69996117D01*
X124511259Y69846963D01*
X124592174Y69709009D01*
X124661917Y69580242D01*
X124721586Y69458644D01*
X124772280Y69342201D01*
X124815096Y69228896D01*
X124851135Y69116714D01*
X124881494Y69003640D01*
X124883396Y68995835D01*
X124897890Y68935514D01*
X124909691Y68884897D01*
X124917630Y68849091D01*
X124920536Y68833207D01*
X124920394Y68831775D01*
X124908974Y68811872D01*
X124882635Y68781142D01*
X124846132Y68744187D01*
X124804217Y68705614D01*
X124761645Y68670025D01*
X124723168Y68642025D01*
X124661602Y68607937D01*
X124575779Y68571457D01*
X124479837Y68539567D01*
X124382024Y68515328D01*
X124360852Y68511878D01*
X124311241Y68505964D01*
X124245868Y68499720D01*
X124170754Y68493704D01*
X124091922Y68488473D01*
X124011259Y68483626D01*
X123856803Y68473748D01*
X123724624Y68464237D01*
X123612340Y68454760D01*
X123517571Y68444983D01*
X123437935Y68434574D01*
X123371052Y68423199D01*
X123314540Y68410527D01*
X123266019Y68396222D01*
X123223107Y68379953D01*
X123183423Y68361387D01*
X123146501Y68338754D01*
X123084781Y68279633D01*
X123037836Y68204006D01*
X123008101Y68116342D01*
X122998011Y68021109D01*
X123000195Y67977340D01*
X123012094Y67908229D01*
X123035532Y67836751D01*
X123071861Y67760521D01*
X123122438Y67677153D01*
X123188616Y67584261D01*
X123271751Y67479460D01*
X123373196Y67360365D01*
X123419041Y67307574D01*
X123485563Y67230013D01*
X123552076Y67151518D01*
X123612876Y67078831D01*
X123662262Y67018690D01*
X123688685Y66986335D01*
X123746562Y66916713D01*
X123811994Y66839219D01*
X123878779Y66761176D01*
X123940714Y66689908D01*
X124038046Y66576881D01*
X124150745Y66438616D01*
X124245568Y66312049D01*
X124323947Y66194840D01*
X124387311Y66084649D01*
X124437092Y65979136D01*
X124474721Y65875962D01*
X124501630Y65772787D01*
X124513575Y65709948D01*
X124520018Y65647852D01*
X124516478Y65597088D01*
X124502300Y65550498D01*
X124476832Y65500920D01*
X124474566Y65497094D01*
X124406168Y65407697D01*
X124316864Y65332440D01*
X124207771Y65272094D01*
X124080007Y65227430D01*
X124061304Y65222539D01*
X124007021Y65209785D01*
X123949993Y65198877D01*
X123886382Y65189349D01*
X123812352Y65180735D01*
X123724065Y65172569D01*
X123617683Y65164386D01*
X123489369Y65155718D01*
X123424882Y65151477D01*
X123318190Y65143874D01*
X123231093Y65136576D01*
X123159533Y65129065D01*
X123099450Y65120824D01*
X123046784Y65111333D01*
X122997477Y65100075D01*
X122947468Y65086531D01*
X122885910Y65066749D01*
X122768387Y65013907D01*
X122671215Y64946511D01*
X122593125Y64863575D01*
X122532848Y64764113D01*
X122515443Y64725812D01*
X122502564Y64689412D01*
X122494569Y64651058D01*
X122489847Y64602805D01*
X122486792Y64536710D01*
X122485902Y64492646D01*
X122487562Y64433203D01*
X122493462Y64374317D01*
X122504496Y64312543D01*
X122521560Y64244439D01*
X122545550Y64166561D01*
X122577362Y64075466D01*
X122617891Y63967708D01*
X122668032Y63839846D01*
X122746992Y63639145D01*
X122883461Y63283089D01*
X123017340Y62922333D01*
X123147719Y62559647D01*
X123273690Y62197797D01*
X123394342Y61839554D01*
X123508766Y61487686D01*
X123616052Y61144962D01*
X123715290Y60814150D01*
X123805571Y60498018D01*
X123885985Y60199336D01*
X123955623Y59920872D01*
X123965063Y59880984D01*
X123984478Y59796986D01*
X124005504Y59703906D01*
X124027411Y59605167D01*
X124049470Y59504193D01*
X124070954Y59404407D01*
X124091132Y59309232D01*
X124109276Y59222094D01*
X124124657Y59146415D01*
X124136546Y59085618D01*
X124144214Y59043128D01*
X124146932Y59022368D01*
X124138009Y59015819D01*
X124108547Y59012359D01*
X124063619Y59013019D01*
X124008526Y59017505D01*
X123948574Y59025519D01*
X123889064Y59036766D01*
X123763787Y59070028D01*
X123618240Y59123406D01*
X123484758Y59188854D01*
X123366047Y59264604D01*
X123264808Y59348888D01*
X123183746Y59439938D01*
X123125564Y59535988D01*
X123116059Y59556968D01*
X123100019Y59598980D01*
X123089189Y59642086D01*
X123081784Y59694516D01*
X123076019Y59764502D01*
X123075926Y59765859D01*
X123064857Y59871763D01*
X123045017Y59999813D01*
X123016917Y60148126D01*
X122981073Y60314820D01*
X122937995Y60498013D01*
X122888196Y60695824D01*
X122832190Y60906368D01*
X122770489Y61127766D01*
X122703606Y61358133D01*
X122632054Y61595590D01*
X122556344Y61838252D01*
X122476991Y62084238D01*
X122394506Y62331666D01*
X122309402Y62578654D01*
X122293128Y62624895D01*
X122254486Y62733458D01*
X122210342Y62856118D01*
X122161648Y62990321D01*
X122109356Y63133509D01*
X122054419Y63283127D01*
X121997789Y63436619D01*
X121940419Y63591427D01*
X121883262Y63744997D01*
X121827269Y63894772D01*
X121773393Y64038196D01*
X121722587Y64172712D01*
X121675802Y64295764D01*
X121633993Y64404797D01*
X121598110Y64497254D01*
X121569107Y64570579D01*
X121547937Y64622216D01*
X121544859Y64629540D01*
X121499958Y64761412D01*
X121479087Y64885194D01*
X121482476Y65002660D01*
X121510355Y65115579D01*
X121562954Y65225725D01*
X121640503Y65334870D01*
X121723033Y65422015D01*
X121839892Y65513095D01*
X121977182Y65589835D01*
X121987304Y65594598D01*
X122050986Y65623052D01*
X122109825Y65645686D01*
X122168195Y65663291D01*
X122230473Y65676658D01*
X122301034Y65686578D01*
X122384254Y65693843D01*
X122484507Y65699244D01*
X122606171Y65703573D01*
X122693820Y65706424D01*
X122789096Y65710375D01*
X122866946Y65715110D01*
X122932108Y65721203D01*
X122989317Y65729225D01*
X123043309Y65739749D01*
X123098821Y65753348D01*
X123160587Y65770594D01*
X123268767Y65808514D01*
X123358158Y65855180D01*
X123433599Y65913308D01*
X123489929Y65975760D01*
X123528680Y66048520D01*
X123542751Y66126409D01*
X123532382Y66210902D01*
X123497817Y66303470D01*
X123460753Y66373285D01*
X123404395Y66464451D01*
X123331926Y66569837D01*
X123242824Y66690144D01*
X123136567Y66826076D01*
X123012633Y66978335D01*
X122870499Y67147624D01*
X122814348Y67213726D01*
X122697217Y67352298D01*
X122594955Y67474536D01*
X122506027Y67582521D01*
X122428896Y67678334D01*
X122362028Y67764057D01*
X122303885Y67841770D01*
X122252932Y67913555D01*
X122207634Y67981494D01*
X122166455Y68047666D01*
X122127858Y68114154D01*
X122090308Y68183039D01*
X122052269Y68256402D01*
X122040956Y68278812D01*
X122005131Y68353982D01*
X121981688Y68414104D01*
X121969727Y68464679D01*
X121968348Y68511208D01*
X121976651Y68559191D01*
X121993737Y68614129D01*
X122034466Y68694642D01*
X122100304Y68770399D01*
X122189241Y68837163D01*
X122300578Y68894504D01*
X122433617Y68941995D01*
X122587660Y68979206D01*
X122589139Y68979492D01*
X122684685Y68994717D01*
X122797372Y69007547D01*
X122918765Y69017417D01*
X123040430Y69023762D01*
X123153934Y69026017D01*
X123250841Y69023618D01*
X123296674Y69021877D01*
X123424322Y69028445D01*
X123544178Y69053967D01*
X123665085Y69100073D01*
X123721512Y69132082D01*
X123792114Y69187630D01*
X123854366Y69252848D01*
X123899903Y69319906D01*
X123904072Y69327953D01*
X123919598Y69362833D01*
X123928682Y69397472D01*
X123932961Y69440530D01*
X123934073Y69500669D01*
X123934013Y69522175D01*
X123932258Y69575449D01*
X123926776Y69614808D01*
X123915822Y69649212D01*
X123897649Y69687620D01*
X123881269Y69717314D01*
X123849468Y69768254D01*
X123819211Y69810107D01*
X123818229Y69811324D01*
X123790444Y69849767D01*
X123758055Y69900162D01*
X123727872Y69951938D01*
X123696093Y70009343D01*
X123646575Y70096282D01*
X123594046Y70185277D01*
X123536532Y70279497D01*
X123472058Y70382113D01*
X123398652Y70496296D01*
X123314337Y70625214D01*
X123217140Y70772040D01*
X123129582Y70904056D01*
X123038209Y71042804D01*
X122961498Y71160514D01*
X122899408Y71257253D01*
X122851897Y71333087D01*
X122818922Y71388081D01*
X122800442Y71422304D01*
X122796415Y71435820D01*
X122808822Y71432388D01*
G37*
D11*
%TO.C,R_FLASH2*%
X125130311Y20658670D02*
X125130311Y20351388D01*
X125890311Y20658670D02*
X125890311Y20351388D01*
%TO.C,D9*%
X211533411Y66848731D02*
X211044715Y70828841D01*
X211533411Y66848731D02*
X209548318Y66604993D01*
X209548318Y66604993D02*
X209059622Y70585103D01*
%TO.C,R_DATA2*%
X116795928Y44442441D02*
X116795928Y44135159D01*
X117555928Y44442441D02*
X117555928Y44135159D01*
%TO.C,C_ESD2*%
X112978759Y44648800D02*
X112763087Y44648800D01*
X112978759Y43928800D02*
X112763087Y43928800D01*
%TO.C,D19*%
X212673272Y47795612D02*
X212184576Y51775722D01*
X212673272Y47795612D02*
X210688179Y47551874D01*
X210688179Y47551874D02*
X210199483Y51531984D01*
%TO.C,R_FLASH3*%
X126320935Y22924609D02*
X126320935Y22617327D01*
X127080935Y22924609D02*
X127080935Y22617327D01*
%TO.C,C_3V3_3*%
X119917178Y44180964D02*
X119917178Y44396636D01*
X119197178Y44180964D02*
X119197178Y44396636D01*
%TO.C,SW2*%
X117402493Y12546586D02*
X117402493Y10546586D01*
X118452493Y13846586D02*
X118902493Y14296586D01*
X118452493Y9246586D02*
X118902493Y8796586D01*
X121402493Y14296586D02*
X118902493Y14296586D01*
X121402493Y8796586D02*
X118902493Y8796586D01*
X121852493Y13846586D02*
X121402493Y14296586D01*
X121852493Y9246586D02*
X121402493Y8796586D01*
X122902493Y12546586D02*
X122902493Y10546586D01*
%TO.C,C_3V3_6*%
X112978759Y36505045D02*
X112763087Y36505045D01*
X112978759Y35785045D02*
X112763087Y35785045D01*
%TO.C,D14*%
X82786746Y40957694D02*
X83275442Y44937804D01*
X82786746Y40957694D02*
X80801653Y41201432D01*
X80801653Y41201432D02*
X81290349Y45181542D01*
%TO.C,D24*%
X89919145Y20888869D02*
X90407841Y24868979D01*
X89919145Y20888869D02*
X87934052Y21132607D01*
X87934052Y21132607D02*
X88422748Y25112717D01*
%TO.C,C_XTAL2*%
X119184341Y24069966D02*
X119031838Y24222469D01*
X118675224Y23560849D02*
X118522721Y23713352D01*
%TO.C,D21*%
X26104576Y28724313D02*
X26593272Y32704423D01*
X26104576Y28724313D02*
X24119483Y28968051D01*
X24119483Y28968051D02*
X24608179Y32948161D01*
%TO.C,D27*%
X160043451Y22140405D02*
X159554755Y26120515D01*
X160043451Y22140405D02*
X158058358Y21896667D01*
X158058358Y21896667D02*
X157569662Y25876777D01*
%TO.C,J1*%
X123262492Y49052243D02*
X122212492Y49052243D01*
X123262492Y51552243D02*
X123262492Y49052243D01*
X118212492Y53522243D02*
X122092492Y53522243D01*
X118092492Y49052243D02*
X118092492Y48062243D01*
X117042492Y49052243D02*
X118092492Y49052243D01*
X117042492Y51552243D02*
X117042492Y49052243D01*
%TO.C,D28*%
X187814606Y25550272D02*
X187325910Y29530382D01*
X187814606Y25550272D02*
X185829513Y25306534D01*
X185829513Y25306534D02*
X185340817Y29286644D01*
%TO.C,R_FLASH1*%
X126320936Y20658669D02*
X126320936Y20351387D01*
X127080936Y20658669D02*
X127080936Y20351387D01*
%TO.C,D17*%
X174857231Y43152385D02*
X174368535Y47132495D01*
X174857231Y43152385D02*
X172872138Y42908647D01*
X172872138Y42908647D02*
X172383442Y46888757D01*
%TO.C,C_3V3_5*%
X112978761Y40105044D02*
X112763089Y40105044D01*
X112978761Y39385044D02*
X112763089Y39385044D01*
%TO.C,U2*%
X126357188Y47609114D02*
X126357188Y47349114D01*
X126357188Y42159114D02*
X126357188Y42419114D01*
X129082188Y47609114D02*
X126357188Y47609114D01*
X129082188Y47609114D02*
X131807188Y47609114D01*
X129082188Y42159114D02*
X126357188Y42159114D01*
X129082188Y42159114D02*
X131807188Y42159114D01*
X131807188Y47609114D02*
X131807188Y47349114D01*
X131807188Y47349114D02*
X133482188Y47349114D01*
X131807188Y42159114D02*
X131807188Y42419114D01*
%TO.C,D6*%
X152445846Y59593693D02*
X151957150Y63573803D01*
X152445846Y59593693D02*
X150460753Y59349955D01*
X150460753Y59349955D02*
X149972057Y63330065D01*
%TO.C,D23*%
X71011125Y23210484D02*
X71499821Y27190594D01*
X71011125Y23210484D02*
X69026032Y23454222D01*
X69026032Y23454222D02*
X69514728Y27434332D01*
%TO.C,D30*%
X230357650Y30773902D02*
X229868954Y34754012D01*
X230357650Y30773902D02*
X228372557Y30530164D01*
X228372557Y30530164D02*
X227883861Y34510274D01*
%TO.C,D34*%
X190882668Y10332607D02*
X190393972Y14312717D01*
X190882668Y10332607D02*
X188897575Y10088869D01*
X188897575Y10088869D02*
X188408879Y14068979D01*
%TO.C,R_RST1*%
X124642308Y5086803D02*
X124949590Y5086803D01*
X124642308Y5846803D02*
X124949590Y5846803D01*
%TO.C,C_3V3_4*%
X121107805Y44180964D02*
X121107805Y44396636D01*
X120387805Y44180964D02*
X120387805Y44396636D01*
%TO.C,D10*%
X230441430Y69170344D02*
X229952734Y73150454D01*
X230441430Y69170344D02*
X228456337Y68926606D01*
X228456337Y68926606D02*
X227967641Y72906716D01*
%TO.C,D1*%
X22475543Y67556059D02*
X22964239Y71536169D01*
X22475543Y67556059D02*
X20490450Y67799797D01*
X20490450Y67799797D02*
X20979146Y71779907D01*
%TO.C,C_1V1_2*%
X122712053Y44553304D02*
X122864556Y44705807D01*
X122202936Y45062421D02*
X122355439Y45214924D01*
%TO.C,D4*%
X79199604Y60591220D02*
X79688300Y64571330D01*
X79199604Y60591220D02*
X77214511Y60834958D01*
X77214511Y60834958D02*
X77703207Y64815068D01*
%TO.C,C_XTAL1*%
X122311270Y27501900D02*
X122463773Y27349397D01*
X122820387Y28011017D02*
X122972890Y27858514D01*
%TO.C,C_3V3_8*%
X127783727Y35785044D02*
X127999399Y35785044D01*
X127783727Y36505044D02*
X127999399Y36505044D01*
%TO.C,D13*%
X63878727Y43279307D02*
X64367423Y47259417D01*
X63878727Y43279307D02*
X61893634Y43523045D01*
X61893634Y43523045D02*
X62382330Y47503155D01*
%TO.C,D20*%
X231581291Y50117224D02*
X231092595Y54097334D01*
X231581291Y50117224D02*
X229596198Y49873486D01*
X229596198Y49873486D02*
X229107502Y53853596D01*
%TO.C,R_XTAL1*%
X119187955Y27128503D02*
X119405236Y27345784D01*
X118650554Y27665904D02*
X118867835Y27883185D01*
%TO.C,R_DATA1*%
X117986556Y44442441D02*
X117986556Y44135159D01*
X118746556Y44442441D02*
X118746556Y44135159D01*
%TO.C,D26*%
X157089073Y21777652D02*
X156600377Y25757762D01*
X157089073Y21777652D02*
X155103980Y21533914D01*
X155103980Y21533914D02*
X154615284Y25514024D01*
%TO.C,D2*%
X41383563Y65234446D02*
X41872259Y69214556D01*
X41383563Y65234446D02*
X39398470Y65478184D01*
X39398470Y65478184D02*
X39887166Y69458294D01*
%TO.C,D33*%
X160157135Y6559987D02*
X159668439Y10540097D01*
X160157135Y6559987D02*
X158172042Y6316249D01*
X158172042Y6316249D02*
X157683346Y10296359D01*
%TO.C,D31*%
X65579557Y8283017D02*
X66068253Y12263127D01*
X65579557Y8283017D02*
X63594464Y8526755D01*
X63594464Y8526755D02*
X64083160Y12506865D01*
%TO.C,D16*%
X155949214Y40830772D02*
X155460518Y44810882D01*
X155949214Y40830772D02*
X153964121Y40587034D01*
X153964121Y40587034D02*
X153475425Y44567144D01*
%TO.C,D5*%
X98107624Y58269607D02*
X98596320Y62249717D01*
X98107624Y58269607D02*
X96122531Y58513345D01*
X96122531Y58513345D02*
X96611227Y62493455D01*
%TO.C,D12*%
X44970708Y45600920D02*
X45459404Y49581030D01*
X44970708Y45600920D02*
X42985615Y45844658D01*
X42985615Y45844658D02*
X43474311Y49824768D01*
%TO.C,D15*%
X101694766Y38636082D02*
X102183462Y42616192D01*
X101694766Y38636082D02*
X99709673Y38879820D01*
X99709673Y38879820D02*
X100198369Y42859930D01*
%TO.C,Y1*%
X120500318Y23204993D02*
X118166865Y25538446D01*
X118166865Y25538446D02*
X120995292Y28366873D01*
%TO.C,C_ESD1*%
X112763088Y50477243D02*
X112978760Y50477243D01*
X112763088Y51197243D02*
X112978760Y51197243D01*
%TO.C,C_1V1_3*%
X117165824Y29520418D02*
X117013321Y29367915D01*
X117674941Y29011301D02*
X117522438Y28858798D01*
%TO.C,U3*%
X112413422Y49180052D02*
X111763422Y49180052D01*
X112413422Y49180052D02*
X114088422Y49180052D01*
X112413422Y46060052D02*
X111763422Y46060052D01*
X112413422Y46060052D02*
X113063422Y46060052D01*
%TO.C,D11*%
X23699182Y48212736D02*
X24187878Y52192846D01*
X23699182Y48212736D02*
X21714089Y48456474D01*
X21714089Y48456474D02*
X22202785Y52436584D01*
%TO.C,D25*%
X108827165Y18567257D02*
X109315861Y22547367D01*
X108827165Y18567257D02*
X106842072Y18810995D01*
X106842072Y18810995D02*
X107330768Y22791105D01*
%TO.C,D3*%
X60291582Y62912834D02*
X60780278Y66892944D01*
X60291582Y62912834D02*
X58306489Y63156572D01*
X58306489Y63156572D02*
X58795185Y67136682D01*
%TO.C,C_3V3_1*%
X112978759Y42862861D02*
X112763087Y42862861D01*
X112978759Y42142861D02*
X112763087Y42142861D01*
%TO.C,C_3V3_9*%
X118007707Y28678535D02*
X117855204Y28526032D01*
X118516824Y28169418D02*
X118364321Y28016915D01*
%TO.C,C_1V1_1*%
X116345302Y44180965D02*
X116345302Y44396637D01*
X115625302Y44180965D02*
X115625302Y44396637D01*
%TO.C,D32*%
X96305091Y4510397D02*
X96793787Y8490507D01*
X96305091Y4510397D02*
X94319998Y4754135D01*
X94319998Y4754135D02*
X94808694Y8734245D01*
%TO.C,D7*%
X173717369Y62205506D02*
X173228673Y66185616D01*
X173717369Y62205506D02*
X171732276Y61961768D01*
X171732276Y61961768D02*
X171243580Y65941878D01*
D12*
%TO.C,U1*%
X124727496Y39745044D02*
G75*
G03*
X124727496Y39745044I-100000J0D01*
G01*
D13*
X116652496Y40645044D02*
X116652496Y40165044D01*
X116652496Y40645044D02*
X117132496Y40645044D01*
X116652496Y33645044D02*
X116652496Y34125044D01*
X116652496Y33645044D02*
X117132496Y33645044D01*
X123652496Y40645044D02*
X123172496Y40645044D01*
X123652496Y40645044D02*
X123652496Y40165044D01*
X123652496Y33645044D02*
X123172496Y33645044D01*
X123652496Y33645044D02*
X123652496Y34125044D01*
D11*
%TO.C,C_FLASH1*%
X125150309Y22908805D02*
X125150309Y22693133D01*
X125870309Y22908805D02*
X125870309Y22693133D01*
%TO.C,C_3V3_2*%
X112978759Y41672235D02*
X112763087Y41672235D01*
X112978759Y40952235D02*
X112763087Y40952235D01*
%TO.C,D8*%
X192625389Y64527118D02*
X192136693Y68507228D01*
X192625389Y64527118D02*
X190640296Y64283380D01*
X190640296Y64283380D02*
X190151600Y68263490D01*
%TO.C,C_3V3_7*%
X127783725Y39385045D02*
X127999397Y39385045D01*
X127783725Y40105045D02*
X127999397Y40105045D01*
%TO.C,D18*%
X193765253Y45474001D02*
X193276557Y49454111D01*
X193765253Y45474001D02*
X191780160Y45230263D01*
X191780160Y45230263D02*
X191291464Y49210373D01*
%TO.C,D29*%
X206722626Y27871887D02*
X206233930Y31851997D01*
X206722626Y27871887D02*
X204737533Y27628149D01*
X204737533Y27628149D02*
X204248837Y31608259D01*
%TO.C,D22*%
X52103106Y25532097D02*
X52591802Y29512207D01*
X52103106Y25532097D02*
X50118013Y25775835D01*
X50118013Y25775835D02*
X50606709Y29755945D01*
%TO.C,SW1*%
X122902495Y17095028D02*
X122902495Y19095028D01*
X121852495Y15795028D02*
X121402495Y15345028D01*
X121852495Y20395028D02*
X121402495Y20845028D01*
X118902495Y15345028D02*
X121402495Y15345028D01*
X118902495Y20845028D02*
X121402495Y20845028D01*
X118452495Y15795028D02*
X118902495Y15345028D01*
X118452495Y20395028D02*
X118902495Y20845028D01*
X117402495Y17095028D02*
X117402495Y19095028D01*
%TD*%
%LPC*%
D14*
%TO.C,MX51*%
X177779305Y33293453D03*
D15*
X174639142Y38026040D03*
D16*
X172737171Y32674357D03*
D15*
X168646022Y34731102D03*
D14*
X167695037Y32055261D03*
D17*
X165381924Y34180454D03*
D18*
X177916529Y38428452D03*
%TD*%
D14*
%TO.C,MX27*%
X163598301Y31552246D03*
D15*
X160458138Y36284833D03*
D16*
X158556167Y30933150D03*
D15*
X154465018Y32989895D03*
D14*
X153514033Y30314054D03*
D18*
X151214429Y32590773D03*
D19*
X163729454Y36846442D03*
%TD*%
D14*
%TO.C,MX50*%
X141696462Y28863054D03*
D15*
X144836625Y24130467D03*
D16*
X146738596Y29482150D03*
D15*
X150829745Y27425405D03*
D14*
X151780730Y30101246D03*
D20*
X141559238Y23728055D03*
X154080334Y27824527D03*
%TD*%
D21*
%TO.C,J2*%
X115145950Y3212205D03*
X117685950Y3212205D03*
X120225950Y3212205D03*
X122765950Y3212205D03*
D22*
X125305950Y3212205D03*
%TD*%
D23*
%TO.C,R_FLASH2*%
X125510311Y19995029D03*
X125510311Y21015029D03*
%TD*%
D24*
%TO.C,D9*%
X210052169Y70706972D03*
X210454337Y67431570D03*
%TD*%
D23*
%TO.C,R_DATA2*%
X117175928Y43778800D03*
X117175928Y44798800D03*
%TD*%
D14*
%TO.C,MX44*%
X96194167Y48286879D03*
D15*
X94292196Y53638561D03*
D16*
X91152033Y48905975D03*
D15*
X87679980Y51891364D03*
D14*
X86109899Y49525071D03*
D25*
X84429392Y52290487D03*
X97569584Y53236149D03*
%TD*%
D14*
%TO.C,MX41*%
X31749387Y56199702D03*
D15*
X33651358Y50848020D03*
D16*
X36791521Y55580606D03*
D15*
X40263574Y52595217D03*
D14*
X41833655Y54961510D03*
D26*
X30373970Y51250432D03*
X43514162Y52196094D03*
%TD*%
D14*
%TO.C,MX14*%
X74922661Y50898691D03*
D15*
X73020690Y56250373D03*
D16*
X69880527Y51517787D03*
D15*
X66408474Y54503176D03*
D14*
X64838393Y52136883D03*
D25*
X63157886Y54902299D03*
X76298078Y55847961D03*
%TD*%
D14*
%TO.C,MX28*%
X172422038Y32635664D03*
D15*
X175562201Y27903077D03*
D16*
X177464172Y33254760D03*
D15*
X181555321Y31198015D03*
D14*
X182506306Y33873856D03*
D20*
X172284814Y27500665D03*
X184805910Y31597137D03*
%TD*%
D27*
%TO.C,C_ESD2*%
X112390923Y44288800D03*
X113350923Y44288800D03*
%TD*%
D14*
%TO.C,MX17*%
X170730693Y51621055D03*
D15*
X167590530Y56353642D03*
D16*
X165688559Y51001959D03*
D15*
X161597410Y53058704D03*
D14*
X160646425Y50382863D03*
D18*
X158346821Y52659582D03*
X170867917Y56756054D03*
%TD*%
D24*
%TO.C,D19*%
X211192030Y51653853D03*
X211594198Y48378451D03*
%TD*%
D23*
%TO.C,R_FLASH3*%
X126700935Y22260968D03*
X126700935Y23280968D03*
%TD*%
D14*
%TO.C,MX22*%
X44239046Y35473102D03*
D15*
X42337075Y40824784D03*
D16*
X39196912Y36092198D03*
D15*
X35724859Y39077587D03*
D14*
X34154778Y36711294D03*
D25*
X32474271Y39476710D03*
X45614463Y40422372D03*
%TD*%
D28*
%TO.C,C_3V3_3*%
X119557178Y44768800D03*
X119557178Y43808800D03*
%TD*%
D29*
%TO.C,SW2*%
X117002493Y9646586D03*
X123302493Y9646586D03*
X117002493Y13446586D03*
X123302493Y13446586D03*
%TD*%
D14*
%TO.C,MX9*%
X201498089Y74591879D03*
D15*
X198357926Y79324466D03*
D16*
X196455955Y73972783D03*
D15*
X192364806Y76029528D03*
D14*
X191413821Y73353687D03*
D18*
X189114217Y75630406D03*
X201635313Y79726878D03*
%TD*%
D27*
%TO.C,C_3V3_6*%
X112390923Y36145045D03*
X113350923Y36145045D03*
%TD*%
D30*
%TO.C,D14*%
X82282895Y45059673D03*
X81880727Y41784271D03*
%TD*%
%TO.C,D24*%
X89415294Y24990848D03*
X89013126Y21715446D03*
%TD*%
D31*
%TO.C,C_XTAL2*%
X118514120Y24231070D03*
X119192942Y23552248D03*
%TD*%
D30*
%TO.C,D21*%
X25600725Y32826292D03*
X25198557Y29550890D03*
%TD*%
D24*
%TO.C,D27*%
X158562209Y25998646D03*
X158964377Y22723244D03*
%TD*%
D14*
%TO.C,MX6*%
X144774009Y67627053D03*
D15*
X141633846Y72359640D03*
D16*
X139731875Y67007957D03*
D15*
X135640726Y69064702D03*
D14*
X134689741Y66388861D03*
D18*
X132390137Y68665580D03*
X144911233Y72762052D03*
%TD*%
D32*
%TO.C,J1*%
X122952492Y52712243D03*
X117352492Y52712243D03*
D33*
X121652492Y48837243D03*
X120652492Y48837243D03*
X119652492Y48837243D03*
X118652492Y48837243D03*
%TD*%
D24*
%TO.C,D28*%
X186333364Y29408513D03*
X186735532Y26133111D03*
%TD*%
D23*
%TO.C,R_FLASH1*%
X126700936Y19995028D03*
X126700936Y21015028D03*
%TD*%
D24*
%TO.C,D17*%
X173375989Y47010626D03*
X173778157Y43735224D03*
%TD*%
D14*
%TO.C,MX47*%
X57789783Y33809282D03*
D15*
X59691754Y28457600D03*
D16*
X62831917Y33190186D03*
D15*
X66303970Y30204797D03*
D14*
X67874051Y32571090D03*
D26*
X56414366Y28860012D03*
X69554558Y29805674D03*
%TD*%
D27*
%TO.C,C_3V3_5*%
X112390925Y39745044D03*
X113350925Y39745044D03*
%TD*%
D14*
%TO.C,MX53*%
X214964980Y37859296D03*
D15*
X218105143Y33126709D03*
D16*
X220007114Y38478392D03*
D15*
X224098263Y36421647D03*
D14*
X225049248Y39097488D03*
D20*
X214827756Y32724297D03*
D34*
X227380489Y36824654D03*
%TD*%
D35*
%TO.C,U2*%
X125482188Y46789114D03*
X125482188Y45519114D03*
X125482188Y44249114D03*
X125482188Y42979114D03*
X132682188Y42979114D03*
X132682188Y44249114D03*
X132682188Y45519114D03*
X132682188Y46789114D03*
%TD*%
D24*
%TO.C,D6*%
X150964604Y63451934D03*
X151366772Y60176532D03*
%TD*%
D14*
%TO.C,MX8*%
X182590086Y72270267D03*
D15*
X179449923Y77002854D03*
D16*
X177547952Y71651171D03*
D15*
X173456803Y73707916D03*
D14*
X172505818Y71032075D03*
D18*
X170206214Y73308794D03*
X182727310Y77405266D03*
%TD*%
D30*
%TO.C,D23*%
X70507274Y27312463D03*
X70105106Y24037061D03*
%TD*%
D14*
%TO.C,MX48*%
X76697785Y31487671D03*
D15*
X78599756Y26135989D03*
D16*
X81739919Y30868575D03*
D15*
X85211972Y27883186D03*
D14*
X86782053Y30249479D03*
D26*
X75322368Y26538401D03*
X88462560Y27484063D03*
%TD*%
D14*
%TO.C,MX38*%
X196140822Y73934089D03*
D15*
X199280985Y69201502D03*
D16*
X201182956Y74553185D03*
D15*
X205274105Y72496440D03*
D14*
X206225090Y75172281D03*
D20*
X196003598Y68799090D03*
X208524694Y72895562D03*
%TD*%
D14*
%TO.C,MX15*%
X88473400Y49234869D03*
D15*
X90375371Y43883187D03*
D16*
X93515534Y48615773D03*
D15*
X96987587Y45630384D03*
D14*
X98557668Y47996677D03*
D26*
X87097983Y44285599D03*
X100238175Y45231261D03*
%TD*%
D24*
%TO.C,D30*%
X228876408Y34632143D03*
X229278576Y31356741D03*
%TD*%
%TO.C,D34*%
X189401426Y14190848D03*
X189803594Y10915446D03*
%TD*%
D14*
%TO.C,MX25*%
X103326557Y28218069D03*
D15*
X101424586Y33569751D03*
D16*
X98284423Y28837165D03*
D15*
X94812370Y31822554D03*
D14*
X93242289Y29456261D03*
D25*
X91561782Y32221677D03*
X104701974Y33167339D03*
%TD*%
D36*
%TO.C,R_RST1*%
X125305949Y5466803D03*
X124285949Y5466803D03*
%TD*%
D28*
%TO.C,C_3V3_4*%
X120747805Y44768800D03*
X120747805Y43808800D03*
%TD*%
D14*
%TO.C,MX10*%
X222769525Y77203698D03*
D15*
X219629362Y81936285D03*
D16*
X217727391Y76584602D03*
D15*
X213636242Y78641347D03*
D14*
X212685257Y75965506D03*
D18*
X210385653Y78242225D03*
X222906749Y82338697D03*
%TD*%
D24*
%TO.C,D10*%
X228960188Y73028585D03*
X229362356Y69753183D03*
%TD*%
D14*
%TO.C,MX42*%
X50657390Y53878092D03*
D15*
X52559361Y48526410D03*
D16*
X55699524Y53258996D03*
D15*
X59171577Y50273607D03*
D14*
X60741658Y52639900D03*
D26*
X49281973Y48928822D03*
X62422165Y49874484D03*
%TD*%
D14*
%TO.C,MX19*%
X208546702Y56264277D03*
D15*
X205406539Y60996864D03*
D16*
X203504568Y55645181D03*
D15*
X199413419Y57701926D03*
D14*
X198462434Y55026085D03*
D18*
X196162830Y57302804D03*
X208683926Y61399276D03*
%TD*%
D14*
%TO.C,MX40*%
X10477881Y58811514D03*
D15*
X12379852Y53459832D03*
D16*
X15520015Y58192418D03*
D15*
X18992068Y55207029D03*
D14*
X20562149Y57573322D03*
D26*
X9102464Y53862244D03*
X22242656Y54807906D03*
%TD*%
D14*
%TO.C,MX30*%
X222685746Y38807288D03*
D15*
X219545583Y43539875D03*
D16*
X217643612Y38188192D03*
D15*
X213552463Y40244937D03*
D14*
X212601478Y37569096D03*
D18*
X210301874Y39845815D03*
X222822970Y43942287D03*
%TD*%
D30*
%TO.C,D1*%
X21971692Y71658038D03*
X21569524Y68382636D03*
%TD*%
D37*
%TO.C,MX33*%
X164123982Y5386289D03*
D16*
X162266694Y20512693D03*
D14*
X156465843Y11483444D03*
D15*
X153325680Y16216031D03*
D16*
X151423709Y10864348D03*
D15*
X147332560Y12921093D03*
D14*
X146381575Y10245252D03*
D37*
X140425950Y2476537D03*
D16*
X138568662Y17602940D03*
D18*
X144081971Y12521971D03*
X156603067Y16618443D03*
%TD*%
D14*
%TO.C,MX31*%
X63188938Y13953286D03*
D15*
X61286967Y19304968D03*
D16*
X58146804Y14572382D03*
D15*
X54674751Y17557771D03*
D14*
X53104670Y15191478D03*
D25*
X51424163Y17956894D03*
X64564355Y18902556D03*
%TD*%
D38*
%TO.C,C_1V1_2*%
X122873157Y45223525D03*
X122194335Y44544703D03*
%TD*%
D14*
%TO.C,MX45*%
X12883271Y39323107D03*
D15*
X14785242Y33971425D03*
D16*
X17925405Y38704011D03*
D15*
X21397458Y35718622D03*
D14*
X22967539Y38084915D03*
D26*
X11507854Y34373837D03*
X24648046Y35319499D03*
%TD*%
D30*
%TO.C,D4*%
X78695753Y64693199D03*
X78293585Y61417797D03*
%TD*%
D39*
%TO.C,C_XTAL1*%
X122981491Y27340796D03*
X122302669Y28019618D03*
%TD*%
D14*
%TO.C,MX46*%
X38881777Y36130892D03*
D15*
X40783748Y30779210D03*
D16*
X43923911Y35511796D03*
D15*
X47395964Y32526407D03*
D14*
X48966045Y34892700D03*
D26*
X37506360Y31181622D03*
X50646552Y32127284D03*
%TD*%
D40*
%TO.C,C_3V3_8*%
X128371563Y36145044D03*
X127411563Y36145044D03*
%TD*%
D30*
%TO.C,D13*%
X63374876Y47381286D03*
X62972708Y44105884D03*
%TD*%
D24*
%TO.C,D20*%
X230100049Y53975465D03*
X230502217Y50700063D03*
%TD*%
D14*
%TO.C,MX23*%
X63147048Y33151491D03*
D15*
X61245077Y38503173D03*
D16*
X58104914Y33770587D03*
D15*
X54632861Y36755976D03*
D14*
X53062780Y34389683D03*
D25*
X51382273Y37155099D03*
X64522465Y38100761D03*
%TD*%
D41*
%TO.C,R_XTAL1*%
X119388519Y27866468D03*
X118667271Y27145220D03*
%TD*%
D14*
%TO.C,MX29*%
X191330043Y34957277D03*
D15*
X194470206Y30224690D03*
D16*
X196372177Y35576373D03*
D15*
X200463326Y33519628D03*
D14*
X201414311Y36195469D03*
D20*
X191192819Y29822278D03*
X203713915Y33918750D03*
%TD*%
D37*
%TO.C,MX32*%
X99870071Y2411954D03*
D16*
X101727359Y17538357D03*
D14*
X93914446Y10180669D03*
D15*
X92012475Y15532351D03*
D16*
X88872312Y10799765D03*
D15*
X85400259Y13785154D03*
D14*
X83830178Y11418861D03*
D37*
X76172039Y5321706D03*
D16*
X78029327Y20448110D03*
D25*
X82149671Y14184277D03*
X95289863Y15129939D03*
%TD*%
D23*
%TO.C,R_DATA1*%
X118366556Y43778800D03*
X118366556Y44798800D03*
%TD*%
D14*
%TO.C,MX36*%
X158324812Y69290868D03*
D15*
X161464975Y64558281D03*
D16*
X163366946Y69909964D03*
D15*
X167458095Y67853219D03*
D14*
X168409080Y70529060D03*
D20*
X158187588Y64155869D03*
X170708684Y68252341D03*
%TD*%
D24*
%TO.C,D26*%
X155607831Y25635893D03*
X156009999Y22360491D03*
%TD*%
D14*
%TO.C,MX2*%
X39428264Y74449917D03*
D15*
X37526293Y79801599D03*
D16*
X34386130Y75069013D03*
D15*
X30914077Y78054402D03*
D14*
X29343996Y75688109D03*
D25*
X27663489Y78453525D03*
X40803681Y79399187D03*
%TD*%
D14*
%TO.C,MX52*%
X196687310Y35615065D03*
D15*
X193547147Y40347652D03*
D16*
X191645176Y34995969D03*
D15*
X187554027Y37052714D03*
D14*
X186603042Y34376873D03*
D18*
X184303438Y36653592D03*
X196824534Y40750064D03*
%TD*%
D14*
%TO.C,MX39*%
X215048825Y76255700D03*
D15*
X218188988Y71523113D03*
D16*
X220090959Y76874796D03*
D15*
X224182108Y74818051D03*
D14*
X225133093Y77493892D03*
D20*
X214911601Y71120701D03*
X227432697Y75217173D03*
%TD*%
D14*
%TO.C,MX20*%
X227454704Y58585887D03*
D15*
X224314541Y63318474D03*
D16*
X222412570Y57966791D03*
D15*
X218321421Y60023536D03*
D14*
X217370436Y57347695D03*
D18*
X215070832Y59624414D03*
X227591928Y63720886D03*
%TD*%
D30*
%TO.C,D2*%
X40879712Y69336425D03*
X40477544Y66061023D03*
%TD*%
D24*
%TO.C,D33*%
X158675893Y10418228D03*
X159078061Y7142826D03*
%TD*%
D14*
%TO.C,MX43*%
X69565394Y51556481D03*
D15*
X71467365Y46204799D03*
D16*
X74607528Y50937385D03*
D15*
X78079581Y47951996D03*
D14*
X79649662Y50318289D03*
D26*
X68189977Y46607211D03*
X81330169Y47552873D03*
%TD*%
D30*
%TO.C,D31*%
X65075706Y12384996D03*
X64673538Y9109594D03*
%TD*%
D24*
%TO.C,D16*%
X154467972Y44689013D03*
X154870140Y41413611D03*
%TD*%
D30*
%TO.C,D5*%
X97603773Y62371586D03*
X97201605Y59096184D03*
%TD*%
%TO.C,D12*%
X44466857Y49702899D03*
X44064689Y46427497D03*
%TD*%
D14*
%TO.C,MX21*%
X20604039Y38375117D03*
D15*
X18702068Y43726799D03*
D16*
X15561905Y38994213D03*
D15*
X12089852Y41979602D03*
D14*
X10519771Y39613309D03*
D42*
X8807626Y42382609D03*
D25*
X21979456Y43324387D03*
%TD*%
D30*
%TO.C,D15*%
X101190915Y42738061D03*
X100788747Y39462659D03*
%TD*%
D43*
%TO.C,Y1*%
X120571028Y24407075D03*
X122126663Y25962710D03*
X120924582Y27164791D03*
X119368947Y25609156D03*
%TD*%
D14*
%TO.C,MX34*%
X187191350Y15256062D03*
D15*
X184051187Y19988649D03*
D16*
X182149216Y14636966D03*
D15*
X178058067Y16693711D03*
D14*
X177107082Y14017870D03*
D18*
X174807478Y16294589D03*
X187328574Y20391061D03*
%TD*%
D14*
%TO.C,MX3*%
X58336270Y72128305D03*
D15*
X56434299Y77479987D03*
D16*
X53294136Y72747401D03*
D15*
X49822083Y75732790D03*
D14*
X48252002Y73366497D03*
D25*
X46571495Y76131913D03*
X59711687Y77077575D03*
%TD*%
D40*
%TO.C,C_ESD1*%
X113350924Y50837243D03*
X112390924Y50837243D03*
%TD*%
D44*
%TO.C,C_1V1_3*%
X117004720Y28850197D03*
X117683542Y29529019D03*
%TD*%
D14*
%TO.C,MX18*%
X189638697Y53942666D03*
D15*
X186498534Y58675253D03*
D16*
X184596563Y53323570D03*
D15*
X180505414Y55380315D03*
D14*
X179554429Y52704474D03*
D18*
X177254825Y54981193D03*
X189775921Y59077665D03*
%TD*%
D14*
%TO.C,MX24*%
X82055054Y30829881D03*
D15*
X80153083Y36181563D03*
D16*
X77012920Y31448977D03*
D15*
X73540867Y34434366D03*
D14*
X71970786Y32068073D03*
D25*
X70290279Y34833489D03*
X83430471Y35779151D03*
%TD*%
D45*
%TO.C,U3*%
X111475922Y47620052D03*
X113350922Y46670052D03*
X113350922Y48570052D03*
%TD*%
D14*
%TO.C,MX11*%
X18198650Y57863523D03*
D15*
X16296679Y63215205D03*
D16*
X13156516Y58482619D03*
D15*
X9684463Y61468008D03*
D14*
X8114382Y59101715D03*
D25*
X6433875Y61867131D03*
X19574067Y62812793D03*
%TD*%
D14*
%TO.C,MX7*%
X163682080Y69948658D03*
D15*
X160541917Y74681245D03*
D16*
X158639946Y69329562D03*
D15*
X154548797Y71386307D03*
D14*
X153597812Y68710466D03*
D18*
X151298208Y70987185D03*
X163819304Y75083657D03*
%TD*%
D14*
%TO.C,MX12*%
X37106653Y55541912D03*
D15*
X35204682Y60893594D03*
D16*
X32064519Y56161008D03*
D15*
X28592466Y59146397D03*
D14*
X27022385Y56780104D03*
D25*
X25341878Y59545520D03*
X38482070Y60491182D03*
%TD*%
D14*
%TO.C,MX5*%
X96152278Y67485083D03*
D15*
X94250307Y72836765D03*
D16*
X91110144Y68104179D03*
D15*
X87638091Y71089568D03*
D14*
X86068010Y68723275D03*
D25*
X84387503Y71488691D03*
X97527695Y72434353D03*
%TD*%
D30*
%TO.C,D11*%
X23195331Y52314715D03*
X22793163Y49039313D03*
%TD*%
%TO.C,D25*%
X108323314Y22669236D03*
X107921146Y19393834D03*
%TD*%
D14*
%TO.C,MX13*%
X56014658Y53220302D03*
D15*
X54112687Y58571984D03*
D16*
X50972524Y53839398D03*
D15*
X47500471Y56824787D03*
D14*
X45930390Y54458494D03*
D25*
X44249883Y57223910D03*
X57390075Y58169572D03*
%TD*%
D14*
%TO.C,MX49*%
X95605790Y29166059D03*
D15*
X97507761Y23814377D03*
D16*
X100647924Y28546963D03*
D15*
X104119977Y25561574D03*
D14*
X105690058Y27927867D03*
D26*
X94230373Y24216789D03*
X107370565Y25162451D03*
%TD*%
D30*
%TO.C,D3*%
X59787731Y67014813D03*
X59385563Y63739411D03*
%TD*%
D27*
%TO.C,C_3V3_1*%
X112390923Y42502861D03*
X113350923Y42502861D03*
%TD*%
D44*
%TO.C,C_3V3_9*%
X117846603Y28008314D03*
X118525425Y28687136D03*
%TD*%
D28*
%TO.C,C_1V1_1*%
X115985302Y44768801D03*
X115985302Y43808801D03*
%TD*%
D30*
%TO.C,D32*%
X95801240Y8612376D03*
X95399072Y5336974D03*
%TD*%
D24*
%TO.C,D7*%
X172236127Y66063747D03*
X172638295Y62788345D03*
%TD*%
D46*
%TO.C,U1*%
X120152496Y37145044D03*
D47*
X122752496Y40580044D03*
X122352496Y40580044D03*
X121952496Y40580044D03*
X121552496Y40580044D03*
X121152496Y40580044D03*
X120752496Y40580044D03*
X120352496Y40580044D03*
X119952496Y40580044D03*
X119552496Y40580044D03*
X119152496Y40580044D03*
X118752496Y40580044D03*
X118352496Y40580044D03*
X117952496Y40580044D03*
X117552496Y40580044D03*
D48*
X116717496Y39745044D03*
X116717496Y39345044D03*
X116717496Y38945044D03*
X116717496Y38545044D03*
X116717496Y38145044D03*
X116717496Y37745044D03*
X116717496Y37345044D03*
X116717496Y36945044D03*
X116717496Y36545044D03*
X116717496Y36145044D03*
X116717496Y35745044D03*
X116717496Y35345044D03*
X116717496Y34945044D03*
X116717496Y34545044D03*
D47*
X117552496Y33710044D03*
X117952496Y33710044D03*
X118352496Y33710044D03*
X118752496Y33710044D03*
X119152496Y33710044D03*
X119552496Y33710044D03*
X119952496Y33710044D03*
X120352496Y33710044D03*
X120752496Y33710044D03*
X121152496Y33710044D03*
X121552496Y33710044D03*
X121952496Y33710044D03*
X122352496Y33710044D03*
X122752496Y33710044D03*
D48*
X123587496Y34545044D03*
X123587496Y34945044D03*
X123587496Y35345044D03*
X123587496Y35745044D03*
X123587496Y36145044D03*
X123587496Y36545044D03*
X123587496Y36945044D03*
X123587496Y37345044D03*
X123587496Y37745044D03*
X123587496Y38145044D03*
X123587496Y38545044D03*
X123587496Y38945044D03*
X123587496Y39345044D03*
X123587496Y39745044D03*
%TD*%
D14*
%TO.C,MX35*%
X137053240Y66679062D03*
D15*
X140193403Y61946475D03*
D16*
X142095374Y67298158D03*
D15*
X146186523Y65241413D03*
D14*
X147137508Y67917254D03*
D20*
X136916016Y61544063D03*
X149437112Y65640535D03*
%TD*%
D49*
%TO.C,C_FLASH1*%
X125510309Y22320969D03*
X125510309Y23280969D03*
%TD*%
D27*
%TO.C,C_3V3_2*%
X112390923Y41312235D03*
X113350923Y41312235D03*
%TD*%
D14*
%TO.C,MX16*%
X151822688Y49299444D03*
D15*
X148682525Y54032031D03*
D16*
X146780554Y48680348D03*
D15*
X142689405Y50737093D03*
D14*
X141738420Y48061252D03*
D18*
X139438816Y50337971D03*
X151959912Y54434443D03*
%TD*%
D14*
%TO.C,MX4*%
X77244272Y69806694D03*
D15*
X75342301Y75158376D03*
D16*
X72202138Y70425790D03*
D15*
X68730085Y73411179D03*
D14*
X67160004Y71044886D03*
D25*
X65479497Y73810302D03*
X78619689Y74755964D03*
%TD*%
D24*
%TO.C,D8*%
X191144147Y68385359D03*
X191546315Y65109957D03*
%TD*%
D40*
%TO.C,C_3V3_7*%
X128371561Y39745045D03*
X127411561Y39745045D03*
%TD*%
D14*
%TO.C,MX37*%
X177232819Y71612478D03*
D15*
X180372982Y66879891D03*
D16*
X182274953Y72231574D03*
D15*
X186366102Y70174829D03*
D14*
X187317087Y72850670D03*
D20*
X177095595Y66477479D03*
X189616691Y70573951D03*
%TD*%
D24*
%TO.C,D18*%
X192284011Y49332242D03*
X192686179Y46056840D03*
%TD*%
%TO.C,D29*%
X205241384Y31730128D03*
X205643552Y28454726D03*
%TD*%
D14*
%TO.C,MX26*%
X144690298Y29230634D03*
D15*
X141550135Y33963221D03*
D16*
X139648164Y28611538D03*
D15*
X135557015Y30668283D03*
D14*
X134606030Y27992442D03*
D18*
X132306426Y30269161D03*
X144827522Y34365633D03*
%TD*%
D14*
%TO.C,MX1*%
X20520259Y76771529D03*
D15*
X18618288Y82123211D03*
D16*
X15478125Y77390625D03*
D15*
X12006072Y80376014D03*
D14*
X10435991Y78009721D03*
D25*
X8755484Y80775137D03*
X21895676Y81720799D03*
%TD*%
D30*
%TO.C,D22*%
X51599255Y29634076D03*
X51197087Y26358674D03*
%TD*%
D29*
%TO.C,SW1*%
X123302495Y19995028D03*
X117002495Y19995028D03*
X123302495Y16195028D03*
X117002495Y16195028D03*
%TD*%
%LPD*%
M02*
