M48
; DRILL file {KiCad 7.0.6} date Mon Feb 12 15:49:08 2024
; FORMAT={-:-/ absolute / metric / decimal}
; #@! TF.CreationDate,2024-02-12T15:49:08-05:00
; #@! TF.GenerationSoftware,Kicad,Pcbnew,7.0.6
; #@! TF.FileFunction,Plated,1,2,PTH
FMAT,2
METRIC
; #@! TA.AperFunction,Plated,PTH,ViaDrill
T1C0.400
; #@! TA.AperFunction,Plated,PTH,ComponentDrill
T2C1.000
%
G90
G05
T1
X6.184Y62.073
X8.506Y80.981
X8.59Y42.585
X8.786Y53.957
X11.192Y34.468
X25.092Y59.752
X27.414Y78.66
X30.058Y51.345
X32.225Y39.683
X37.19Y31.276
X38.626Y60.753
X43.592Y52.346
X44.172Y57.073
X45.759Y40.684
X46.322Y76.338
X49.138Y48.667
X50.724Y32.278
X51.305Y37.005
X51.347Y17.806
X56.27Y28.598
X57.534Y58.432
X62.5Y50.025
X63.08Y54.752
X64.667Y38.363
X65.23Y74.016
X68.046Y46.345
X69.632Y29.956
X70.213Y34.683
X75.178Y26.276
X82.072Y14.034
X84.138Y71.695
X84.18Y52.497
X86.782Y44.38
X91.312Y32.428
X94.086Y23.954
X104.674Y39.463
X111.223Y36.145
X111.818Y21.072
X111.818Y7.379
X112.413Y45.479
X112.413Y40.717
X112.413Y43.098
X113.351Y35.299
X114.795Y46.67
X115.985Y45.479
X118.962Y38.336
X118.962Y35.954
X119.244Y29.406
X120.152Y37.145
X121.343Y35.954
X121.343Y38.336
X123.724Y46.67
X127.412Y35.299
X127.412Y40.717
X127.412Y24.048
X129.678Y24.048
X132.267Y30.104
X132.351Y68.501
X136.125Y46.789
X136.125Y41.414
X136.84Y61.255
X139.4Y50.173
X141.483Y23.439
X144.043Y12.357
X151.175Y32.426
X151.259Y70.822
X158.111Y63.867
X158.308Y52.495
X163.968Y74.782
X165.356Y34.167
X170.167Y73.144
X170.82Y67.826
X172.208Y27.211
X174.769Y16.13
X177.019Y66.188
X177.216Y54.816
X182.876Y77.104
X184.264Y36.489
X189.075Y75.466
X189.728Y70.148
X191.116Y29.533
X195.927Y68.51
X196.124Y57.138
X210.263Y39.681
X210.347Y78.078
X214.751Y32.435
X214.835Y70.831
X215.032Y59.46
T2
X115.146Y3.212
X117.686Y3.212
X120.226Y3.212
X122.766Y3.212
X125.306Y3.212
T0
M30
