%TF.GenerationSoftware,KiCad,Pcbnew,7.0.6*%
%TF.CreationDate,2024-02-12T15:49:10-05:00*%
%TF.ProjectId,lalettre2040-tripple-stagger-hotswap-pcb,6c616c65-7474-4726-9532-3034302d7472,rev?*%
%TF.SameCoordinates,PX1ea85bbPY7e0978f*%
%TF.FileFunction,Drillmap*%
%TF.FilePolarity,Positive*%
%FSLAX45Y45*%
G04 Gerber Fmt 4.5, Leading zero omitted, Abs format (unit mm)*
G04 Created by KiCad (PCBNEW 7.0.6) date 2024-02-12 15:49:10*
%MOMM*%
%LPD*%
G01*
G04 APERTURE LIST*
%ADD10C,0.090000*%
%ADD11C,0.200000*%
%ADD12C,0.175000*%
%ADD13C,0.300000*%
%ADD14C,0.304800*%
%ADD15C,0.398780*%
G04 APERTURE END LIST*
D10*
X4541222Y855451D02*
X4724636Y2349233D01*
X694117Y8602037D02*
X695630Y8612220D01*
X697634Y8622207D01*
X700116Y8631987D01*
X703062Y8641548D01*
X706458Y8650880D01*
X710290Y8659972D01*
X714543Y8668812D01*
X719204Y8677390D01*
X724259Y8685695D01*
X729694Y8693716D01*
X735495Y8701442D01*
X741647Y8708863D01*
X748137Y8715966D01*
X754951Y8722741D01*
X762075Y8729178D01*
X769494Y8735265D01*
X777195Y8740992D01*
X785164Y8746346D01*
X793387Y8751319D01*
X801849Y8755898D01*
X810537Y8760072D01*
X819437Y8763831D01*
X828535Y8767164D01*
X837816Y8770060D01*
X847267Y8772507D01*
X856874Y8774496D01*
X866622Y8776014D01*
X876498Y8777051D01*
X886488Y8777597D01*
X896578Y8777639D01*
X906753Y8777168D01*
X917000Y8776172D01*
X23336955Y3047585D02*
X19479722Y2573976D01*
X220517Y3103771D02*
X210333Y3105283D01*
X200346Y3107288D01*
X190567Y3109770D01*
X181005Y3112716D01*
X171674Y3116112D01*
X162582Y3119943D01*
X153742Y3124197D01*
X145164Y3128858D01*
X136858Y3133913D01*
X128837Y3139348D01*
X121111Y3145148D01*
X113691Y3151301D01*
X106588Y3157791D01*
X99812Y3164605D01*
X93376Y3171728D01*
X87289Y3179148D01*
X81562Y3186849D01*
X76207Y3194818D01*
X71235Y3203040D01*
X66656Y3211503D01*
X62482Y3220191D01*
X58722Y3229091D01*
X55389Y3238188D01*
X52494Y3247470D01*
X50046Y3256921D01*
X48058Y3266527D01*
X46540Y3276276D01*
X45502Y3286152D01*
X44957Y3296142D01*
X44914Y3306232D01*
X45385Y3316407D01*
X46381Y3326654D01*
X19305587Y2351093D02*
X19489000Y857311D01*
X46381Y3326654D02*
X694117Y8602037D01*
X12887876Y7525494D02*
X12896997Y7525603D01*
X12906112Y7525921D01*
X12915216Y7526445D01*
X12924306Y7527177D01*
X12933379Y7528117D01*
X12936399Y7528476D01*
X917000Y8776172D02*
X11086705Y7527489D01*
X4724636Y2349233D02*
X4725632Y2359480D01*
X4726103Y2369655D01*
X4726060Y2379744D01*
X4725515Y2389734D01*
X4724477Y2399610D01*
X4722959Y2409359D01*
X4720971Y2418966D01*
X4718523Y2428417D01*
X4715627Y2437698D01*
X4712295Y2446796D01*
X4708535Y2455696D01*
X4704361Y2464384D01*
X4699782Y2472846D01*
X4694810Y2481069D01*
X4689455Y2489038D01*
X4683728Y2496739D01*
X4677641Y2504158D01*
X4671205Y2511282D01*
X4664429Y2518096D01*
X4657326Y2524586D01*
X4649906Y2530738D01*
X4642180Y2536539D01*
X4634159Y2541974D01*
X4625854Y2547029D01*
X4617275Y2551690D01*
X4608435Y2555943D01*
X4599344Y2559775D01*
X4590012Y2563171D01*
X4580450Y2566117D01*
X4570671Y2568599D01*
X4560684Y2570603D01*
X4550500Y2572116D01*
X11086705Y7527489D02*
X11095855Y7526473D01*
X11105024Y7525667D01*
X11114209Y7525072D01*
X11123405Y7524689D01*
X11132609Y7524518D01*
X11135678Y7524508D01*
X10686603Y-97571D02*
X10677388Y-97472D01*
X10668179Y-97159D01*
X10658981Y-96636D01*
X10649797Y-95900D01*
X10640631Y-94953D01*
X10637580Y-94590D01*
X4715358Y632568D02*
X4705174Y634080D01*
X4695187Y636085D01*
X4685407Y638567D01*
X4675846Y641513D01*
X4666514Y644909D01*
X4657423Y648740D01*
X4648583Y652994D01*
X4640004Y657655D01*
X4631699Y662710D01*
X4623678Y668145D01*
X4615952Y673945D01*
X4608532Y680097D01*
X4601429Y686588D01*
X4594653Y693401D01*
X4588217Y700525D01*
X4582129Y707944D01*
X4576403Y715646D01*
X4571048Y723614D01*
X4566076Y731837D01*
X4561497Y740299D01*
X4557323Y748988D01*
X4553563Y757887D01*
X4550230Y766985D01*
X4547335Y776266D01*
X4544887Y785717D01*
X4542899Y795324D01*
X4541381Y805073D01*
X4540343Y814949D01*
X4539798Y824939D01*
X4539755Y835028D01*
X4540226Y845204D01*
X4541222Y855451D01*
X22863355Y8545851D02*
X23511091Y3270468D01*
X22640472Y8719986D02*
X22650719Y8720982D01*
X22660894Y8721454D01*
X22670984Y8721411D01*
X22680974Y8720866D01*
X22690850Y8719828D01*
X22700598Y8718310D01*
X22710205Y8716321D01*
X22719656Y8713874D01*
X22728938Y8710978D01*
X22738035Y8707645D01*
X22746935Y8703886D01*
X22755623Y8699712D01*
X22764086Y8695133D01*
X22772308Y8690161D01*
X22780277Y8684806D01*
X22787978Y8679079D01*
X22795398Y8672992D01*
X22802521Y8666555D01*
X22809335Y8659780D01*
X22815825Y8652677D01*
X22821978Y8645257D01*
X22827778Y8637531D01*
X22833213Y8629509D01*
X22838268Y8621204D01*
X22842929Y8612626D01*
X22847183Y8603786D01*
X22851014Y8594694D01*
X22854410Y8585362D01*
X22857356Y8575801D01*
X22859838Y8566022D01*
X22861843Y8556035D01*
X22863355Y8545851D01*
X13392368Y-92763D02*
X13383311Y-93770D01*
X13374236Y-94571D01*
X13365145Y-95165D01*
X13356043Y-95552D01*
X13346933Y-95731D01*
X13343896Y-95744D01*
X12936399Y7528476D02*
X22640472Y8719986D01*
X4550500Y2572116D02*
X220517Y3103771D01*
X19479722Y2573976D02*
X19469539Y2572464D01*
X19459552Y2570460D01*
X19449772Y2567977D01*
X19440211Y2565031D01*
X19430879Y2561635D01*
X19421788Y2557804D01*
X19412947Y2553550D01*
X19404369Y2548889D01*
X19396064Y2543834D01*
X19388043Y2538399D01*
X19380317Y2532599D01*
X19372897Y2526446D01*
X19365793Y2519956D01*
X19359018Y2513142D01*
X19352581Y2506019D01*
X19346494Y2498599D01*
X19340768Y2490898D01*
X19335413Y2482929D01*
X19330440Y2474707D01*
X19325862Y2466244D01*
X19321687Y2457556D01*
X19317928Y2448656D01*
X19314595Y2439559D01*
X19311699Y2430277D01*
X19309252Y2420826D01*
X19307263Y2411220D01*
X19305745Y2401471D01*
X19304708Y2391595D01*
X19304162Y2381605D01*
X19304120Y2371515D01*
X19304591Y2361340D01*
X19305587Y2351093D01*
X13343896Y-95744D02*
X10686603Y-97571D01*
X10637580Y-94590D02*
X4715358Y632568D01*
X19489000Y857311D02*
X19489996Y847064D01*
X19490467Y836889D01*
X19490425Y826799D01*
X19489879Y816809D01*
X19488842Y806933D01*
X19487324Y797185D01*
X19485335Y787578D01*
X19482888Y778127D01*
X19479992Y768846D01*
X19476659Y759748D01*
X19472900Y750848D01*
X19468726Y742160D01*
X19464147Y733698D01*
X19459174Y725475D01*
X19453819Y717506D01*
X19448093Y709805D01*
X19442006Y702386D01*
X19435569Y695262D01*
X19428794Y688448D01*
X19421691Y681958D01*
X19414270Y675806D01*
X19406544Y670005D01*
X19398523Y664570D01*
X19390218Y659515D01*
X19381640Y654854D01*
X19372800Y650601D01*
X19363708Y646769D01*
X19354376Y643373D01*
X19344815Y640427D01*
X19335035Y637945D01*
X19325048Y635941D01*
X19314865Y634428D01*
X23511091Y3270468D02*
X23512087Y3260221D01*
X23512558Y3250046D01*
X23512515Y3239956D01*
X23511970Y3229966D01*
X23510932Y3220090D01*
X23509414Y3210342D01*
X23507426Y3200735D01*
X23504978Y3191284D01*
X23502082Y3182003D01*
X23498750Y3172905D01*
X23494990Y3164005D01*
X23490816Y3155317D01*
X23486237Y3146855D01*
X23481265Y3138632D01*
X23475910Y3130663D01*
X23470183Y3122962D01*
X23464096Y3115543D01*
X23457660Y3108419D01*
X23450884Y3101605D01*
X23443781Y3095115D01*
X23436361Y3088963D01*
X23428635Y3083162D01*
X23420614Y3077727D01*
X23412309Y3072672D01*
X23403730Y3068011D01*
X23394890Y3063758D01*
X23385799Y3059926D01*
X23376467Y3056530D01*
X23366905Y3053584D01*
X23357126Y3051102D01*
X23347139Y3049098D01*
X23336955Y3047585D01*
X19314865Y634428D02*
X13392368Y-92763D01*
X11135678Y7524508D02*
X12887876Y7525494D01*
D11*
D12*
X723938Y5997671D02*
X898938Y5822671D01*
X898938Y5997671D02*
X723938Y5822671D01*
X956099Y7888472D02*
X1131099Y7713472D01*
X1131099Y7888472D02*
X956099Y7713472D01*
X960288Y5968651D02*
X1135288Y5793651D01*
X1135288Y5968651D02*
X960288Y5793651D01*
X964477Y4048831D02*
X1139477Y3873831D01*
X1139477Y4048831D02*
X964477Y3873831D01*
X1200827Y4019811D02*
X1375827Y3844811D01*
X1375827Y4019811D02*
X1200827Y3844811D01*
X1732365Y5873852D02*
X1907365Y5698852D01*
X1907365Y5873852D02*
X1732365Y5698852D01*
X1964526Y7764653D02*
X2139526Y7589653D01*
X2139526Y7764653D02*
X1964526Y7589653D01*
X1968715Y5844832D02*
X2143715Y5669832D01*
X2143715Y5844832D02*
X1968715Y5669832D01*
X1972904Y3925012D02*
X2147904Y3750012D01*
X2147904Y3925012D02*
X1972904Y3750012D01*
X2209254Y3895991D02*
X2384254Y3720991D01*
X2384254Y3895991D02*
X2209254Y3720991D01*
X2614739Y5765510D02*
X2789739Y5590510D01*
X2789739Y5765510D02*
X2614739Y5590510D01*
X2846900Y7656311D02*
X3021900Y7481311D01*
X3021900Y7656311D02*
X2846900Y7481311D01*
X3087439Y5707470D02*
X3262439Y5532470D01*
X3262439Y5707470D02*
X3087439Y5532470D01*
X3327978Y3758629D02*
X3502978Y3583629D01*
X3502978Y3758629D02*
X3327978Y3583629D01*
X3623165Y5641691D02*
X3798165Y5466691D01*
X3798165Y5641691D02*
X3623165Y5466691D01*
X3800678Y3700589D02*
X3975678Y3525589D01*
X3975678Y3700589D02*
X3800678Y3525589D01*
X3855326Y7532492D02*
X4030326Y7357492D01*
X4030326Y7532492D02*
X3855326Y7357492D01*
X4095865Y5583651D02*
X4270866Y5408651D01*
X4270866Y5583651D02*
X4095865Y5408651D01*
X4336405Y3634810D02*
X4511405Y3459810D01*
X4511405Y3634810D02*
X4336405Y3459810D01*
X4505539Y5533349D02*
X4680539Y5358349D01*
X4680539Y5533349D02*
X4505539Y5358349D01*
X4737700Y7424150D02*
X4912700Y7249150D01*
X4912700Y7424150D02*
X4737700Y7249150D01*
X4809105Y3576770D02*
X4984105Y3401770D01*
X4984105Y3576770D02*
X4809105Y3401770D01*
X4978239Y5475309D02*
X5153239Y5300309D01*
X5153239Y5475309D02*
X4978239Y5300309D01*
X5218778Y3526468D02*
X5393778Y3351468D01*
X5393778Y3526468D02*
X5218778Y3351468D01*
X5222967Y1606648D02*
X5397967Y1431648D01*
X5397967Y1606648D02*
X5222967Y1431648D01*
X5513966Y5409530D02*
X5688966Y5234530D01*
X5688966Y5409530D02*
X5513966Y5234530D01*
X5691478Y3468428D02*
X5866478Y3293428D01*
X5866478Y3468428D02*
X5691478Y3293428D01*
X5746127Y7300330D02*
X5921127Y7125330D01*
X5921127Y7300330D02*
X5746127Y7125330D01*
X5986666Y5351490D02*
X6161666Y5176490D01*
X6161666Y5351490D02*
X5986666Y5176490D01*
X6227205Y3402649D02*
X6402205Y3227649D01*
X6402205Y3402649D02*
X6227205Y3227649D01*
X6231394Y1482829D02*
X6406394Y1307829D01*
X6406394Y1482829D02*
X6231394Y1307829D01*
X6396339Y5301188D02*
X6571339Y5126188D01*
X6571339Y5301188D02*
X6396339Y5126188D01*
X6628500Y7191989D02*
X6803500Y7016989D01*
X6803500Y7191989D02*
X6628500Y7016989D01*
X6699905Y3344609D02*
X6874905Y3169609D01*
X6874905Y3344609D02*
X6699905Y3169609D01*
X6869039Y5243148D02*
X7044039Y5068148D01*
X7044039Y5243148D02*
X6869039Y5068148D01*
X7109579Y3294307D02*
X7284579Y3119307D01*
X7284579Y3294307D02*
X7109579Y3119307D01*
X7404766Y5177369D02*
X7579766Y5002369D01*
X7579766Y5177369D02*
X7404766Y5002369D01*
X7582278Y3236267D02*
X7757278Y3061267D01*
X7757278Y3236267D02*
X7582278Y3061267D01*
X7636927Y7068169D02*
X7811927Y6893169D01*
X7811927Y7068169D02*
X7636927Y6893169D01*
X7877466Y5119329D02*
X8052466Y4944329D01*
X8052466Y5119329D02*
X7877466Y4944329D01*
X8118005Y3170488D02*
X8293005Y2995488D01*
X8293005Y3170488D02*
X8118005Y2995488D01*
X8295518Y1229386D02*
X8470518Y1054386D01*
X8470518Y1229386D02*
X8295518Y1054386D01*
X8519301Y6959827D02*
X8694301Y6784827D01*
X8694301Y6959827D02*
X8519301Y6784827D01*
X8523490Y5040007D02*
X8698490Y4865007D01*
X8698490Y5040007D02*
X8523490Y4865007D01*
X8590705Y3112448D02*
X8765705Y2937448D01*
X8765705Y3112448D02*
X8590705Y2937448D01*
X8759840Y5010987D02*
X8934840Y4835987D01*
X8934840Y5010987D02*
X8759840Y4835987D01*
X9236729Y3033126D02*
X9411729Y2858126D01*
X9411729Y3033126D02*
X9236729Y2858126D01*
X9303945Y1105567D02*
X9478945Y930567D01*
X9478945Y1105567D02*
X9303945Y930567D01*
X9473079Y3004106D02*
X9648079Y2829106D01*
X9648079Y3004106D02*
X9473079Y2829106D01*
X9527728Y6836008D02*
X9702728Y6661008D01*
X9702728Y6836008D02*
X9527728Y6661008D01*
X9531917Y4916188D02*
X9706917Y4741188D01*
X9706917Y4916188D02*
X9531917Y4741188D01*
X9768267Y4887168D02*
X9943267Y4712168D01*
X9943267Y4887168D02*
X9768267Y4712168D01*
X10245156Y2909307D02*
X10420156Y2734307D01*
X10420156Y2909307D02*
X10245156Y2734307D01*
X10481506Y2880287D02*
X10656506Y2705287D01*
X10656506Y2880287D02*
X10481506Y2705287D01*
X13373103Y2886744D02*
X13548103Y2711744D01*
X13548103Y2886744D02*
X13373103Y2711744D01*
X13381474Y6726386D02*
X13556474Y6551386D01*
X13556474Y6726386D02*
X13381474Y6551386D01*
X13617824Y6755406D02*
X13792824Y6580406D01*
X13792824Y6755406D02*
X13617824Y6580406D01*
X14082146Y2973805D02*
X14257146Y2798805D01*
X14257146Y2973805D02*
X14082146Y2798805D01*
X14086342Y4893625D02*
X14261342Y4718625D01*
X14261342Y4893625D02*
X14086342Y4718625D01*
X14381530Y3010563D02*
X14556530Y2835563D01*
X14556530Y3010563D02*
X14381530Y2835563D01*
X14389901Y6850205D02*
X14564901Y6675205D01*
X14564901Y6850205D02*
X14389901Y6675205D01*
X14550657Y1112025D02*
X14725657Y937025D01*
X14725657Y1112025D02*
X14550657Y937025D01*
X14626251Y6879225D02*
X14801251Y6704225D01*
X14801251Y6879225D02*
X14626251Y6704225D01*
X15090573Y3097625D02*
X15265573Y2922625D01*
X15265573Y3097625D02*
X15090573Y2922625D01*
X15094769Y5017444D02*
X15269769Y4842444D01*
X15269769Y5017444D02*
X15094769Y4842444D01*
X15263903Y3118905D02*
X15438903Y2943905D01*
X15438903Y3118905D02*
X15263903Y2943905D01*
X15272281Y6958547D02*
X15447281Y6783547D01*
X15447281Y6958547D02*
X15272281Y6783547D01*
X15559084Y1235844D02*
X15734084Y1060844D01*
X15734084Y1235844D02*
X15559084Y1060844D01*
X15744981Y7016587D02*
X15919981Y6841587D01*
X15919981Y7016587D02*
X15744981Y6841587D01*
X15977142Y5125786D02*
X16152142Y4950786D01*
X16152142Y5125786D02*
X15977142Y4950786D01*
X16272330Y3242725D02*
X16447330Y3067725D01*
X16447330Y3242725D02*
X16272330Y3067725D01*
X16280708Y7082366D02*
X16455708Y6907366D01*
X16455708Y7082366D02*
X16280708Y6907366D01*
X16682004Y3293026D02*
X16857004Y3118026D01*
X16857004Y3293026D02*
X16682004Y3118026D01*
X16753408Y7140406D02*
X16928408Y6965406D01*
X16928408Y7140406D02*
X16753408Y6965406D01*
X16985569Y5249606D02*
X17160569Y5074606D01*
X17160569Y5249606D02*
X16985569Y5074606D01*
X17154704Y3351066D02*
X17329704Y3176066D01*
X17329704Y3351066D02*
X17154704Y3176066D01*
X17163082Y7190707D02*
X17338082Y7015707D01*
X17338082Y7190707D02*
X17163082Y7015707D01*
X17623208Y1489287D02*
X17798208Y1314287D01*
X17798208Y1489287D02*
X17623208Y1314287D01*
X17635782Y7248748D02*
X17810782Y7073748D01*
X17810782Y7248748D02*
X17635782Y7073748D01*
X17690431Y3416845D02*
X17865431Y3241845D01*
X17865431Y3416845D02*
X17690431Y3241845D01*
X17867943Y5357947D02*
X18042943Y5182947D01*
X18042943Y5357947D02*
X17867943Y5182947D01*
X18163131Y3474886D02*
X18338131Y3299886D01*
X18338131Y3474886D02*
X18163131Y3299886D01*
X18171509Y7314527D02*
X18346509Y7139527D01*
X18346509Y7314527D02*
X18171509Y7139527D01*
X18572804Y3525187D02*
X18747804Y3350187D01*
X18747804Y3525187D02*
X18572804Y3350187D01*
X18631635Y1613106D02*
X18806635Y1438106D01*
X18806635Y1613106D02*
X18631635Y1438106D01*
X18644209Y7372567D02*
X18819209Y7197567D01*
X18819209Y7372567D02*
X18644209Y7197567D01*
X18876370Y5481767D02*
X19051370Y5306767D01*
X19051370Y5481767D02*
X18876370Y5306767D01*
X19045504Y3583228D02*
X19220504Y3408228D01*
X19220504Y3583228D02*
X19045504Y3408228D01*
X19053882Y7422869D02*
X19228882Y7247869D01*
X19228882Y7422869D02*
X19053882Y7247869D01*
X19526582Y7480909D02*
X19701582Y7305909D01*
X19701582Y7480909D02*
X19526582Y7305909D01*
X19581231Y3649006D02*
X19756231Y3474006D01*
X19756231Y3649006D02*
X19581231Y3474006D01*
X19758743Y5590109D02*
X19933743Y5415109D01*
X19933743Y5590109D02*
X19758743Y5415109D01*
X20053931Y3707047D02*
X20228931Y3532047D01*
X20228931Y3707047D02*
X20053931Y3532047D01*
X20062309Y7546688D02*
X20237309Y7371688D01*
X20237309Y7546688D02*
X20062309Y7371688D01*
X20535009Y7604728D02*
X20710009Y7429728D01*
X20710009Y7604728D02*
X20535009Y7429728D01*
X20767170Y5713928D02*
X20942170Y5538928D01*
X20942170Y5713928D02*
X20767170Y5538928D01*
X21172648Y3844410D02*
X21347648Y3669410D01*
X21347648Y3844410D02*
X21172648Y3669410D01*
X21181026Y7684051D02*
X21356026Y7509051D01*
X21356026Y7684051D02*
X21181026Y7509051D01*
X21408998Y3873430D02*
X21583998Y3698430D01*
X21583998Y3873430D02*
X21408998Y3698430D01*
X21417383Y7713070D02*
X21592383Y7538070D01*
X21592383Y7713070D02*
X21417383Y7538070D01*
X21649544Y5822269D02*
X21824544Y5647269D01*
X21824544Y5822269D02*
X21649544Y5647269D01*
X22181075Y3968229D02*
X22356075Y3793229D01*
X22356075Y3968229D02*
X22181075Y3793229D01*
X22189453Y7807870D02*
X22364453Y7632870D01*
X22364453Y7807870D02*
X22189453Y7632870D01*
X22417425Y3997249D02*
X22592425Y3822249D01*
X22592425Y3997249D02*
X22417425Y3822249D01*
X22425809Y7836889D02*
X22600809Y7661889D01*
X22600809Y7836889D02*
X22425809Y7661889D01*
X22657970Y5946089D02*
X22832970Y5771089D01*
X22832970Y5946089D02*
X22657970Y5771089D01*
D13*
X1118446Y6146801D02*
G75*
G03*
X1118446Y6146801I-150000J0D01*
G01*
X1350607Y8037601D02*
G75*
G03*
X1350607Y8037601I-150000J0D01*
G01*
X1358985Y4197960D02*
G75*
G03*
X1358985Y4197960I-150000J0D01*
G01*
X1387985Y5345983D02*
G75*
G03*
X1387985Y5345983I-150000J0D01*
G01*
X1628524Y3397142D02*
G75*
G03*
X1628524Y3397142I-150000J0D01*
G01*
X1779668Y6321520D02*
G75*
G03*
X1779668Y6321520I-150000J0D01*
G01*
X2011829Y8212321D02*
G75*
G03*
X2011829Y8212321I-150000J0D01*
G01*
X2020207Y4372680D02*
G75*
G03*
X2020207Y4372680I-150000J0D01*
G01*
X2049207Y5520703D02*
G75*
G03*
X2049207Y5520703I-150000J0D01*
G01*
X2289746Y3571862D02*
G75*
G03*
X2289746Y3571862I-150000J0D01*
G01*
X3009247Y5914640D02*
G75*
G03*
X3009247Y5914640I-150000J0D01*
G01*
X3241408Y7805440D02*
G75*
G03*
X3241408Y7805440I-150000J0D01*
G01*
X3515136Y5084802D02*
G75*
G03*
X3515136Y5084802I-150000J0D01*
G01*
X3670468Y6089359D02*
G75*
G03*
X3670468Y6089359I-150000J0D01*
G01*
X3722486Y3907759D02*
G75*
G03*
X3722486Y3907759I-150000J0D01*
G01*
X3902629Y7980160D02*
G75*
G03*
X3902629Y7980160I-150000J0D01*
G01*
X4176357Y5259522D02*
G75*
G03*
X4176357Y5259522I-150000J0D01*
G01*
X4228375Y3077921D02*
G75*
G03*
X4228375Y3077921I-150000J0D01*
G01*
X4383708Y4082478D02*
G75*
G03*
X4383708Y4082478I-150000J0D01*
G01*
X4889596Y3252641D02*
G75*
G03*
X4889596Y3252641I-150000J0D01*
G01*
X4900047Y5682479D02*
G75*
G03*
X4900047Y5682479I-150000J0D01*
G01*
X5132208Y7573279D02*
G75*
G03*
X5132208Y7573279I-150000J0D01*
G01*
X5405936Y4852641D02*
G75*
G03*
X5405936Y4852641I-150000J0D01*
G01*
X5561269Y5857198D02*
G75*
G03*
X5561269Y5857198I-150000J0D01*
G01*
X5613286Y3675598D02*
G75*
G03*
X5613286Y3675598I-150000J0D01*
G01*
X5617475Y1755777D02*
G75*
G03*
X5617475Y1755777I-150000J0D01*
G01*
X5793430Y7747999D02*
G75*
G03*
X5793430Y7747999I-150000J0D01*
G01*
X6067158Y5027361D02*
G75*
G03*
X6067158Y5027361I-150000J0D01*
G01*
X6119175Y2845760D02*
G75*
G03*
X6119175Y2845760I-150000J0D01*
G01*
X6274508Y3850317D02*
G75*
G03*
X6274508Y3850317I-150000J0D01*
G01*
X6278697Y1930497D02*
G75*
G03*
X6278697Y1930497I-150000J0D01*
G01*
X6780397Y3020480D02*
G75*
G03*
X6780397Y3020480I-150000J0D01*
G01*
X6790847Y5450318D02*
G75*
G03*
X6790847Y5450318I-150000J0D01*
G01*
X7023008Y7341118D02*
G75*
G03*
X7023008Y7341118I-150000J0D01*
G01*
X7296736Y4620480D02*
G75*
G03*
X7296736Y4620480I-150000J0D01*
G01*
X7452069Y5625037D02*
G75*
G03*
X7452069Y5625037I-150000J0D01*
G01*
X7504087Y3443437D02*
G75*
G03*
X7504087Y3443437I-150000J0D01*
G01*
X7684230Y7515838D02*
G75*
G03*
X7684230Y7515838I-150000J0D01*
G01*
X7957958Y4795200D02*
G75*
G03*
X7957958Y4795200I-150000J0D01*
G01*
X8009976Y2613599D02*
G75*
G03*
X8009976Y2613599I-150000J0D01*
G01*
X8165308Y3618156D02*
G75*
G03*
X8165308Y3618156I-150000J0D01*
G01*
X8671197Y2788319D02*
G75*
G03*
X8671197Y2788319I-150000J0D01*
G01*
X8690026Y1378515D02*
G75*
G03*
X8690026Y1378515I-150000J0D01*
G01*
X8913809Y7108957D02*
G75*
G03*
X8913809Y7108957I-150000J0D01*
G01*
X8917998Y5189136D02*
G75*
G03*
X8917998Y5189136I-150000J0D01*
G01*
X9187537Y4388319D02*
G75*
G03*
X9187537Y4388319I-150000J0D01*
G01*
X9351248Y1553235D02*
G75*
G03*
X9351248Y1553235I-150000J0D01*
G01*
X9575031Y7283676D02*
G75*
G03*
X9575031Y7283676I-150000J0D01*
G01*
X9579220Y5363856D02*
G75*
G03*
X9579220Y5363856I-150000J0D01*
G01*
X9631237Y3182255D02*
G75*
G03*
X9631237Y3182255I-150000J0D01*
G01*
X9848759Y4563038D02*
G75*
G03*
X9848759Y4563038I-150000J0D01*
G01*
X9900776Y2381438D02*
G75*
G03*
X9900776Y2381438I-150000J0D01*
G01*
X10292459Y3356975D02*
G75*
G03*
X10292459Y3356975I-150000J0D01*
G01*
X10561998Y2556157D02*
G75*
G03*
X10561998Y2556157I-150000J0D01*
G01*
X13705701Y3066828D02*
G75*
G03*
X13705701Y3066828I-150000J0D01*
G01*
X13714073Y6906470D02*
G75*
G03*
X13714073Y6906470I-150000J0D01*
G01*
X14169340Y6194647D02*
G75*
G03*
X14169340Y6194647I-150000J0D01*
G01*
X14305013Y3396322D02*
G75*
G03*
X14305013Y3396322I-150000J0D01*
G01*
X14313385Y7235964D02*
G75*
G03*
X14313385Y7235964I-150000J0D01*
G01*
X14418940Y5073709D02*
G75*
G03*
X14418940Y5073709I-150000J0D01*
G01*
X14633662Y2413047D02*
G75*
G03*
X14633662Y2413047I-150000J0D01*
G01*
X14768652Y6524141D02*
G75*
G03*
X14768652Y6524141I-150000J0D01*
G01*
X14883256Y1292109D02*
G75*
G03*
X14883256Y1292109I-150000J0D01*
G01*
X15018252Y5403203D02*
G75*
G03*
X15018252Y5403203I-150000J0D01*
G01*
X15232974Y2742541D02*
G75*
G03*
X15232974Y2742541I-150000J0D01*
G01*
X15482568Y1621603D02*
G75*
G03*
X15482568Y1621603I-150000J0D01*
G01*
X15596502Y3298989D02*
G75*
G03*
X15596502Y3298989I-150000J0D01*
G01*
X15604880Y7138631D02*
G75*
G03*
X15604880Y7138631I-150000J0D01*
G01*
X16195814Y3628483D02*
G75*
G03*
X16195814Y3628483I-150000J0D01*
G01*
X16204192Y7468124D02*
G75*
G03*
X16204192Y7468124I-150000J0D01*
G01*
X16296497Y6455828D02*
G75*
G03*
X16296497Y6455828I-150000J0D01*
G01*
X16309741Y5305870D02*
G75*
G03*
X16309741Y5305870I-150000J0D01*
G01*
X16895810Y6785322D02*
G75*
G03*
X16895810Y6785322I-150000J0D01*
G01*
X16909053Y5635364D02*
G75*
G03*
X16909053Y5635364I-150000J0D01*
G01*
X17014602Y3473110D02*
G75*
G03*
X17014602Y3473110I-150000J0D01*
G01*
X17495680Y7370792D02*
G75*
G03*
X17495680Y7370792I-150000J0D01*
G01*
X17613914Y3802604D02*
G75*
G03*
X17613914Y3802604I-150000J0D01*
G01*
X17706220Y2790308D02*
G75*
G03*
X17706220Y2790308I-150000J0D01*
G01*
X17955807Y1669371D02*
G75*
G03*
X17955807Y1669371I-150000J0D01*
G01*
X18094992Y7700285D02*
G75*
G03*
X18094992Y7700285I-150000J0D01*
G01*
X18187298Y6687989D02*
G75*
G03*
X18187298Y6687989I-150000J0D01*
G01*
X18200541Y5538032D02*
G75*
G03*
X18200541Y5538032I-150000J0D01*
G01*
X18305532Y3119801D02*
G75*
G03*
X18305532Y3119801I-150000J0D01*
G01*
X18555119Y1998865D02*
G75*
G03*
X18555119Y1998865I-150000J0D01*
G01*
X18786610Y7017483D02*
G75*
G03*
X18786610Y7017483I-150000J0D01*
G01*
X18799853Y5867525D02*
G75*
G03*
X18799853Y5867525I-150000J0D01*
G01*
X18905403Y3705271D02*
G75*
G03*
X18905403Y3705271I-150000J0D01*
G01*
X19386481Y7602953D02*
G75*
G03*
X19386481Y7602953I-150000J0D01*
G01*
X19504715Y4034765D02*
G75*
G03*
X19504715Y4034765I-150000J0D01*
G01*
X19597021Y3022469D02*
G75*
G03*
X19597021Y3022469I-150000J0D01*
G01*
X19985793Y7932447D02*
G75*
G03*
X19985793Y7932447I-150000J0D01*
G01*
X20078099Y6920150D02*
G75*
G03*
X20078099Y6920150I-150000J0D01*
G01*
X20091342Y5770193D02*
G75*
G03*
X20091342Y5770193I-150000J0D01*
G01*
X20196333Y3351963D02*
G75*
G03*
X20196333Y3351963I-150000J0D01*
G01*
X20677411Y7249644D02*
G75*
G03*
X20677411Y7249644I-150000J0D01*
G01*
X20690654Y6099686D02*
G75*
G03*
X20690654Y6099686I-150000J0D01*
G01*
X21505246Y4024494D02*
G75*
G03*
X21505246Y4024494I-150000J0D01*
G01*
X21513624Y7864135D02*
G75*
G03*
X21513624Y7864135I-150000J0D01*
G01*
X21960514Y3312671D02*
G75*
G03*
X21960514Y3312671I-150000J0D01*
G01*
X21968899Y7152311D02*
G75*
G03*
X21968899Y7152311I-150000J0D01*
G01*
X21982142Y6002354D02*
G75*
G03*
X21982142Y6002354I-150000J0D01*
G01*
X22104558Y4353988D02*
G75*
G03*
X22104558Y4353988I-150000J0D01*
G01*
X22112936Y8193628D02*
G75*
G03*
X22112936Y8193628I-150000J0D01*
G01*
X22559826Y3642165D02*
G75*
G03*
X22559826Y3642165I-150000J0D01*
G01*
X22568211Y7481805D02*
G75*
G03*
X22568211Y7481805I-150000J0D01*
G01*
X22581454Y6331847D02*
G75*
G03*
X22581454Y6331847I-150000J0D01*
G01*
D14*
X7617204Y684571D02*
X7617204Y379771D01*
X7464804Y532171D02*
X7769604Y532171D01*
X9987007Y393595D02*
X9987007Y88795D01*
X9834607Y241195D02*
X10139407Y241195D01*
X14042595Y400054D02*
X14042595Y95254D01*
X13890195Y247654D02*
X14194995Y247654D01*
X16412398Y691029D02*
X16412398Y386229D01*
X16259998Y538629D02*
X16564798Y538629D01*
D15*
X1456643Y5707270D02*
X1456643Y5989253D01*
X1174660Y5989253D01*
X1174660Y5707270D01*
X1456643Y5707270D01*
X1688804Y7598071D02*
X1688804Y7880054D01*
X1406821Y7880054D01*
X1406821Y7598071D01*
X1688804Y7598071D01*
X1692993Y5678250D02*
X1692993Y5960233D01*
X1411010Y5960233D01*
X1411010Y5678250D01*
X1692993Y5678250D01*
X1697182Y3758430D02*
X1697182Y4040413D01*
X1415199Y4040413D01*
X1415199Y3758430D01*
X1697182Y3758430D01*
X1933532Y3729410D02*
X1933532Y4011392D01*
X1651549Y4011392D01*
X1651549Y3729410D01*
X1933532Y3729410D01*
X3347443Y5475109D02*
X3347443Y5757092D01*
X3065460Y5757092D01*
X3065460Y5475109D01*
X3347443Y5475109D01*
X3579604Y7365910D02*
X3579604Y7647893D01*
X3297622Y7647893D01*
X3297622Y7365910D01*
X3579604Y7365910D01*
X3820143Y5417069D02*
X3820143Y5699052D01*
X3538161Y5699052D01*
X3538161Y5417069D01*
X3820143Y5417069D01*
X4060683Y3468228D02*
X4060683Y3750211D01*
X3778700Y3750211D01*
X3778700Y3468228D01*
X4060683Y3468228D01*
X4533383Y3410188D02*
X4533383Y3692171D01*
X4251400Y3692171D01*
X4251400Y3410188D01*
X4533383Y3410188D01*
X5238244Y5242948D02*
X5238244Y5524931D01*
X4956261Y5524931D01*
X4956261Y5242948D01*
X5238244Y5242948D01*
X5470405Y7133749D02*
X5470405Y7415731D01*
X5188422Y7415731D01*
X5188422Y7133749D01*
X5470405Y7133749D01*
X5710944Y5184908D02*
X5710944Y5466891D01*
X5428961Y5466891D01*
X5428961Y5184908D01*
X5710944Y5184908D01*
X5951483Y3236067D02*
X5951483Y3518050D01*
X5669500Y3518050D01*
X5669500Y3236067D01*
X5951483Y3236067D01*
X5955672Y1316247D02*
X5955672Y1598230D01*
X5673689Y1598230D01*
X5673689Y1316247D01*
X5955672Y1316247D01*
X6424183Y3178027D02*
X6424183Y3460010D01*
X6142200Y3460010D01*
X6142200Y3178027D01*
X6424183Y3178027D01*
X7129044Y5010787D02*
X7129044Y5292770D01*
X6847061Y5292770D01*
X6847061Y5010787D01*
X7129044Y5010787D01*
X7361205Y6901588D02*
X7361205Y7183570D01*
X7079222Y7183570D01*
X7079222Y6901588D01*
X7361205Y6901588D01*
X7601744Y4952747D02*
X7601744Y5234730D01*
X7319761Y5234730D01*
X7319761Y4952747D01*
X7601744Y4952747D01*
X7842283Y3003906D02*
X7842283Y3285889D01*
X7560301Y3285889D01*
X7560301Y3003906D01*
X7842283Y3003906D01*
X7943924Y1903820D02*
X7943924Y2185802D01*
X7661941Y2185802D01*
X7661941Y1903820D01*
X7943924Y1903820D01*
X8314983Y2945866D02*
X8314983Y3227849D01*
X8033000Y3227849D01*
X8033000Y2945866D01*
X8314983Y2945866D01*
X9028223Y938985D02*
X9028223Y1220968D01*
X8746240Y1220968D01*
X8746240Y938985D01*
X9028223Y938985D01*
X9252006Y6669426D02*
X9252006Y6951409D01*
X8970023Y6951409D01*
X8970023Y6669426D01*
X9252006Y6669426D01*
X9256195Y4749606D02*
X9256195Y5031589D01*
X8974212Y5031589D01*
X8974212Y4749606D01*
X9256195Y4749606D01*
X9492545Y4720586D02*
X9492545Y5002569D01*
X9210562Y5002569D01*
X9210562Y4720586D01*
X9492545Y4720586D01*
X9969434Y2742725D02*
X9969434Y3024708D01*
X9687451Y3024708D01*
X9687451Y2742725D01*
X9969434Y2742725D01*
X10205784Y2713705D02*
X10205784Y2995688D01*
X9923801Y2995688D01*
X9923801Y2713705D01*
X10205784Y2713705D01*
X10313727Y1612844D02*
X10313727Y1894827D01*
X10031745Y1894827D01*
X10031745Y1612844D01*
X10313727Y1612844D01*
X13997858Y1619303D02*
X13997858Y1901285D01*
X13715875Y1901285D01*
X13715875Y1619303D01*
X13997858Y1619303D01*
X14105808Y2720162D02*
X14105808Y3002145D01*
X13823825Y3002145D01*
X13823825Y2720162D01*
X14105808Y2720162D01*
X14114179Y6559804D02*
X14114179Y6841787D01*
X13832196Y6841787D01*
X13832196Y6559804D01*
X14114179Y6559804D01*
X14350529Y6588824D02*
X14350529Y6870807D01*
X14068546Y6870807D01*
X14068546Y6588824D01*
X14350529Y6588824D01*
X14814851Y2807224D02*
X14814851Y3089206D01*
X14532868Y3089206D01*
X14532868Y2807224D01*
X14814851Y2807224D01*
X14819047Y4727043D02*
X14819047Y5009026D01*
X14537064Y5009026D01*
X14537064Y4727043D01*
X14819047Y4727043D01*
X15283362Y945443D02*
X15283362Y1227426D01*
X15001379Y1227426D01*
X15001379Y945443D01*
X15283362Y945443D01*
X15996608Y2952324D02*
X15996608Y3234306D01*
X15714625Y3234306D01*
X15714625Y2952324D01*
X15996608Y2952324D01*
X16004986Y6791965D02*
X16004986Y7073948D01*
X15723003Y7073948D01*
X15723003Y6791965D01*
X16004986Y6791965D01*
X16367661Y1910278D02*
X16367661Y2192261D01*
X16085678Y2192261D01*
X16085678Y1910278D01*
X16367661Y1910278D01*
X16477686Y6850005D02*
X16477686Y7131988D01*
X16195703Y7131988D01*
X16195703Y6850005D01*
X16477686Y6850005D01*
X16709847Y4959205D02*
X16709847Y5241187D01*
X16427864Y5241187D01*
X16427864Y4959205D01*
X16709847Y4959205D01*
X17414709Y3126444D02*
X17414709Y3408427D01*
X17132726Y3408427D01*
X17132726Y3126444D01*
X17414709Y3126444D01*
X17887409Y3184485D02*
X17887409Y3466467D01*
X17605426Y3466467D01*
X17605426Y3184485D01*
X17887409Y3184485D01*
X17895787Y7024126D02*
X17895787Y7306108D01*
X17613804Y7306108D01*
X17613804Y7024126D01*
X17895787Y7024126D01*
X18355913Y1322705D02*
X18355913Y1604688D01*
X18073930Y1604688D01*
X18073930Y1322705D01*
X18355913Y1322705D01*
X18368487Y7082166D02*
X18368487Y7364149D01*
X18086504Y7364149D01*
X18086504Y7082166D01*
X18368487Y7082166D01*
X18600648Y5191366D02*
X18600648Y5473348D01*
X18318665Y5473348D01*
X18318665Y5191366D01*
X18600648Y5191366D01*
X19305509Y3358605D02*
X19305509Y3640588D01*
X19023526Y3640588D01*
X19023526Y3358605D01*
X19305509Y3358605D01*
X19778209Y3416646D02*
X19778209Y3698629D01*
X19496226Y3698629D01*
X19496226Y3416646D01*
X19778209Y3416646D01*
X19786587Y7256287D02*
X19786587Y7538270D01*
X19504604Y7538270D01*
X19504604Y7256287D01*
X19786587Y7256287D01*
X20259287Y7314327D02*
X20259287Y7596310D01*
X19977304Y7596310D01*
X19977304Y7314327D01*
X20259287Y7314327D01*
X20491448Y5423527D02*
X20491448Y5705509D01*
X20209465Y5705509D01*
X20209465Y5423527D01*
X20491448Y5423527D01*
X21905353Y3677828D02*
X21905353Y3959811D01*
X21623370Y3959811D01*
X21623370Y3677828D01*
X21905353Y3677828D01*
X21913731Y7517469D02*
X21913731Y7799452D01*
X21631748Y7799452D01*
X21631748Y7517469D01*
X21913731Y7517469D01*
X22141703Y3706848D02*
X22141703Y3988831D01*
X21859720Y3988831D01*
X21859720Y3706848D01*
X22141703Y3706848D01*
X22150087Y7546488D02*
X22150087Y7828471D01*
X21868105Y7828471D01*
X21868105Y7546488D01*
X22150087Y7546488D01*
X22382248Y5655688D02*
X22382248Y5937670D01*
X22100266Y5937670D01*
X22100266Y5655688D01*
X22382248Y5655688D01*
D11*
X289197Y-413566D02*
X289197Y-213566D01*
X289197Y-213566D02*
X336816Y-213566D01*
X336816Y-213566D02*
X365387Y-223090D01*
X365387Y-223090D02*
X384435Y-242138D01*
X384435Y-242138D02*
X393959Y-261185D01*
X393959Y-261185D02*
X403483Y-299281D01*
X403483Y-299281D02*
X403483Y-327852D01*
X403483Y-327852D02*
X393959Y-365947D01*
X393959Y-365947D02*
X384435Y-384995D01*
X384435Y-384995D02*
X365387Y-404043D01*
X365387Y-404043D02*
X336816Y-413566D01*
X336816Y-413566D02*
X289197Y-413566D01*
X489197Y-413566D02*
X489197Y-280233D01*
X489197Y-318328D02*
X498721Y-299281D01*
X498721Y-299281D02*
X508245Y-289757D01*
X508245Y-289757D02*
X527292Y-280233D01*
X527292Y-280233D02*
X546340Y-280233D01*
X613007Y-413566D02*
X613007Y-280233D01*
X613007Y-213566D02*
X603483Y-223090D01*
X603483Y-223090D02*
X613007Y-232614D01*
X613007Y-232614D02*
X622530Y-223090D01*
X622530Y-223090D02*
X613007Y-213566D01*
X613007Y-213566D02*
X613007Y-232614D01*
X736816Y-413566D02*
X717768Y-404043D01*
X717768Y-404043D02*
X708245Y-384995D01*
X708245Y-384995D02*
X708245Y-213566D01*
X841578Y-413566D02*
X822530Y-404043D01*
X822530Y-404043D02*
X813006Y-384995D01*
X813006Y-384995D02*
X813006Y-213566D01*
X1070149Y-413566D02*
X1070149Y-213566D01*
X1070149Y-213566D02*
X1136816Y-356423D01*
X1136816Y-356423D02*
X1203483Y-213566D01*
X1203483Y-213566D02*
X1203483Y-413566D01*
X1384435Y-413566D02*
X1384435Y-308805D01*
X1384435Y-308805D02*
X1374911Y-289757D01*
X1374911Y-289757D02*
X1355864Y-280233D01*
X1355864Y-280233D02*
X1317768Y-280233D01*
X1317768Y-280233D02*
X1298721Y-289757D01*
X1384435Y-404043D02*
X1365388Y-413566D01*
X1365388Y-413566D02*
X1317768Y-413566D01*
X1317768Y-413566D02*
X1298721Y-404043D01*
X1298721Y-404043D02*
X1289197Y-384995D01*
X1289197Y-384995D02*
X1289197Y-365947D01*
X1289197Y-365947D02*
X1298721Y-346900D01*
X1298721Y-346900D02*
X1317768Y-337376D01*
X1317768Y-337376D02*
X1365388Y-337376D01*
X1365388Y-337376D02*
X1384435Y-327852D01*
X1479673Y-280233D02*
X1479673Y-480233D01*
X1479673Y-289757D02*
X1498721Y-280233D01*
X1498721Y-280233D02*
X1536816Y-280233D01*
X1536816Y-280233D02*
X1555864Y-289757D01*
X1555864Y-289757D02*
X1565387Y-299281D01*
X1565387Y-299281D02*
X1574911Y-318328D01*
X1574911Y-318328D02*
X1574911Y-375471D01*
X1574911Y-375471D02*
X1565387Y-394519D01*
X1565387Y-394519D02*
X1555864Y-404043D01*
X1555864Y-404043D02*
X1536816Y-413566D01*
X1536816Y-413566D02*
X1498721Y-413566D01*
X1498721Y-413566D02*
X1479673Y-404043D01*
X1660626Y-394519D02*
X1670149Y-404043D01*
X1670149Y-404043D02*
X1660626Y-413566D01*
X1660626Y-413566D02*
X1651102Y-404043D01*
X1651102Y-404043D02*
X1660626Y-394519D01*
X1660626Y-394519D02*
X1660626Y-413566D01*
X1660626Y-289757D02*
X1670149Y-299281D01*
X1670149Y-299281D02*
X1660626Y-308805D01*
X1660626Y-308805D02*
X1651102Y-299281D01*
X1651102Y-299281D02*
X1660626Y-289757D01*
X1660626Y-289757D02*
X1660626Y-308805D01*
D12*
X-146580Y-654583D02*
X28420Y-829583D01*
X28420Y-654583D02*
X-146580Y-829583D01*
D11*
X393959Y-833566D02*
X279673Y-833566D01*
X336816Y-833566D02*
X336816Y-633566D01*
X336816Y-633566D02*
X317768Y-662138D01*
X317768Y-662138D02*
X298721Y-681185D01*
X298721Y-681185D02*
X279673Y-690709D01*
X479673Y-814519D02*
X489197Y-824043D01*
X489197Y-824043D02*
X479673Y-833566D01*
X479673Y-833566D02*
X470149Y-824043D01*
X470149Y-824043D02*
X479673Y-814519D01*
X479673Y-814519D02*
X479673Y-833566D01*
X555864Y-633566D02*
X689197Y-633566D01*
X689197Y-633566D02*
X603483Y-833566D01*
X860626Y-633566D02*
X765387Y-633566D01*
X765387Y-633566D02*
X755864Y-728804D01*
X755864Y-728804D02*
X765387Y-719281D01*
X765387Y-719281D02*
X784435Y-709757D01*
X784435Y-709757D02*
X832054Y-709757D01*
X832054Y-709757D02*
X851102Y-719281D01*
X851102Y-719281D02*
X860626Y-728804D01*
X860626Y-728804D02*
X870149Y-747852D01*
X870149Y-747852D02*
X870149Y-795471D01*
X870149Y-795471D02*
X860626Y-814519D01*
X860626Y-814519D02*
X851102Y-824043D01*
X851102Y-824043D02*
X832054Y-833566D01*
X832054Y-833566D02*
X784435Y-833566D01*
X784435Y-833566D02*
X765387Y-824043D01*
X765387Y-824043D02*
X755864Y-814519D01*
X993959Y-633566D02*
X1013007Y-633566D01*
X1013007Y-633566D02*
X1032054Y-643090D01*
X1032054Y-643090D02*
X1041578Y-652614D01*
X1041578Y-652614D02*
X1051102Y-671662D01*
X1051102Y-671662D02*
X1060626Y-709757D01*
X1060626Y-709757D02*
X1060626Y-757376D01*
X1060626Y-757376D02*
X1051102Y-795471D01*
X1051102Y-795471D02*
X1041578Y-814519D01*
X1041578Y-814519D02*
X1032054Y-824043D01*
X1032054Y-824043D02*
X1013007Y-833566D01*
X1013007Y-833566D02*
X993959Y-833566D01*
X993959Y-833566D02*
X974911Y-824043D01*
X974911Y-824043D02*
X965387Y-814519D01*
X965387Y-814519D02*
X955864Y-795471D01*
X955864Y-795471D02*
X946340Y-757376D01*
X946340Y-757376D02*
X946340Y-709757D01*
X946340Y-709757D02*
X955864Y-671662D01*
X955864Y-671662D02*
X965387Y-652614D01*
X965387Y-652614D02*
X974911Y-643090D01*
X974911Y-643090D02*
X993959Y-633566D01*
X1146340Y-833566D02*
X1146340Y-700233D01*
X1146340Y-719281D02*
X1155864Y-709757D01*
X1155864Y-709757D02*
X1174911Y-700233D01*
X1174911Y-700233D02*
X1203483Y-700233D01*
X1203483Y-700233D02*
X1222530Y-709757D01*
X1222530Y-709757D02*
X1232054Y-728804D01*
X1232054Y-728804D02*
X1232054Y-833566D01*
X1232054Y-728804D02*
X1241578Y-709757D01*
X1241578Y-709757D02*
X1260626Y-700233D01*
X1260626Y-700233D02*
X1289197Y-700233D01*
X1289197Y-700233D02*
X1308245Y-709757D01*
X1308245Y-709757D02*
X1317769Y-728804D01*
X1317769Y-728804D02*
X1317769Y-833566D01*
X1413007Y-833566D02*
X1413007Y-700233D01*
X1413007Y-719281D02*
X1422530Y-709757D01*
X1422530Y-709757D02*
X1441578Y-700233D01*
X1441578Y-700233D02*
X1470149Y-700233D01*
X1470149Y-700233D02*
X1489197Y-709757D01*
X1489197Y-709757D02*
X1498721Y-728804D01*
X1498721Y-728804D02*
X1498721Y-833566D01*
X1498721Y-728804D02*
X1508245Y-709757D01*
X1508245Y-709757D02*
X1527292Y-700233D01*
X1527292Y-700233D02*
X1555864Y-700233D01*
X1555864Y-700233D02*
X1574911Y-709757D01*
X1574911Y-709757D02*
X1584435Y-728804D01*
X1584435Y-728804D02*
X1584435Y-833566D01*
X1974911Y-624043D02*
X1803483Y-881185D01*
X2232054Y-633566D02*
X2251102Y-633566D01*
X2251102Y-633566D02*
X2270150Y-643090D01*
X2270150Y-643090D02*
X2279673Y-652614D01*
X2279673Y-652614D02*
X2289197Y-671662D01*
X2289197Y-671662D02*
X2298721Y-709757D01*
X2298721Y-709757D02*
X2298721Y-757376D01*
X2298721Y-757376D02*
X2289197Y-795471D01*
X2289197Y-795471D02*
X2279673Y-814519D01*
X2279673Y-814519D02*
X2270150Y-824043D01*
X2270150Y-824043D02*
X2251102Y-833566D01*
X2251102Y-833566D02*
X2232054Y-833566D01*
X2232054Y-833566D02*
X2213007Y-824043D01*
X2213007Y-824043D02*
X2203483Y-814519D01*
X2203483Y-814519D02*
X2193959Y-795471D01*
X2193959Y-795471D02*
X2184435Y-757376D01*
X2184435Y-757376D02*
X2184435Y-709757D01*
X2184435Y-709757D02*
X2193959Y-671662D01*
X2193959Y-671662D02*
X2203483Y-652614D01*
X2203483Y-652614D02*
X2213007Y-643090D01*
X2213007Y-643090D02*
X2232054Y-633566D01*
X2384435Y-814519D02*
X2393959Y-824043D01*
X2393959Y-824043D02*
X2384435Y-833566D01*
X2384435Y-833566D02*
X2374912Y-824043D01*
X2374912Y-824043D02*
X2384435Y-814519D01*
X2384435Y-814519D02*
X2384435Y-833566D01*
X2517769Y-633566D02*
X2536816Y-633566D01*
X2536816Y-633566D02*
X2555864Y-643090D01*
X2555864Y-643090D02*
X2565388Y-652614D01*
X2565388Y-652614D02*
X2574912Y-671662D01*
X2574912Y-671662D02*
X2584435Y-709757D01*
X2584435Y-709757D02*
X2584435Y-757376D01*
X2584435Y-757376D02*
X2574912Y-795471D01*
X2574912Y-795471D02*
X2565388Y-814519D01*
X2565388Y-814519D02*
X2555864Y-824043D01*
X2555864Y-824043D02*
X2536816Y-833566D01*
X2536816Y-833566D02*
X2517769Y-833566D01*
X2517769Y-833566D02*
X2498721Y-824043D01*
X2498721Y-824043D02*
X2489197Y-814519D01*
X2489197Y-814519D02*
X2479673Y-795471D01*
X2479673Y-795471D02*
X2470150Y-757376D01*
X2470150Y-757376D02*
X2470150Y-709757D01*
X2470150Y-709757D02*
X2479673Y-671662D01*
X2479673Y-671662D02*
X2489197Y-652614D01*
X2489197Y-652614D02*
X2498721Y-643090D01*
X2498721Y-643090D02*
X2517769Y-633566D01*
X2755864Y-633566D02*
X2717769Y-633566D01*
X2717769Y-633566D02*
X2698721Y-643090D01*
X2698721Y-643090D02*
X2689197Y-652614D01*
X2689197Y-652614D02*
X2670150Y-681185D01*
X2670150Y-681185D02*
X2660626Y-719281D01*
X2660626Y-719281D02*
X2660626Y-795471D01*
X2660626Y-795471D02*
X2670150Y-814519D01*
X2670150Y-814519D02*
X2679673Y-824043D01*
X2679673Y-824043D02*
X2698721Y-833566D01*
X2698721Y-833566D02*
X2736816Y-833566D01*
X2736816Y-833566D02*
X2755864Y-824043D01*
X2755864Y-824043D02*
X2765388Y-814519D01*
X2765388Y-814519D02*
X2774912Y-795471D01*
X2774912Y-795471D02*
X2774912Y-747852D01*
X2774912Y-747852D02*
X2765388Y-728804D01*
X2765388Y-728804D02*
X2755864Y-719281D01*
X2755864Y-719281D02*
X2736816Y-709757D01*
X2736816Y-709757D02*
X2698721Y-709757D01*
X2698721Y-709757D02*
X2679673Y-719281D01*
X2679673Y-719281D02*
X2670150Y-728804D01*
X2670150Y-728804D02*
X2660626Y-747852D01*
X2889197Y-719281D02*
X2870150Y-709757D01*
X2870150Y-709757D02*
X2860626Y-700233D01*
X2860626Y-700233D02*
X2851102Y-681185D01*
X2851102Y-681185D02*
X2851102Y-671662D01*
X2851102Y-671662D02*
X2860626Y-652614D01*
X2860626Y-652614D02*
X2870150Y-643090D01*
X2870150Y-643090D02*
X2889197Y-633566D01*
X2889197Y-633566D02*
X2927292Y-633566D01*
X2927292Y-633566D02*
X2946340Y-643090D01*
X2946340Y-643090D02*
X2955864Y-652614D01*
X2955864Y-652614D02*
X2965388Y-671662D01*
X2965388Y-671662D02*
X2965388Y-681185D01*
X2965388Y-681185D02*
X2955864Y-700233D01*
X2955864Y-700233D02*
X2946340Y-709757D01*
X2946340Y-709757D02*
X2927292Y-719281D01*
X2927292Y-719281D02*
X2889197Y-719281D01*
X2889197Y-719281D02*
X2870150Y-728804D01*
X2870150Y-728804D02*
X2860626Y-738328D01*
X2860626Y-738328D02*
X2851102Y-757376D01*
X2851102Y-757376D02*
X2851102Y-795471D01*
X2851102Y-795471D02*
X2860626Y-814519D01*
X2860626Y-814519D02*
X2870150Y-824043D01*
X2870150Y-824043D02*
X2889197Y-833566D01*
X2889197Y-833566D02*
X2927292Y-833566D01*
X2927292Y-833566D02*
X2946340Y-824043D01*
X2946340Y-824043D02*
X2955864Y-814519D01*
X2955864Y-814519D02*
X2965388Y-795471D01*
X2965388Y-795471D02*
X2965388Y-757376D01*
X2965388Y-757376D02*
X2955864Y-738328D01*
X2955864Y-738328D02*
X2946340Y-728804D01*
X2946340Y-728804D02*
X2927292Y-719281D01*
X3060626Y-833566D02*
X3098721Y-833566D01*
X3098721Y-833566D02*
X3117769Y-824043D01*
X3117769Y-824043D02*
X3127292Y-814519D01*
X3127292Y-814519D02*
X3146340Y-785947D01*
X3146340Y-785947D02*
X3155864Y-747852D01*
X3155864Y-747852D02*
X3155864Y-671662D01*
X3155864Y-671662D02*
X3146340Y-652614D01*
X3146340Y-652614D02*
X3136816Y-643090D01*
X3136816Y-643090D02*
X3117769Y-633566D01*
X3117769Y-633566D02*
X3079673Y-633566D01*
X3079673Y-633566D02*
X3060626Y-643090D01*
X3060626Y-643090D02*
X3051102Y-652614D01*
X3051102Y-652614D02*
X3041578Y-671662D01*
X3041578Y-671662D02*
X3041578Y-719281D01*
X3041578Y-719281D02*
X3051102Y-738328D01*
X3051102Y-738328D02*
X3060626Y-747852D01*
X3060626Y-747852D02*
X3079673Y-757376D01*
X3079673Y-757376D02*
X3117769Y-757376D01*
X3117769Y-757376D02*
X3136816Y-747852D01*
X3136816Y-747852D02*
X3146340Y-738328D01*
X3146340Y-738328D02*
X3155864Y-719281D01*
X3232054Y-633566D02*
X3232054Y-671662D01*
X3308245Y-633566D02*
X3308245Y-671662D01*
X3603483Y-909757D02*
X3593959Y-900233D01*
X3593959Y-900233D02*
X3574912Y-871662D01*
X3574912Y-871662D02*
X3565388Y-852614D01*
X3565388Y-852614D02*
X3555864Y-824043D01*
X3555864Y-824043D02*
X3546340Y-776423D01*
X3546340Y-776423D02*
X3546340Y-738328D01*
X3546340Y-738328D02*
X3555864Y-690709D01*
X3555864Y-690709D02*
X3565388Y-662138D01*
X3565388Y-662138D02*
X3574912Y-643090D01*
X3574912Y-643090D02*
X3593959Y-614519D01*
X3593959Y-614519D02*
X3603483Y-604995D01*
X3784435Y-833566D02*
X3670150Y-833566D01*
X3727292Y-833566D02*
X3727292Y-633566D01*
X3727292Y-633566D02*
X3708245Y-662138D01*
X3708245Y-662138D02*
X3689197Y-681185D01*
X3689197Y-681185D02*
X3670150Y-690709D01*
X3908245Y-633566D02*
X3927293Y-633566D01*
X3927293Y-633566D02*
X3946340Y-643090D01*
X3946340Y-643090D02*
X3955864Y-652614D01*
X3955864Y-652614D02*
X3965388Y-671662D01*
X3965388Y-671662D02*
X3974912Y-709757D01*
X3974912Y-709757D02*
X3974912Y-757376D01*
X3974912Y-757376D02*
X3965388Y-795471D01*
X3965388Y-795471D02*
X3955864Y-814519D01*
X3955864Y-814519D02*
X3946340Y-824043D01*
X3946340Y-824043D02*
X3927293Y-833566D01*
X3927293Y-833566D02*
X3908245Y-833566D01*
X3908245Y-833566D02*
X3889197Y-824043D01*
X3889197Y-824043D02*
X3879673Y-814519D01*
X3879673Y-814519D02*
X3870150Y-795471D01*
X3870150Y-795471D02*
X3860626Y-757376D01*
X3860626Y-757376D02*
X3860626Y-709757D01*
X3860626Y-709757D02*
X3870150Y-671662D01*
X3870150Y-671662D02*
X3879673Y-652614D01*
X3879673Y-652614D02*
X3889197Y-643090D01*
X3889197Y-643090D02*
X3908245Y-633566D01*
X4146340Y-633566D02*
X4108245Y-633566D01*
X4108245Y-633566D02*
X4089197Y-643090D01*
X4089197Y-643090D02*
X4079673Y-652614D01*
X4079673Y-652614D02*
X4060626Y-681185D01*
X4060626Y-681185D02*
X4051102Y-719281D01*
X4051102Y-719281D02*
X4051102Y-795471D01*
X4051102Y-795471D02*
X4060626Y-814519D01*
X4060626Y-814519D02*
X4070150Y-824043D01*
X4070150Y-824043D02*
X4089197Y-833566D01*
X4089197Y-833566D02*
X4127293Y-833566D01*
X4127293Y-833566D02*
X4146340Y-824043D01*
X4146340Y-824043D02*
X4155864Y-814519D01*
X4155864Y-814519D02*
X4165388Y-795471D01*
X4165388Y-795471D02*
X4165388Y-747852D01*
X4165388Y-747852D02*
X4155864Y-728804D01*
X4155864Y-728804D02*
X4146340Y-719281D01*
X4146340Y-719281D02*
X4127293Y-709757D01*
X4127293Y-709757D02*
X4089197Y-709757D01*
X4089197Y-709757D02*
X4070150Y-719281D01*
X4070150Y-719281D02*
X4060626Y-728804D01*
X4060626Y-728804D02*
X4051102Y-747852D01*
X4403483Y-833566D02*
X4403483Y-633566D01*
X4489197Y-833566D02*
X4489197Y-728804D01*
X4489197Y-728804D02*
X4479674Y-709757D01*
X4479674Y-709757D02*
X4460626Y-700233D01*
X4460626Y-700233D02*
X4432055Y-700233D01*
X4432055Y-700233D02*
X4413007Y-709757D01*
X4413007Y-709757D02*
X4403483Y-719281D01*
X4613007Y-833566D02*
X4593959Y-824043D01*
X4593959Y-824043D02*
X4584436Y-814519D01*
X4584436Y-814519D02*
X4574912Y-795471D01*
X4574912Y-795471D02*
X4574912Y-738328D01*
X4574912Y-738328D02*
X4584436Y-719281D01*
X4584436Y-719281D02*
X4593959Y-709757D01*
X4593959Y-709757D02*
X4613007Y-700233D01*
X4613007Y-700233D02*
X4641578Y-700233D01*
X4641578Y-700233D02*
X4660626Y-709757D01*
X4660626Y-709757D02*
X4670150Y-719281D01*
X4670150Y-719281D02*
X4679674Y-738328D01*
X4679674Y-738328D02*
X4679674Y-795471D01*
X4679674Y-795471D02*
X4670150Y-814519D01*
X4670150Y-814519D02*
X4660626Y-824043D01*
X4660626Y-824043D02*
X4641578Y-833566D01*
X4641578Y-833566D02*
X4613007Y-833566D01*
X4793959Y-833566D02*
X4774912Y-824043D01*
X4774912Y-824043D02*
X4765388Y-804995D01*
X4765388Y-804995D02*
X4765388Y-633566D01*
X4946340Y-824043D02*
X4927293Y-833566D01*
X4927293Y-833566D02*
X4889197Y-833566D01*
X4889197Y-833566D02*
X4870150Y-824043D01*
X4870150Y-824043D02*
X4860626Y-804995D01*
X4860626Y-804995D02*
X4860626Y-728804D01*
X4860626Y-728804D02*
X4870150Y-709757D01*
X4870150Y-709757D02*
X4889197Y-700233D01*
X4889197Y-700233D02*
X4927293Y-700233D01*
X4927293Y-700233D02*
X4946340Y-709757D01*
X4946340Y-709757D02*
X4955864Y-728804D01*
X4955864Y-728804D02*
X4955864Y-747852D01*
X4955864Y-747852D02*
X4860626Y-766900D01*
X5032055Y-824043D02*
X5051102Y-833566D01*
X5051102Y-833566D02*
X5089197Y-833566D01*
X5089197Y-833566D02*
X5108245Y-824043D01*
X5108245Y-824043D02*
X5117769Y-804995D01*
X5117769Y-804995D02*
X5117769Y-795471D01*
X5117769Y-795471D02*
X5108245Y-776423D01*
X5108245Y-776423D02*
X5089197Y-766900D01*
X5089197Y-766900D02*
X5060626Y-766900D01*
X5060626Y-766900D02*
X5041578Y-757376D01*
X5041578Y-757376D02*
X5032055Y-738328D01*
X5032055Y-738328D02*
X5032055Y-728804D01*
X5032055Y-728804D02*
X5041578Y-709757D01*
X5041578Y-709757D02*
X5060626Y-700233D01*
X5060626Y-700233D02*
X5089197Y-700233D01*
X5089197Y-700233D02*
X5108245Y-709757D01*
X5184436Y-909757D02*
X5193959Y-900233D01*
X5193959Y-900233D02*
X5213007Y-871662D01*
X5213007Y-871662D02*
X5222531Y-852614D01*
X5222531Y-852614D02*
X5232055Y-824043D01*
X5232055Y-824043D02*
X5241578Y-776423D01*
X5241578Y-776423D02*
X5241578Y-738328D01*
X5241578Y-738328D02*
X5232055Y-690709D01*
X5232055Y-690709D02*
X5222531Y-662138D01*
X5222531Y-662138D02*
X5213007Y-643090D01*
X5213007Y-643090D02*
X5193959Y-614519D01*
X5193959Y-614519D02*
X5184436Y-604995D01*
X5546340Y-909757D02*
X5536817Y-900233D01*
X5536817Y-900233D02*
X5517769Y-871662D01*
X5517769Y-871662D02*
X5508245Y-852614D01*
X5508245Y-852614D02*
X5498721Y-824043D01*
X5498721Y-824043D02*
X5489198Y-776423D01*
X5489198Y-776423D02*
X5489198Y-738328D01*
X5489198Y-738328D02*
X5498721Y-690709D01*
X5498721Y-690709D02*
X5508245Y-662138D01*
X5508245Y-662138D02*
X5517769Y-643090D01*
X5517769Y-643090D02*
X5536817Y-614519D01*
X5536817Y-614519D02*
X5546340Y-604995D01*
X5622531Y-700233D02*
X5622531Y-833566D01*
X5622531Y-719281D02*
X5632055Y-709757D01*
X5632055Y-709757D02*
X5651102Y-700233D01*
X5651102Y-700233D02*
X5679674Y-700233D01*
X5679674Y-700233D02*
X5698721Y-709757D01*
X5698721Y-709757D02*
X5708245Y-728804D01*
X5708245Y-728804D02*
X5708245Y-833566D01*
X5832055Y-833566D02*
X5813007Y-824043D01*
X5813007Y-824043D02*
X5803483Y-814519D01*
X5803483Y-814519D02*
X5793959Y-795471D01*
X5793959Y-795471D02*
X5793959Y-738328D01*
X5793959Y-738328D02*
X5803483Y-719281D01*
X5803483Y-719281D02*
X5813007Y-709757D01*
X5813007Y-709757D02*
X5832055Y-700233D01*
X5832055Y-700233D02*
X5860626Y-700233D01*
X5860626Y-700233D02*
X5879674Y-709757D01*
X5879674Y-709757D02*
X5889197Y-719281D01*
X5889197Y-719281D02*
X5898721Y-738328D01*
X5898721Y-738328D02*
X5898721Y-795471D01*
X5898721Y-795471D02*
X5889197Y-814519D01*
X5889197Y-814519D02*
X5879674Y-824043D01*
X5879674Y-824043D02*
X5860626Y-833566D01*
X5860626Y-833566D02*
X5832055Y-833566D01*
X5955864Y-700233D02*
X6032055Y-700233D01*
X5984436Y-633566D02*
X5984436Y-804995D01*
X5984436Y-804995D02*
X5993959Y-824043D01*
X5993959Y-824043D02*
X6013007Y-833566D01*
X6013007Y-833566D02*
X6032055Y-833566D01*
X6251102Y-700233D02*
X6251102Y-900233D01*
X6251102Y-709757D02*
X6270150Y-700233D01*
X6270150Y-700233D02*
X6308245Y-700233D01*
X6308245Y-700233D02*
X6327293Y-709757D01*
X6327293Y-709757D02*
X6336817Y-719281D01*
X6336817Y-719281D02*
X6346340Y-738328D01*
X6346340Y-738328D02*
X6346340Y-795471D01*
X6346340Y-795471D02*
X6336817Y-814519D01*
X6336817Y-814519D02*
X6327293Y-824043D01*
X6327293Y-824043D02*
X6308245Y-833566D01*
X6308245Y-833566D02*
X6270150Y-833566D01*
X6270150Y-833566D02*
X6251102Y-824043D01*
X6460626Y-833566D02*
X6441578Y-824043D01*
X6441578Y-824043D02*
X6432055Y-804995D01*
X6432055Y-804995D02*
X6432055Y-633566D01*
X6622531Y-833566D02*
X6622531Y-728804D01*
X6622531Y-728804D02*
X6613007Y-709757D01*
X6613007Y-709757D02*
X6593959Y-700233D01*
X6593959Y-700233D02*
X6555864Y-700233D01*
X6555864Y-700233D02*
X6536817Y-709757D01*
X6622531Y-824043D02*
X6603483Y-833566D01*
X6603483Y-833566D02*
X6555864Y-833566D01*
X6555864Y-833566D02*
X6536817Y-824043D01*
X6536817Y-824043D02*
X6527293Y-804995D01*
X6527293Y-804995D02*
X6527293Y-785947D01*
X6527293Y-785947D02*
X6536817Y-766900D01*
X6536817Y-766900D02*
X6555864Y-757376D01*
X6555864Y-757376D02*
X6603483Y-757376D01*
X6603483Y-757376D02*
X6622531Y-747852D01*
X6689198Y-700233D02*
X6765388Y-700233D01*
X6717769Y-633566D02*
X6717769Y-804995D01*
X6717769Y-804995D02*
X6727293Y-824043D01*
X6727293Y-824043D02*
X6746340Y-833566D01*
X6746340Y-833566D02*
X6765388Y-833566D01*
X6908245Y-824043D02*
X6889198Y-833566D01*
X6889198Y-833566D02*
X6851102Y-833566D01*
X6851102Y-833566D02*
X6832055Y-824043D01*
X6832055Y-824043D02*
X6822531Y-804995D01*
X6822531Y-804995D02*
X6822531Y-728804D01*
X6822531Y-728804D02*
X6832055Y-709757D01*
X6832055Y-709757D02*
X6851102Y-700233D01*
X6851102Y-700233D02*
X6889198Y-700233D01*
X6889198Y-700233D02*
X6908245Y-709757D01*
X6908245Y-709757D02*
X6917769Y-728804D01*
X6917769Y-728804D02*
X6917769Y-747852D01*
X6917769Y-747852D02*
X6822531Y-766900D01*
X7089198Y-833566D02*
X7089198Y-633566D01*
X7089198Y-824043D02*
X7070150Y-833566D01*
X7070150Y-833566D02*
X7032055Y-833566D01*
X7032055Y-833566D02*
X7013007Y-824043D01*
X7013007Y-824043D02*
X7003483Y-814519D01*
X7003483Y-814519D02*
X6993959Y-795471D01*
X6993959Y-795471D02*
X6993959Y-738328D01*
X6993959Y-738328D02*
X7003483Y-719281D01*
X7003483Y-719281D02*
X7013007Y-709757D01*
X7013007Y-709757D02*
X7032055Y-700233D01*
X7032055Y-700233D02*
X7070150Y-700233D01*
X7070150Y-700233D02*
X7089198Y-709757D01*
X7165388Y-909757D02*
X7174912Y-900233D01*
X7174912Y-900233D02*
X7193959Y-871662D01*
X7193959Y-871662D02*
X7203483Y-852614D01*
X7203483Y-852614D02*
X7213007Y-824043D01*
X7213007Y-824043D02*
X7222531Y-776423D01*
X7222531Y-776423D02*
X7222531Y-738328D01*
X7222531Y-738328D02*
X7213007Y-690709D01*
X7213007Y-690709D02*
X7203483Y-662138D01*
X7203483Y-662138D02*
X7193959Y-643090D01*
X7193959Y-643090D02*
X7174912Y-614519D01*
X7174912Y-614519D02*
X7165388Y-604995D01*
X28420Y-1037083D02*
G75*
G03*
X28420Y-1037083I-100000J0D01*
G01*
X270149Y-928566D02*
X393959Y-928566D01*
X393959Y-928566D02*
X327292Y-1004757D01*
X327292Y-1004757D02*
X355864Y-1004757D01*
X355864Y-1004757D02*
X374911Y-1014281D01*
X374911Y-1014281D02*
X384435Y-1023804D01*
X384435Y-1023804D02*
X393959Y-1042852D01*
X393959Y-1042852D02*
X393959Y-1090471D01*
X393959Y-1090471D02*
X384435Y-1109519D01*
X384435Y-1109519D02*
X374911Y-1119043D01*
X374911Y-1119043D02*
X355864Y-1128566D01*
X355864Y-1128566D02*
X298721Y-1128566D01*
X298721Y-1128566D02*
X279673Y-1119043D01*
X279673Y-1119043D02*
X270149Y-1109519D01*
X479673Y-1109519D02*
X489197Y-1119043D01*
X489197Y-1119043D02*
X479673Y-1128566D01*
X479673Y-1128566D02*
X470149Y-1119043D01*
X470149Y-1119043D02*
X479673Y-1109519D01*
X479673Y-1109519D02*
X479673Y-1128566D01*
X613007Y-928566D02*
X632054Y-928566D01*
X632054Y-928566D02*
X651102Y-938090D01*
X651102Y-938090D02*
X660626Y-947614D01*
X660626Y-947614D02*
X670149Y-966662D01*
X670149Y-966662D02*
X679673Y-1004757D01*
X679673Y-1004757D02*
X679673Y-1052376D01*
X679673Y-1052376D02*
X670149Y-1090471D01*
X670149Y-1090471D02*
X660626Y-1109519D01*
X660626Y-1109519D02*
X651102Y-1119043D01*
X651102Y-1119043D02*
X632054Y-1128566D01*
X632054Y-1128566D02*
X613007Y-1128566D01*
X613007Y-1128566D02*
X593959Y-1119043D01*
X593959Y-1119043D02*
X584435Y-1109519D01*
X584435Y-1109519D02*
X574911Y-1090471D01*
X574911Y-1090471D02*
X565388Y-1052376D01*
X565388Y-1052376D02*
X565388Y-1004757D01*
X565388Y-1004757D02*
X574911Y-966662D01*
X574911Y-966662D02*
X584435Y-947614D01*
X584435Y-947614D02*
X593959Y-938090D01*
X593959Y-938090D02*
X613007Y-928566D01*
X803483Y-928566D02*
X822530Y-928566D01*
X822530Y-928566D02*
X841578Y-938090D01*
X841578Y-938090D02*
X851102Y-947614D01*
X851102Y-947614D02*
X860626Y-966662D01*
X860626Y-966662D02*
X870149Y-1004757D01*
X870149Y-1004757D02*
X870149Y-1052376D01*
X870149Y-1052376D02*
X860626Y-1090471D01*
X860626Y-1090471D02*
X851102Y-1109519D01*
X851102Y-1109519D02*
X841578Y-1119043D01*
X841578Y-1119043D02*
X822530Y-1128566D01*
X822530Y-1128566D02*
X803483Y-1128566D01*
X803483Y-1128566D02*
X784435Y-1119043D01*
X784435Y-1119043D02*
X774911Y-1109519D01*
X774911Y-1109519D02*
X765387Y-1090471D01*
X765387Y-1090471D02*
X755864Y-1052376D01*
X755864Y-1052376D02*
X755864Y-1004757D01*
X755864Y-1004757D02*
X765387Y-966662D01*
X765387Y-966662D02*
X774911Y-947614D01*
X774911Y-947614D02*
X784435Y-938090D01*
X784435Y-938090D02*
X803483Y-928566D01*
X993959Y-928566D02*
X1013007Y-928566D01*
X1013007Y-928566D02*
X1032054Y-938090D01*
X1032054Y-938090D02*
X1041578Y-947614D01*
X1041578Y-947614D02*
X1051102Y-966662D01*
X1051102Y-966662D02*
X1060626Y-1004757D01*
X1060626Y-1004757D02*
X1060626Y-1052376D01*
X1060626Y-1052376D02*
X1051102Y-1090471D01*
X1051102Y-1090471D02*
X1041578Y-1109519D01*
X1041578Y-1109519D02*
X1032054Y-1119043D01*
X1032054Y-1119043D02*
X1013007Y-1128566D01*
X1013007Y-1128566D02*
X993959Y-1128566D01*
X993959Y-1128566D02*
X974911Y-1119043D01*
X974911Y-1119043D02*
X965387Y-1109519D01*
X965387Y-1109519D02*
X955864Y-1090471D01*
X955864Y-1090471D02*
X946340Y-1052376D01*
X946340Y-1052376D02*
X946340Y-1004757D01*
X946340Y-1004757D02*
X955864Y-966662D01*
X955864Y-966662D02*
X965387Y-947614D01*
X965387Y-947614D02*
X974911Y-938090D01*
X974911Y-938090D02*
X993959Y-928566D01*
X1146340Y-1128566D02*
X1146340Y-995233D01*
X1146340Y-1014281D02*
X1155864Y-1004757D01*
X1155864Y-1004757D02*
X1174911Y-995233D01*
X1174911Y-995233D02*
X1203483Y-995233D01*
X1203483Y-995233D02*
X1222530Y-1004757D01*
X1222530Y-1004757D02*
X1232054Y-1023804D01*
X1232054Y-1023804D02*
X1232054Y-1128566D01*
X1232054Y-1023804D02*
X1241578Y-1004757D01*
X1241578Y-1004757D02*
X1260626Y-995233D01*
X1260626Y-995233D02*
X1289197Y-995233D01*
X1289197Y-995233D02*
X1308245Y-1004757D01*
X1308245Y-1004757D02*
X1317769Y-1023804D01*
X1317769Y-1023804D02*
X1317769Y-1128566D01*
X1413007Y-1128566D02*
X1413007Y-995233D01*
X1413007Y-1014281D02*
X1422530Y-1004757D01*
X1422530Y-1004757D02*
X1441578Y-995233D01*
X1441578Y-995233D02*
X1470149Y-995233D01*
X1470149Y-995233D02*
X1489197Y-1004757D01*
X1489197Y-1004757D02*
X1498721Y-1023804D01*
X1498721Y-1023804D02*
X1498721Y-1128566D01*
X1498721Y-1023804D02*
X1508245Y-1004757D01*
X1508245Y-1004757D02*
X1527292Y-995233D01*
X1527292Y-995233D02*
X1555864Y-995233D01*
X1555864Y-995233D02*
X1574911Y-1004757D01*
X1574911Y-1004757D02*
X1584435Y-1023804D01*
X1584435Y-1023804D02*
X1584435Y-1128566D01*
X1974911Y-919043D02*
X1803483Y-1176185D01*
X2232054Y-928566D02*
X2251102Y-928566D01*
X2251102Y-928566D02*
X2270150Y-938090D01*
X2270150Y-938090D02*
X2279673Y-947614D01*
X2279673Y-947614D02*
X2289197Y-966662D01*
X2289197Y-966662D02*
X2298721Y-1004757D01*
X2298721Y-1004757D02*
X2298721Y-1052376D01*
X2298721Y-1052376D02*
X2289197Y-1090471D01*
X2289197Y-1090471D02*
X2279673Y-1109519D01*
X2279673Y-1109519D02*
X2270150Y-1119043D01*
X2270150Y-1119043D02*
X2251102Y-1128566D01*
X2251102Y-1128566D02*
X2232054Y-1128566D01*
X2232054Y-1128566D02*
X2213007Y-1119043D01*
X2213007Y-1119043D02*
X2203483Y-1109519D01*
X2203483Y-1109519D02*
X2193959Y-1090471D01*
X2193959Y-1090471D02*
X2184435Y-1052376D01*
X2184435Y-1052376D02*
X2184435Y-1004757D01*
X2184435Y-1004757D02*
X2193959Y-966662D01*
X2193959Y-966662D02*
X2203483Y-947614D01*
X2203483Y-947614D02*
X2213007Y-938090D01*
X2213007Y-938090D02*
X2232054Y-928566D01*
X2384435Y-1109519D02*
X2393959Y-1119043D01*
X2393959Y-1119043D02*
X2384435Y-1128566D01*
X2384435Y-1128566D02*
X2374912Y-1119043D01*
X2374912Y-1119043D02*
X2384435Y-1109519D01*
X2384435Y-1109519D02*
X2384435Y-1128566D01*
X2584435Y-1128566D02*
X2470150Y-1128566D01*
X2527292Y-1128566D02*
X2527292Y-928566D01*
X2527292Y-928566D02*
X2508245Y-957138D01*
X2508245Y-957138D02*
X2489197Y-976185D01*
X2489197Y-976185D02*
X2470150Y-985709D01*
X2774912Y-1128566D02*
X2660626Y-1128566D01*
X2717769Y-1128566D02*
X2717769Y-928566D01*
X2717769Y-928566D02*
X2698721Y-957138D01*
X2698721Y-957138D02*
X2679673Y-976185D01*
X2679673Y-976185D02*
X2660626Y-985709D01*
X2889197Y-1014281D02*
X2870150Y-1004757D01*
X2870150Y-1004757D02*
X2860626Y-995233D01*
X2860626Y-995233D02*
X2851102Y-976185D01*
X2851102Y-976185D02*
X2851102Y-966662D01*
X2851102Y-966662D02*
X2860626Y-947614D01*
X2860626Y-947614D02*
X2870150Y-938090D01*
X2870150Y-938090D02*
X2889197Y-928566D01*
X2889197Y-928566D02*
X2927292Y-928566D01*
X2927292Y-928566D02*
X2946340Y-938090D01*
X2946340Y-938090D02*
X2955864Y-947614D01*
X2955864Y-947614D02*
X2965388Y-966662D01*
X2965388Y-966662D02*
X2965388Y-976185D01*
X2965388Y-976185D02*
X2955864Y-995233D01*
X2955864Y-995233D02*
X2946340Y-1004757D01*
X2946340Y-1004757D02*
X2927292Y-1014281D01*
X2927292Y-1014281D02*
X2889197Y-1014281D01*
X2889197Y-1014281D02*
X2870150Y-1023804D01*
X2870150Y-1023804D02*
X2860626Y-1033328D01*
X2860626Y-1033328D02*
X2851102Y-1052376D01*
X2851102Y-1052376D02*
X2851102Y-1090471D01*
X2851102Y-1090471D02*
X2860626Y-1109519D01*
X2860626Y-1109519D02*
X2870150Y-1119043D01*
X2870150Y-1119043D02*
X2889197Y-1128566D01*
X2889197Y-1128566D02*
X2927292Y-1128566D01*
X2927292Y-1128566D02*
X2946340Y-1119043D01*
X2946340Y-1119043D02*
X2955864Y-1109519D01*
X2955864Y-1109519D02*
X2965388Y-1090471D01*
X2965388Y-1090471D02*
X2965388Y-1052376D01*
X2965388Y-1052376D02*
X2955864Y-1033328D01*
X2955864Y-1033328D02*
X2946340Y-1023804D01*
X2946340Y-1023804D02*
X2927292Y-1014281D01*
X3155864Y-1128566D02*
X3041578Y-1128566D01*
X3098721Y-1128566D02*
X3098721Y-928566D01*
X3098721Y-928566D02*
X3079673Y-957138D01*
X3079673Y-957138D02*
X3060626Y-976185D01*
X3060626Y-976185D02*
X3041578Y-985709D01*
X3232054Y-928566D02*
X3232054Y-966662D01*
X3308245Y-928566D02*
X3308245Y-966662D01*
X3603483Y-1204757D02*
X3593959Y-1195233D01*
X3593959Y-1195233D02*
X3574912Y-1166662D01*
X3574912Y-1166662D02*
X3565388Y-1147614D01*
X3565388Y-1147614D02*
X3555864Y-1119043D01*
X3555864Y-1119043D02*
X3546340Y-1071424D01*
X3546340Y-1071424D02*
X3546340Y-1033328D01*
X3546340Y-1033328D02*
X3555864Y-985709D01*
X3555864Y-985709D02*
X3565388Y-957138D01*
X3565388Y-957138D02*
X3574912Y-938090D01*
X3574912Y-938090D02*
X3593959Y-909519D01*
X3593959Y-909519D02*
X3603483Y-899995D01*
X3784435Y-1128566D02*
X3670150Y-1128566D01*
X3727292Y-1128566D02*
X3727292Y-928566D01*
X3727292Y-928566D02*
X3708245Y-957138D01*
X3708245Y-957138D02*
X3689197Y-976185D01*
X3689197Y-976185D02*
X3670150Y-985709D01*
X3908245Y-928566D02*
X3927293Y-928566D01*
X3927293Y-928566D02*
X3946340Y-938090D01*
X3946340Y-938090D02*
X3955864Y-947614D01*
X3955864Y-947614D02*
X3965388Y-966662D01*
X3965388Y-966662D02*
X3974912Y-1004757D01*
X3974912Y-1004757D02*
X3974912Y-1052376D01*
X3974912Y-1052376D02*
X3965388Y-1090471D01*
X3965388Y-1090471D02*
X3955864Y-1109519D01*
X3955864Y-1109519D02*
X3946340Y-1119043D01*
X3946340Y-1119043D02*
X3927293Y-1128566D01*
X3927293Y-1128566D02*
X3908245Y-1128566D01*
X3908245Y-1128566D02*
X3889197Y-1119043D01*
X3889197Y-1119043D02*
X3879673Y-1109519D01*
X3879673Y-1109519D02*
X3870150Y-1090471D01*
X3870150Y-1090471D02*
X3860626Y-1052376D01*
X3860626Y-1052376D02*
X3860626Y-1004757D01*
X3860626Y-1004757D02*
X3870150Y-966662D01*
X3870150Y-966662D02*
X3879673Y-947614D01*
X3879673Y-947614D02*
X3889197Y-938090D01*
X3889197Y-938090D02*
X3908245Y-928566D01*
X4146340Y-928566D02*
X4108245Y-928566D01*
X4108245Y-928566D02*
X4089197Y-938090D01*
X4089197Y-938090D02*
X4079673Y-947614D01*
X4079673Y-947614D02*
X4060626Y-976185D01*
X4060626Y-976185D02*
X4051102Y-1014281D01*
X4051102Y-1014281D02*
X4051102Y-1090471D01*
X4051102Y-1090471D02*
X4060626Y-1109519D01*
X4060626Y-1109519D02*
X4070150Y-1119043D01*
X4070150Y-1119043D02*
X4089197Y-1128566D01*
X4089197Y-1128566D02*
X4127293Y-1128566D01*
X4127293Y-1128566D02*
X4146340Y-1119043D01*
X4146340Y-1119043D02*
X4155864Y-1109519D01*
X4155864Y-1109519D02*
X4165388Y-1090471D01*
X4165388Y-1090471D02*
X4165388Y-1042852D01*
X4165388Y-1042852D02*
X4155864Y-1023804D01*
X4155864Y-1023804D02*
X4146340Y-1014281D01*
X4146340Y-1014281D02*
X4127293Y-1004757D01*
X4127293Y-1004757D02*
X4089197Y-1004757D01*
X4089197Y-1004757D02*
X4070150Y-1014281D01*
X4070150Y-1014281D02*
X4060626Y-1023804D01*
X4060626Y-1023804D02*
X4051102Y-1042852D01*
X4403483Y-1128566D02*
X4403483Y-928566D01*
X4489197Y-1128566D02*
X4489197Y-1023804D01*
X4489197Y-1023804D02*
X4479674Y-1004757D01*
X4479674Y-1004757D02*
X4460626Y-995233D01*
X4460626Y-995233D02*
X4432055Y-995233D01*
X4432055Y-995233D02*
X4413007Y-1004757D01*
X4413007Y-1004757D02*
X4403483Y-1014281D01*
X4613007Y-1128566D02*
X4593959Y-1119043D01*
X4593959Y-1119043D02*
X4584436Y-1109519D01*
X4584436Y-1109519D02*
X4574912Y-1090471D01*
X4574912Y-1090471D02*
X4574912Y-1033328D01*
X4574912Y-1033328D02*
X4584436Y-1014281D01*
X4584436Y-1014281D02*
X4593959Y-1004757D01*
X4593959Y-1004757D02*
X4613007Y-995233D01*
X4613007Y-995233D02*
X4641578Y-995233D01*
X4641578Y-995233D02*
X4660626Y-1004757D01*
X4660626Y-1004757D02*
X4670150Y-1014281D01*
X4670150Y-1014281D02*
X4679674Y-1033328D01*
X4679674Y-1033328D02*
X4679674Y-1090471D01*
X4679674Y-1090471D02*
X4670150Y-1109519D01*
X4670150Y-1109519D02*
X4660626Y-1119043D01*
X4660626Y-1119043D02*
X4641578Y-1128566D01*
X4641578Y-1128566D02*
X4613007Y-1128566D01*
X4793959Y-1128566D02*
X4774912Y-1119043D01*
X4774912Y-1119043D02*
X4765388Y-1099995D01*
X4765388Y-1099995D02*
X4765388Y-928566D01*
X4946340Y-1119043D02*
X4927293Y-1128566D01*
X4927293Y-1128566D02*
X4889197Y-1128566D01*
X4889197Y-1128566D02*
X4870150Y-1119043D01*
X4870150Y-1119043D02*
X4860626Y-1099995D01*
X4860626Y-1099995D02*
X4860626Y-1023804D01*
X4860626Y-1023804D02*
X4870150Y-1004757D01*
X4870150Y-1004757D02*
X4889197Y-995233D01*
X4889197Y-995233D02*
X4927293Y-995233D01*
X4927293Y-995233D02*
X4946340Y-1004757D01*
X4946340Y-1004757D02*
X4955864Y-1023804D01*
X4955864Y-1023804D02*
X4955864Y-1042852D01*
X4955864Y-1042852D02*
X4860626Y-1061900D01*
X5032055Y-1119043D02*
X5051102Y-1128566D01*
X5051102Y-1128566D02*
X5089197Y-1128566D01*
X5089197Y-1128566D02*
X5108245Y-1119043D01*
X5108245Y-1119043D02*
X5117769Y-1099995D01*
X5117769Y-1099995D02*
X5117769Y-1090471D01*
X5117769Y-1090471D02*
X5108245Y-1071424D01*
X5108245Y-1071424D02*
X5089197Y-1061900D01*
X5089197Y-1061900D02*
X5060626Y-1061900D01*
X5060626Y-1061900D02*
X5041578Y-1052376D01*
X5041578Y-1052376D02*
X5032055Y-1033328D01*
X5032055Y-1033328D02*
X5032055Y-1023804D01*
X5032055Y-1023804D02*
X5041578Y-1004757D01*
X5041578Y-1004757D02*
X5060626Y-995233D01*
X5060626Y-995233D02*
X5089197Y-995233D01*
X5089197Y-995233D02*
X5108245Y-1004757D01*
X5184436Y-1204757D02*
X5193959Y-1195233D01*
X5193959Y-1195233D02*
X5213007Y-1166662D01*
X5213007Y-1166662D02*
X5222531Y-1147614D01*
X5222531Y-1147614D02*
X5232055Y-1119043D01*
X5232055Y-1119043D02*
X5241578Y-1071424D01*
X5241578Y-1071424D02*
X5241578Y-1033328D01*
X5241578Y-1033328D02*
X5232055Y-985709D01*
X5232055Y-985709D02*
X5222531Y-957138D01*
X5222531Y-957138D02*
X5213007Y-938090D01*
X5213007Y-938090D02*
X5193959Y-909519D01*
X5193959Y-909519D02*
X5184436Y-899995D01*
X5546340Y-1204757D02*
X5536817Y-1195233D01*
X5536817Y-1195233D02*
X5517769Y-1166662D01*
X5517769Y-1166662D02*
X5508245Y-1147614D01*
X5508245Y-1147614D02*
X5498721Y-1119043D01*
X5498721Y-1119043D02*
X5489198Y-1071424D01*
X5489198Y-1071424D02*
X5489198Y-1033328D01*
X5489198Y-1033328D02*
X5498721Y-985709D01*
X5498721Y-985709D02*
X5508245Y-957138D01*
X5508245Y-957138D02*
X5517769Y-938090D01*
X5517769Y-938090D02*
X5536817Y-909519D01*
X5536817Y-909519D02*
X5546340Y-899995D01*
X5622531Y-995233D02*
X5622531Y-1128566D01*
X5622531Y-1014281D02*
X5632055Y-1004757D01*
X5632055Y-1004757D02*
X5651102Y-995233D01*
X5651102Y-995233D02*
X5679674Y-995233D01*
X5679674Y-995233D02*
X5698721Y-1004757D01*
X5698721Y-1004757D02*
X5708245Y-1023804D01*
X5708245Y-1023804D02*
X5708245Y-1128566D01*
X5832055Y-1128566D02*
X5813007Y-1119043D01*
X5813007Y-1119043D02*
X5803483Y-1109519D01*
X5803483Y-1109519D02*
X5793959Y-1090471D01*
X5793959Y-1090471D02*
X5793959Y-1033328D01*
X5793959Y-1033328D02*
X5803483Y-1014281D01*
X5803483Y-1014281D02*
X5813007Y-1004757D01*
X5813007Y-1004757D02*
X5832055Y-995233D01*
X5832055Y-995233D02*
X5860626Y-995233D01*
X5860626Y-995233D02*
X5879674Y-1004757D01*
X5879674Y-1004757D02*
X5889197Y-1014281D01*
X5889197Y-1014281D02*
X5898721Y-1033328D01*
X5898721Y-1033328D02*
X5898721Y-1090471D01*
X5898721Y-1090471D02*
X5889197Y-1109519D01*
X5889197Y-1109519D02*
X5879674Y-1119043D01*
X5879674Y-1119043D02*
X5860626Y-1128566D01*
X5860626Y-1128566D02*
X5832055Y-1128566D01*
X5955864Y-995233D02*
X6032055Y-995233D01*
X5984436Y-928566D02*
X5984436Y-1099995D01*
X5984436Y-1099995D02*
X5993959Y-1119043D01*
X5993959Y-1119043D02*
X6013007Y-1128566D01*
X6013007Y-1128566D02*
X6032055Y-1128566D01*
X6251102Y-995233D02*
X6251102Y-1195233D01*
X6251102Y-1004757D02*
X6270150Y-995233D01*
X6270150Y-995233D02*
X6308245Y-995233D01*
X6308245Y-995233D02*
X6327293Y-1004757D01*
X6327293Y-1004757D02*
X6336817Y-1014281D01*
X6336817Y-1014281D02*
X6346340Y-1033328D01*
X6346340Y-1033328D02*
X6346340Y-1090471D01*
X6346340Y-1090471D02*
X6336817Y-1109519D01*
X6336817Y-1109519D02*
X6327293Y-1119043D01*
X6327293Y-1119043D02*
X6308245Y-1128566D01*
X6308245Y-1128566D02*
X6270150Y-1128566D01*
X6270150Y-1128566D02*
X6251102Y-1119043D01*
X6460626Y-1128566D02*
X6441578Y-1119043D01*
X6441578Y-1119043D02*
X6432055Y-1099995D01*
X6432055Y-1099995D02*
X6432055Y-928566D01*
X6622531Y-1128566D02*
X6622531Y-1023804D01*
X6622531Y-1023804D02*
X6613007Y-1004757D01*
X6613007Y-1004757D02*
X6593959Y-995233D01*
X6593959Y-995233D02*
X6555864Y-995233D01*
X6555864Y-995233D02*
X6536817Y-1004757D01*
X6622531Y-1119043D02*
X6603483Y-1128566D01*
X6603483Y-1128566D02*
X6555864Y-1128566D01*
X6555864Y-1128566D02*
X6536817Y-1119043D01*
X6536817Y-1119043D02*
X6527293Y-1099995D01*
X6527293Y-1099995D02*
X6527293Y-1080947D01*
X6527293Y-1080947D02*
X6536817Y-1061900D01*
X6536817Y-1061900D02*
X6555864Y-1052376D01*
X6555864Y-1052376D02*
X6603483Y-1052376D01*
X6603483Y-1052376D02*
X6622531Y-1042852D01*
X6689198Y-995233D02*
X6765388Y-995233D01*
X6717769Y-928566D02*
X6717769Y-1099995D01*
X6717769Y-1099995D02*
X6727293Y-1119043D01*
X6727293Y-1119043D02*
X6746340Y-1128566D01*
X6746340Y-1128566D02*
X6765388Y-1128566D01*
X6908245Y-1119043D02*
X6889198Y-1128566D01*
X6889198Y-1128566D02*
X6851102Y-1128566D01*
X6851102Y-1128566D02*
X6832055Y-1119043D01*
X6832055Y-1119043D02*
X6822531Y-1099995D01*
X6822531Y-1099995D02*
X6822531Y-1023804D01*
X6822531Y-1023804D02*
X6832055Y-1004757D01*
X6832055Y-1004757D02*
X6851102Y-995233D01*
X6851102Y-995233D02*
X6889198Y-995233D01*
X6889198Y-995233D02*
X6908245Y-1004757D01*
X6908245Y-1004757D02*
X6917769Y-1023804D01*
X6917769Y-1023804D02*
X6917769Y-1042852D01*
X6917769Y-1042852D02*
X6822531Y-1061900D01*
X7089198Y-1128566D02*
X7089198Y-928566D01*
X7089198Y-1119043D02*
X7070150Y-1128566D01*
X7070150Y-1128566D02*
X7032055Y-1128566D01*
X7032055Y-1128566D02*
X7013007Y-1119043D01*
X7013007Y-1119043D02*
X7003483Y-1109519D01*
X7003483Y-1109519D02*
X6993959Y-1090471D01*
X6993959Y-1090471D02*
X6993959Y-1033328D01*
X6993959Y-1033328D02*
X7003483Y-1014281D01*
X7003483Y-1014281D02*
X7013007Y-1004757D01*
X7013007Y-1004757D02*
X7032055Y-995233D01*
X7032055Y-995233D02*
X7070150Y-995233D01*
X7070150Y-995233D02*
X7089198Y-1004757D01*
X7165388Y-1204757D02*
X7174912Y-1195233D01*
X7174912Y-1195233D02*
X7193959Y-1166662D01*
X7193959Y-1166662D02*
X7203483Y-1147614D01*
X7203483Y-1147614D02*
X7213007Y-1119043D01*
X7213007Y-1119043D02*
X7222531Y-1071424D01*
X7222531Y-1071424D02*
X7222531Y-1033328D01*
X7222531Y-1033328D02*
X7213007Y-985709D01*
X7213007Y-985709D02*
X7203483Y-957138D01*
X7203483Y-957138D02*
X7193959Y-938090D01*
X7193959Y-938090D02*
X7174912Y-909519D01*
X7174912Y-909519D02*
X7165388Y-899995D01*
X-71580Y-1257083D02*
X-71580Y-1457083D01*
X-171580Y-1357083D02*
X28420Y-1357083D01*
X270149Y-1248566D02*
X393959Y-1248566D01*
X393959Y-1248566D02*
X327292Y-1324757D01*
X327292Y-1324757D02*
X355864Y-1324757D01*
X355864Y-1324757D02*
X374911Y-1334281D01*
X374911Y-1334281D02*
X384435Y-1343805D01*
X384435Y-1343805D02*
X393959Y-1362852D01*
X393959Y-1362852D02*
X393959Y-1410471D01*
X393959Y-1410471D02*
X384435Y-1429519D01*
X384435Y-1429519D02*
X374911Y-1439043D01*
X374911Y-1439043D02*
X355864Y-1448566D01*
X355864Y-1448566D02*
X298721Y-1448566D01*
X298721Y-1448566D02*
X279673Y-1439043D01*
X279673Y-1439043D02*
X270149Y-1429519D01*
X479673Y-1429519D02*
X489197Y-1439043D01*
X489197Y-1439043D02*
X479673Y-1448566D01*
X479673Y-1448566D02*
X470149Y-1439043D01*
X470149Y-1439043D02*
X479673Y-1429519D01*
X479673Y-1429519D02*
X479673Y-1448566D01*
X613007Y-1248566D02*
X632054Y-1248566D01*
X632054Y-1248566D02*
X651102Y-1258090D01*
X651102Y-1258090D02*
X660626Y-1267614D01*
X660626Y-1267614D02*
X670149Y-1286662D01*
X670149Y-1286662D02*
X679673Y-1324757D01*
X679673Y-1324757D02*
X679673Y-1372376D01*
X679673Y-1372376D02*
X670149Y-1410471D01*
X670149Y-1410471D02*
X660626Y-1429519D01*
X660626Y-1429519D02*
X651102Y-1439043D01*
X651102Y-1439043D02*
X632054Y-1448566D01*
X632054Y-1448566D02*
X613007Y-1448566D01*
X613007Y-1448566D02*
X593959Y-1439043D01*
X593959Y-1439043D02*
X584435Y-1429519D01*
X584435Y-1429519D02*
X574911Y-1410471D01*
X574911Y-1410471D02*
X565388Y-1372376D01*
X565388Y-1372376D02*
X565388Y-1324757D01*
X565388Y-1324757D02*
X574911Y-1286662D01*
X574911Y-1286662D02*
X584435Y-1267614D01*
X584435Y-1267614D02*
X593959Y-1258090D01*
X593959Y-1258090D02*
X613007Y-1248566D01*
X851102Y-1315233D02*
X851102Y-1448566D01*
X803483Y-1239043D02*
X755864Y-1381900D01*
X755864Y-1381900D02*
X879673Y-1381900D01*
X984435Y-1334281D02*
X965387Y-1324757D01*
X965387Y-1324757D02*
X955864Y-1315233D01*
X955864Y-1315233D02*
X946340Y-1296185D01*
X946340Y-1296185D02*
X946340Y-1286662D01*
X946340Y-1286662D02*
X955864Y-1267614D01*
X955864Y-1267614D02*
X965387Y-1258090D01*
X965387Y-1258090D02*
X984435Y-1248566D01*
X984435Y-1248566D02*
X1022530Y-1248566D01*
X1022530Y-1248566D02*
X1041578Y-1258090D01*
X1041578Y-1258090D02*
X1051102Y-1267614D01*
X1051102Y-1267614D02*
X1060626Y-1286662D01*
X1060626Y-1286662D02*
X1060626Y-1296185D01*
X1060626Y-1296185D02*
X1051102Y-1315233D01*
X1051102Y-1315233D02*
X1041578Y-1324757D01*
X1041578Y-1324757D02*
X1022530Y-1334281D01*
X1022530Y-1334281D02*
X984435Y-1334281D01*
X984435Y-1334281D02*
X965387Y-1343805D01*
X965387Y-1343805D02*
X955864Y-1353328D01*
X955864Y-1353328D02*
X946340Y-1372376D01*
X946340Y-1372376D02*
X946340Y-1410471D01*
X946340Y-1410471D02*
X955864Y-1429519D01*
X955864Y-1429519D02*
X965387Y-1439043D01*
X965387Y-1439043D02*
X984435Y-1448566D01*
X984435Y-1448566D02*
X1022530Y-1448566D01*
X1022530Y-1448566D02*
X1041578Y-1439043D01*
X1041578Y-1439043D02*
X1051102Y-1429519D01*
X1051102Y-1429519D02*
X1060626Y-1410471D01*
X1060626Y-1410471D02*
X1060626Y-1372376D01*
X1060626Y-1372376D02*
X1051102Y-1353328D01*
X1051102Y-1353328D02*
X1041578Y-1343805D01*
X1041578Y-1343805D02*
X1022530Y-1334281D01*
X1146340Y-1448566D02*
X1146340Y-1315233D01*
X1146340Y-1334281D02*
X1155864Y-1324757D01*
X1155864Y-1324757D02*
X1174911Y-1315233D01*
X1174911Y-1315233D02*
X1203483Y-1315233D01*
X1203483Y-1315233D02*
X1222530Y-1324757D01*
X1222530Y-1324757D02*
X1232054Y-1343805D01*
X1232054Y-1343805D02*
X1232054Y-1448566D01*
X1232054Y-1343805D02*
X1241578Y-1324757D01*
X1241578Y-1324757D02*
X1260626Y-1315233D01*
X1260626Y-1315233D02*
X1289197Y-1315233D01*
X1289197Y-1315233D02*
X1308245Y-1324757D01*
X1308245Y-1324757D02*
X1317769Y-1343805D01*
X1317769Y-1343805D02*
X1317769Y-1448566D01*
X1413007Y-1448566D02*
X1413007Y-1315233D01*
X1413007Y-1334281D02*
X1422530Y-1324757D01*
X1422530Y-1324757D02*
X1441578Y-1315233D01*
X1441578Y-1315233D02*
X1470149Y-1315233D01*
X1470149Y-1315233D02*
X1489197Y-1324757D01*
X1489197Y-1324757D02*
X1498721Y-1343805D01*
X1498721Y-1343805D02*
X1498721Y-1448566D01*
X1498721Y-1343805D02*
X1508245Y-1324757D01*
X1508245Y-1324757D02*
X1527292Y-1315233D01*
X1527292Y-1315233D02*
X1555864Y-1315233D01*
X1555864Y-1315233D02*
X1574911Y-1324757D01*
X1574911Y-1324757D02*
X1584435Y-1343805D01*
X1584435Y-1343805D02*
X1584435Y-1448566D01*
X1974911Y-1239043D02*
X1803483Y-1496185D01*
X2232054Y-1248566D02*
X2251102Y-1248566D01*
X2251102Y-1248566D02*
X2270150Y-1258090D01*
X2270150Y-1258090D02*
X2279673Y-1267614D01*
X2279673Y-1267614D02*
X2289197Y-1286662D01*
X2289197Y-1286662D02*
X2298721Y-1324757D01*
X2298721Y-1324757D02*
X2298721Y-1372376D01*
X2298721Y-1372376D02*
X2289197Y-1410471D01*
X2289197Y-1410471D02*
X2279673Y-1429519D01*
X2279673Y-1429519D02*
X2270150Y-1439043D01*
X2270150Y-1439043D02*
X2251102Y-1448566D01*
X2251102Y-1448566D02*
X2232054Y-1448566D01*
X2232054Y-1448566D02*
X2213007Y-1439043D01*
X2213007Y-1439043D02*
X2203483Y-1429519D01*
X2203483Y-1429519D02*
X2193959Y-1410471D01*
X2193959Y-1410471D02*
X2184435Y-1372376D01*
X2184435Y-1372376D02*
X2184435Y-1324757D01*
X2184435Y-1324757D02*
X2193959Y-1286662D01*
X2193959Y-1286662D02*
X2203483Y-1267614D01*
X2203483Y-1267614D02*
X2213007Y-1258090D01*
X2213007Y-1258090D02*
X2232054Y-1248566D01*
X2384435Y-1429519D02*
X2393959Y-1439043D01*
X2393959Y-1439043D02*
X2384435Y-1448566D01*
X2384435Y-1448566D02*
X2374912Y-1439043D01*
X2374912Y-1439043D02*
X2384435Y-1429519D01*
X2384435Y-1429519D02*
X2384435Y-1448566D01*
X2584435Y-1448566D02*
X2470150Y-1448566D01*
X2527292Y-1448566D02*
X2527292Y-1248566D01*
X2527292Y-1248566D02*
X2508245Y-1277138D01*
X2508245Y-1277138D02*
X2489197Y-1296185D01*
X2489197Y-1296185D02*
X2470150Y-1305709D01*
X2660626Y-1267614D02*
X2670150Y-1258090D01*
X2670150Y-1258090D02*
X2689197Y-1248566D01*
X2689197Y-1248566D02*
X2736816Y-1248566D01*
X2736816Y-1248566D02*
X2755864Y-1258090D01*
X2755864Y-1258090D02*
X2765388Y-1267614D01*
X2765388Y-1267614D02*
X2774912Y-1286662D01*
X2774912Y-1286662D02*
X2774912Y-1305709D01*
X2774912Y-1305709D02*
X2765388Y-1334281D01*
X2765388Y-1334281D02*
X2651102Y-1448566D01*
X2651102Y-1448566D02*
X2774912Y-1448566D01*
X2898721Y-1248566D02*
X2917769Y-1248566D01*
X2917769Y-1248566D02*
X2936816Y-1258090D01*
X2936816Y-1258090D02*
X2946340Y-1267614D01*
X2946340Y-1267614D02*
X2955864Y-1286662D01*
X2955864Y-1286662D02*
X2965388Y-1324757D01*
X2965388Y-1324757D02*
X2965388Y-1372376D01*
X2965388Y-1372376D02*
X2955864Y-1410471D01*
X2955864Y-1410471D02*
X2946340Y-1429519D01*
X2946340Y-1429519D02*
X2936816Y-1439043D01*
X2936816Y-1439043D02*
X2917769Y-1448566D01*
X2917769Y-1448566D02*
X2898721Y-1448566D01*
X2898721Y-1448566D02*
X2879673Y-1439043D01*
X2879673Y-1439043D02*
X2870150Y-1429519D01*
X2870150Y-1429519D02*
X2860626Y-1410471D01*
X2860626Y-1410471D02*
X2851102Y-1372376D01*
X2851102Y-1372376D02*
X2851102Y-1324757D01*
X2851102Y-1324757D02*
X2860626Y-1286662D01*
X2860626Y-1286662D02*
X2870150Y-1267614D01*
X2870150Y-1267614D02*
X2879673Y-1258090D01*
X2879673Y-1258090D02*
X2898721Y-1248566D01*
X3089197Y-1248566D02*
X3108245Y-1248566D01*
X3108245Y-1248566D02*
X3127292Y-1258090D01*
X3127292Y-1258090D02*
X3136816Y-1267614D01*
X3136816Y-1267614D02*
X3146340Y-1286662D01*
X3146340Y-1286662D02*
X3155864Y-1324757D01*
X3155864Y-1324757D02*
X3155864Y-1372376D01*
X3155864Y-1372376D02*
X3146340Y-1410471D01*
X3146340Y-1410471D02*
X3136816Y-1429519D01*
X3136816Y-1429519D02*
X3127292Y-1439043D01*
X3127292Y-1439043D02*
X3108245Y-1448566D01*
X3108245Y-1448566D02*
X3089197Y-1448566D01*
X3089197Y-1448566D02*
X3070150Y-1439043D01*
X3070150Y-1439043D02*
X3060626Y-1429519D01*
X3060626Y-1429519D02*
X3051102Y-1410471D01*
X3051102Y-1410471D02*
X3041578Y-1372376D01*
X3041578Y-1372376D02*
X3041578Y-1324757D01*
X3041578Y-1324757D02*
X3051102Y-1286662D01*
X3051102Y-1286662D02*
X3060626Y-1267614D01*
X3060626Y-1267614D02*
X3070150Y-1258090D01*
X3070150Y-1258090D02*
X3089197Y-1248566D01*
X3232054Y-1248566D02*
X3232054Y-1286662D01*
X3308245Y-1248566D02*
X3308245Y-1286662D01*
X3603483Y-1524757D02*
X3593959Y-1515233D01*
X3593959Y-1515233D02*
X3574912Y-1486662D01*
X3574912Y-1486662D02*
X3565388Y-1467614D01*
X3565388Y-1467614D02*
X3555864Y-1439043D01*
X3555864Y-1439043D02*
X3546340Y-1391424D01*
X3546340Y-1391424D02*
X3546340Y-1353328D01*
X3546340Y-1353328D02*
X3555864Y-1305709D01*
X3555864Y-1305709D02*
X3565388Y-1277138D01*
X3565388Y-1277138D02*
X3574912Y-1258090D01*
X3574912Y-1258090D02*
X3593959Y-1229519D01*
X3593959Y-1229519D02*
X3603483Y-1219995D01*
X3765388Y-1315233D02*
X3765388Y-1448566D01*
X3717769Y-1239043D02*
X3670150Y-1381900D01*
X3670150Y-1381900D02*
X3793959Y-1381900D01*
X4022531Y-1448566D02*
X4022531Y-1248566D01*
X4108245Y-1448566D02*
X4108245Y-1343805D01*
X4108245Y-1343805D02*
X4098721Y-1324757D01*
X4098721Y-1324757D02*
X4079674Y-1315233D01*
X4079674Y-1315233D02*
X4051102Y-1315233D01*
X4051102Y-1315233D02*
X4032054Y-1324757D01*
X4032054Y-1324757D02*
X4022531Y-1334281D01*
X4232055Y-1448566D02*
X4213007Y-1439043D01*
X4213007Y-1439043D02*
X4203483Y-1429519D01*
X4203483Y-1429519D02*
X4193959Y-1410471D01*
X4193959Y-1410471D02*
X4193959Y-1353328D01*
X4193959Y-1353328D02*
X4203483Y-1334281D01*
X4203483Y-1334281D02*
X4213007Y-1324757D01*
X4213007Y-1324757D02*
X4232055Y-1315233D01*
X4232055Y-1315233D02*
X4260626Y-1315233D01*
X4260626Y-1315233D02*
X4279674Y-1324757D01*
X4279674Y-1324757D02*
X4289197Y-1334281D01*
X4289197Y-1334281D02*
X4298721Y-1353328D01*
X4298721Y-1353328D02*
X4298721Y-1410471D01*
X4298721Y-1410471D02*
X4289197Y-1429519D01*
X4289197Y-1429519D02*
X4279674Y-1439043D01*
X4279674Y-1439043D02*
X4260626Y-1448566D01*
X4260626Y-1448566D02*
X4232055Y-1448566D01*
X4413007Y-1448566D02*
X4393959Y-1439043D01*
X4393959Y-1439043D02*
X4384436Y-1419995D01*
X4384436Y-1419995D02*
X4384436Y-1248566D01*
X4565388Y-1439043D02*
X4546340Y-1448566D01*
X4546340Y-1448566D02*
X4508245Y-1448566D01*
X4508245Y-1448566D02*
X4489197Y-1439043D01*
X4489197Y-1439043D02*
X4479674Y-1419995D01*
X4479674Y-1419995D02*
X4479674Y-1343805D01*
X4479674Y-1343805D02*
X4489197Y-1324757D01*
X4489197Y-1324757D02*
X4508245Y-1315233D01*
X4508245Y-1315233D02*
X4546340Y-1315233D01*
X4546340Y-1315233D02*
X4565388Y-1324757D01*
X4565388Y-1324757D02*
X4574912Y-1343805D01*
X4574912Y-1343805D02*
X4574912Y-1362852D01*
X4574912Y-1362852D02*
X4479674Y-1381900D01*
X4651102Y-1439043D02*
X4670150Y-1448566D01*
X4670150Y-1448566D02*
X4708245Y-1448566D01*
X4708245Y-1448566D02*
X4727293Y-1439043D01*
X4727293Y-1439043D02*
X4736817Y-1419995D01*
X4736817Y-1419995D02*
X4736817Y-1410471D01*
X4736817Y-1410471D02*
X4727293Y-1391424D01*
X4727293Y-1391424D02*
X4708245Y-1381900D01*
X4708245Y-1381900D02*
X4679674Y-1381900D01*
X4679674Y-1381900D02*
X4660626Y-1372376D01*
X4660626Y-1372376D02*
X4651102Y-1353328D01*
X4651102Y-1353328D02*
X4651102Y-1343805D01*
X4651102Y-1343805D02*
X4660626Y-1324757D01*
X4660626Y-1324757D02*
X4679674Y-1315233D01*
X4679674Y-1315233D02*
X4708245Y-1315233D01*
X4708245Y-1315233D02*
X4727293Y-1324757D01*
X4803483Y-1524757D02*
X4813007Y-1515233D01*
X4813007Y-1515233D02*
X4832055Y-1486662D01*
X4832055Y-1486662D02*
X4841578Y-1467614D01*
X4841578Y-1467614D02*
X4851102Y-1439043D01*
X4851102Y-1439043D02*
X4860626Y-1391424D01*
X4860626Y-1391424D02*
X4860626Y-1353328D01*
X4860626Y-1353328D02*
X4851102Y-1305709D01*
X4851102Y-1305709D02*
X4841578Y-1277138D01*
X4841578Y-1277138D02*
X4832055Y-1258090D01*
X4832055Y-1258090D02*
X4813007Y-1229519D01*
X4813007Y-1229519D02*
X4803483Y-1219995D01*
X5165388Y-1524757D02*
X5155864Y-1515233D01*
X5155864Y-1515233D02*
X5136817Y-1486662D01*
X5136817Y-1486662D02*
X5127293Y-1467614D01*
X5127293Y-1467614D02*
X5117769Y-1439043D01*
X5117769Y-1439043D02*
X5108245Y-1391424D01*
X5108245Y-1391424D02*
X5108245Y-1353328D01*
X5108245Y-1353328D02*
X5117769Y-1305709D01*
X5117769Y-1305709D02*
X5127293Y-1277138D01*
X5127293Y-1277138D02*
X5136817Y-1258090D01*
X5136817Y-1258090D02*
X5155864Y-1229519D01*
X5155864Y-1229519D02*
X5165388Y-1219995D01*
X5241578Y-1315233D02*
X5241578Y-1448566D01*
X5241578Y-1334281D02*
X5251102Y-1324757D01*
X5251102Y-1324757D02*
X5270150Y-1315233D01*
X5270150Y-1315233D02*
X5298721Y-1315233D01*
X5298721Y-1315233D02*
X5317769Y-1324757D01*
X5317769Y-1324757D02*
X5327293Y-1343805D01*
X5327293Y-1343805D02*
X5327293Y-1448566D01*
X5451102Y-1448566D02*
X5432055Y-1439043D01*
X5432055Y-1439043D02*
X5422531Y-1429519D01*
X5422531Y-1429519D02*
X5413007Y-1410471D01*
X5413007Y-1410471D02*
X5413007Y-1353328D01*
X5413007Y-1353328D02*
X5422531Y-1334281D01*
X5422531Y-1334281D02*
X5432055Y-1324757D01*
X5432055Y-1324757D02*
X5451102Y-1315233D01*
X5451102Y-1315233D02*
X5479674Y-1315233D01*
X5479674Y-1315233D02*
X5498721Y-1324757D01*
X5498721Y-1324757D02*
X5508245Y-1334281D01*
X5508245Y-1334281D02*
X5517769Y-1353328D01*
X5517769Y-1353328D02*
X5517769Y-1410471D01*
X5517769Y-1410471D02*
X5508245Y-1429519D01*
X5508245Y-1429519D02*
X5498721Y-1439043D01*
X5498721Y-1439043D02*
X5479674Y-1448566D01*
X5479674Y-1448566D02*
X5451102Y-1448566D01*
X5574912Y-1315233D02*
X5651102Y-1315233D01*
X5603483Y-1248566D02*
X5603483Y-1419995D01*
X5603483Y-1419995D02*
X5613007Y-1439043D01*
X5613007Y-1439043D02*
X5632055Y-1448566D01*
X5632055Y-1448566D02*
X5651102Y-1448566D01*
X5870150Y-1315233D02*
X5870150Y-1515233D01*
X5870150Y-1324757D02*
X5889197Y-1315233D01*
X5889197Y-1315233D02*
X5927293Y-1315233D01*
X5927293Y-1315233D02*
X5946340Y-1324757D01*
X5946340Y-1324757D02*
X5955864Y-1334281D01*
X5955864Y-1334281D02*
X5965388Y-1353328D01*
X5965388Y-1353328D02*
X5965388Y-1410471D01*
X5965388Y-1410471D02*
X5955864Y-1429519D01*
X5955864Y-1429519D02*
X5946340Y-1439043D01*
X5946340Y-1439043D02*
X5927293Y-1448566D01*
X5927293Y-1448566D02*
X5889197Y-1448566D01*
X5889197Y-1448566D02*
X5870150Y-1439043D01*
X6079674Y-1448566D02*
X6060626Y-1439043D01*
X6060626Y-1439043D02*
X6051102Y-1419995D01*
X6051102Y-1419995D02*
X6051102Y-1248566D01*
X6241578Y-1448566D02*
X6241578Y-1343805D01*
X6241578Y-1343805D02*
X6232055Y-1324757D01*
X6232055Y-1324757D02*
X6213007Y-1315233D01*
X6213007Y-1315233D02*
X6174912Y-1315233D01*
X6174912Y-1315233D02*
X6155864Y-1324757D01*
X6241578Y-1439043D02*
X6222531Y-1448566D01*
X6222531Y-1448566D02*
X6174912Y-1448566D01*
X6174912Y-1448566D02*
X6155864Y-1439043D01*
X6155864Y-1439043D02*
X6146340Y-1419995D01*
X6146340Y-1419995D02*
X6146340Y-1400947D01*
X6146340Y-1400947D02*
X6155864Y-1381900D01*
X6155864Y-1381900D02*
X6174912Y-1372376D01*
X6174912Y-1372376D02*
X6222531Y-1372376D01*
X6222531Y-1372376D02*
X6241578Y-1362852D01*
X6308245Y-1315233D02*
X6384436Y-1315233D01*
X6336817Y-1248566D02*
X6336817Y-1419995D01*
X6336817Y-1419995D02*
X6346340Y-1439043D01*
X6346340Y-1439043D02*
X6365388Y-1448566D01*
X6365388Y-1448566D02*
X6384436Y-1448566D01*
X6527293Y-1439043D02*
X6508245Y-1448566D01*
X6508245Y-1448566D02*
X6470150Y-1448566D01*
X6470150Y-1448566D02*
X6451102Y-1439043D01*
X6451102Y-1439043D02*
X6441578Y-1419995D01*
X6441578Y-1419995D02*
X6441578Y-1343805D01*
X6441578Y-1343805D02*
X6451102Y-1324757D01*
X6451102Y-1324757D02*
X6470150Y-1315233D01*
X6470150Y-1315233D02*
X6508245Y-1315233D01*
X6508245Y-1315233D02*
X6527293Y-1324757D01*
X6527293Y-1324757D02*
X6536817Y-1343805D01*
X6536817Y-1343805D02*
X6536817Y-1362852D01*
X6536817Y-1362852D02*
X6441578Y-1381900D01*
X6708245Y-1448566D02*
X6708245Y-1248566D01*
X6708245Y-1439043D02*
X6689198Y-1448566D01*
X6689198Y-1448566D02*
X6651102Y-1448566D01*
X6651102Y-1448566D02*
X6632055Y-1439043D01*
X6632055Y-1439043D02*
X6622531Y-1429519D01*
X6622531Y-1429519D02*
X6613007Y-1410471D01*
X6613007Y-1410471D02*
X6613007Y-1353328D01*
X6613007Y-1353328D02*
X6622531Y-1334281D01*
X6622531Y-1334281D02*
X6632055Y-1324757D01*
X6632055Y-1324757D02*
X6651102Y-1315233D01*
X6651102Y-1315233D02*
X6689198Y-1315233D01*
X6689198Y-1315233D02*
X6708245Y-1324757D01*
X6784436Y-1524757D02*
X6793959Y-1515233D01*
X6793959Y-1515233D02*
X6813007Y-1486662D01*
X6813007Y-1486662D02*
X6822531Y-1467614D01*
X6822531Y-1467614D02*
X6832055Y-1439043D01*
X6832055Y-1439043D02*
X6841578Y-1391424D01*
X6841578Y-1391424D02*
X6841578Y-1353328D01*
X6841578Y-1353328D02*
X6832055Y-1305709D01*
X6832055Y-1305709D02*
X6822531Y-1277138D01*
X6822531Y-1277138D02*
X6813007Y-1258090D01*
X6813007Y-1258090D02*
X6793959Y-1229519D01*
X6793959Y-1229519D02*
X6784436Y-1219995D01*
X-868Y-1747794D02*
X-868Y-1606371D01*
X-142291Y-1606371D01*
X-142291Y-1747794D01*
X-868Y-1747794D01*
X270149Y-1568566D02*
X393959Y-1568566D01*
X393959Y-1568566D02*
X327292Y-1644757D01*
X327292Y-1644757D02*
X355864Y-1644757D01*
X355864Y-1644757D02*
X374911Y-1654281D01*
X374911Y-1654281D02*
X384435Y-1663804D01*
X384435Y-1663804D02*
X393959Y-1682852D01*
X393959Y-1682852D02*
X393959Y-1730471D01*
X393959Y-1730471D02*
X384435Y-1749519D01*
X384435Y-1749519D02*
X374911Y-1759043D01*
X374911Y-1759043D02*
X355864Y-1768566D01*
X355864Y-1768566D02*
X298721Y-1768566D01*
X298721Y-1768566D02*
X279673Y-1759043D01*
X279673Y-1759043D02*
X270149Y-1749519D01*
X479673Y-1749519D02*
X489197Y-1759043D01*
X489197Y-1759043D02*
X479673Y-1768566D01*
X479673Y-1768566D02*
X470149Y-1759043D01*
X470149Y-1759043D02*
X479673Y-1749519D01*
X479673Y-1749519D02*
X479673Y-1768566D01*
X584435Y-1768566D02*
X622530Y-1768566D01*
X622530Y-1768566D02*
X641578Y-1759043D01*
X641578Y-1759043D02*
X651102Y-1749519D01*
X651102Y-1749519D02*
X670149Y-1720947D01*
X670149Y-1720947D02*
X679673Y-1682852D01*
X679673Y-1682852D02*
X679673Y-1606662D01*
X679673Y-1606662D02*
X670149Y-1587614D01*
X670149Y-1587614D02*
X660626Y-1578090D01*
X660626Y-1578090D02*
X641578Y-1568566D01*
X641578Y-1568566D02*
X603483Y-1568566D01*
X603483Y-1568566D02*
X584435Y-1578090D01*
X584435Y-1578090D02*
X574911Y-1587614D01*
X574911Y-1587614D02*
X565388Y-1606662D01*
X565388Y-1606662D02*
X565388Y-1654281D01*
X565388Y-1654281D02*
X574911Y-1673328D01*
X574911Y-1673328D02*
X584435Y-1682852D01*
X584435Y-1682852D02*
X603483Y-1692376D01*
X603483Y-1692376D02*
X641578Y-1692376D01*
X641578Y-1692376D02*
X660626Y-1682852D01*
X660626Y-1682852D02*
X670149Y-1673328D01*
X670149Y-1673328D02*
X679673Y-1654281D01*
X793959Y-1654281D02*
X774911Y-1644757D01*
X774911Y-1644757D02*
X765387Y-1635233D01*
X765387Y-1635233D02*
X755864Y-1616185D01*
X755864Y-1616185D02*
X755864Y-1606662D01*
X755864Y-1606662D02*
X765387Y-1587614D01*
X765387Y-1587614D02*
X774911Y-1578090D01*
X774911Y-1578090D02*
X793959Y-1568566D01*
X793959Y-1568566D02*
X832054Y-1568566D01*
X832054Y-1568566D02*
X851102Y-1578090D01*
X851102Y-1578090D02*
X860626Y-1587614D01*
X860626Y-1587614D02*
X870149Y-1606662D01*
X870149Y-1606662D02*
X870149Y-1616185D01*
X870149Y-1616185D02*
X860626Y-1635233D01*
X860626Y-1635233D02*
X851102Y-1644757D01*
X851102Y-1644757D02*
X832054Y-1654281D01*
X832054Y-1654281D02*
X793959Y-1654281D01*
X793959Y-1654281D02*
X774911Y-1663804D01*
X774911Y-1663804D02*
X765387Y-1673328D01*
X765387Y-1673328D02*
X755864Y-1692376D01*
X755864Y-1692376D02*
X755864Y-1730471D01*
X755864Y-1730471D02*
X765387Y-1749519D01*
X765387Y-1749519D02*
X774911Y-1759043D01*
X774911Y-1759043D02*
X793959Y-1768566D01*
X793959Y-1768566D02*
X832054Y-1768566D01*
X832054Y-1768566D02*
X851102Y-1759043D01*
X851102Y-1759043D02*
X860626Y-1749519D01*
X860626Y-1749519D02*
X870149Y-1730471D01*
X870149Y-1730471D02*
X870149Y-1692376D01*
X870149Y-1692376D02*
X860626Y-1673328D01*
X860626Y-1673328D02*
X851102Y-1663804D01*
X851102Y-1663804D02*
X832054Y-1654281D01*
X984435Y-1654281D02*
X965387Y-1644757D01*
X965387Y-1644757D02*
X955864Y-1635233D01*
X955864Y-1635233D02*
X946340Y-1616185D01*
X946340Y-1616185D02*
X946340Y-1606662D01*
X946340Y-1606662D02*
X955864Y-1587614D01*
X955864Y-1587614D02*
X965387Y-1578090D01*
X965387Y-1578090D02*
X984435Y-1568566D01*
X984435Y-1568566D02*
X1022530Y-1568566D01*
X1022530Y-1568566D02*
X1041578Y-1578090D01*
X1041578Y-1578090D02*
X1051102Y-1587614D01*
X1051102Y-1587614D02*
X1060626Y-1606662D01*
X1060626Y-1606662D02*
X1060626Y-1616185D01*
X1060626Y-1616185D02*
X1051102Y-1635233D01*
X1051102Y-1635233D02*
X1041578Y-1644757D01*
X1041578Y-1644757D02*
X1022530Y-1654281D01*
X1022530Y-1654281D02*
X984435Y-1654281D01*
X984435Y-1654281D02*
X965387Y-1663804D01*
X965387Y-1663804D02*
X955864Y-1673328D01*
X955864Y-1673328D02*
X946340Y-1692376D01*
X946340Y-1692376D02*
X946340Y-1730471D01*
X946340Y-1730471D02*
X955864Y-1749519D01*
X955864Y-1749519D02*
X965387Y-1759043D01*
X965387Y-1759043D02*
X984435Y-1768566D01*
X984435Y-1768566D02*
X1022530Y-1768566D01*
X1022530Y-1768566D02*
X1041578Y-1759043D01*
X1041578Y-1759043D02*
X1051102Y-1749519D01*
X1051102Y-1749519D02*
X1060626Y-1730471D01*
X1060626Y-1730471D02*
X1060626Y-1692376D01*
X1060626Y-1692376D02*
X1051102Y-1673328D01*
X1051102Y-1673328D02*
X1041578Y-1663804D01*
X1041578Y-1663804D02*
X1022530Y-1654281D01*
X1146340Y-1768566D02*
X1146340Y-1635233D01*
X1146340Y-1654281D02*
X1155864Y-1644757D01*
X1155864Y-1644757D02*
X1174911Y-1635233D01*
X1174911Y-1635233D02*
X1203483Y-1635233D01*
X1203483Y-1635233D02*
X1222530Y-1644757D01*
X1222530Y-1644757D02*
X1232054Y-1663804D01*
X1232054Y-1663804D02*
X1232054Y-1768566D01*
X1232054Y-1663804D02*
X1241578Y-1644757D01*
X1241578Y-1644757D02*
X1260626Y-1635233D01*
X1260626Y-1635233D02*
X1289197Y-1635233D01*
X1289197Y-1635233D02*
X1308245Y-1644757D01*
X1308245Y-1644757D02*
X1317769Y-1663804D01*
X1317769Y-1663804D02*
X1317769Y-1768566D01*
X1413007Y-1768566D02*
X1413007Y-1635233D01*
X1413007Y-1654281D02*
X1422530Y-1644757D01*
X1422530Y-1644757D02*
X1441578Y-1635233D01*
X1441578Y-1635233D02*
X1470149Y-1635233D01*
X1470149Y-1635233D02*
X1489197Y-1644757D01*
X1489197Y-1644757D02*
X1498721Y-1663804D01*
X1498721Y-1663804D02*
X1498721Y-1768566D01*
X1498721Y-1663804D02*
X1508245Y-1644757D01*
X1508245Y-1644757D02*
X1527292Y-1635233D01*
X1527292Y-1635233D02*
X1555864Y-1635233D01*
X1555864Y-1635233D02*
X1574911Y-1644757D01*
X1574911Y-1644757D02*
X1584435Y-1663804D01*
X1584435Y-1663804D02*
X1584435Y-1768566D01*
X1974911Y-1559043D02*
X1803483Y-1816185D01*
X2232054Y-1568566D02*
X2251102Y-1568566D01*
X2251102Y-1568566D02*
X2270150Y-1578090D01*
X2270150Y-1578090D02*
X2279673Y-1587614D01*
X2279673Y-1587614D02*
X2289197Y-1606662D01*
X2289197Y-1606662D02*
X2298721Y-1644757D01*
X2298721Y-1644757D02*
X2298721Y-1692376D01*
X2298721Y-1692376D02*
X2289197Y-1730471D01*
X2289197Y-1730471D02*
X2279673Y-1749519D01*
X2279673Y-1749519D02*
X2270150Y-1759043D01*
X2270150Y-1759043D02*
X2251102Y-1768566D01*
X2251102Y-1768566D02*
X2232054Y-1768566D01*
X2232054Y-1768566D02*
X2213007Y-1759043D01*
X2213007Y-1759043D02*
X2203483Y-1749519D01*
X2203483Y-1749519D02*
X2193959Y-1730471D01*
X2193959Y-1730471D02*
X2184435Y-1692376D01*
X2184435Y-1692376D02*
X2184435Y-1644757D01*
X2184435Y-1644757D02*
X2193959Y-1606662D01*
X2193959Y-1606662D02*
X2203483Y-1587614D01*
X2203483Y-1587614D02*
X2213007Y-1578090D01*
X2213007Y-1578090D02*
X2232054Y-1568566D01*
X2384435Y-1749519D02*
X2393959Y-1759043D01*
X2393959Y-1759043D02*
X2384435Y-1768566D01*
X2384435Y-1768566D02*
X2374912Y-1759043D01*
X2374912Y-1759043D02*
X2384435Y-1749519D01*
X2384435Y-1749519D02*
X2384435Y-1768566D01*
X2584435Y-1768566D02*
X2470150Y-1768566D01*
X2527292Y-1768566D02*
X2527292Y-1568566D01*
X2527292Y-1568566D02*
X2508245Y-1597138D01*
X2508245Y-1597138D02*
X2489197Y-1616185D01*
X2489197Y-1616185D02*
X2470150Y-1625709D01*
X2765388Y-1568566D02*
X2670150Y-1568566D01*
X2670150Y-1568566D02*
X2660626Y-1663804D01*
X2660626Y-1663804D02*
X2670150Y-1654281D01*
X2670150Y-1654281D02*
X2689197Y-1644757D01*
X2689197Y-1644757D02*
X2736816Y-1644757D01*
X2736816Y-1644757D02*
X2755864Y-1654281D01*
X2755864Y-1654281D02*
X2765388Y-1663804D01*
X2765388Y-1663804D02*
X2774912Y-1682852D01*
X2774912Y-1682852D02*
X2774912Y-1730471D01*
X2774912Y-1730471D02*
X2765388Y-1749519D01*
X2765388Y-1749519D02*
X2755864Y-1759043D01*
X2755864Y-1759043D02*
X2736816Y-1768566D01*
X2736816Y-1768566D02*
X2689197Y-1768566D01*
X2689197Y-1768566D02*
X2670150Y-1759043D01*
X2670150Y-1759043D02*
X2660626Y-1749519D01*
X2841578Y-1568566D02*
X2974911Y-1568566D01*
X2974911Y-1568566D02*
X2889197Y-1768566D01*
X3089197Y-1568566D02*
X3108245Y-1568566D01*
X3108245Y-1568566D02*
X3127292Y-1578090D01*
X3127292Y-1578090D02*
X3136816Y-1587614D01*
X3136816Y-1587614D02*
X3146340Y-1606662D01*
X3146340Y-1606662D02*
X3155864Y-1644757D01*
X3155864Y-1644757D02*
X3155864Y-1692376D01*
X3155864Y-1692376D02*
X3146340Y-1730471D01*
X3146340Y-1730471D02*
X3136816Y-1749519D01*
X3136816Y-1749519D02*
X3127292Y-1759043D01*
X3127292Y-1759043D02*
X3108245Y-1768566D01*
X3108245Y-1768566D02*
X3089197Y-1768566D01*
X3089197Y-1768566D02*
X3070150Y-1759043D01*
X3070150Y-1759043D02*
X3060626Y-1749519D01*
X3060626Y-1749519D02*
X3051102Y-1730471D01*
X3051102Y-1730471D02*
X3041578Y-1692376D01*
X3041578Y-1692376D02*
X3041578Y-1644757D01*
X3041578Y-1644757D02*
X3051102Y-1606662D01*
X3051102Y-1606662D02*
X3060626Y-1587614D01*
X3060626Y-1587614D02*
X3070150Y-1578090D01*
X3070150Y-1578090D02*
X3089197Y-1568566D01*
X3232054Y-1568566D02*
X3232054Y-1606662D01*
X3308245Y-1568566D02*
X3308245Y-1606662D01*
X3603483Y-1844757D02*
X3593959Y-1835233D01*
X3593959Y-1835233D02*
X3574912Y-1806662D01*
X3574912Y-1806662D02*
X3565388Y-1787614D01*
X3565388Y-1787614D02*
X3555864Y-1759043D01*
X3555864Y-1759043D02*
X3546340Y-1711423D01*
X3546340Y-1711423D02*
X3546340Y-1673328D01*
X3546340Y-1673328D02*
X3555864Y-1625709D01*
X3555864Y-1625709D02*
X3565388Y-1597138D01*
X3565388Y-1597138D02*
X3574912Y-1578090D01*
X3574912Y-1578090D02*
X3593959Y-1549519D01*
X3593959Y-1549519D02*
X3603483Y-1539995D01*
X3774912Y-1568566D02*
X3679673Y-1568566D01*
X3679673Y-1568566D02*
X3670150Y-1663804D01*
X3670150Y-1663804D02*
X3679673Y-1654281D01*
X3679673Y-1654281D02*
X3698721Y-1644757D01*
X3698721Y-1644757D02*
X3746340Y-1644757D01*
X3746340Y-1644757D02*
X3765388Y-1654281D01*
X3765388Y-1654281D02*
X3774912Y-1663804D01*
X3774912Y-1663804D02*
X3784435Y-1682852D01*
X3784435Y-1682852D02*
X3784435Y-1730471D01*
X3784435Y-1730471D02*
X3774912Y-1749519D01*
X3774912Y-1749519D02*
X3765388Y-1759043D01*
X3765388Y-1759043D02*
X3746340Y-1768566D01*
X3746340Y-1768566D02*
X3698721Y-1768566D01*
X3698721Y-1768566D02*
X3679673Y-1759043D01*
X3679673Y-1759043D02*
X3670150Y-1749519D01*
X3851102Y-1568566D02*
X3984435Y-1568566D01*
X3984435Y-1568566D02*
X3898721Y-1768566D01*
X4213007Y-1768566D02*
X4213007Y-1568566D01*
X4298721Y-1768566D02*
X4298721Y-1663804D01*
X4298721Y-1663804D02*
X4289197Y-1644757D01*
X4289197Y-1644757D02*
X4270150Y-1635233D01*
X4270150Y-1635233D02*
X4241578Y-1635233D01*
X4241578Y-1635233D02*
X4222531Y-1644757D01*
X4222531Y-1644757D02*
X4213007Y-1654281D01*
X4422531Y-1768566D02*
X4403483Y-1759043D01*
X4403483Y-1759043D02*
X4393959Y-1749519D01*
X4393959Y-1749519D02*
X4384436Y-1730471D01*
X4384436Y-1730471D02*
X4384436Y-1673328D01*
X4384436Y-1673328D02*
X4393959Y-1654281D01*
X4393959Y-1654281D02*
X4403483Y-1644757D01*
X4403483Y-1644757D02*
X4422531Y-1635233D01*
X4422531Y-1635233D02*
X4451102Y-1635233D01*
X4451102Y-1635233D02*
X4470150Y-1644757D01*
X4470150Y-1644757D02*
X4479674Y-1654281D01*
X4479674Y-1654281D02*
X4489197Y-1673328D01*
X4489197Y-1673328D02*
X4489197Y-1730471D01*
X4489197Y-1730471D02*
X4479674Y-1749519D01*
X4479674Y-1749519D02*
X4470150Y-1759043D01*
X4470150Y-1759043D02*
X4451102Y-1768566D01*
X4451102Y-1768566D02*
X4422531Y-1768566D01*
X4603483Y-1768566D02*
X4584436Y-1759043D01*
X4584436Y-1759043D02*
X4574912Y-1739995D01*
X4574912Y-1739995D02*
X4574912Y-1568566D01*
X4755864Y-1759043D02*
X4736817Y-1768566D01*
X4736817Y-1768566D02*
X4698721Y-1768566D01*
X4698721Y-1768566D02*
X4679674Y-1759043D01*
X4679674Y-1759043D02*
X4670150Y-1739995D01*
X4670150Y-1739995D02*
X4670150Y-1663804D01*
X4670150Y-1663804D02*
X4679674Y-1644757D01*
X4679674Y-1644757D02*
X4698721Y-1635233D01*
X4698721Y-1635233D02*
X4736817Y-1635233D01*
X4736817Y-1635233D02*
X4755864Y-1644757D01*
X4755864Y-1644757D02*
X4765388Y-1663804D01*
X4765388Y-1663804D02*
X4765388Y-1682852D01*
X4765388Y-1682852D02*
X4670150Y-1701900D01*
X4841578Y-1759043D02*
X4860626Y-1768566D01*
X4860626Y-1768566D02*
X4898721Y-1768566D01*
X4898721Y-1768566D02*
X4917769Y-1759043D01*
X4917769Y-1759043D02*
X4927293Y-1739995D01*
X4927293Y-1739995D02*
X4927293Y-1730471D01*
X4927293Y-1730471D02*
X4917769Y-1711423D01*
X4917769Y-1711423D02*
X4898721Y-1701900D01*
X4898721Y-1701900D02*
X4870150Y-1701900D01*
X4870150Y-1701900D02*
X4851102Y-1692376D01*
X4851102Y-1692376D02*
X4841578Y-1673328D01*
X4841578Y-1673328D02*
X4841578Y-1663804D01*
X4841578Y-1663804D02*
X4851102Y-1644757D01*
X4851102Y-1644757D02*
X4870150Y-1635233D01*
X4870150Y-1635233D02*
X4898721Y-1635233D01*
X4898721Y-1635233D02*
X4917769Y-1644757D01*
X4993959Y-1844757D02*
X5003483Y-1835233D01*
X5003483Y-1835233D02*
X5022531Y-1806662D01*
X5022531Y-1806662D02*
X5032055Y-1787614D01*
X5032055Y-1787614D02*
X5041578Y-1759043D01*
X5041578Y-1759043D02*
X5051102Y-1711423D01*
X5051102Y-1711423D02*
X5051102Y-1673328D01*
X5051102Y-1673328D02*
X5041578Y-1625709D01*
X5041578Y-1625709D02*
X5032055Y-1597138D01*
X5032055Y-1597138D02*
X5022531Y-1578090D01*
X5022531Y-1578090D02*
X5003483Y-1549519D01*
X5003483Y-1549519D02*
X4993959Y-1539995D01*
X5355864Y-1844757D02*
X5346340Y-1835233D01*
X5346340Y-1835233D02*
X5327293Y-1806662D01*
X5327293Y-1806662D02*
X5317769Y-1787614D01*
X5317769Y-1787614D02*
X5308245Y-1759043D01*
X5308245Y-1759043D02*
X5298721Y-1711423D01*
X5298721Y-1711423D02*
X5298721Y-1673328D01*
X5298721Y-1673328D02*
X5308245Y-1625709D01*
X5308245Y-1625709D02*
X5317769Y-1597138D01*
X5317769Y-1597138D02*
X5327293Y-1578090D01*
X5327293Y-1578090D02*
X5346340Y-1549519D01*
X5346340Y-1549519D02*
X5355864Y-1539995D01*
X5432055Y-1635233D02*
X5432055Y-1768566D01*
X5432055Y-1654281D02*
X5441578Y-1644757D01*
X5441578Y-1644757D02*
X5460626Y-1635233D01*
X5460626Y-1635233D02*
X5489198Y-1635233D01*
X5489198Y-1635233D02*
X5508245Y-1644757D01*
X5508245Y-1644757D02*
X5517769Y-1663804D01*
X5517769Y-1663804D02*
X5517769Y-1768566D01*
X5641578Y-1768566D02*
X5622531Y-1759043D01*
X5622531Y-1759043D02*
X5613007Y-1749519D01*
X5613007Y-1749519D02*
X5603483Y-1730471D01*
X5603483Y-1730471D02*
X5603483Y-1673328D01*
X5603483Y-1673328D02*
X5613007Y-1654281D01*
X5613007Y-1654281D02*
X5622531Y-1644757D01*
X5622531Y-1644757D02*
X5641578Y-1635233D01*
X5641578Y-1635233D02*
X5670150Y-1635233D01*
X5670150Y-1635233D02*
X5689197Y-1644757D01*
X5689197Y-1644757D02*
X5698721Y-1654281D01*
X5698721Y-1654281D02*
X5708245Y-1673328D01*
X5708245Y-1673328D02*
X5708245Y-1730471D01*
X5708245Y-1730471D02*
X5698721Y-1749519D01*
X5698721Y-1749519D02*
X5689197Y-1759043D01*
X5689197Y-1759043D02*
X5670150Y-1768566D01*
X5670150Y-1768566D02*
X5641578Y-1768566D01*
X5765388Y-1635233D02*
X5841578Y-1635233D01*
X5793959Y-1568566D02*
X5793959Y-1739995D01*
X5793959Y-1739995D02*
X5803483Y-1759043D01*
X5803483Y-1759043D02*
X5822531Y-1768566D01*
X5822531Y-1768566D02*
X5841578Y-1768566D01*
X6060626Y-1635233D02*
X6060626Y-1835233D01*
X6060626Y-1644757D02*
X6079674Y-1635233D01*
X6079674Y-1635233D02*
X6117769Y-1635233D01*
X6117769Y-1635233D02*
X6136817Y-1644757D01*
X6136817Y-1644757D02*
X6146340Y-1654281D01*
X6146340Y-1654281D02*
X6155864Y-1673328D01*
X6155864Y-1673328D02*
X6155864Y-1730471D01*
X6155864Y-1730471D02*
X6146340Y-1749519D01*
X6146340Y-1749519D02*
X6136817Y-1759043D01*
X6136817Y-1759043D02*
X6117769Y-1768566D01*
X6117769Y-1768566D02*
X6079674Y-1768566D01*
X6079674Y-1768566D02*
X6060626Y-1759043D01*
X6270150Y-1768566D02*
X6251102Y-1759043D01*
X6251102Y-1759043D02*
X6241578Y-1739995D01*
X6241578Y-1739995D02*
X6241578Y-1568566D01*
X6432055Y-1768566D02*
X6432055Y-1663804D01*
X6432055Y-1663804D02*
X6422531Y-1644757D01*
X6422531Y-1644757D02*
X6403483Y-1635233D01*
X6403483Y-1635233D02*
X6365388Y-1635233D01*
X6365388Y-1635233D02*
X6346340Y-1644757D01*
X6432055Y-1759043D02*
X6413007Y-1768566D01*
X6413007Y-1768566D02*
X6365388Y-1768566D01*
X6365388Y-1768566D02*
X6346340Y-1759043D01*
X6346340Y-1759043D02*
X6336817Y-1739995D01*
X6336817Y-1739995D02*
X6336817Y-1720947D01*
X6336817Y-1720947D02*
X6346340Y-1701900D01*
X6346340Y-1701900D02*
X6365388Y-1692376D01*
X6365388Y-1692376D02*
X6413007Y-1692376D01*
X6413007Y-1692376D02*
X6432055Y-1682852D01*
X6498721Y-1635233D02*
X6574912Y-1635233D01*
X6527293Y-1568566D02*
X6527293Y-1739995D01*
X6527293Y-1739995D02*
X6536817Y-1759043D01*
X6536817Y-1759043D02*
X6555864Y-1768566D01*
X6555864Y-1768566D02*
X6574912Y-1768566D01*
X6717769Y-1759043D02*
X6698721Y-1768566D01*
X6698721Y-1768566D02*
X6660626Y-1768566D01*
X6660626Y-1768566D02*
X6641578Y-1759043D01*
X6641578Y-1759043D02*
X6632055Y-1739995D01*
X6632055Y-1739995D02*
X6632055Y-1663804D01*
X6632055Y-1663804D02*
X6641578Y-1644757D01*
X6641578Y-1644757D02*
X6660626Y-1635233D01*
X6660626Y-1635233D02*
X6698721Y-1635233D01*
X6698721Y-1635233D02*
X6717769Y-1644757D01*
X6717769Y-1644757D02*
X6727293Y-1663804D01*
X6727293Y-1663804D02*
X6727293Y-1682852D01*
X6727293Y-1682852D02*
X6632055Y-1701900D01*
X6898721Y-1768566D02*
X6898721Y-1568566D01*
X6898721Y-1759043D02*
X6879674Y-1768566D01*
X6879674Y-1768566D02*
X6841578Y-1768566D01*
X6841578Y-1768566D02*
X6822531Y-1759043D01*
X6822531Y-1759043D02*
X6813007Y-1749519D01*
X6813007Y-1749519D02*
X6803483Y-1730471D01*
X6803483Y-1730471D02*
X6803483Y-1673328D01*
X6803483Y-1673328D02*
X6813007Y-1654281D01*
X6813007Y-1654281D02*
X6822531Y-1644757D01*
X6822531Y-1644757D02*
X6841578Y-1635233D01*
X6841578Y-1635233D02*
X6879674Y-1635233D01*
X6879674Y-1635233D02*
X6898721Y-1644757D01*
X6974912Y-1844757D02*
X6984436Y-1835233D01*
X6984436Y-1835233D02*
X7003483Y-1806662D01*
X7003483Y-1806662D02*
X7013007Y-1787614D01*
X7013007Y-1787614D02*
X7022531Y-1759043D01*
X7022531Y-1759043D02*
X7032055Y-1711423D01*
X7032055Y-1711423D02*
X7032055Y-1673328D01*
X7032055Y-1673328D02*
X7022531Y-1625709D01*
X7022531Y-1625709D02*
X7013007Y-1597138D01*
X7013007Y-1597138D02*
X7003483Y-1578090D01*
X7003483Y-1578090D02*
X6984436Y-1549519D01*
X6984436Y-1549519D02*
X6974912Y-1539995D01*
M02*
