%TF.GenerationSoftware,KiCad,Pcbnew,7.0.6*%
%TF.CreationDate,2024-02-12T15:49:00-05:00*%
%TF.ProjectId,lalettre2040-tripple-stagger-hotswap-pcb,6c616c65-7474-4726-9532-3034302d7472,rev?*%
%TF.SameCoordinates,PX1ea85bbPY7e0978f*%
%TF.FileFunction,Soldermask,Bot*%
%TF.FilePolarity,Negative*%
%FSLAX46Y46*%
G04 Gerber Fmt 4.6, Leading zero omitted, Abs format (unit mm)*
G04 Created by KiCad (PCBNEW 7.0.6) date 2024-02-12 15:49:00*
%MOMM*%
%LPD*%
G01*
G04 APERTURE LIST*
G04 Aperture macros list*
%AMRoundRect*
0 Rectangle with rounded corners*
0 $1 Rounding radius*
0 $2 $3 $4 $5 $6 $7 $8 $9 X,Y pos of 4 corners*
0 Add a 4 corners polygon primitive as box body*
4,1,4,$2,$3,$4,$5,$6,$7,$8,$9,$2,$3,0*
0 Add four circle primitives for the rounded corners*
1,1,$1+$1,$2,$3*
1,1,$1+$1,$4,$5*
1,1,$1+$1,$6,$7*
1,1,$1+$1,$8,$9*
0 Add four rect primitives between the rounded corners*
20,1,$1+$1,$2,$3,$4,$5,0*
20,1,$1+$1,$4,$5,$6,$7,0*
20,1,$1+$1,$6,$7,$8,$9,0*
20,1,$1+$1,$8,$9,$2,$3,0*%
%AMRotRect*
0 Rectangle, with rotation*
0 The origin of the aperture is its center*
0 $1 length*
0 $2 width*
0 $3 Rotation angle, in degrees counterclockwise*
0 Add horizontal line*
21,1,$1,$2,0,0,$3*%
G04 Aperture macros list end*
%ADD10C,1.750000*%
%ADD11C,3.000000*%
%ADD12C,3.987800*%
%ADD13RotRect,2.486250X2.202500X187.000000*%
%ADD14RotRect,2.550000X2.500000X187.000000*%
%ADD15RotRect,2.576750X2.222500X187.000000*%
%ADD16RotRect,2.550000X2.500000X7.000000*%
%ADD17O,1.700000X1.700000*%
%ADD18R,1.700000X1.700000*%
%ADD19RoundRect,0.135000X-0.185000X0.135000X-0.185000X-0.135000X0.185000X-0.135000X0.185000X0.135000X0*%
%ADD20RoundRect,0.225000X0.399625X-0.177622X0.344784X0.269024X-0.399625X0.177622X-0.344784X-0.269024X0*%
%ADD21RotRect,2.550000X2.500000X173.000000*%
%ADD22RotRect,2.550000X2.500000X353.000000*%
%ADD23RoundRect,0.140000X0.140000X0.170000X-0.140000X0.170000X-0.140000X-0.170000X0.140000X-0.170000X0*%
%ADD24RoundRect,0.140000X0.170000X-0.140000X0.170000X0.140000X-0.170000X0.140000X-0.170000X-0.140000X0*%
%ADD25R,1.700000X1.000000*%
%ADD26RoundRect,0.225000X0.344784X-0.269024X0.399625X0.177622X-0.344784X0.269024X-0.399625X-0.177622X0*%
%ADD27RoundRect,0.140000X0.219203X0.021213X0.021213X0.219203X-0.219203X-0.021213X-0.021213X-0.219203X0*%
%ADD28RoundRect,0.250000X-0.350000X-0.650000X0.350000X-0.650000X0.350000X0.650000X-0.350000X0.650000X0*%
%ADD29RoundRect,0.150000X-0.150000X-0.625000X0.150000X-0.625000X0.150000X0.625000X-0.150000X0.625000X0*%
%ADD30RotRect,2.486250X2.500000X7.000000*%
%ADD31RoundRect,0.150000X0.650000X0.150000X-0.650000X0.150000X-0.650000X-0.150000X0.650000X-0.150000X0*%
%ADD32RoundRect,0.135000X-0.135000X-0.185000X0.135000X-0.185000X0.135000X0.185000X-0.135000X0.185000X0*%
%ADD33C,3.048000*%
%ADD34RoundRect,0.140000X0.021213X-0.219203X0.219203X-0.021213X-0.021213X0.219203X-0.219203X0.021213X0*%
%ADD35RoundRect,0.140000X-0.219203X-0.021213X-0.021213X-0.219203X0.219203X0.021213X0.021213X0.219203X0*%
%ADD36RoundRect,0.140000X-0.140000X-0.170000X0.140000X-0.170000X0.140000X0.170000X-0.140000X0.170000X0*%
%ADD37RoundRect,0.135000X0.035355X-0.226274X0.226274X-0.035355X-0.035355X0.226274X-0.226274X0.035355X0*%
%ADD38RotRect,2.486250X2.500000X173.000000*%
%ADD39RotRect,1.400000X1.200000X45.000000*%
%ADD40RoundRect,0.140000X-0.021213X0.219203X-0.219203X0.021213X0.021213X-0.219203X0.219203X-0.021213X0*%
%ADD41RoundRect,0.150000X0.587500X0.150000X-0.587500X0.150000X-0.587500X-0.150000X0.587500X-0.150000X0*%
%ADD42R,3.100000X3.100000*%
%ADD43RoundRect,0.020000X0.080000X0.400000X-0.080000X0.400000X-0.080000X-0.400000X0.080000X-0.400000X0*%
%ADD44RoundRect,0.006000X0.414000X0.094000X-0.414000X0.094000X-0.414000X-0.094000X0.414000X-0.094000X0*%
%ADD45RoundRect,0.140000X-0.170000X0.140000X-0.170000X-0.140000X0.170000X-0.140000X0.170000X0.140000X0*%
G04 APERTURE END LIST*
D10*
%TO.C,MX51*%
X177779305Y33293453D03*
D11*
X174639142Y38026040D03*
D12*
X172737171Y32674357D03*
D11*
X168646022Y34731102D03*
D10*
X167695037Y32055261D03*
D13*
X165381924Y34180454D03*
D14*
X177916529Y38428452D03*
%TD*%
D10*
%TO.C,MX27*%
X163598301Y31552246D03*
D11*
X160458138Y36284833D03*
D12*
X158556167Y30933150D03*
D11*
X154465018Y32989895D03*
D10*
X153514033Y30314054D03*
D14*
X151214429Y32590773D03*
D15*
X163729454Y36846442D03*
%TD*%
D10*
%TO.C,MX50*%
X141696462Y28863054D03*
D11*
X144836625Y24130467D03*
D12*
X146738596Y29482150D03*
D11*
X150829745Y27425405D03*
D10*
X151780730Y30101246D03*
D16*
X141559238Y23728055D03*
X154080334Y27824527D03*
%TD*%
D17*
%TO.C,J2*%
X115145950Y3212205D03*
X117685950Y3212205D03*
X120225950Y3212205D03*
X122765950Y3212205D03*
D18*
X125305950Y3212205D03*
%TD*%
D19*
%TO.C,R_FLASH2*%
X125510311Y19995029D03*
X125510311Y21015029D03*
%TD*%
D20*
%TO.C,D9*%
X210052169Y70706972D03*
X210454337Y67431570D03*
%TD*%
D19*
%TO.C,R_DATA2*%
X117175928Y43778800D03*
X117175928Y44798800D03*
%TD*%
D10*
%TO.C,MX44*%
X96194167Y48286879D03*
D11*
X94292196Y53638561D03*
D12*
X91152033Y48905975D03*
D11*
X87679980Y51891364D03*
D10*
X86109899Y49525071D03*
D21*
X84429392Y52290487D03*
X97569584Y53236149D03*
%TD*%
D10*
%TO.C,MX41*%
X31749387Y56199702D03*
D11*
X33651358Y50848020D03*
D12*
X36791521Y55580606D03*
D11*
X40263574Y52595217D03*
D10*
X41833655Y54961510D03*
D22*
X30373970Y51250432D03*
X43514162Y52196094D03*
%TD*%
D10*
%TO.C,MX14*%
X74922661Y50898691D03*
D11*
X73020690Y56250373D03*
D12*
X69880527Y51517787D03*
D11*
X66408474Y54503176D03*
D10*
X64838393Y52136883D03*
D21*
X63157886Y54902299D03*
X76298078Y55847961D03*
%TD*%
D10*
%TO.C,MX28*%
X172422038Y32635664D03*
D11*
X175562201Y27903077D03*
D12*
X177464172Y33254760D03*
D11*
X181555321Y31198015D03*
D10*
X182506306Y33873856D03*
D16*
X172284814Y27500665D03*
X184805910Y31597137D03*
%TD*%
D23*
%TO.C,C_ESD2*%
X112390923Y44288800D03*
X113350923Y44288800D03*
%TD*%
D10*
%TO.C,MX17*%
X170730693Y51621055D03*
D11*
X167590530Y56353642D03*
D12*
X165688559Y51001959D03*
D11*
X161597410Y53058704D03*
D10*
X160646425Y50382863D03*
D14*
X158346821Y52659582D03*
X170867917Y56756054D03*
%TD*%
D20*
%TO.C,D19*%
X211192030Y51653853D03*
X211594198Y48378451D03*
%TD*%
D19*
%TO.C,R_FLASH3*%
X126700935Y22260968D03*
X126700935Y23280968D03*
%TD*%
D10*
%TO.C,MX22*%
X44239046Y35473102D03*
D11*
X42337075Y40824784D03*
D12*
X39196912Y36092198D03*
D11*
X35724859Y39077587D03*
D10*
X34154778Y36711294D03*
D21*
X32474271Y39476710D03*
X45614463Y40422372D03*
%TD*%
D24*
%TO.C,C_3V3_3*%
X119557178Y44768800D03*
X119557178Y43808800D03*
%TD*%
D25*
%TO.C,SW2*%
X117002493Y9646586D03*
X123302493Y9646586D03*
X117002493Y13446586D03*
X123302493Y13446586D03*
%TD*%
D10*
%TO.C,MX9*%
X201498089Y74591879D03*
D11*
X198357926Y79324466D03*
D12*
X196455955Y73972783D03*
D11*
X192364806Y76029528D03*
D10*
X191413821Y73353687D03*
D14*
X189114217Y75630406D03*
X201635313Y79726878D03*
%TD*%
D23*
%TO.C,C_3V3_6*%
X112390923Y36145045D03*
X113350923Y36145045D03*
%TD*%
D26*
%TO.C,D14*%
X82282895Y45059673D03*
X81880727Y41784271D03*
%TD*%
%TO.C,D24*%
X89415294Y24990848D03*
X89013126Y21715446D03*
%TD*%
D27*
%TO.C,C_XTAL2*%
X118514120Y24231070D03*
X119192942Y23552248D03*
%TD*%
D26*
%TO.C,D21*%
X25600725Y32826292D03*
X25198557Y29550890D03*
%TD*%
D20*
%TO.C,D27*%
X158562209Y25998646D03*
X158964377Y22723244D03*
%TD*%
D10*
%TO.C,MX6*%
X144774009Y67627053D03*
D11*
X141633846Y72359640D03*
D12*
X139731875Y67007957D03*
D11*
X135640726Y69064702D03*
D10*
X134689741Y66388861D03*
D14*
X132390137Y68665580D03*
X144911233Y72762052D03*
%TD*%
D28*
%TO.C,J1*%
X122952492Y52712243D03*
X117352492Y52712243D03*
D29*
X121652492Y48837243D03*
X120652492Y48837243D03*
X119652492Y48837243D03*
X118652492Y48837243D03*
%TD*%
D20*
%TO.C,D28*%
X186333364Y29408513D03*
X186735532Y26133111D03*
%TD*%
D19*
%TO.C,R_FLASH1*%
X126700936Y19995028D03*
X126700936Y21015028D03*
%TD*%
D20*
%TO.C,D17*%
X173375989Y47010626D03*
X173778157Y43735224D03*
%TD*%
D10*
%TO.C,MX47*%
X57789783Y33809282D03*
D11*
X59691754Y28457600D03*
D12*
X62831917Y33190186D03*
D11*
X66303970Y30204797D03*
D10*
X67874051Y32571090D03*
D22*
X56414366Y28860012D03*
X69554558Y29805674D03*
%TD*%
D23*
%TO.C,C_3V3_5*%
X112390925Y39745044D03*
X113350925Y39745044D03*
%TD*%
D10*
%TO.C,MX53*%
X214964980Y37859296D03*
D11*
X218105143Y33126709D03*
D12*
X220007114Y38478392D03*
D11*
X224098263Y36421647D03*
D10*
X225049248Y39097488D03*
D16*
X214827756Y32724297D03*
D30*
X227380489Y36824654D03*
%TD*%
D31*
%TO.C,U2*%
X125482188Y46789114D03*
X125482188Y45519114D03*
X125482188Y44249114D03*
X125482188Y42979114D03*
X132682188Y42979114D03*
X132682188Y44249114D03*
X132682188Y45519114D03*
X132682188Y46789114D03*
%TD*%
D20*
%TO.C,D6*%
X150964604Y63451934D03*
X151366772Y60176532D03*
%TD*%
D10*
%TO.C,MX8*%
X182590086Y72270267D03*
D11*
X179449923Y77002854D03*
D12*
X177547952Y71651171D03*
D11*
X173456803Y73707916D03*
D10*
X172505818Y71032075D03*
D14*
X170206214Y73308794D03*
X182727310Y77405266D03*
%TD*%
D26*
%TO.C,D23*%
X70507274Y27312463D03*
X70105106Y24037061D03*
%TD*%
D10*
%TO.C,MX48*%
X76697785Y31487671D03*
D11*
X78599756Y26135989D03*
D12*
X81739919Y30868575D03*
D11*
X85211972Y27883186D03*
D10*
X86782053Y30249479D03*
D22*
X75322368Y26538401D03*
X88462560Y27484063D03*
%TD*%
D10*
%TO.C,MX38*%
X196140822Y73934089D03*
D11*
X199280985Y69201502D03*
D12*
X201182956Y74553185D03*
D11*
X205274105Y72496440D03*
D10*
X206225090Y75172281D03*
D16*
X196003598Y68799090D03*
X208524694Y72895562D03*
%TD*%
D10*
%TO.C,MX15*%
X88473400Y49234869D03*
D11*
X90375371Y43883187D03*
D12*
X93515534Y48615773D03*
D11*
X96987587Y45630384D03*
D10*
X98557668Y47996677D03*
D22*
X87097983Y44285599D03*
X100238175Y45231261D03*
%TD*%
D20*
%TO.C,D30*%
X228876408Y34632143D03*
X229278576Y31356741D03*
%TD*%
%TO.C,D34*%
X189401426Y14190848D03*
X189803594Y10915446D03*
%TD*%
D10*
%TO.C,MX25*%
X103326557Y28218069D03*
D11*
X101424586Y33569751D03*
D12*
X98284423Y28837165D03*
D11*
X94812370Y31822554D03*
D10*
X93242289Y29456261D03*
D21*
X91561782Y32221677D03*
X104701974Y33167339D03*
%TD*%
D32*
%TO.C,R_RST1*%
X125305949Y5466803D03*
X124285949Y5466803D03*
%TD*%
D24*
%TO.C,C_3V3_4*%
X120747805Y44768800D03*
X120747805Y43808800D03*
%TD*%
D10*
%TO.C,MX10*%
X222769525Y77203698D03*
D11*
X219629362Y81936285D03*
D12*
X217727391Y76584602D03*
D11*
X213636242Y78641347D03*
D10*
X212685257Y75965506D03*
D14*
X210385653Y78242225D03*
X222906749Y82338697D03*
%TD*%
D20*
%TO.C,D10*%
X228960188Y73028585D03*
X229362356Y69753183D03*
%TD*%
D10*
%TO.C,MX42*%
X50657390Y53878092D03*
D11*
X52559361Y48526410D03*
D12*
X55699524Y53258996D03*
D11*
X59171577Y50273607D03*
D10*
X60741658Y52639900D03*
D22*
X49281973Y48928822D03*
X62422165Y49874484D03*
%TD*%
D10*
%TO.C,MX19*%
X208546702Y56264277D03*
D11*
X205406539Y60996864D03*
D12*
X203504568Y55645181D03*
D11*
X199413419Y57701926D03*
D10*
X198462434Y55026085D03*
D14*
X196162830Y57302804D03*
X208683926Y61399276D03*
%TD*%
D10*
%TO.C,MX40*%
X10477881Y58811514D03*
D11*
X12379852Y53459832D03*
D12*
X15520015Y58192418D03*
D11*
X18992068Y55207029D03*
D10*
X20562149Y57573322D03*
D22*
X9102464Y53862244D03*
X22242656Y54807906D03*
%TD*%
D10*
%TO.C,MX30*%
X222685746Y38807288D03*
D11*
X219545583Y43539875D03*
D12*
X217643612Y38188192D03*
D11*
X213552463Y40244937D03*
D10*
X212601478Y37569096D03*
D14*
X210301874Y39845815D03*
X222822970Y43942287D03*
%TD*%
D26*
%TO.C,D1*%
X21971692Y71658038D03*
X21569524Y68382636D03*
%TD*%
D33*
%TO.C,MX33*%
X164123982Y5386289D03*
D12*
X162266694Y20512693D03*
D10*
X156465843Y11483444D03*
D11*
X153325680Y16216031D03*
D12*
X151423709Y10864348D03*
D11*
X147332560Y12921093D03*
D10*
X146381575Y10245252D03*
D33*
X140425950Y2476537D03*
D12*
X138568662Y17602940D03*
D14*
X144081971Y12521971D03*
X156603067Y16618443D03*
%TD*%
D10*
%TO.C,MX31*%
X63188938Y13953286D03*
D11*
X61286967Y19304968D03*
D12*
X58146804Y14572382D03*
D11*
X54674751Y17557771D03*
D10*
X53104670Y15191478D03*
D21*
X51424163Y17956894D03*
X64564355Y18902556D03*
%TD*%
D34*
%TO.C,C_1V1_2*%
X122873157Y45223525D03*
X122194335Y44544703D03*
%TD*%
D10*
%TO.C,MX45*%
X12883271Y39323107D03*
D11*
X14785242Y33971425D03*
D12*
X17925405Y38704011D03*
D11*
X21397458Y35718622D03*
D10*
X22967539Y38084915D03*
D22*
X11507854Y34373837D03*
X24648046Y35319499D03*
%TD*%
D26*
%TO.C,D4*%
X78695753Y64693199D03*
X78293585Y61417797D03*
%TD*%
D35*
%TO.C,C_XTAL1*%
X122981491Y27340796D03*
X122302669Y28019618D03*
%TD*%
D10*
%TO.C,MX46*%
X38881777Y36130892D03*
D11*
X40783748Y30779210D03*
D12*
X43923911Y35511796D03*
D11*
X47395964Y32526407D03*
D10*
X48966045Y34892700D03*
D22*
X37506360Y31181622D03*
X50646552Y32127284D03*
%TD*%
D36*
%TO.C,C_3V3_8*%
X128371563Y36145044D03*
X127411563Y36145044D03*
%TD*%
D26*
%TO.C,D13*%
X63374876Y47381286D03*
X62972708Y44105884D03*
%TD*%
D20*
%TO.C,D20*%
X230100049Y53975465D03*
X230502217Y50700063D03*
%TD*%
D10*
%TO.C,MX23*%
X63147048Y33151491D03*
D11*
X61245077Y38503173D03*
D12*
X58104914Y33770587D03*
D11*
X54632861Y36755976D03*
D10*
X53062780Y34389683D03*
D21*
X51382273Y37155099D03*
X64522465Y38100761D03*
%TD*%
D37*
%TO.C,R_XTAL1*%
X119388519Y27866468D03*
X118667271Y27145220D03*
%TD*%
D10*
%TO.C,MX29*%
X191330043Y34957277D03*
D11*
X194470206Y30224690D03*
D12*
X196372177Y35576373D03*
D11*
X200463326Y33519628D03*
D10*
X201414311Y36195469D03*
D16*
X191192819Y29822278D03*
X203713915Y33918750D03*
%TD*%
D33*
%TO.C,MX32*%
X99870071Y2411954D03*
D12*
X101727359Y17538357D03*
D10*
X93914446Y10180669D03*
D11*
X92012475Y15532351D03*
D12*
X88872312Y10799765D03*
D11*
X85400259Y13785154D03*
D10*
X83830178Y11418861D03*
D33*
X76172039Y5321706D03*
D12*
X78029327Y20448110D03*
D21*
X82149671Y14184277D03*
X95289863Y15129939D03*
%TD*%
D19*
%TO.C,R_DATA1*%
X118366556Y43778800D03*
X118366556Y44798800D03*
%TD*%
D10*
%TO.C,MX36*%
X158324812Y69290868D03*
D11*
X161464975Y64558281D03*
D12*
X163366946Y69909964D03*
D11*
X167458095Y67853219D03*
D10*
X168409080Y70529060D03*
D16*
X158187588Y64155869D03*
X170708684Y68252341D03*
%TD*%
D20*
%TO.C,D26*%
X155607831Y25635893D03*
X156009999Y22360491D03*
%TD*%
D10*
%TO.C,MX2*%
X39428264Y74449917D03*
D11*
X37526293Y79801599D03*
D12*
X34386130Y75069013D03*
D11*
X30914077Y78054402D03*
D10*
X29343996Y75688109D03*
D21*
X27663489Y78453525D03*
X40803681Y79399187D03*
%TD*%
D10*
%TO.C,MX52*%
X196687310Y35615065D03*
D11*
X193547147Y40347652D03*
D12*
X191645176Y34995969D03*
D11*
X187554027Y37052714D03*
D10*
X186603042Y34376873D03*
D14*
X184303438Y36653592D03*
X196824534Y40750064D03*
%TD*%
D10*
%TO.C,MX39*%
X215048825Y76255700D03*
D11*
X218188988Y71523113D03*
D12*
X220090959Y76874796D03*
D11*
X224182108Y74818051D03*
D10*
X225133093Y77493892D03*
D16*
X214911601Y71120701D03*
X227432697Y75217173D03*
%TD*%
D10*
%TO.C,MX20*%
X227454704Y58585887D03*
D11*
X224314541Y63318474D03*
D12*
X222412570Y57966791D03*
D11*
X218321421Y60023536D03*
D10*
X217370436Y57347695D03*
D14*
X215070832Y59624414D03*
X227591928Y63720886D03*
%TD*%
D26*
%TO.C,D2*%
X40879712Y69336425D03*
X40477544Y66061023D03*
%TD*%
D20*
%TO.C,D33*%
X158675893Y10418228D03*
X159078061Y7142826D03*
%TD*%
D10*
%TO.C,MX43*%
X69565394Y51556481D03*
D11*
X71467365Y46204799D03*
D12*
X74607528Y50937385D03*
D11*
X78079581Y47951996D03*
D10*
X79649662Y50318289D03*
D22*
X68189977Y46607211D03*
X81330169Y47552873D03*
%TD*%
D26*
%TO.C,D31*%
X65075706Y12384996D03*
X64673538Y9109594D03*
%TD*%
D20*
%TO.C,D16*%
X154467972Y44689013D03*
X154870140Y41413611D03*
%TD*%
D26*
%TO.C,D5*%
X97603773Y62371586D03*
X97201605Y59096184D03*
%TD*%
%TO.C,D12*%
X44466857Y49702899D03*
X44064689Y46427497D03*
%TD*%
D10*
%TO.C,MX21*%
X20604039Y38375117D03*
D11*
X18702068Y43726799D03*
D12*
X15561905Y38994213D03*
D11*
X12089852Y41979602D03*
D10*
X10519771Y39613309D03*
D38*
X8807626Y42382609D03*
D21*
X21979456Y43324387D03*
%TD*%
D26*
%TO.C,D15*%
X101190915Y42738061D03*
X100788747Y39462659D03*
%TD*%
D39*
%TO.C,Y1*%
X120571028Y24407075D03*
X122126663Y25962710D03*
X120924582Y27164791D03*
X119368947Y25609156D03*
%TD*%
D10*
%TO.C,MX34*%
X187191350Y15256062D03*
D11*
X184051187Y19988649D03*
D12*
X182149216Y14636966D03*
D11*
X178058067Y16693711D03*
D10*
X177107082Y14017870D03*
D14*
X174807478Y16294589D03*
X187328574Y20391061D03*
%TD*%
D10*
%TO.C,MX3*%
X58336270Y72128305D03*
D11*
X56434299Y77479987D03*
D12*
X53294136Y72747401D03*
D11*
X49822083Y75732790D03*
D10*
X48252002Y73366497D03*
D21*
X46571495Y76131913D03*
X59711687Y77077575D03*
%TD*%
D36*
%TO.C,C_ESD1*%
X113350924Y50837243D03*
X112390924Y50837243D03*
%TD*%
D40*
%TO.C,C_1V1_3*%
X117004720Y28850197D03*
X117683542Y29529019D03*
%TD*%
D10*
%TO.C,MX18*%
X189638697Y53942666D03*
D11*
X186498534Y58675253D03*
D12*
X184596563Y53323570D03*
D11*
X180505414Y55380315D03*
D10*
X179554429Y52704474D03*
D14*
X177254825Y54981193D03*
X189775921Y59077665D03*
%TD*%
D10*
%TO.C,MX24*%
X82055054Y30829881D03*
D11*
X80153083Y36181563D03*
D12*
X77012920Y31448977D03*
D11*
X73540867Y34434366D03*
D10*
X71970786Y32068073D03*
D21*
X70290279Y34833489D03*
X83430471Y35779151D03*
%TD*%
D41*
%TO.C,U3*%
X111475922Y47620052D03*
X113350922Y46670052D03*
X113350922Y48570052D03*
%TD*%
D10*
%TO.C,MX11*%
X18198650Y57863523D03*
D11*
X16296679Y63215205D03*
D12*
X13156516Y58482619D03*
D11*
X9684463Y61468008D03*
D10*
X8114382Y59101715D03*
D21*
X6433875Y61867131D03*
X19574067Y62812793D03*
%TD*%
D10*
%TO.C,MX7*%
X163682080Y69948658D03*
D11*
X160541917Y74681245D03*
D12*
X158639946Y69329562D03*
D11*
X154548797Y71386307D03*
D10*
X153597812Y68710466D03*
D14*
X151298208Y70987185D03*
X163819304Y75083657D03*
%TD*%
D10*
%TO.C,MX12*%
X37106653Y55541912D03*
D11*
X35204682Y60893594D03*
D12*
X32064519Y56161008D03*
D11*
X28592466Y59146397D03*
D10*
X27022385Y56780104D03*
D21*
X25341878Y59545520D03*
X38482070Y60491182D03*
%TD*%
D10*
%TO.C,MX5*%
X96152278Y67485083D03*
D11*
X94250307Y72836765D03*
D12*
X91110144Y68104179D03*
D11*
X87638091Y71089568D03*
D10*
X86068010Y68723275D03*
D21*
X84387503Y71488691D03*
X97527695Y72434353D03*
%TD*%
D26*
%TO.C,D11*%
X23195331Y52314715D03*
X22793163Y49039313D03*
%TD*%
%TO.C,D25*%
X108323314Y22669236D03*
X107921146Y19393834D03*
%TD*%
D10*
%TO.C,MX13*%
X56014658Y53220302D03*
D11*
X54112687Y58571984D03*
D12*
X50972524Y53839398D03*
D11*
X47500471Y56824787D03*
D10*
X45930390Y54458494D03*
D21*
X44249883Y57223910D03*
X57390075Y58169572D03*
%TD*%
D10*
%TO.C,MX49*%
X95605790Y29166059D03*
D11*
X97507761Y23814377D03*
D12*
X100647924Y28546963D03*
D11*
X104119977Y25561574D03*
D10*
X105690058Y27927867D03*
D22*
X94230373Y24216789D03*
X107370565Y25162451D03*
%TD*%
D26*
%TO.C,D3*%
X59787731Y67014813D03*
X59385563Y63739411D03*
%TD*%
D23*
%TO.C,C_3V3_1*%
X112390923Y42502861D03*
X113350923Y42502861D03*
%TD*%
D40*
%TO.C,C_3V3_9*%
X117846603Y28008314D03*
X118525425Y28687136D03*
%TD*%
D24*
%TO.C,C_1V1_1*%
X115985302Y44768801D03*
X115985302Y43808801D03*
%TD*%
D26*
%TO.C,D32*%
X95801240Y8612376D03*
X95399072Y5336974D03*
%TD*%
D20*
%TO.C,D7*%
X172236127Y66063747D03*
X172638295Y62788345D03*
%TD*%
D42*
%TO.C,U1*%
X120152496Y37145044D03*
D43*
X122752496Y40580044D03*
X122352496Y40580044D03*
X121952496Y40580044D03*
X121552496Y40580044D03*
X121152496Y40580044D03*
X120752496Y40580044D03*
X120352496Y40580044D03*
X119952496Y40580044D03*
X119552496Y40580044D03*
X119152496Y40580044D03*
X118752496Y40580044D03*
X118352496Y40580044D03*
X117952496Y40580044D03*
X117552496Y40580044D03*
D44*
X116717496Y39745044D03*
X116717496Y39345044D03*
X116717496Y38945044D03*
X116717496Y38545044D03*
X116717496Y38145044D03*
X116717496Y37745044D03*
X116717496Y37345044D03*
X116717496Y36945044D03*
X116717496Y36545044D03*
X116717496Y36145044D03*
X116717496Y35745044D03*
X116717496Y35345044D03*
X116717496Y34945044D03*
X116717496Y34545044D03*
D43*
X117552496Y33710044D03*
X117952496Y33710044D03*
X118352496Y33710044D03*
X118752496Y33710044D03*
X119152496Y33710044D03*
X119552496Y33710044D03*
X119952496Y33710044D03*
X120352496Y33710044D03*
X120752496Y33710044D03*
X121152496Y33710044D03*
X121552496Y33710044D03*
X121952496Y33710044D03*
X122352496Y33710044D03*
X122752496Y33710044D03*
D44*
X123587496Y34545044D03*
X123587496Y34945044D03*
X123587496Y35345044D03*
X123587496Y35745044D03*
X123587496Y36145044D03*
X123587496Y36545044D03*
X123587496Y36945044D03*
X123587496Y37345044D03*
X123587496Y37745044D03*
X123587496Y38145044D03*
X123587496Y38545044D03*
X123587496Y38945044D03*
X123587496Y39345044D03*
X123587496Y39745044D03*
%TD*%
D10*
%TO.C,MX35*%
X137053240Y66679062D03*
D11*
X140193403Y61946475D03*
D12*
X142095374Y67298158D03*
D11*
X146186523Y65241413D03*
D10*
X147137508Y67917254D03*
D16*
X136916016Y61544063D03*
X149437112Y65640535D03*
%TD*%
D45*
%TO.C,C_FLASH1*%
X125510309Y22320969D03*
X125510309Y23280969D03*
%TD*%
D23*
%TO.C,C_3V3_2*%
X112390923Y41312235D03*
X113350923Y41312235D03*
%TD*%
D10*
%TO.C,MX16*%
X151822688Y49299444D03*
D11*
X148682525Y54032031D03*
D12*
X146780554Y48680348D03*
D11*
X142689405Y50737093D03*
D10*
X141738420Y48061252D03*
D14*
X139438816Y50337971D03*
X151959912Y54434443D03*
%TD*%
D10*
%TO.C,MX4*%
X77244272Y69806694D03*
D11*
X75342301Y75158376D03*
D12*
X72202138Y70425790D03*
D11*
X68730085Y73411179D03*
D10*
X67160004Y71044886D03*
D21*
X65479497Y73810302D03*
X78619689Y74755964D03*
%TD*%
D20*
%TO.C,D8*%
X191144147Y68385359D03*
X191546315Y65109957D03*
%TD*%
D36*
%TO.C,C_3V3_7*%
X128371561Y39745045D03*
X127411561Y39745045D03*
%TD*%
D10*
%TO.C,MX37*%
X177232819Y71612478D03*
D11*
X180372982Y66879891D03*
D12*
X182274953Y72231574D03*
D11*
X186366102Y70174829D03*
D10*
X187317087Y72850670D03*
D16*
X177095595Y66477479D03*
X189616691Y70573951D03*
%TD*%
D20*
%TO.C,D18*%
X192284011Y49332242D03*
X192686179Y46056840D03*
%TD*%
%TO.C,D29*%
X205241384Y31730128D03*
X205643552Y28454726D03*
%TD*%
D10*
%TO.C,MX26*%
X144690298Y29230634D03*
D11*
X141550135Y33963221D03*
D12*
X139648164Y28611538D03*
D11*
X135557015Y30668283D03*
D10*
X134606030Y27992442D03*
D14*
X132306426Y30269161D03*
X144827522Y34365633D03*
%TD*%
D10*
%TO.C,MX1*%
X20520259Y76771529D03*
D11*
X18618288Y82123211D03*
D12*
X15478125Y77390625D03*
D11*
X12006072Y80376014D03*
D10*
X10435991Y78009721D03*
D21*
X8755484Y80775137D03*
X21895676Y81720799D03*
%TD*%
D26*
%TO.C,D22*%
X51599255Y29634076D03*
X51197087Y26358674D03*
%TD*%
D25*
%TO.C,SW1*%
X123302495Y19995028D03*
X117002495Y19995028D03*
X123302495Y16195028D03*
X117002495Y16195028D03*
%TD*%
M02*
