%TF.GenerationSoftware,KiCad,Pcbnew,7.0.6*%
%TF.CreationDate,2024-02-12T15:49:00-05:00*%
%TF.ProjectId,lalettre2040-tripple-stagger-hotswap-pcb,6c616c65-7474-4726-9532-3034302d7472,rev?*%
%TF.SameCoordinates,PX1ea85bbPY7e0978f*%
%TF.FileFunction,Soldermask,Top*%
%TF.FilePolarity,Negative*%
%FSLAX46Y46*%
G04 Gerber Fmt 4.6, Leading zero omitted, Abs format (unit mm)*
G04 Created by KiCad (PCBNEW 7.0.6) date 2024-02-12 15:49:00*
%MOMM*%
%LPD*%
G01*
G04 APERTURE LIST*
%ADD10C,1.750000*%
%ADD11C,3.000000*%
%ADD12C,3.987800*%
%ADD13O,1.700000X1.700000*%
%ADD14R,1.700000X1.700000*%
%ADD15C,3.048000*%
G04 APERTURE END LIST*
D10*
%TO.C,MX51*%
X177779305Y33293453D03*
D11*
X174639142Y38026040D03*
D12*
X172737171Y32674357D03*
D11*
X168646022Y34731102D03*
D10*
X167695037Y32055261D03*
%TD*%
%TO.C,MX27*%
X163598301Y31552246D03*
D11*
X160458138Y36284833D03*
D12*
X158556167Y30933150D03*
D11*
X154465018Y32989895D03*
D10*
X153514033Y30314054D03*
%TD*%
%TO.C,MX50*%
X141696462Y28863054D03*
D11*
X144836625Y24130467D03*
D12*
X146738596Y29482150D03*
D11*
X150829745Y27425405D03*
D10*
X151780730Y30101246D03*
%TD*%
D13*
%TO.C,J2*%
X115145950Y3212205D03*
X117685950Y3212205D03*
X120225950Y3212205D03*
X122765950Y3212205D03*
D14*
X125305950Y3212205D03*
%TD*%
D10*
%TO.C,MX44*%
X96194167Y48286879D03*
D11*
X94292196Y53638561D03*
D12*
X91152033Y48905975D03*
D11*
X87679980Y51891364D03*
D10*
X86109899Y49525071D03*
%TD*%
%TO.C,MX41*%
X31749387Y56199702D03*
D11*
X33651358Y50848020D03*
D12*
X36791521Y55580606D03*
D11*
X40263574Y52595217D03*
D10*
X41833655Y54961510D03*
%TD*%
%TO.C,MX14*%
X74922661Y50898691D03*
D11*
X73020690Y56250373D03*
D12*
X69880527Y51517787D03*
D11*
X66408474Y54503176D03*
D10*
X64838393Y52136883D03*
%TD*%
%TO.C,MX28*%
X172422038Y32635664D03*
D11*
X175562201Y27903077D03*
D12*
X177464172Y33254760D03*
D11*
X181555321Y31198015D03*
D10*
X182506306Y33873856D03*
%TD*%
%TO.C,MX17*%
X170730693Y51621055D03*
D11*
X167590530Y56353642D03*
D12*
X165688559Y51001959D03*
D11*
X161597410Y53058704D03*
D10*
X160646425Y50382863D03*
%TD*%
%TO.C,MX22*%
X44239046Y35473102D03*
D11*
X42337075Y40824784D03*
D12*
X39196912Y36092198D03*
D11*
X35724859Y39077587D03*
D10*
X34154778Y36711294D03*
%TD*%
%TO.C,MX9*%
X201498089Y74591879D03*
D11*
X198357926Y79324466D03*
D12*
X196455955Y73972783D03*
D11*
X192364806Y76029528D03*
D10*
X191413821Y73353687D03*
%TD*%
%TO.C,MX6*%
X144774009Y67627053D03*
D11*
X141633846Y72359640D03*
D12*
X139731875Y67007957D03*
D11*
X135640726Y69064702D03*
D10*
X134689741Y66388861D03*
%TD*%
%TO.C,MX47*%
X57789783Y33809282D03*
D11*
X59691754Y28457600D03*
D12*
X62831917Y33190186D03*
D11*
X66303970Y30204797D03*
D10*
X67874051Y32571090D03*
%TD*%
%TO.C,MX53*%
X214964980Y37859296D03*
D11*
X218105143Y33126709D03*
D12*
X220007114Y38478392D03*
D11*
X224098263Y36421647D03*
D10*
X225049248Y39097488D03*
%TD*%
%TO.C,MX8*%
X182590086Y72270267D03*
D11*
X179449923Y77002854D03*
D12*
X177547952Y71651171D03*
D11*
X173456803Y73707916D03*
D10*
X172505818Y71032075D03*
%TD*%
%TO.C,MX48*%
X76697785Y31487671D03*
D11*
X78599756Y26135989D03*
D12*
X81739919Y30868575D03*
D11*
X85211972Y27883186D03*
D10*
X86782053Y30249479D03*
%TD*%
%TO.C,MX38*%
X196140822Y73934089D03*
D11*
X199280985Y69201502D03*
D12*
X201182956Y74553185D03*
D11*
X205274105Y72496440D03*
D10*
X206225090Y75172281D03*
%TD*%
%TO.C,MX15*%
X88473400Y49234869D03*
D11*
X90375371Y43883187D03*
D12*
X93515534Y48615773D03*
D11*
X96987587Y45630384D03*
D10*
X98557668Y47996677D03*
%TD*%
%TO.C,MX25*%
X103326557Y28218069D03*
D11*
X101424586Y33569751D03*
D12*
X98284423Y28837165D03*
D11*
X94812370Y31822554D03*
D10*
X93242289Y29456261D03*
%TD*%
%TO.C,MX10*%
X222769525Y77203698D03*
D11*
X219629362Y81936285D03*
D12*
X217727391Y76584602D03*
D11*
X213636242Y78641347D03*
D10*
X212685257Y75965506D03*
%TD*%
%TO.C,MX42*%
X50657390Y53878092D03*
D11*
X52559361Y48526410D03*
D12*
X55699524Y53258996D03*
D11*
X59171577Y50273607D03*
D10*
X60741658Y52639900D03*
%TD*%
%TO.C,MX19*%
X208546702Y56264277D03*
D11*
X205406539Y60996864D03*
D12*
X203504568Y55645181D03*
D11*
X199413419Y57701926D03*
D10*
X198462434Y55026085D03*
%TD*%
%TO.C,MX40*%
X10477881Y58811514D03*
D11*
X12379852Y53459832D03*
D12*
X15520015Y58192418D03*
D11*
X18992068Y55207029D03*
D10*
X20562149Y57573322D03*
%TD*%
%TO.C,MX30*%
X222685746Y38807288D03*
D11*
X219545583Y43539875D03*
D12*
X217643612Y38188192D03*
D11*
X213552463Y40244937D03*
D10*
X212601478Y37569096D03*
%TD*%
D15*
%TO.C,MX33*%
X164123982Y5386289D03*
D12*
X162266694Y20512693D03*
D10*
X156465843Y11483444D03*
D11*
X153325680Y16216031D03*
D12*
X151423709Y10864348D03*
D11*
X147332560Y12921093D03*
D10*
X146381575Y10245252D03*
D15*
X140425950Y2476537D03*
D12*
X138568662Y17602940D03*
%TD*%
D10*
%TO.C,MX31*%
X63188938Y13953286D03*
D11*
X61286967Y19304968D03*
D12*
X58146804Y14572382D03*
D11*
X54674751Y17557771D03*
D10*
X53104670Y15191478D03*
%TD*%
%TO.C,MX45*%
X12883271Y39323107D03*
D11*
X14785242Y33971425D03*
D12*
X17925405Y38704011D03*
D11*
X21397458Y35718622D03*
D10*
X22967539Y38084915D03*
%TD*%
%TO.C,MX46*%
X38881777Y36130892D03*
D11*
X40783748Y30779210D03*
D12*
X43923911Y35511796D03*
D11*
X47395964Y32526407D03*
D10*
X48966045Y34892700D03*
%TD*%
%TO.C,MX23*%
X63147048Y33151491D03*
D11*
X61245077Y38503173D03*
D12*
X58104914Y33770587D03*
D11*
X54632861Y36755976D03*
D10*
X53062780Y34389683D03*
%TD*%
%TO.C,MX29*%
X191330043Y34957277D03*
D11*
X194470206Y30224690D03*
D12*
X196372177Y35576373D03*
D11*
X200463326Y33519628D03*
D10*
X201414311Y36195469D03*
%TD*%
D15*
%TO.C,MX32*%
X99870071Y2411954D03*
D12*
X101727359Y17538357D03*
D10*
X93914446Y10180669D03*
D11*
X92012475Y15532351D03*
D12*
X88872312Y10799765D03*
D11*
X85400259Y13785154D03*
D10*
X83830178Y11418861D03*
D15*
X76172039Y5321706D03*
D12*
X78029327Y20448110D03*
%TD*%
D10*
%TO.C,MX36*%
X158324812Y69290868D03*
D11*
X161464975Y64558281D03*
D12*
X163366946Y69909964D03*
D11*
X167458095Y67853219D03*
D10*
X168409080Y70529060D03*
%TD*%
%TO.C,MX2*%
X39428264Y74449917D03*
D11*
X37526293Y79801599D03*
D12*
X34386130Y75069013D03*
D11*
X30914077Y78054402D03*
D10*
X29343996Y75688109D03*
%TD*%
%TO.C,MX52*%
X196687310Y35615065D03*
D11*
X193547147Y40347652D03*
D12*
X191645176Y34995969D03*
D11*
X187554027Y37052714D03*
D10*
X186603042Y34376873D03*
%TD*%
%TO.C,MX39*%
X215048825Y76255700D03*
D11*
X218188988Y71523113D03*
D12*
X220090959Y76874796D03*
D11*
X224182108Y74818051D03*
D10*
X225133093Y77493892D03*
%TD*%
%TO.C,MX20*%
X227454704Y58585887D03*
D11*
X224314541Y63318474D03*
D12*
X222412570Y57966791D03*
D11*
X218321421Y60023536D03*
D10*
X217370436Y57347695D03*
%TD*%
%TO.C,MX43*%
X69565394Y51556481D03*
D11*
X71467365Y46204799D03*
D12*
X74607528Y50937385D03*
D11*
X78079581Y47951996D03*
D10*
X79649662Y50318289D03*
%TD*%
%TO.C,MX21*%
X20604039Y38375117D03*
D11*
X18702068Y43726799D03*
D12*
X15561905Y38994213D03*
D11*
X12089852Y41979602D03*
D10*
X10519771Y39613309D03*
%TD*%
%TO.C,MX34*%
X187191350Y15256062D03*
D11*
X184051187Y19988649D03*
D12*
X182149216Y14636966D03*
D11*
X178058067Y16693711D03*
D10*
X177107082Y14017870D03*
%TD*%
%TO.C,MX3*%
X58336270Y72128305D03*
D11*
X56434299Y77479987D03*
D12*
X53294136Y72747401D03*
D11*
X49822083Y75732790D03*
D10*
X48252002Y73366497D03*
%TD*%
%TO.C,MX18*%
X189638697Y53942666D03*
D11*
X186498534Y58675253D03*
D12*
X184596563Y53323570D03*
D11*
X180505414Y55380315D03*
D10*
X179554429Y52704474D03*
%TD*%
%TO.C,MX24*%
X82055054Y30829881D03*
D11*
X80153083Y36181563D03*
D12*
X77012920Y31448977D03*
D11*
X73540867Y34434366D03*
D10*
X71970786Y32068073D03*
%TD*%
%TO.C,MX11*%
X18198650Y57863523D03*
D11*
X16296679Y63215205D03*
D12*
X13156516Y58482619D03*
D11*
X9684463Y61468008D03*
D10*
X8114382Y59101715D03*
%TD*%
%TO.C,MX7*%
X163682080Y69948658D03*
D11*
X160541917Y74681245D03*
D12*
X158639946Y69329562D03*
D11*
X154548797Y71386307D03*
D10*
X153597812Y68710466D03*
%TD*%
%TO.C,MX12*%
X37106653Y55541912D03*
D11*
X35204682Y60893594D03*
D12*
X32064519Y56161008D03*
D11*
X28592466Y59146397D03*
D10*
X27022385Y56780104D03*
%TD*%
%TO.C,MX5*%
X96152278Y67485083D03*
D11*
X94250307Y72836765D03*
D12*
X91110144Y68104179D03*
D11*
X87638091Y71089568D03*
D10*
X86068010Y68723275D03*
%TD*%
%TO.C,MX13*%
X56014658Y53220302D03*
D11*
X54112687Y58571984D03*
D12*
X50972524Y53839398D03*
D11*
X47500471Y56824787D03*
D10*
X45930390Y54458494D03*
%TD*%
%TO.C,MX49*%
X95605790Y29166059D03*
D11*
X97507761Y23814377D03*
D12*
X100647924Y28546963D03*
D11*
X104119977Y25561574D03*
D10*
X105690058Y27927867D03*
%TD*%
%TO.C,MX35*%
X137053240Y66679062D03*
D11*
X140193403Y61946475D03*
D12*
X142095374Y67298158D03*
D11*
X146186523Y65241413D03*
D10*
X147137508Y67917254D03*
%TD*%
%TO.C,MX16*%
X151822688Y49299444D03*
D11*
X148682525Y54032031D03*
D12*
X146780554Y48680348D03*
D11*
X142689405Y50737093D03*
D10*
X141738420Y48061252D03*
%TD*%
%TO.C,MX4*%
X77244272Y69806694D03*
D11*
X75342301Y75158376D03*
D12*
X72202138Y70425790D03*
D11*
X68730085Y73411179D03*
D10*
X67160004Y71044886D03*
%TD*%
%TO.C,MX37*%
X177232819Y71612478D03*
D11*
X180372982Y66879891D03*
D12*
X182274953Y72231574D03*
D11*
X186366102Y70174829D03*
D10*
X187317087Y72850670D03*
%TD*%
%TO.C,MX26*%
X144690298Y29230634D03*
D11*
X141550135Y33963221D03*
D12*
X139648164Y28611538D03*
D11*
X135557015Y30668283D03*
D10*
X134606030Y27992442D03*
%TD*%
%TO.C,MX1*%
X20520259Y76771529D03*
D11*
X18618288Y82123211D03*
D12*
X15478125Y77390625D03*
D11*
X12006072Y80376014D03*
D10*
X10435991Y78009721D03*
%TD*%
M02*
