%TF.GenerationSoftware,KiCad,Pcbnew,7.0.6*%
%TF.CreationDate,2024-02-12T15:49:10-05:00*%
%TF.ProjectId,lalettre2040-tripple-stagger-hotswap-pcb,6c616c65-7474-4726-9532-3034302d7472,rev?*%
%TF.SameCoordinates,PX1ea85bbPY7e0978f*%
%TF.FileFunction,Drillmap*%
%TF.FilePolarity,Positive*%
%FSLAX45Y45*%
G04 Gerber Fmt 4.5, Leading zero omitted, Abs format (unit mm)*
G04 Created by KiCad (PCBNEW 7.0.6) date 2024-02-12 15:49:10*
%MOMM*%
%LPD*%
G01*
G04 APERTURE LIST*
%ADD10C,0.090000*%
%ADD11C,0.200000*%
%ADD12C,0.040000*%
%ADD13C,0.100000*%
G04 APERTURE END LIST*
D10*
X4541222Y855451D02*
X4724636Y2349233D01*
X694117Y8602037D02*
X695630Y8612220D01*
X697634Y8622207D01*
X700116Y8631987D01*
X703062Y8641548D01*
X706458Y8650880D01*
X710290Y8659972D01*
X714543Y8668812D01*
X719204Y8677390D01*
X724259Y8685695D01*
X729694Y8693716D01*
X735495Y8701442D01*
X741647Y8708863D01*
X748137Y8715966D01*
X754951Y8722741D01*
X762075Y8729178D01*
X769494Y8735265D01*
X777195Y8740992D01*
X785164Y8746346D01*
X793387Y8751319D01*
X801849Y8755898D01*
X810537Y8760072D01*
X819437Y8763831D01*
X828535Y8767164D01*
X837816Y8770060D01*
X847267Y8772507D01*
X856874Y8774496D01*
X866622Y8776014D01*
X876498Y8777051D01*
X886488Y8777597D01*
X896578Y8777639D01*
X906753Y8777168D01*
X917000Y8776172D01*
X23336955Y3047585D02*
X19479722Y2573976D01*
X220517Y3103771D02*
X210333Y3105283D01*
X200346Y3107288D01*
X190567Y3109770D01*
X181005Y3112716D01*
X171674Y3116112D01*
X162582Y3119943D01*
X153742Y3124197D01*
X145164Y3128858D01*
X136858Y3133913D01*
X128837Y3139348D01*
X121111Y3145148D01*
X113691Y3151301D01*
X106588Y3157791D01*
X99812Y3164605D01*
X93376Y3171728D01*
X87289Y3179148D01*
X81562Y3186849D01*
X76207Y3194818D01*
X71235Y3203040D01*
X66656Y3211503D01*
X62482Y3220191D01*
X58722Y3229091D01*
X55389Y3238188D01*
X52494Y3247470D01*
X50046Y3256921D01*
X48058Y3266527D01*
X46540Y3276276D01*
X45502Y3286152D01*
X44957Y3296142D01*
X44914Y3306232D01*
X45385Y3316407D01*
X46381Y3326654D01*
X19305587Y2351093D02*
X19489000Y857311D01*
X46381Y3326654D02*
X694117Y8602037D01*
X12887876Y7525494D02*
X12896997Y7525603D01*
X12906112Y7525921D01*
X12915216Y7526445D01*
X12924306Y7527177D01*
X12933379Y7528117D01*
X12936399Y7528476D01*
X917000Y8776172D02*
X11086705Y7527489D01*
X4724636Y2349233D02*
X4725632Y2359480D01*
X4726103Y2369655D01*
X4726060Y2379744D01*
X4725515Y2389734D01*
X4724477Y2399610D01*
X4722959Y2409359D01*
X4720971Y2418966D01*
X4718523Y2428417D01*
X4715627Y2437698D01*
X4712295Y2446796D01*
X4708535Y2455696D01*
X4704361Y2464384D01*
X4699782Y2472846D01*
X4694810Y2481069D01*
X4689455Y2489038D01*
X4683728Y2496739D01*
X4677641Y2504158D01*
X4671205Y2511282D01*
X4664429Y2518096D01*
X4657326Y2524586D01*
X4649906Y2530738D01*
X4642180Y2536539D01*
X4634159Y2541974D01*
X4625854Y2547029D01*
X4617275Y2551690D01*
X4608435Y2555943D01*
X4599344Y2559775D01*
X4590012Y2563171D01*
X4580450Y2566117D01*
X4570671Y2568599D01*
X4560684Y2570603D01*
X4550500Y2572116D01*
X11086705Y7527489D02*
X11095855Y7526473D01*
X11105024Y7525667D01*
X11114209Y7525072D01*
X11123405Y7524689D01*
X11132609Y7524518D01*
X11135678Y7524508D01*
X10686603Y-97571D02*
X10677388Y-97472D01*
X10668179Y-97159D01*
X10658981Y-96636D01*
X10649797Y-95900D01*
X10640631Y-94953D01*
X10637580Y-94590D01*
X4715358Y632568D02*
X4705174Y634080D01*
X4695187Y636085D01*
X4685407Y638567D01*
X4675846Y641513D01*
X4666514Y644909D01*
X4657423Y648740D01*
X4648583Y652994D01*
X4640004Y657655D01*
X4631699Y662710D01*
X4623678Y668145D01*
X4615952Y673945D01*
X4608532Y680097D01*
X4601429Y686588D01*
X4594653Y693401D01*
X4588217Y700525D01*
X4582129Y707944D01*
X4576403Y715646D01*
X4571048Y723614D01*
X4566076Y731837D01*
X4561497Y740299D01*
X4557323Y748988D01*
X4553563Y757887D01*
X4550230Y766985D01*
X4547335Y776266D01*
X4544887Y785717D01*
X4542899Y795324D01*
X4541381Y805073D01*
X4540343Y814949D01*
X4539798Y824939D01*
X4539755Y835028D01*
X4540226Y845204D01*
X4541222Y855451D01*
X22863355Y8545851D02*
X23511091Y3270468D01*
X22640472Y8719986D02*
X22650719Y8720982D01*
X22660894Y8721454D01*
X22670984Y8721411D01*
X22680974Y8720866D01*
X22690850Y8719828D01*
X22700598Y8718310D01*
X22710205Y8716321D01*
X22719656Y8713874D01*
X22728938Y8710978D01*
X22738035Y8707645D01*
X22746935Y8703886D01*
X22755623Y8699712D01*
X22764086Y8695133D01*
X22772308Y8690161D01*
X22780277Y8684806D01*
X22787978Y8679079D01*
X22795398Y8672992D01*
X22802521Y8666555D01*
X22809335Y8659780D01*
X22815825Y8652677D01*
X22821978Y8645257D01*
X22827778Y8637531D01*
X22833213Y8629509D01*
X22838268Y8621204D01*
X22842929Y8612626D01*
X22847183Y8603786D01*
X22851014Y8594694D01*
X22854410Y8585362D01*
X22857356Y8575801D01*
X22859838Y8566022D01*
X22861843Y8556035D01*
X22863355Y8545851D01*
X13392368Y-92763D02*
X13383311Y-93770D01*
X13374236Y-94571D01*
X13365145Y-95165D01*
X13356043Y-95552D01*
X13346933Y-95731D01*
X13343896Y-95744D01*
X12936399Y7528476D02*
X22640472Y8719986D01*
X4550500Y2572116D02*
X220517Y3103771D01*
X19479722Y2573976D02*
X19469539Y2572464D01*
X19459552Y2570460D01*
X19449772Y2567977D01*
X19440211Y2565031D01*
X19430879Y2561635D01*
X19421788Y2557804D01*
X19412947Y2553550D01*
X19404369Y2548889D01*
X19396064Y2543834D01*
X19388043Y2538399D01*
X19380317Y2532599D01*
X19372897Y2526446D01*
X19365793Y2519956D01*
X19359018Y2513142D01*
X19352581Y2506019D01*
X19346494Y2498599D01*
X19340768Y2490898D01*
X19335413Y2482929D01*
X19330440Y2474707D01*
X19325862Y2466244D01*
X19321687Y2457556D01*
X19317928Y2448656D01*
X19314595Y2439559D01*
X19311699Y2430277D01*
X19309252Y2420826D01*
X19307263Y2411220D01*
X19305745Y2401471D01*
X19304708Y2391595D01*
X19304162Y2381605D01*
X19304120Y2371515D01*
X19304591Y2361340D01*
X19305587Y2351093D01*
X13343896Y-95744D02*
X10686603Y-97571D01*
X10637580Y-94590D02*
X4715358Y632568D01*
X19489000Y857311D02*
X19489996Y847064D01*
X19490467Y836889D01*
X19490425Y826799D01*
X19489879Y816809D01*
X19488842Y806933D01*
X19487324Y797185D01*
X19485335Y787578D01*
X19482888Y778127D01*
X19479992Y768846D01*
X19476659Y759748D01*
X19472900Y750848D01*
X19468726Y742160D01*
X19464147Y733698D01*
X19459174Y725475D01*
X19453819Y717506D01*
X19448093Y709805D01*
X19442006Y702386D01*
X19435569Y695262D01*
X19428794Y688448D01*
X19421691Y681958D01*
X19414270Y675806D01*
X19406544Y670005D01*
X19398523Y664570D01*
X19390218Y659515D01*
X19381640Y654854D01*
X19372800Y650601D01*
X19363708Y646769D01*
X19354376Y643373D01*
X19344815Y640427D01*
X19335035Y637945D01*
X19325048Y635941D01*
X19314865Y634428D01*
X23511091Y3270468D02*
X23512087Y3260221D01*
X23512558Y3250046D01*
X23512515Y3239956D01*
X23511970Y3229966D01*
X23510932Y3220090D01*
X23509414Y3210342D01*
X23507426Y3200735D01*
X23504978Y3191284D01*
X23502082Y3182003D01*
X23498750Y3172905D01*
X23494990Y3164005D01*
X23490816Y3155317D01*
X23486237Y3146855D01*
X23481265Y3138632D01*
X23475910Y3130663D01*
X23470183Y3122962D01*
X23464096Y3115543D01*
X23457660Y3108419D01*
X23450884Y3101605D01*
X23443781Y3095115D01*
X23436361Y3088963D01*
X23428635Y3083162D01*
X23420614Y3077727D01*
X23412309Y3072672D01*
X23403730Y3068011D01*
X23394890Y3063758D01*
X23385799Y3059926D01*
X23376467Y3056530D01*
X23366905Y3053584D01*
X23357126Y3051102D01*
X23347139Y3049098D01*
X23336955Y3047585D01*
X19314865Y634428D02*
X13392368Y-92763D01*
X11135678Y7524508D02*
X12887876Y7525494D01*
D11*
D12*
X598425Y6227326D02*
X638425Y6187326D01*
X638425Y6227326D02*
X598425Y6187326D01*
X830586Y8118128D02*
X870586Y8078128D01*
X870586Y8118128D02*
X830586Y8078128D01*
X838964Y4278484D02*
X878964Y4238484D01*
X878964Y4278484D02*
X838964Y4238484D01*
X858635Y5415658D02*
X898635Y5375658D01*
X898635Y5415658D02*
X858635Y5375658D01*
X1099174Y3466815D02*
X1139174Y3426815D01*
X1139174Y3466815D02*
X1099174Y3426815D01*
X2489227Y5995165D02*
X2529227Y5955165D01*
X2529227Y5995165D02*
X2489227Y5955165D01*
X2721388Y7885967D02*
X2761388Y7845967D01*
X2761388Y7885967D02*
X2721388Y7845967D01*
X2985787Y5154476D02*
X3025787Y5114476D01*
X3025787Y5154476D02*
X2985787Y5114476D01*
X3202467Y3988282D02*
X3242467Y3948282D01*
X3242467Y3988282D02*
X3202467Y3948282D01*
X3699027Y3147594D02*
X3739027Y3107594D01*
X3739027Y3147594D02*
X3699027Y3107594D01*
X3842627Y6095332D02*
X3882627Y6055332D01*
X3882627Y6095332D02*
X3842627Y6055332D01*
X4339187Y5254643D02*
X4379187Y5214643D01*
X4379187Y5254643D02*
X4339187Y5214643D01*
X4397228Y5727343D02*
X4437228Y5687343D01*
X4437228Y5727343D02*
X4397228Y5687343D01*
X4555867Y4088449D02*
X4595867Y4048449D01*
X4595867Y4088449D02*
X4555867Y4048449D01*
X4612190Y7653806D02*
X4652190Y7613806D01*
X4652190Y7653806D02*
X4612190Y7613806D01*
X4893788Y4886655D02*
X4933788Y4846655D01*
X4933788Y4886655D02*
X4893788Y4846655D01*
X5052427Y3247760D02*
X5092427Y3207760D01*
X5092427Y3247760D02*
X5052427Y3207760D01*
X5110467Y3720461D02*
X5150467Y3680461D01*
X5150467Y3720461D02*
X5110467Y3680461D01*
X5114656Y1800638D02*
X5154656Y1760638D01*
X5154656Y1800638D02*
X5114656Y1760638D01*
X5607027Y2879772D02*
X5647027Y2839772D01*
X5647027Y2879772D02*
X5607027Y2839772D01*
X5733429Y5863170D02*
X5773429Y5823170D01*
X5773429Y5863170D02*
X5733429Y5823170D01*
X6229989Y5022482D02*
X6269989Y4982482D01*
X6269989Y5022482D02*
X6229989Y4982482D01*
X6288030Y5495182D02*
X6328030Y5455182D01*
X6328030Y5495182D02*
X6288030Y5455182D01*
X6446669Y3856288D02*
X6486669Y3816288D01*
X6486669Y3856288D02*
X6446669Y3816288D01*
X6502992Y7421644D02*
X6542992Y7381644D01*
X6542992Y7421644D02*
X6502992Y7381644D01*
X6784590Y4654493D02*
X6824590Y4614493D01*
X6824590Y4654493D02*
X6784590Y4614493D01*
X6943229Y3015599D02*
X6983229Y2975599D01*
X6983229Y3015599D02*
X6943229Y2975599D01*
X7001269Y3488299D02*
X7041269Y3448299D01*
X7041269Y3488299D02*
X7001269Y3448299D01*
X7497830Y2647611D02*
X7537830Y2607611D01*
X7537830Y2647611D02*
X7497830Y2607611D01*
X8187210Y1423376D02*
X8227210Y1383376D01*
X8227210Y1423376D02*
X8187210Y1383376D01*
X8393794Y7189483D02*
X8433794Y7149483D01*
X8433794Y7189483D02*
X8393794Y7149483D01*
X8397983Y5269661D02*
X8437983Y5229661D01*
X8437983Y5269661D02*
X8397983Y5229661D01*
X8658193Y4457992D02*
X8698193Y4417992D01*
X8698193Y4457992D02*
X8658193Y4417992D01*
X9111223Y3262778D02*
X9151223Y3222778D01*
X9151223Y3262778D02*
X9111223Y3222778D01*
X9388632Y2415450D02*
X9428632Y2375450D01*
X9428632Y2415450D02*
X9388632Y2375450D01*
X10447436Y3966266D02*
X10487436Y3926266D01*
X10487436Y3966266D02*
X10447436Y3926266D01*
X11102280Y3634504D02*
X11142280Y3594504D01*
X11142280Y3634504D02*
X11102280Y3594504D01*
X11161811Y2127159D02*
X11201811Y2087159D01*
X11201811Y2127159D02*
X11161811Y2087159D01*
X11161811Y757939D02*
X11201811Y717939D01*
X11201811Y757939D02*
X11161811Y717939D01*
X11221342Y4567943D02*
X11261342Y4527943D01*
X11261342Y4567943D02*
X11221342Y4527943D01*
X11221342Y4091692D02*
X11261342Y4051692D01*
X11261342Y4091692D02*
X11221342Y4051692D01*
X11221343Y4329817D02*
X11261343Y4289817D01*
X11261343Y4329817D02*
X11221343Y4289817D01*
X11315092Y3549932D02*
X11355092Y3509932D01*
X11355092Y3549932D02*
X11315092Y3509932D01*
X11459468Y4687005D02*
X11499468Y4647005D01*
X11499468Y4687005D02*
X11459468Y4647005D01*
X11578530Y4567943D02*
X11618530Y4527943D01*
X11618530Y4567943D02*
X11578530Y4527943D01*
X11876187Y3853567D02*
X11916187Y3813567D01*
X11916187Y3853567D02*
X11876187Y3813567D01*
X11876187Y3615442D02*
X11916187Y3575442D01*
X11916187Y3615442D02*
X11876187Y3575442D01*
X11904426Y2960598D02*
X11944426Y2920598D01*
X11944426Y2960598D02*
X11904426Y2920598D01*
X11995250Y3734504D02*
X12035250Y3694504D01*
X12035250Y3734504D02*
X11995250Y3694504D01*
X12114312Y3615442D02*
X12154312Y3575442D01*
X12154312Y3615442D02*
X12114312Y3575442D01*
X12114312Y3853567D02*
X12154312Y3813567D01*
X12154312Y3853567D02*
X12114312Y3813567D01*
X12352437Y4687005D02*
X12392437Y4647005D01*
X12392437Y4687005D02*
X12352437Y4647005D01*
X12721156Y3549932D02*
X12761156Y3509932D01*
X12761156Y3549932D02*
X12721156Y3509932D01*
X12721156Y4091692D02*
X12761156Y4051692D01*
X12761156Y4091692D02*
X12721156Y4051692D01*
X12721156Y2424816D02*
X12761156Y2384816D01*
X12761156Y2424816D02*
X12721156Y2384816D01*
X12947750Y2424816D02*
X12987750Y2384816D01*
X12987750Y2424816D02*
X12947750Y2384816D01*
X13206739Y3030441D02*
X13246739Y2990441D01*
X13246739Y3030441D02*
X13206739Y2990441D01*
X13215116Y6870085D02*
X13255116Y6830085D01*
X13255116Y6870085D02*
X13215116Y6830085D01*
X13592457Y4698911D02*
X13632457Y4658911D01*
X13632457Y4698911D02*
X13592457Y4658911D01*
X13592457Y4161361D02*
X13632457Y4121361D01*
X13632457Y4161361D02*
X13592457Y4121361D01*
X13663957Y6145477D02*
X13703957Y6105477D01*
X13703957Y6145477D02*
X13663957Y6105477D01*
X13919978Y5037324D02*
X13959978Y4997324D01*
X13959978Y5037324D02*
X13919978Y4997324D01*
X14128280Y2363873D02*
X14168280Y2323873D01*
X14168280Y2363873D02*
X14128280Y2323873D01*
X14384301Y1255720D02*
X14424301Y1215720D01*
X14424301Y1255720D02*
X14384301Y1215720D01*
X15097541Y3262602D02*
X15137541Y3222602D01*
X15137541Y3262602D02*
X15097541Y3222602D01*
X15105918Y7102247D02*
X15145918Y7062247D01*
X15145918Y7102247D02*
X15105918Y7062247D01*
X15791110Y6406659D02*
X15831110Y6366659D01*
X15831110Y6406659D02*
X15791110Y6366659D01*
X15810780Y5269485D02*
X15850780Y5229485D01*
X15850780Y5269485D02*
X15810780Y5229485D01*
X16376825Y7498208D02*
X16416825Y7458208D01*
X16416825Y7498208D02*
X16376825Y7458208D01*
X16515642Y3436723D02*
X16555642Y3396723D01*
X16555642Y3436723D02*
X16515642Y3396723D01*
X16996721Y7334408D02*
X17036721Y7294408D01*
X17036721Y7334408D02*
X16996721Y7294408D01*
X17062016Y6802620D02*
X17102016Y6762620D01*
X17102016Y6802620D02*
X17062016Y6762620D01*
X17200833Y2741136D02*
X17240833Y2701136D01*
X17240833Y2741136D02*
X17200833Y2701136D01*
X17456854Y1632982D02*
X17496854Y1592982D01*
X17496854Y1632982D02*
X17456854Y1592982D01*
X17681911Y6638820D02*
X17721911Y6598820D01*
X17721911Y6638820D02*
X17681911Y6598820D01*
X17701582Y5501647D02*
X17741582Y5461647D01*
X17741582Y5501647D02*
X17701582Y5461647D01*
X18267627Y7730369D02*
X18307627Y7690369D01*
X18307627Y7730369D02*
X18267627Y7690369D01*
X18406444Y3668885D02*
X18446444Y3628885D01*
X18446444Y3668885D02*
X18406444Y3628885D01*
X18887522Y7566569D02*
X18927522Y7526569D01*
X18927522Y7566569D02*
X18887522Y7526569D01*
X18952818Y7034781D02*
X18992818Y6994781D01*
X18992818Y7034781D02*
X18952818Y6994781D01*
X19091635Y2973297D02*
X19131635Y2933297D01*
X19131635Y2973297D02*
X19091635Y2933297D01*
X19572714Y6870981D02*
X19612714Y6830981D01*
X19612714Y6870981D02*
X19572714Y6830981D01*
X19592384Y5733808D02*
X19632384Y5693808D01*
X19632384Y5733808D02*
X19592384Y5693808D01*
X21006297Y3988106D02*
X21046297Y3948106D01*
X21046297Y3988106D02*
X21006297Y3948106D01*
X21014675Y7827751D02*
X21054675Y7787751D01*
X21054675Y7827751D02*
X21014675Y7787751D01*
X21455138Y3263498D02*
X21495138Y3223498D01*
X21495138Y3263498D02*
X21455138Y3223498D01*
X21463516Y7103143D02*
X21503516Y7063143D01*
X21503516Y7103143D02*
X21463516Y7063143D01*
X21483186Y5965969D02*
X21523186Y5925969D01*
X21523186Y5965969D02*
X21483186Y5925969D01*
D13*
X11564595Y321221D02*
G75*
G03*
X11564595Y321221I-50000J0D01*
G01*
X11818595Y321221D02*
G75*
G03*
X11818595Y321221I-50000J0D01*
G01*
X12072595Y321221D02*
G75*
G03*
X12072595Y321221I-50000J0D01*
G01*
X12326595Y321221D02*
G75*
G03*
X12326595Y321221I-50000J0D01*
G01*
X12580595Y321221D02*
G75*
G03*
X12580595Y321221I-50000J0D01*
G01*
D11*
X289197Y-413566D02*
X289197Y-213566D01*
X289197Y-213566D02*
X336816Y-213566D01*
X336816Y-213566D02*
X365387Y-223090D01*
X365387Y-223090D02*
X384435Y-242138D01*
X384435Y-242138D02*
X393959Y-261185D01*
X393959Y-261185D02*
X403483Y-299281D01*
X403483Y-299281D02*
X403483Y-327852D01*
X403483Y-327852D02*
X393959Y-365947D01*
X393959Y-365947D02*
X384435Y-384995D01*
X384435Y-384995D02*
X365387Y-404043D01*
X365387Y-404043D02*
X336816Y-413566D01*
X336816Y-413566D02*
X289197Y-413566D01*
X489197Y-413566D02*
X489197Y-280233D01*
X489197Y-318328D02*
X498721Y-299281D01*
X498721Y-299281D02*
X508245Y-289757D01*
X508245Y-289757D02*
X527292Y-280233D01*
X527292Y-280233D02*
X546340Y-280233D01*
X613007Y-413566D02*
X613007Y-280233D01*
X613007Y-213566D02*
X603483Y-223090D01*
X603483Y-223090D02*
X613007Y-232614D01*
X613007Y-232614D02*
X622530Y-223090D01*
X622530Y-223090D02*
X613007Y-213566D01*
X613007Y-213566D02*
X613007Y-232614D01*
X736816Y-413566D02*
X717768Y-404043D01*
X717768Y-404043D02*
X708245Y-384995D01*
X708245Y-384995D02*
X708245Y-213566D01*
X841578Y-413566D02*
X822530Y-404043D01*
X822530Y-404043D02*
X813006Y-384995D01*
X813006Y-384995D02*
X813006Y-213566D01*
X1070149Y-413566D02*
X1070149Y-213566D01*
X1070149Y-213566D02*
X1136816Y-356423D01*
X1136816Y-356423D02*
X1203483Y-213566D01*
X1203483Y-213566D02*
X1203483Y-413566D01*
X1384435Y-413566D02*
X1384435Y-308805D01*
X1384435Y-308805D02*
X1374911Y-289757D01*
X1374911Y-289757D02*
X1355864Y-280233D01*
X1355864Y-280233D02*
X1317768Y-280233D01*
X1317768Y-280233D02*
X1298721Y-289757D01*
X1384435Y-404043D02*
X1365388Y-413566D01*
X1365388Y-413566D02*
X1317768Y-413566D01*
X1317768Y-413566D02*
X1298721Y-404043D01*
X1298721Y-404043D02*
X1289197Y-384995D01*
X1289197Y-384995D02*
X1289197Y-365947D01*
X1289197Y-365947D02*
X1298721Y-346900D01*
X1298721Y-346900D02*
X1317768Y-337376D01*
X1317768Y-337376D02*
X1365388Y-337376D01*
X1365388Y-337376D02*
X1384435Y-327852D01*
X1479673Y-280233D02*
X1479673Y-480233D01*
X1479673Y-289757D02*
X1498721Y-280233D01*
X1498721Y-280233D02*
X1536816Y-280233D01*
X1536816Y-280233D02*
X1555864Y-289757D01*
X1555864Y-289757D02*
X1565387Y-299281D01*
X1565387Y-299281D02*
X1574911Y-318328D01*
X1574911Y-318328D02*
X1574911Y-375471D01*
X1574911Y-375471D02*
X1565387Y-394519D01*
X1565387Y-394519D02*
X1555864Y-404043D01*
X1555864Y-404043D02*
X1536816Y-413566D01*
X1536816Y-413566D02*
X1498721Y-413566D01*
X1498721Y-413566D02*
X1479673Y-404043D01*
X1660626Y-394519D02*
X1670149Y-404043D01*
X1670149Y-404043D02*
X1660626Y-413566D01*
X1660626Y-413566D02*
X1651102Y-404043D01*
X1651102Y-404043D02*
X1660626Y-394519D01*
X1660626Y-394519D02*
X1660626Y-413566D01*
X1660626Y-289757D02*
X1670149Y-299281D01*
X1670149Y-299281D02*
X1660626Y-308805D01*
X1660626Y-308805D02*
X1651102Y-299281D01*
X1651102Y-299281D02*
X1660626Y-289757D01*
X1660626Y-289757D02*
X1660626Y-308805D01*
D12*
X-11580Y-722083D02*
X28420Y-762083D01*
X28420Y-722083D02*
X-11580Y-762083D01*
D11*
X327292Y-633566D02*
X346340Y-633566D01*
X346340Y-633566D02*
X365387Y-643090D01*
X365387Y-643090D02*
X374911Y-652614D01*
X374911Y-652614D02*
X384435Y-671662D01*
X384435Y-671662D02*
X393959Y-709757D01*
X393959Y-709757D02*
X393959Y-757376D01*
X393959Y-757376D02*
X384435Y-795471D01*
X384435Y-795471D02*
X374911Y-814519D01*
X374911Y-814519D02*
X365387Y-824043D01*
X365387Y-824043D02*
X346340Y-833566D01*
X346340Y-833566D02*
X327292Y-833566D01*
X327292Y-833566D02*
X308245Y-824043D01*
X308245Y-824043D02*
X298721Y-814519D01*
X298721Y-814519D02*
X289197Y-795471D01*
X289197Y-795471D02*
X279673Y-757376D01*
X279673Y-757376D02*
X279673Y-709757D01*
X279673Y-709757D02*
X289197Y-671662D01*
X289197Y-671662D02*
X298721Y-652614D01*
X298721Y-652614D02*
X308245Y-643090D01*
X308245Y-643090D02*
X327292Y-633566D01*
X479673Y-814519D02*
X489197Y-824043D01*
X489197Y-824043D02*
X479673Y-833566D01*
X479673Y-833566D02*
X470149Y-824043D01*
X470149Y-824043D02*
X479673Y-814519D01*
X479673Y-814519D02*
X479673Y-833566D01*
X660626Y-700233D02*
X660626Y-833566D01*
X613007Y-624043D02*
X565388Y-766900D01*
X565388Y-766900D02*
X689197Y-766900D01*
X803483Y-633566D02*
X822530Y-633566D01*
X822530Y-633566D02*
X841578Y-643090D01*
X841578Y-643090D02*
X851102Y-652614D01*
X851102Y-652614D02*
X860626Y-671662D01*
X860626Y-671662D02*
X870149Y-709757D01*
X870149Y-709757D02*
X870149Y-757376D01*
X870149Y-757376D02*
X860626Y-795471D01*
X860626Y-795471D02*
X851102Y-814519D01*
X851102Y-814519D02*
X841578Y-824043D01*
X841578Y-824043D02*
X822530Y-833566D01*
X822530Y-833566D02*
X803483Y-833566D01*
X803483Y-833566D02*
X784435Y-824043D01*
X784435Y-824043D02*
X774911Y-814519D01*
X774911Y-814519D02*
X765387Y-795471D01*
X765387Y-795471D02*
X755864Y-757376D01*
X755864Y-757376D02*
X755864Y-709757D01*
X755864Y-709757D02*
X765387Y-671662D01*
X765387Y-671662D02*
X774911Y-652614D01*
X774911Y-652614D02*
X784435Y-643090D01*
X784435Y-643090D02*
X803483Y-633566D01*
X993959Y-633566D02*
X1013007Y-633566D01*
X1013007Y-633566D02*
X1032054Y-643090D01*
X1032054Y-643090D02*
X1041578Y-652614D01*
X1041578Y-652614D02*
X1051102Y-671662D01*
X1051102Y-671662D02*
X1060626Y-709757D01*
X1060626Y-709757D02*
X1060626Y-757376D01*
X1060626Y-757376D02*
X1051102Y-795471D01*
X1051102Y-795471D02*
X1041578Y-814519D01*
X1041578Y-814519D02*
X1032054Y-824043D01*
X1032054Y-824043D02*
X1013007Y-833566D01*
X1013007Y-833566D02*
X993959Y-833566D01*
X993959Y-833566D02*
X974911Y-824043D01*
X974911Y-824043D02*
X965387Y-814519D01*
X965387Y-814519D02*
X955864Y-795471D01*
X955864Y-795471D02*
X946340Y-757376D01*
X946340Y-757376D02*
X946340Y-709757D01*
X946340Y-709757D02*
X955864Y-671662D01*
X955864Y-671662D02*
X965387Y-652614D01*
X965387Y-652614D02*
X974911Y-643090D01*
X974911Y-643090D02*
X993959Y-633566D01*
X1146340Y-833566D02*
X1146340Y-700233D01*
X1146340Y-719281D02*
X1155864Y-709757D01*
X1155864Y-709757D02*
X1174911Y-700233D01*
X1174911Y-700233D02*
X1203483Y-700233D01*
X1203483Y-700233D02*
X1222530Y-709757D01*
X1222530Y-709757D02*
X1232054Y-728804D01*
X1232054Y-728804D02*
X1232054Y-833566D01*
X1232054Y-728804D02*
X1241578Y-709757D01*
X1241578Y-709757D02*
X1260626Y-700233D01*
X1260626Y-700233D02*
X1289197Y-700233D01*
X1289197Y-700233D02*
X1308245Y-709757D01*
X1308245Y-709757D02*
X1317769Y-728804D01*
X1317769Y-728804D02*
X1317769Y-833566D01*
X1413007Y-833566D02*
X1413007Y-700233D01*
X1413007Y-719281D02*
X1422530Y-709757D01*
X1422530Y-709757D02*
X1441578Y-700233D01*
X1441578Y-700233D02*
X1470149Y-700233D01*
X1470149Y-700233D02*
X1489197Y-709757D01*
X1489197Y-709757D02*
X1498721Y-728804D01*
X1498721Y-728804D02*
X1498721Y-833566D01*
X1498721Y-728804D02*
X1508245Y-709757D01*
X1508245Y-709757D02*
X1527292Y-700233D01*
X1527292Y-700233D02*
X1555864Y-700233D01*
X1555864Y-700233D02*
X1574911Y-709757D01*
X1574911Y-709757D02*
X1584435Y-728804D01*
X1584435Y-728804D02*
X1584435Y-833566D01*
X1974911Y-624043D02*
X1803483Y-881185D01*
X2232054Y-633566D02*
X2251102Y-633566D01*
X2251102Y-633566D02*
X2270150Y-643090D01*
X2270150Y-643090D02*
X2279673Y-652614D01*
X2279673Y-652614D02*
X2289197Y-671662D01*
X2289197Y-671662D02*
X2298721Y-709757D01*
X2298721Y-709757D02*
X2298721Y-757376D01*
X2298721Y-757376D02*
X2289197Y-795471D01*
X2289197Y-795471D02*
X2279673Y-814519D01*
X2279673Y-814519D02*
X2270150Y-824043D01*
X2270150Y-824043D02*
X2251102Y-833566D01*
X2251102Y-833566D02*
X2232054Y-833566D01*
X2232054Y-833566D02*
X2213007Y-824043D01*
X2213007Y-824043D02*
X2203483Y-814519D01*
X2203483Y-814519D02*
X2193959Y-795471D01*
X2193959Y-795471D02*
X2184435Y-757376D01*
X2184435Y-757376D02*
X2184435Y-709757D01*
X2184435Y-709757D02*
X2193959Y-671662D01*
X2193959Y-671662D02*
X2203483Y-652614D01*
X2203483Y-652614D02*
X2213007Y-643090D01*
X2213007Y-643090D02*
X2232054Y-633566D01*
X2384435Y-814519D02*
X2393959Y-824043D01*
X2393959Y-824043D02*
X2384435Y-833566D01*
X2384435Y-833566D02*
X2374912Y-824043D01*
X2374912Y-824043D02*
X2384435Y-814519D01*
X2384435Y-814519D02*
X2384435Y-833566D01*
X2517769Y-633566D02*
X2536816Y-633566D01*
X2536816Y-633566D02*
X2555864Y-643090D01*
X2555864Y-643090D02*
X2565388Y-652614D01*
X2565388Y-652614D02*
X2574912Y-671662D01*
X2574912Y-671662D02*
X2584435Y-709757D01*
X2584435Y-709757D02*
X2584435Y-757376D01*
X2584435Y-757376D02*
X2574912Y-795471D01*
X2574912Y-795471D02*
X2565388Y-814519D01*
X2565388Y-814519D02*
X2555864Y-824043D01*
X2555864Y-824043D02*
X2536816Y-833566D01*
X2536816Y-833566D02*
X2517769Y-833566D01*
X2517769Y-833566D02*
X2498721Y-824043D01*
X2498721Y-824043D02*
X2489197Y-814519D01*
X2489197Y-814519D02*
X2479673Y-795471D01*
X2479673Y-795471D02*
X2470150Y-757376D01*
X2470150Y-757376D02*
X2470150Y-709757D01*
X2470150Y-709757D02*
X2479673Y-671662D01*
X2479673Y-671662D02*
X2489197Y-652614D01*
X2489197Y-652614D02*
X2498721Y-643090D01*
X2498721Y-643090D02*
X2517769Y-633566D01*
X2774912Y-833566D02*
X2660626Y-833566D01*
X2717769Y-833566D02*
X2717769Y-633566D01*
X2717769Y-633566D02*
X2698721Y-662138D01*
X2698721Y-662138D02*
X2679673Y-681185D01*
X2679673Y-681185D02*
X2660626Y-690709D01*
X2955864Y-633566D02*
X2860626Y-633566D01*
X2860626Y-633566D02*
X2851102Y-728804D01*
X2851102Y-728804D02*
X2860626Y-719281D01*
X2860626Y-719281D02*
X2879673Y-709757D01*
X2879673Y-709757D02*
X2927292Y-709757D01*
X2927292Y-709757D02*
X2946340Y-719281D01*
X2946340Y-719281D02*
X2955864Y-728804D01*
X2955864Y-728804D02*
X2965388Y-747852D01*
X2965388Y-747852D02*
X2965388Y-795471D01*
X2965388Y-795471D02*
X2955864Y-814519D01*
X2955864Y-814519D02*
X2946340Y-824043D01*
X2946340Y-824043D02*
X2927292Y-833566D01*
X2927292Y-833566D02*
X2879673Y-833566D01*
X2879673Y-833566D02*
X2860626Y-824043D01*
X2860626Y-824043D02*
X2851102Y-814519D01*
X3032054Y-633566D02*
X3165388Y-633566D01*
X3165388Y-633566D02*
X3079673Y-833566D01*
X3232054Y-633566D02*
X3232054Y-671662D01*
X3308245Y-633566D02*
X3308245Y-671662D01*
X3603483Y-909757D02*
X3593959Y-900233D01*
X3593959Y-900233D02*
X3574912Y-871662D01*
X3574912Y-871662D02*
X3565388Y-852614D01*
X3565388Y-852614D02*
X3555864Y-824043D01*
X3555864Y-824043D02*
X3546340Y-776423D01*
X3546340Y-776423D02*
X3546340Y-738328D01*
X3546340Y-738328D02*
X3555864Y-690709D01*
X3555864Y-690709D02*
X3565388Y-662138D01*
X3565388Y-662138D02*
X3574912Y-643090D01*
X3574912Y-643090D02*
X3593959Y-614519D01*
X3593959Y-614519D02*
X3603483Y-604995D01*
X3708245Y-719281D02*
X3689197Y-709757D01*
X3689197Y-709757D02*
X3679673Y-700233D01*
X3679673Y-700233D02*
X3670150Y-681185D01*
X3670150Y-681185D02*
X3670150Y-671662D01*
X3670150Y-671662D02*
X3679673Y-652614D01*
X3679673Y-652614D02*
X3689197Y-643090D01*
X3689197Y-643090D02*
X3708245Y-633566D01*
X3708245Y-633566D02*
X3746340Y-633566D01*
X3746340Y-633566D02*
X3765388Y-643090D01*
X3765388Y-643090D02*
X3774912Y-652614D01*
X3774912Y-652614D02*
X3784435Y-671662D01*
X3784435Y-671662D02*
X3784435Y-681185D01*
X3784435Y-681185D02*
X3774912Y-700233D01*
X3774912Y-700233D02*
X3765388Y-709757D01*
X3765388Y-709757D02*
X3746340Y-719281D01*
X3746340Y-719281D02*
X3708245Y-719281D01*
X3708245Y-719281D02*
X3689197Y-728804D01*
X3689197Y-728804D02*
X3679673Y-738328D01*
X3679673Y-738328D02*
X3670150Y-757376D01*
X3670150Y-757376D02*
X3670150Y-795471D01*
X3670150Y-795471D02*
X3679673Y-814519D01*
X3679673Y-814519D02*
X3689197Y-824043D01*
X3689197Y-824043D02*
X3708245Y-833566D01*
X3708245Y-833566D02*
X3746340Y-833566D01*
X3746340Y-833566D02*
X3765388Y-824043D01*
X3765388Y-824043D02*
X3774912Y-814519D01*
X3774912Y-814519D02*
X3784435Y-795471D01*
X3784435Y-795471D02*
X3784435Y-757376D01*
X3784435Y-757376D02*
X3774912Y-738328D01*
X3774912Y-738328D02*
X3765388Y-728804D01*
X3765388Y-728804D02*
X3746340Y-719281D01*
X3898721Y-719281D02*
X3879673Y-709757D01*
X3879673Y-709757D02*
X3870150Y-700233D01*
X3870150Y-700233D02*
X3860626Y-681185D01*
X3860626Y-681185D02*
X3860626Y-671662D01*
X3860626Y-671662D02*
X3870150Y-652614D01*
X3870150Y-652614D02*
X3879673Y-643090D01*
X3879673Y-643090D02*
X3898721Y-633566D01*
X3898721Y-633566D02*
X3936816Y-633566D01*
X3936816Y-633566D02*
X3955864Y-643090D01*
X3955864Y-643090D02*
X3965388Y-652614D01*
X3965388Y-652614D02*
X3974912Y-671662D01*
X3974912Y-671662D02*
X3974912Y-681185D01*
X3974912Y-681185D02*
X3965388Y-700233D01*
X3965388Y-700233D02*
X3955864Y-709757D01*
X3955864Y-709757D02*
X3936816Y-719281D01*
X3936816Y-719281D02*
X3898721Y-719281D01*
X3898721Y-719281D02*
X3879673Y-728804D01*
X3879673Y-728804D02*
X3870150Y-738328D01*
X3870150Y-738328D02*
X3860626Y-757376D01*
X3860626Y-757376D02*
X3860626Y-795471D01*
X3860626Y-795471D02*
X3870150Y-814519D01*
X3870150Y-814519D02*
X3879673Y-824043D01*
X3879673Y-824043D02*
X3898721Y-833566D01*
X3898721Y-833566D02*
X3936816Y-833566D01*
X3936816Y-833566D02*
X3955864Y-824043D01*
X3955864Y-824043D02*
X3965388Y-814519D01*
X3965388Y-814519D02*
X3974912Y-795471D01*
X3974912Y-795471D02*
X3974912Y-757376D01*
X3974912Y-757376D02*
X3965388Y-738328D01*
X3965388Y-738328D02*
X3955864Y-728804D01*
X3955864Y-728804D02*
X3936816Y-719281D01*
X4213007Y-833566D02*
X4213007Y-633566D01*
X4298721Y-833566D02*
X4298721Y-728804D01*
X4298721Y-728804D02*
X4289197Y-709757D01*
X4289197Y-709757D02*
X4270150Y-700233D01*
X4270150Y-700233D02*
X4241578Y-700233D01*
X4241578Y-700233D02*
X4222531Y-709757D01*
X4222531Y-709757D02*
X4213007Y-719281D01*
X4422531Y-833566D02*
X4403483Y-824043D01*
X4403483Y-824043D02*
X4393959Y-814519D01*
X4393959Y-814519D02*
X4384436Y-795471D01*
X4384436Y-795471D02*
X4384436Y-738328D01*
X4384436Y-738328D02*
X4393959Y-719281D01*
X4393959Y-719281D02*
X4403483Y-709757D01*
X4403483Y-709757D02*
X4422531Y-700233D01*
X4422531Y-700233D02*
X4451102Y-700233D01*
X4451102Y-700233D02*
X4470150Y-709757D01*
X4470150Y-709757D02*
X4479674Y-719281D01*
X4479674Y-719281D02*
X4489197Y-738328D01*
X4489197Y-738328D02*
X4489197Y-795471D01*
X4489197Y-795471D02*
X4479674Y-814519D01*
X4479674Y-814519D02*
X4470150Y-824043D01*
X4470150Y-824043D02*
X4451102Y-833566D01*
X4451102Y-833566D02*
X4422531Y-833566D01*
X4603483Y-833566D02*
X4584436Y-824043D01*
X4584436Y-824043D02*
X4574912Y-804995D01*
X4574912Y-804995D02*
X4574912Y-633566D01*
X4755864Y-824043D02*
X4736817Y-833566D01*
X4736817Y-833566D02*
X4698721Y-833566D01*
X4698721Y-833566D02*
X4679674Y-824043D01*
X4679674Y-824043D02*
X4670150Y-804995D01*
X4670150Y-804995D02*
X4670150Y-728804D01*
X4670150Y-728804D02*
X4679674Y-709757D01*
X4679674Y-709757D02*
X4698721Y-700233D01*
X4698721Y-700233D02*
X4736817Y-700233D01*
X4736817Y-700233D02*
X4755864Y-709757D01*
X4755864Y-709757D02*
X4765388Y-728804D01*
X4765388Y-728804D02*
X4765388Y-747852D01*
X4765388Y-747852D02*
X4670150Y-766900D01*
X4841578Y-824043D02*
X4860626Y-833566D01*
X4860626Y-833566D02*
X4898721Y-833566D01*
X4898721Y-833566D02*
X4917769Y-824043D01*
X4917769Y-824043D02*
X4927293Y-804995D01*
X4927293Y-804995D02*
X4927293Y-795471D01*
X4927293Y-795471D02*
X4917769Y-776423D01*
X4917769Y-776423D02*
X4898721Y-766900D01*
X4898721Y-766900D02*
X4870150Y-766900D01*
X4870150Y-766900D02*
X4851102Y-757376D01*
X4851102Y-757376D02*
X4841578Y-738328D01*
X4841578Y-738328D02*
X4841578Y-728804D01*
X4841578Y-728804D02*
X4851102Y-709757D01*
X4851102Y-709757D02*
X4870150Y-700233D01*
X4870150Y-700233D02*
X4898721Y-700233D01*
X4898721Y-700233D02*
X4917769Y-709757D01*
X4993959Y-909757D02*
X5003483Y-900233D01*
X5003483Y-900233D02*
X5022531Y-871662D01*
X5022531Y-871662D02*
X5032055Y-852614D01*
X5032055Y-852614D02*
X5041578Y-824043D01*
X5041578Y-824043D02*
X5051102Y-776423D01*
X5051102Y-776423D02*
X5051102Y-738328D01*
X5051102Y-738328D02*
X5041578Y-690709D01*
X5041578Y-690709D02*
X5032055Y-662138D01*
X5032055Y-662138D02*
X5022531Y-643090D01*
X5022531Y-643090D02*
X5003483Y-614519D01*
X5003483Y-614519D02*
X4993959Y-604995D01*
D13*
X28420Y-1006083D02*
G75*
G03*
X28420Y-1006083I-50000J0D01*
G01*
D11*
X393959Y-1097566D02*
X279673Y-1097566D01*
X336816Y-1097566D02*
X336816Y-897566D01*
X336816Y-897566D02*
X317768Y-926138D01*
X317768Y-926138D02*
X298721Y-945185D01*
X298721Y-945185D02*
X279673Y-954709D01*
X479673Y-1078519D02*
X489197Y-1088043D01*
X489197Y-1088043D02*
X479673Y-1097566D01*
X479673Y-1097566D02*
X470149Y-1088043D01*
X470149Y-1088043D02*
X479673Y-1078519D01*
X479673Y-1078519D02*
X479673Y-1097566D01*
X613007Y-897566D02*
X632054Y-897566D01*
X632054Y-897566D02*
X651102Y-907090D01*
X651102Y-907090D02*
X660626Y-916614D01*
X660626Y-916614D02*
X670149Y-935662D01*
X670149Y-935662D02*
X679673Y-973757D01*
X679673Y-973757D02*
X679673Y-1021376D01*
X679673Y-1021376D02*
X670149Y-1059471D01*
X670149Y-1059471D02*
X660626Y-1078519D01*
X660626Y-1078519D02*
X651102Y-1088043D01*
X651102Y-1088043D02*
X632054Y-1097566D01*
X632054Y-1097566D02*
X613007Y-1097566D01*
X613007Y-1097566D02*
X593959Y-1088043D01*
X593959Y-1088043D02*
X584435Y-1078519D01*
X584435Y-1078519D02*
X574911Y-1059471D01*
X574911Y-1059471D02*
X565388Y-1021376D01*
X565388Y-1021376D02*
X565388Y-973757D01*
X565388Y-973757D02*
X574911Y-935662D01*
X574911Y-935662D02*
X584435Y-916614D01*
X584435Y-916614D02*
X593959Y-907090D01*
X593959Y-907090D02*
X613007Y-897566D01*
X803483Y-897566D02*
X822530Y-897566D01*
X822530Y-897566D02*
X841578Y-907090D01*
X841578Y-907090D02*
X851102Y-916614D01*
X851102Y-916614D02*
X860626Y-935662D01*
X860626Y-935662D02*
X870149Y-973757D01*
X870149Y-973757D02*
X870149Y-1021376D01*
X870149Y-1021376D02*
X860626Y-1059471D01*
X860626Y-1059471D02*
X851102Y-1078519D01*
X851102Y-1078519D02*
X841578Y-1088043D01*
X841578Y-1088043D02*
X822530Y-1097566D01*
X822530Y-1097566D02*
X803483Y-1097566D01*
X803483Y-1097566D02*
X784435Y-1088043D01*
X784435Y-1088043D02*
X774911Y-1078519D01*
X774911Y-1078519D02*
X765387Y-1059471D01*
X765387Y-1059471D02*
X755864Y-1021376D01*
X755864Y-1021376D02*
X755864Y-973757D01*
X755864Y-973757D02*
X765387Y-935662D01*
X765387Y-935662D02*
X774911Y-916614D01*
X774911Y-916614D02*
X784435Y-907090D01*
X784435Y-907090D02*
X803483Y-897566D01*
X993959Y-897566D02*
X1013007Y-897566D01*
X1013007Y-897566D02*
X1032054Y-907090D01*
X1032054Y-907090D02*
X1041578Y-916614D01*
X1041578Y-916614D02*
X1051102Y-935662D01*
X1051102Y-935662D02*
X1060626Y-973757D01*
X1060626Y-973757D02*
X1060626Y-1021376D01*
X1060626Y-1021376D02*
X1051102Y-1059471D01*
X1051102Y-1059471D02*
X1041578Y-1078519D01*
X1041578Y-1078519D02*
X1032054Y-1088043D01*
X1032054Y-1088043D02*
X1013007Y-1097566D01*
X1013007Y-1097566D02*
X993959Y-1097566D01*
X993959Y-1097566D02*
X974911Y-1088043D01*
X974911Y-1088043D02*
X965387Y-1078519D01*
X965387Y-1078519D02*
X955864Y-1059471D01*
X955864Y-1059471D02*
X946340Y-1021376D01*
X946340Y-1021376D02*
X946340Y-973757D01*
X946340Y-973757D02*
X955864Y-935662D01*
X955864Y-935662D02*
X965387Y-916614D01*
X965387Y-916614D02*
X974911Y-907090D01*
X974911Y-907090D02*
X993959Y-897566D01*
X1146340Y-1097566D02*
X1146340Y-964233D01*
X1146340Y-983281D02*
X1155864Y-973757D01*
X1155864Y-973757D02*
X1174911Y-964233D01*
X1174911Y-964233D02*
X1203483Y-964233D01*
X1203483Y-964233D02*
X1222530Y-973757D01*
X1222530Y-973757D02*
X1232054Y-992804D01*
X1232054Y-992804D02*
X1232054Y-1097566D01*
X1232054Y-992804D02*
X1241578Y-973757D01*
X1241578Y-973757D02*
X1260626Y-964233D01*
X1260626Y-964233D02*
X1289197Y-964233D01*
X1289197Y-964233D02*
X1308245Y-973757D01*
X1308245Y-973757D02*
X1317769Y-992804D01*
X1317769Y-992804D02*
X1317769Y-1097566D01*
X1413007Y-1097566D02*
X1413007Y-964233D01*
X1413007Y-983281D02*
X1422530Y-973757D01*
X1422530Y-973757D02*
X1441578Y-964233D01*
X1441578Y-964233D02*
X1470149Y-964233D01*
X1470149Y-964233D02*
X1489197Y-973757D01*
X1489197Y-973757D02*
X1498721Y-992804D01*
X1498721Y-992804D02*
X1498721Y-1097566D01*
X1498721Y-992804D02*
X1508245Y-973757D01*
X1508245Y-973757D02*
X1527292Y-964233D01*
X1527292Y-964233D02*
X1555864Y-964233D01*
X1555864Y-964233D02*
X1574911Y-973757D01*
X1574911Y-973757D02*
X1584435Y-992804D01*
X1584435Y-992804D02*
X1584435Y-1097566D01*
X1974911Y-888043D02*
X1803483Y-1145185D01*
X2232054Y-897566D02*
X2251102Y-897566D01*
X2251102Y-897566D02*
X2270150Y-907090D01*
X2270150Y-907090D02*
X2279673Y-916614D01*
X2279673Y-916614D02*
X2289197Y-935662D01*
X2289197Y-935662D02*
X2298721Y-973757D01*
X2298721Y-973757D02*
X2298721Y-1021376D01*
X2298721Y-1021376D02*
X2289197Y-1059471D01*
X2289197Y-1059471D02*
X2279673Y-1078519D01*
X2279673Y-1078519D02*
X2270150Y-1088043D01*
X2270150Y-1088043D02*
X2251102Y-1097566D01*
X2251102Y-1097566D02*
X2232054Y-1097566D01*
X2232054Y-1097566D02*
X2213007Y-1088043D01*
X2213007Y-1088043D02*
X2203483Y-1078519D01*
X2203483Y-1078519D02*
X2193959Y-1059471D01*
X2193959Y-1059471D02*
X2184435Y-1021376D01*
X2184435Y-1021376D02*
X2184435Y-973757D01*
X2184435Y-973757D02*
X2193959Y-935662D01*
X2193959Y-935662D02*
X2203483Y-916614D01*
X2203483Y-916614D02*
X2213007Y-907090D01*
X2213007Y-907090D02*
X2232054Y-897566D01*
X2384435Y-1078519D02*
X2393959Y-1088043D01*
X2393959Y-1088043D02*
X2384435Y-1097566D01*
X2384435Y-1097566D02*
X2374912Y-1088043D01*
X2374912Y-1088043D02*
X2384435Y-1078519D01*
X2384435Y-1078519D02*
X2384435Y-1097566D01*
X2517769Y-897566D02*
X2536816Y-897566D01*
X2536816Y-897566D02*
X2555864Y-907090D01*
X2555864Y-907090D02*
X2565388Y-916614D01*
X2565388Y-916614D02*
X2574912Y-935662D01*
X2574912Y-935662D02*
X2584435Y-973757D01*
X2584435Y-973757D02*
X2584435Y-1021376D01*
X2584435Y-1021376D02*
X2574912Y-1059471D01*
X2574912Y-1059471D02*
X2565388Y-1078519D01*
X2565388Y-1078519D02*
X2555864Y-1088043D01*
X2555864Y-1088043D02*
X2536816Y-1097566D01*
X2536816Y-1097566D02*
X2517769Y-1097566D01*
X2517769Y-1097566D02*
X2498721Y-1088043D01*
X2498721Y-1088043D02*
X2489197Y-1078519D01*
X2489197Y-1078519D02*
X2479673Y-1059471D01*
X2479673Y-1059471D02*
X2470150Y-1021376D01*
X2470150Y-1021376D02*
X2470150Y-973757D01*
X2470150Y-973757D02*
X2479673Y-935662D01*
X2479673Y-935662D02*
X2489197Y-916614D01*
X2489197Y-916614D02*
X2498721Y-907090D01*
X2498721Y-907090D02*
X2517769Y-897566D01*
X2651102Y-897566D02*
X2774912Y-897566D01*
X2774912Y-897566D02*
X2708245Y-973757D01*
X2708245Y-973757D02*
X2736816Y-973757D01*
X2736816Y-973757D02*
X2755864Y-983281D01*
X2755864Y-983281D02*
X2765388Y-992804D01*
X2765388Y-992804D02*
X2774912Y-1011852D01*
X2774912Y-1011852D02*
X2774912Y-1059471D01*
X2774912Y-1059471D02*
X2765388Y-1078519D01*
X2765388Y-1078519D02*
X2755864Y-1088043D01*
X2755864Y-1088043D02*
X2736816Y-1097566D01*
X2736816Y-1097566D02*
X2679673Y-1097566D01*
X2679673Y-1097566D02*
X2660626Y-1088043D01*
X2660626Y-1088043D02*
X2651102Y-1078519D01*
X2870150Y-1097566D02*
X2908245Y-1097566D01*
X2908245Y-1097566D02*
X2927292Y-1088043D01*
X2927292Y-1088043D02*
X2936816Y-1078519D01*
X2936816Y-1078519D02*
X2955864Y-1049947D01*
X2955864Y-1049947D02*
X2965388Y-1011852D01*
X2965388Y-1011852D02*
X2965388Y-935662D01*
X2965388Y-935662D02*
X2955864Y-916614D01*
X2955864Y-916614D02*
X2946340Y-907090D01*
X2946340Y-907090D02*
X2927292Y-897566D01*
X2927292Y-897566D02*
X2889197Y-897566D01*
X2889197Y-897566D02*
X2870150Y-907090D01*
X2870150Y-907090D02*
X2860626Y-916614D01*
X2860626Y-916614D02*
X2851102Y-935662D01*
X2851102Y-935662D02*
X2851102Y-983281D01*
X2851102Y-983281D02*
X2860626Y-1002328D01*
X2860626Y-1002328D02*
X2870150Y-1011852D01*
X2870150Y-1011852D02*
X2889197Y-1021376D01*
X2889197Y-1021376D02*
X2927292Y-1021376D01*
X2927292Y-1021376D02*
X2946340Y-1011852D01*
X2946340Y-1011852D02*
X2955864Y-1002328D01*
X2955864Y-1002328D02*
X2965388Y-983281D01*
X3136816Y-964233D02*
X3136816Y-1097566D01*
X3089197Y-888043D02*
X3041578Y-1030900D01*
X3041578Y-1030900D02*
X3165388Y-1030900D01*
X3232054Y-897566D02*
X3232054Y-935662D01*
X3308245Y-897566D02*
X3308245Y-935662D01*
X3603483Y-1173757D02*
X3593959Y-1164233D01*
X3593959Y-1164233D02*
X3574912Y-1135662D01*
X3574912Y-1135662D02*
X3565388Y-1116614D01*
X3565388Y-1116614D02*
X3555864Y-1088043D01*
X3555864Y-1088043D02*
X3546340Y-1040423D01*
X3546340Y-1040423D02*
X3546340Y-1002328D01*
X3546340Y-1002328D02*
X3555864Y-954709D01*
X3555864Y-954709D02*
X3565388Y-926138D01*
X3565388Y-926138D02*
X3574912Y-907090D01*
X3574912Y-907090D02*
X3593959Y-878519D01*
X3593959Y-878519D02*
X3603483Y-868995D01*
X3774912Y-897566D02*
X3679673Y-897566D01*
X3679673Y-897566D02*
X3670150Y-992804D01*
X3670150Y-992804D02*
X3679673Y-983281D01*
X3679673Y-983281D02*
X3698721Y-973757D01*
X3698721Y-973757D02*
X3746340Y-973757D01*
X3746340Y-973757D02*
X3765388Y-983281D01*
X3765388Y-983281D02*
X3774912Y-992804D01*
X3774912Y-992804D02*
X3784435Y-1011852D01*
X3784435Y-1011852D02*
X3784435Y-1059471D01*
X3784435Y-1059471D02*
X3774912Y-1078519D01*
X3774912Y-1078519D02*
X3765388Y-1088043D01*
X3765388Y-1088043D02*
X3746340Y-1097566D01*
X3746340Y-1097566D02*
X3698721Y-1097566D01*
X3698721Y-1097566D02*
X3679673Y-1088043D01*
X3679673Y-1088043D02*
X3670150Y-1078519D01*
X4022531Y-1097566D02*
X4022531Y-897566D01*
X4108245Y-1097566D02*
X4108245Y-992804D01*
X4108245Y-992804D02*
X4098721Y-973757D01*
X4098721Y-973757D02*
X4079674Y-964233D01*
X4079674Y-964233D02*
X4051102Y-964233D01*
X4051102Y-964233D02*
X4032054Y-973757D01*
X4032054Y-973757D02*
X4022531Y-983281D01*
X4232055Y-1097566D02*
X4213007Y-1088043D01*
X4213007Y-1088043D02*
X4203483Y-1078519D01*
X4203483Y-1078519D02*
X4193959Y-1059471D01*
X4193959Y-1059471D02*
X4193959Y-1002328D01*
X4193959Y-1002328D02*
X4203483Y-983281D01*
X4203483Y-983281D02*
X4213007Y-973757D01*
X4213007Y-973757D02*
X4232055Y-964233D01*
X4232055Y-964233D02*
X4260626Y-964233D01*
X4260626Y-964233D02*
X4279674Y-973757D01*
X4279674Y-973757D02*
X4289197Y-983281D01*
X4289197Y-983281D02*
X4298721Y-1002328D01*
X4298721Y-1002328D02*
X4298721Y-1059471D01*
X4298721Y-1059471D02*
X4289197Y-1078519D01*
X4289197Y-1078519D02*
X4279674Y-1088043D01*
X4279674Y-1088043D02*
X4260626Y-1097566D01*
X4260626Y-1097566D02*
X4232055Y-1097566D01*
X4413007Y-1097566D02*
X4393959Y-1088043D01*
X4393959Y-1088043D02*
X4384436Y-1068995D01*
X4384436Y-1068995D02*
X4384436Y-897566D01*
X4565388Y-1088043D02*
X4546340Y-1097566D01*
X4546340Y-1097566D02*
X4508245Y-1097566D01*
X4508245Y-1097566D02*
X4489197Y-1088043D01*
X4489197Y-1088043D02*
X4479674Y-1068995D01*
X4479674Y-1068995D02*
X4479674Y-992804D01*
X4479674Y-992804D02*
X4489197Y-973757D01*
X4489197Y-973757D02*
X4508245Y-964233D01*
X4508245Y-964233D02*
X4546340Y-964233D01*
X4546340Y-964233D02*
X4565388Y-973757D01*
X4565388Y-973757D02*
X4574912Y-992804D01*
X4574912Y-992804D02*
X4574912Y-1011852D01*
X4574912Y-1011852D02*
X4479674Y-1030900D01*
X4651102Y-1088043D02*
X4670150Y-1097566D01*
X4670150Y-1097566D02*
X4708245Y-1097566D01*
X4708245Y-1097566D02*
X4727293Y-1088043D01*
X4727293Y-1088043D02*
X4736817Y-1068995D01*
X4736817Y-1068995D02*
X4736817Y-1059471D01*
X4736817Y-1059471D02*
X4727293Y-1040423D01*
X4727293Y-1040423D02*
X4708245Y-1030900D01*
X4708245Y-1030900D02*
X4679674Y-1030900D01*
X4679674Y-1030900D02*
X4660626Y-1021376D01*
X4660626Y-1021376D02*
X4651102Y-1002328D01*
X4651102Y-1002328D02*
X4651102Y-992804D01*
X4651102Y-992804D02*
X4660626Y-973757D01*
X4660626Y-973757D02*
X4679674Y-964233D01*
X4679674Y-964233D02*
X4708245Y-964233D01*
X4708245Y-964233D02*
X4727293Y-973757D01*
X4803483Y-1173757D02*
X4813007Y-1164233D01*
X4813007Y-1164233D02*
X4832055Y-1135662D01*
X4832055Y-1135662D02*
X4841578Y-1116614D01*
X4841578Y-1116614D02*
X4851102Y-1088043D01*
X4851102Y-1088043D02*
X4860626Y-1040423D01*
X4860626Y-1040423D02*
X4860626Y-1002328D01*
X4860626Y-1002328D02*
X4851102Y-954709D01*
X4851102Y-954709D02*
X4841578Y-926138D01*
X4841578Y-926138D02*
X4832055Y-907090D01*
X4832055Y-907090D02*
X4813007Y-878519D01*
X4813007Y-878519D02*
X4803483Y-868995D01*
M02*
