<?xml version="1.0" encoding="utf-8"?>
<!-- Generator: Adobe Illustrator 28.3.0, SVG Export Plug-In . SVG Version: 6.00 Build 0)  -->
<svg version="1.1" id="Layer_1" xmlns:svg="http://www.w3.org/2000/svg"
	 xmlns="http://www.w3.org/2000/svg" xmlns:xlink="http://www.w3.org/1999/xlink" x="0px" y="0px" viewBox="0 0 345 220.9"
	 style="enable-background:new 0 0 345 220.9;" xml:space="preserve">
<style type="text/css">
	.st0{fill-rule:evenodd;clip-rule:evenodd;}
</style>
<g transform="translate(0 0) scale(1 1)">
</g>
<path class="st0" d="M334.1,178.5l0.8,0.2l0.7,0.2l0.7,0.2l0.7,0.3l0.7,0.3l0.7,0.3l0.6,0.4l0.6,0.4l0.6,0.4l0.6,0.4l0.5,0.4
	l0.5,0.5l0.5,0.5l0.4,0.5l0.4,0.5l0.4,0.5l0.3,0.5l0.3,0.5l0.3,0.5l0.2,0.5l0.2,0.5l0.1,0.5l0.1,0.5l0.1,0.5l0,0.5l0,0.5l-0.1,0.5
	l-0.1,0.5l-0.2,0.4l-0.2,0.4l-0.3,0.4l-0.4,0.4l-0.8,0.4l-1.5,0.4l-2.2,0.4l-2.8,0.4l-7.3,0.8l-9.4,0.7l-11.1,0.6l-12.6,0.5
	l-13.7,0.4l-14.5,0.3l-21.8,0.3l-9.1,0.2l-8,0.2l-7,0.3l-6.1,0.3l-5.2,0.4l-2.3,0.2l-2.2,0.2l-2,0.3l-1.8,0.3l-1.7,0.3l-1.6,0.3
	l-1.4,0.4l-1.3,0.4l-1.2,0.4l-1.1,0.5l-1,0.5l-1,0.5l-0.9,0.6l-0.9,0.6l-0.8,0.6l-0.8,0.7l-1.6,1.5l-1.2,1.2l-1.2,1.1l-1.3,1.1
	l-1.3,1l-1.3,1l-1.3,0.9l-1.3,0.9l-1.4,0.8l-1.4,0.8l-1.4,0.7l-1.4,0.6l-1.4,0.6l-1.4,0.5l-1.4,0.5l-1.5,0.4l-1.5,0.4l-1.5,0.3
	l-1.5,0.3l-1.5,0.2l-1.5,0.2l-1.5,0.1l-1.5,0.1l-1.5,0l-1.6-0.1l-1.6-0.1l-1.6-0.2l-1.6-0.2l-1.6-0.3l-1.6-0.3l-1.6-0.4l-1.6-0.4
	l-1.6-0.5l-3.3-1.1l-2.9-1l-1.3-0.5l-0.7-0.3h12.5l0,0.1l0,0.1l0,0.1l0.1,0.1l0.1,0.1l0.1,0.1l0.1,0.1l0.1,0.1l0.3,0.2l0.3,0.2
	l0.4,0.1l0.5,0.1l0.5,0.1l0.5,0.1l0.6,0.1l0.6,0l0.7,0l0.7,0l0.7,0l0.7-0.1l0.4,0l0.4,0l0.4,0l0.3,0l0.3-0.1l0.3-0.1l0.3-0.1
	l0.3-0.1l0.3-0.1l0.2-0.1l0.2-0.1l0.2-0.1l0.2-0.1l0.2-0.1l0.2-0.1l0.1-0.1l0.1-0.1l0.1-0.1l0.1-0.1l0.1-0.1l0.1-0.1l0-0.1l0-0.1
	l0-0.1l0-0.1l0-0.1l0-0.1l0-0.1l0-0.1l0-0.1l0-0.1l-0.1-0.1l-0.1-0.1l-0.1-0.1l-0.1-0.1l-0.1-0.1l-0.3-0.3l-0.3-0.2l-0.4-0.2
	l-0.4-0.2l-0.4-0.2l-0.4-0.2l-0.4-0.1l-0.4-0.1l-0.5-0.1l-0.5-0.1l-0.5,0l-0.5,0l-0.5,0l-0.5,0l-0.5,0l-0.5,0.1l-0.5,0.1l-0.4,0.1
	l-0.4,0.1l-0.4,0.1l-0.4,0.2l-0.4,0.2l-0.4,0.2l-0.3,0.2l-0.3,0.2l-0.3,0.2l-0.2,0.3l-0.2,0.3l-0.2,0.3l-0.1,0.3l-0.1,0.3l0,0.3
	h-12.5l-0.5-0.2l-1.2-0.5l-1.1-0.4l-1-0.4l-0.9-0.4l-0.8-0.4l-0.8-0.4l-0.7-0.4l-0.6-0.4l-0.6-0.4l-0.5-0.5l-0.4-0.5l-0.4-0.5
	l-0.3-0.5l-0.3-0.5l-0.2-0.5l-0.2-0.5l-0.1-0.6l-0.1-0.6l0-0.6l0-0.6l0.1-0.7l0.1-0.7l0.2-0.7l0.2-0.8l0.2-0.8l0.3-0.8l0.6-1.7
	l0.8-1.6l1-1.5l1.1-1.5l0.2-0.2l1.1-1.2l1.4-1.4l1.5-1.3l1.7-1.2l1.8-1.2l1.9-1.1l2-1l2-0.9l2.1-0.8l2.2-0.8l2.2-0.7l2.2-0.6
	l2.3-0.5l2.3-0.4l2.3-0.3l2.3-0.2l2.3-0.1l2.2,0l2.2,0.1l2.1,0.2l2.1,0.3l2,0.5l1.9,0.6l1.8,0.7l1.7,0.8l1.6,1l1.5,1.1l1.4,1.2
	l1.7,1.6l1.7,1.3l1.9,1.1l2.2,0.9l2.5,0.7l3,0.5l3.6,0.2l4.3,0l5-0.2l5.9-0.5l14.9-1.6l19.6-2.5l25.2-3.5l11.7-1.6l11.1-1.5
	l10.2-1.3l9.1-1.1l7.7-0.8l6.1-0.6l4.2-0.3l1.3,0L334.1,178.5z"/>
<path class="st0" d="M178.6,91.5l0.3,0l0.3,0l0.3,0l0.3,0l0.3,0.1l0.2,0.1l0.2,0.1l0.2,0.1l0.2,0.1l0.2,0.1l0.2,0.1l0.2,0.1l0.2,0.2
	l0.2,0.2l0.2,0.2l0.2,0.2l0.2,0.2l0.2,0.2l0.1,0.2l0.1,0.2l0.1,0.2l0.1,0.2l0.1,0.2l0.1,0.2l0.1,0.2l0.1,0.3l0,0.3l0,0.3l0,0.3
	l0,0.3l0,0.3l0,0.3l0,0.3l0,0.3l0,0.3l-0.1,0.3l-0.1,0.2l-0.1,0.2l-0.1,0.2L183,99l-0.1,0.2l-0.1,0.2l-0.1,0.2l-0.1,0.2l-0.2,0.2
	l-0.2,0.2l-0.2,0.2l-0.2,0.2l-0.2,0.2l-0.2,0.2l-0.2,0.1l-0.2,0.1l-0.2,0.1l-0.2,0.1l-0.2,0.1l-0.2,0.1l-0.2,0.1l-0.2,0.1l-0.2,0.1
	l-0.3,0l-0.3,0l-0.3,0l-0.3,0l-0.3,0l-0.3,0l-0.3,0l-0.2,0l-0.2-0.1l-0.2-0.1l-0.2-0.1l-0.2-0.1l-0.2-0.1l-0.2-0.1l-0.2-0.1
	l-0.2-0.1l-0.2-0.2l-0.2-0.2l-0.2-0.2l-0.2-0.2l-0.2-0.2l-0.2-0.2l-0.2-0.2l-0.2-0.2l-0.1-0.2l-0.1-0.2l-0.1-0.2l-0.1-0.2l-0.1-0.2
	l-0.1-0.2l-0.1-0.2l-0.1-0.2l0-0.2l0-0.3l0-0.3l0-0.3l0-0.3l0-0.3l0-0.3l0-0.3l0.1-0.2l0.1-0.2l0.1-0.2l0.1-0.2l0.1-0.2l0.1-0.2
	l0.1-0.2l0.1-0.2l0.1-0.2l0.2-0.2l0.2-0.2l0.2-0.2l0.2-0.2l0.2-0.2l0.2-0.2l0.2-0.1l0.2-0.1l0.2-0.1L176,92l0.2-0.1l0.2-0.1l0.2-0.1
	l0.2-0.1l0.3-0.1l0.3,0l0.3,0l0.3,0l0.3,0L178.6,91.5z"/>
<path class="st0" d="M170.3,147l-0.4,1.5l-0.3,1.4l-0.3,1.3l-0.2,1.2l-0.2,1.2l-0.1,1.1l0,0.5l0,0.5l0,0.5l0,0.5l0,0.3l0,0.3l0,0.3
	l0,0.3l0,0.2l0,0.2l0,0.2l0,0.2l0,0.2l0.1,0.2l0.1,0.2l0.1,0.2l0.1,0.2l0.1,0.2l0.1,0.2l0.1,0.2l0.1,0.1l0.1,0.1l0.1,0.1l0.1,0.1
	l0,0l0,0l0,0l0,0l0,0l0,0l0,0l0,0l0,0l0,0l0,0l0,0l0,0l0,0l0.1,0l0.1,0l0.1,0l0.1,0l0.1,0l0.1,0l0.1,0l0.1,0l0.1,0l0.1,0l0.1,0
	l0.1-0.1l0.2-0.1l0.2-0.1l0.2-0.1l0.2-0.1l0.2-0.1l0.2-0.1l0.2-0.1l0.2-0.2l0.2-0.2l0.5-0.4l0.5-0.4l0.5-0.4l0.5-0.5l0.6-0.5
	l0.6-0.6l0.6-0.6l0.6-0.7l0.5-0.6l2.4,2.1l-1.3,1.4l-1,1.2l-1,1.1l-0.9,1l-0.8,0.9l-0.8,0.8l-0.7,0.7l-0.6,0.6l-0.6,0.5l0,0l0,0
	l-0.3,0.2l-0.3,0.2l-0.3,0.2l-0.3,0.2l-0.3,0.2l-0.3,0.2l-0.3,0.1l-0.3,0.1l-0.3,0.1l-0.3,0.1l-0.3,0.1l-0.3,0.1l-0.3,0.1l-0.3,0
	l-0.3,0l-0.3,0l-0.2,0l-0.2,0l-0.2,0l-0.2,0l-0.2,0l-0.2,0l-0.2,0l-0.2,0l-0.2,0l-0.2-0.1l-0.2-0.1l-0.2-0.1l-0.3-0.1l-0.3-0.2
	l-0.3-0.2l-0.3-0.2l-0.3-0.2l-0.3-0.2l-0.3-0.3l-0.2-0.3l-0.2-0.3L164,165l0,0l0,0l-0.2-0.3l-0.2-0.3l-0.2-0.4l-0.2-0.4l-0.2-0.4
	l-0.1-0.4l-0.1-0.4l-0.1-0.4l-0.1-0.4l-0.1-0.4l-0.1-0.4l-0.1-0.4l0-0.4l0-0.4l0-0.5l0-0.5l0-0.6l0-0.7l0.1-0.8l0.1-0.9l0.1-1l0.2-1
	l0.2-1.1l0.2-1.2l0,0l4.8-26.9l9.4-3.9L170.3,147z"/>
<path class="st0" d="M150,147L150,147l-0.4,1.5l-0.3,1.4l-0.3,1.3l-0.2,1.2l-0.2,1.2l-0.1,1.1l0,0.5l0,0.5l0,0.5l0,0.5l0,0.3l0,0.3
	l0,0.3l0,0.3l0,0.2l0,0.2l0,0.2l0,0.2l0,0.2l0.1,0.2l0.1,0.2l0.1,0.2l0.1,0.2l0.1,0.2l0.1,0.2l0.1,0.2l0.1,0.1l0.1,0.1l0.1,0.1
	l0.1,0.1l0,0l0,0l0,0l0,0l0,0l0,0l0,0l0,0l0,0l0,0l0,0l0,0l0,0l0,0l0.1,0l0.1,0l0.1,0l0.1,0l0.1,0l0.1,0l0.1,0l0.1,0l0.1,0l0.1,0
	l0.1,0l0.1-0.1l0.2-0.1l0.2-0.1l0.2-0.1l0.2-0.1l0.2-0.1l0.2-0.1l0.2-0.1l0.2-0.2l0.2-0.2l0.5-0.4l0.5-0.4l0.5-0.4l0.5-0.5l0.6-0.5
	l0.6-0.6l0.6-0.6l0.6-0.7l0.5-0.6l2.4,2.1l-1.3,1.4l-1,1.2l-1,1.1l-0.9,1l-0.8,0.9l-0.8,0.8l-0.7,0.7l-0.6,0.6l-0.6,0.5l0,0l0,0
	l-0.3,0.2l-0.3,0.2l-0.3,0.2l-0.3,0.2l-0.3,0.2l-0.3,0.2l-0.3,0.1l-0.3,0.1l-0.3,0.1l-0.3,0.1l-0.3,0.1l-0.3,0.1l-0.3,0.1l-0.3,0
	l-0.3,0l-0.3,0l-0.2,0l-0.2,0l-0.2,0l-0.2,0l-0.2,0l-0.2,0l-0.2,0l-0.2,0l-0.2,0l-0.2-0.1l-0.2-0.1l-0.2-0.1l-0.3-0.1l-0.3-0.2
	l-0.3-0.2l-0.3-0.2l-0.3-0.2l-0.3-0.2l-0.3-0.3l-0.2-0.3l-0.2-0.3l-0.2-0.3l0,0l0,0l-0.2-0.3l-0.2-0.3l-0.2-0.3l-0.2-0.3l-0.1-0.4
	l-0.1-0.4l-0.1-0.4l-0.1-0.4l-0.1-0.4l-0.1-0.4l-0.1-0.4l-0.1-0.4l-0.1-0.4l0-0.4l0-0.4l0-0.4l-0.9,1l-0.9,1l-0.9,0.9l-0.9,0.9
	l-0.9,0.8l-0.9,0.7l-0.9,0.7l-0.9,0.6l-0.9,0.5l-0.9,0.5l-0.9,0.4l-0.9,0.3l-0.9,0.2l-0.9,0.2l-0.9,0.1l-0.9,0l-0.5,0l-0.5,0l-0.5,0
	l-0.5-0.1l-0.5-0.1l-0.5-0.1l-0.4-0.1l-0.4-0.1l-0.4-0.2l-0.4-0.2l-0.4-0.2l-0.4-0.2l-0.4-0.2l-0.4-0.3l-0.3-0.3l-0.3-0.3l0,0l0,0
	l-0.3-0.3l-0.3-0.3l-0.3-0.3l-0.2-0.4l-0.2-0.4l-0.2-0.4l-0.2-0.4l-0.2-0.4l-0.1-0.4l-0.1-0.4l-0.1-0.4l-0.1-0.4l-0.1-0.5l0-0.5
	l0-0.5l0-0.5l0-0.8l0-0.8l0.1-0.8l0.1-0.9l0.1-0.9l0.1-1l0.2-1l0.2-1v0v0l0,0l5.2-27.1l9.3-3.9l-7.7,30.8l-0.2,0.9l-0.2,0.9
	l-0.2,0.9l-0.1,0.8l-0.1,0.8l-0.1,0.7l0,0.7l0,0.7l0,0.3l0,0.3l0,0.3l0,0.3l0,0.3l0.1,0.2l0.1,0.2l0.1,0.2l0.1,0.2l0.1,0.2l0.1,0.2
	l0.1,0.2l0.1,0.2l0.1,0.2l0.2,0.2l0.2,0.2l0.2,0.2l0.2,0.2l0.2,0.1l0.2,0.1l0.2,0.1l0.2,0.1l0.2,0.1l0.2,0.1l0.2,0.1l0.2,0.1
	l0.3,0.1l0.3,0l0.3,0l0.3,0l0.3,0l0.3,0l0.7,0l0.7-0.1l0.7-0.2l0.7-0.3l0.8-0.3l0.8-0.4l0.8-0.5l0.8-0.6l0.8-0.7l0.8-0.7l0.8-0.8
	l0.8-0.9l0.8-1l0.8-1.1l0.9-1.2l0.9-1.3l0,0l0.2-0.3l0.1-0.3l0.1-0.3l0-0.2l0-0.2l0,0v0l4.8-26.9l9.4-3.9L150,147z"/>
<path class="st0" d="M104.8,64.2l0.7,0l0.7,0.1l0.6,0.1l0.6,0.1l0.6,0.1l0.6,0.2l0.6,0.2l0.6,0.2l0.5,0.2l0.5,0.3l0.5,0.3l0.5,0.3
	l0.5,0.4l0.5,0.4l0.4,0.4l0.4,0.4l0.4,0.4l0.4,0.5l0.3,0.5l0.3,0.5l0.3,0.5l0.3,0.5l0.2,0.5l0.2,0.6l0.2,0.6l0.1,0.6l0.1,0.6
	l0.1,0.6l0.1,0.6l0,0.7l0,0.7l0,0.8l0,0.8l-0.1,0.8l-0.1,0.8l-0.1,0.8l-0.2,0.8l-0.2,0.8l-0.2,0.8l-0.3,0.8l-0.3,0.8l-0.3,0.8
	l-0.4,0.8l-0.4,0.8l-0.4,0.8l-0.4,0.8l-0.5,0.8l0,0l0,0v0l-0.5,0.8l-0.5,0.8l-0.5,0.8l-0.6,0.8l-0.6,0.8l-0.6,0.7l-0.6,0.7l-0.6,0.7
	l-0.7,0.7l-0.7,0.7l-0.7,0.7l-0.7,0.7l-0.7,0.7l-0.8,0.7l-0.8,0.6l-0.8,0.6l0,0l0,0l0,0l0,0l-0.8,0.6l-0.8,0.6l-0.8,0.6l-0.8,0.5
	l-0.8,0.5l-0.9,0.5l-0.9,0.5l-0.9,0.5l-0.9,0.4l-0.9,0.4l-0.9,0.4l-0.9,0.4l-0.9,0.3l-0.9,0.3l-0.9,0.3l-0.9,0.3l-0.7,0.2l-2.7-7.3
	l0.8-0.2l1.7-0.5l1.7-0.6l1.7-0.7l1.6-0.7l1.6-0.8l1.6-0.9l1.6-0.9l1.6-1l0.8-0.5l0.7-0.5l0.7-0.5l0.7-0.5l0.7-0.5l0.7-0.6l0.6-0.6
	l0.6-0.6l0.6-0.6l0.6-0.6l0.5-0.6l0.5-0.6l0.5-0.6l0.5-0.6l0.5-0.6l0.4-0.6l0,0l0,0l0.4-0.6l0.4-0.6l0.4-0.6l0.3-0.6l0.3-0.6
	l0.3-0.6l0.3-0.6l0.2-0.6l0.2-0.6l0.2-0.6l0.1-0.6l0.1-0.6l0.1-0.6l0.1-0.6l0-0.6l0-0.6l0-0.4l0-0.4l0-0.4l-0.1-0.4l-0.1-0.4
	l-0.1-0.4l-0.1-0.3l-0.1-0.3l-0.1-0.3l-0.2-0.3l-0.2-0.3l-0.2-0.3l-0.2-0.3l-0.2-0.3l-0.2-0.2l-0.3-0.2l0,0l0,0l0,0l-0.3-0.2
	l-0.3-0.2l-0.3-0.2l-0.3-0.2l-0.3-0.2l-0.3-0.2l-0.3-0.1l-0.4-0.1l-0.4-0.1l-0.4-0.1l-0.4-0.1l-0.4-0.1l-0.4-0.1l-0.4,0l-0.5,0
	l-0.5,0l-0.6,0l-0.6,0l-0.6,0l-0.6,0.1l-0.6,0.1l-0.6,0.1l-0.6,0.1l-0.6,0.1l-0.6,0.2L97.8,69l-0.7,0.2l-0.7,0.2l-0.7,0.2l-0.7,0.3
	l-0.7,0.3l-0.7,0.3l-1.4,0.6L91,71.9l-1.4,0.8l-1.4,0.8l-1.4,0.9l-1.4,0.9l-1.4,1l-1.4,1.1l-1.4,1.1L80,79.7l-1.3,1.2l-1.3,1.3
	l-1.3,1.4L74.8,85l-1.3,1.5l-1.3,1.5L71,89.7l-1.3,1.7l-1.2,1.7l-1.2,1.8l-1.1,1.8l-1.1,1.8l-1,1.8l-0.9,1.8l-0.9,1.9l-0.8,1.9
	l-0.8,1.9l-0.7,1.9l-0.7,1.9l-0.6,1.9l-0.6,1.9l-0.5,1.9v0l0,0l-0.4,1.9l-0.4,1.9l-0.3,1.9l-0.3,2l-0.2,2l-0.1,2l-0.1,2l0,2l0,1.7
	l0.1,1.7L56,138l0.2,1.6l0.2,1.5l0.3,1.5l0.3,1.4l0.4,1.4l0.4,1.3l0.5,1.3l0.5,1.3l0.6,1.2l0.6,1.2l0.7,1.1l0.7,1.1l0.8,1l0.8,1
	l0.8,0.9l0.9,0.8l0.9,0.8l0.9,0.7l1,0.6l1,0.6l1,0.5l1.1,0.5l1.1,0.4l1.2,0.3l1.2,0.3l1.2,0.2l1.3,0.2l1.3,0.1l1.3,0l0.9,0l0.9,0
	l0.9-0.1l0.9-0.1l0.9-0.1l0.9-0.1l0.9-0.2l0.9-0.2l0.9-0.2l0.9-0.2l0.8-0.3l0.8-0.3l0.8-0.3l0.8-0.3l0.8-0.4l0.8-0.4l0,0h0l0.8-0.4
	l0.9-0.4l0.9-0.5l0.9-0.5l0.9-0.6l0.9-0.6l0.9-0.6l1-0.7l2-1.4l2-1.5l2.1-1.7l2.2-1.8l0,0l2-1.6l1.7,3.1l-0.4,0.4l-1.1,1.1l-1.1,1.1
	l-1.1,1l-1.1,1l-1.1,1l-1.1,0.9l-1.1,0.9l-1.1,0.9l-1.1,0.8l-1.1,0.8l-1.1,0.8l-1.1,0.7l-1.1,0.7l-1.1,0.7l-1.1,0.6l-1.2,0.6
	l-1.2,0.5l-1.2,0.5l-1.2,0.5l-1.2,0.4l-1.2,0.4l-1.2,0.4l-1.2,0.3l-1.2,0.3l-1.2,0.3l-1.2,0.2l-1.2,0.2l-1.2,0.2l-1.2,0.1l-1.2,0.1
	l-1.2,0.1l-1.2,0l-1.1,0l-1,0l-1-0.1l-1-0.1l-1-0.1l-1-0.2l-1-0.2l-1-0.2l-0.9-0.3l-0.9-0.3l-0.9-0.3l-0.9-0.4l-0.9-0.4l-0.9-0.4
	l-0.9-0.5l-0.8-0.5l0,0l0,0l-0.8-0.5l-0.8-0.6l-0.8-0.6l-0.7-0.6l-0.7-0.6l-0.7-0.7l-0.7-0.7l-0.7-0.7l-0.6-0.7l-0.6-0.8l-0.6-0.8
	l-0.6-0.8l-0.5-0.8l-0.5-0.8l-0.5-0.9l-0.5-0.9l0,0l0,0l-0.4-0.9l-0.4-0.9l-0.4-1l-0.3-1l-0.3-1l-0.3-1l-0.3-1l-0.2-1.1l-0.2-1.1
	l-0.2-1.1l-0.2-1.1l-0.1-1.1l-0.1-1.2l-0.1-1.2l0-1.2l0-1.2l0-1.8l0.1-1.8l0.2-1.8l0.2-1.8l0.3-1.8l0.4-1.9l0.4-1.9l0.5-1.9l0.5-1.9
	l0.6-1.9l0.7-1.9l0.7-1.9l0.8-1.9L52,110l0.9-1.9l1-1.9l0,0l0,0l1-2l1.1-1.9l1.1-1.9l1.2-1.9l1.2-1.9l1.3-1.9l1.3-1.9l1.4-1.8
	l1.5-1.9l1.5-1.9l1.6-1.8l1.6-1.8l1.6-1.7l1.7-1.7l1.7-1.6l1.8-1.6l1.8-1.5l1.8-1.4l1.8-1.3l1.8-1.2l1.8-1.2l1.8-1.1l0.9-0.5
	l0.9-0.5L90,68l0.9-0.4l0,0l0.9-0.4l0.9-0.4l0.9-0.4l0.9-0.3l0.9-0.3l0.8-0.3l0.8-0.3l0.8-0.2l0.8-0.2l0.8-0.2l0.8-0.1l0.8-0.1
	l0.8-0.1l0.8-0.1l0.8,0l0.7,0L104.8,64.2z"/>
<path class="st0" d="M251.5,108.2l-2.9,0.8l-8.4-13.1l6.3-1.8L251.5,108.2z"/>
<path class="st0" d="M271.4,112.6l0.3,0l0.3,0.1l0.3,0.1l0.3,0.1l0.3,0.1l0.3,0.1l0.3,0.1l0.3,0.2l0.3,0.2l0.3,0.2l0.2,0.2l0.2,0.2
	l0.2,0.3l0.2,0.3l0.2,0.3l0.2,0.3l0.2,0.3l0.2,0.3l0.2,0.3l0.1,0.3l0.1,0.3l0.1,0.4l0.1,0.4l0.1,0.4l0.1,0.4l0.1,0.4l0.1,0.4l0,0.4
	l0,0.4l0,0.4l0,0.4l0,0.5l0,0.5l0,0.6l-0.1,0.6l-0.1,0.6l-0.1,0.6l-0.1,0.6l-0.1,0.6l0.4,0.1l0.4,0.1l0.3,0.1l0.3,0l0.3,0l0.3,0
	l0.3,0l0.3,0l0.5,0l0.5,0l0.5,0l0.5-0.1l0.5-0.1l0.5-0.1l0.5-0.1l0.5-0.1l0.4-0.2l0.4-0.2l0.4-0.2l0.4-0.2l0.4-0.2l0.4-0.3l0.4-0.3
	l0.4-0.3l0.2-0.2h5.3l-1.1,2.3l0,0l-1.3,2.5l-1.3,2.5l-1.2,2.5l-1.1,2.4l-1.1,2.4l-1,2.4l-1,2.4l-0.9,2.4l-0.8,2.3l-0.7,2.2l-0.6,2
	l-0.5,1.8l-0.4,1.7l-0.3,1.5l-0.2,1.4l0,0.6l0,0.6l0,0.2l0,0.2l0,0.2l0,0.2l0,0.2l0,0.2l0,0.2l0,0.2l0,0.1l0.1,0.1l0.1,0.1l0.1,0.1
	l0.1,0.1l0.1,0.1l0.1,0.1l0.1,0.1l0.1,0.1l0.1,0.1l0.1,0.1l0.1,0.1l0.1,0.1l0.1,0.1l0.1,0.1l0.1,0.1l0.1,0l0.1,0l0.1,0l0.1,0l0.1,0
	l0.1,0l0.1,0l0.1,0l0.2,0l0.2,0l0.2,0l0.2,0l0.2,0l0.2-0.1l0.2-0.1l0.2-0.1l0.2-0.1l0.2-0.1l0.2-0.1l0.3-0.1l0.3-0.2l0.3-0.2
	l0.3-0.2l0.3-0.2l0.6-0.4l0.6-0.5l0.7-0.5l0.7-0.6l0.7-0.6l0.8-0.7l0.8-0.7l0.8-0.8l0.6-0.6l2.3,2.6l-0.5,0.5l-0.3,0.3l-0.3,0.3
	l-0.7,0.7l-0.7,0.7l-0.8,0.7l-0.9,0.8l-0.9,0.8l-1,0.8l-1.1,0.9l-0.5,0.4l-0.5,0.4l-0.5,0.3l-0.5,0.3l-0.5,0.3l-0.5,0.3l-0.5,0.2
	l-0.5,0.2l-0.5,0.2l-0.5,0.2l-0.5,0.1l-0.5,0.1l-0.5,0.1l-0.5,0.1l-0.5,0l-0.5,0l-0.4,0l-0.4,0l-0.4,0l-0.4-0.1l-0.4-0.1l-0.4-0.1
	l-0.3-0.1l-0.3-0.1l-0.3-0.1l-0.3-0.2l-0.3-0.2l-0.3-0.2l-0.3-0.2l-0.3-0.2l-0.3-0.3l-0.3-0.3l0,0l0,0l-0.2-0.3l-0.2-0.3l-0.2-0.3
	l-0.2-0.3l-0.2-0.3l-0.2-0.3l-0.1-0.4l-0.1-0.4l-0.1-0.4l-0.1-0.4l-0.1-0.4l-0.1-0.4l0-0.4l0-0.4l0-0.4l0-0.4l0-0.8l0.1-0.8l0.1-0.8
	l0.1-0.8l0.2-0.8l0.2-0.9l0.2-0.9l0.3-0.9l0.3-0.9l0.3-1l0.4-1l0.4-1l0.4-1l0.5-1l0.5-1.1l0.5-1.1l0.4-0.8l0.4-0.9l0.5-0.9l0.5-0.9
	l0.5-0.9l0.6-1l0.6-1l0.6-1l1-1.6l1.1-1.7l1.2-1.8l1.2-1.9l-0.2,0.1l-0.2,0.1l-0.2,0.1l-0.2,0.1l-0.2,0.1l-0.2,0.1l-0.2,0.1
	l-0.2,0.1l0,0l0,0l-0.3,0.1l-0.3,0.1l-0.3,0.1l-0.3,0.1l-0.3,0.1l-0.3,0.1l-0.3,0.1l-0.3,0.1l-0.3,0.1l-0.4,0l-0.4,0l-0.4,0l-0.4,0
	l-0.4,0l-0.4,0l-0.4,0l-0.3,0l-0.3,0l-0.3,0l-0.3,0l-0.3,0l-0.3,0l-0.3,0l-0.3-0.1l-0.5,1.2l-0.6,1.3l-0.7,1.5l-0.8,1.6l-2,3.3
	l-2.2,3.5l-2.3,3.4l-2.2,3.2l-2,2.7l-1.7,2.1l-1.1,1.4l-1.1,1.4l-1.1,1.3l-0.6,0.6l-0.6,0.6l-0.6,0.6l-0.6,0.6l-0.6,0.6l-0.7,0.6
	l-0.7,0.6l-0.7,0.5l-0.7,0.5l-0.7,0.5l0,0l0,0h0l-0.6,0.3l-0.6,0.3l-0.6,0.3l-0.6,0.3l-0.6,0.3l-0.6,0.2l-0.6,0.2l-0.6,0.2l-0.6,0.2
	l-0.6,0.1l-0.6,0.1l-0.6,0.1l-0.7,0.1l-0.7,0.1l-0.7,0l-0.7,0l-0.8,0l-0.8,0l-0.8-0.1l-0.7-0.1l-0.7-0.2l-0.7-0.2l-0.7-0.2l-0.7-0.3
	l-0.6-0.3l-0.6-0.3l-0.6-0.4l-0.6-0.4l-0.6-0.4l-0.5-0.5l-0.5-0.5l-0.5-0.5l-0.5-0.6l-0.4-0.6l-0.4-0.6l-0.4-0.6l-0.4-0.6l-0.3-0.7
	l-0.3-0.7l-0.3-0.7l-0.2-0.7l-0.2-0.7l-0.2-0.8l-0.1-0.8l-0.1-0.8l-0.1-0.8l0-0.8l0-0.9l0-0.9l0-0.9l0.1-0.9l0.1-0.9l0.1-0.9
	l0.1-0.7h8.1l1.7-0.8l1.6-0.9l0.8-0.4l0.7-0.4l0.7-0.4l0.7-0.5l0.7-0.5l0.6-0.5l0.6-0.5l0.6-0.5l0.6-0.5l0.5-0.5l0.5-0.5l0.5-0.5
	l0.4-0.4l0.3-0.4l0.3-0.4l0.3-0.4l0.3-0.4l0.3-0.4l0.3-0.4l0.3-0.4l0.3-0.4l0.3-0.4l0.3-0.4l0.3-0.4l0.2-0.4l0.2-0.4l0.2-0.4
	l0.2-0.4l0.2-0.4l0.2-0.4l0.2-0.4l0.2-0.4l0.2-0.4l0.1-0.4l0.1-0.4l0.1-0.4l0.1-0.4l0.1-0.4l0.1-0.4l0.1-0.3l0-0.3l0-0.3l0-0.3
	l0-0.3l0-0.2l0-0.2l0-0.2l0-0.2l0-0.2l0-0.1l0-0.1l0-0.1l0-0.1l0-0.1l0-0.1l-0.1-0.1l-0.1-0.1l-0.1-0.1l-0.1-0.1l-0.1-0.1l-0.1-0.1
	l-0.1-0.1l-0.1-0.1l-0.1-0.1l-0.1-0.1l-0.1-0.1l-0.1,0l-0.1,0l-0.1,0l-0.1,0l-0.1,0l-0.1,0l-0.1,0l-0.2,0l-0.2,0l-0.2,0l-0.3,0
	l-0.3,0l-0.3,0l-0.3,0l-0.3,0.1l-0.3,0.1l-0.3,0.1l-0.3,0.1l-0.3,0.1l-0.3,0.1l-0.3,0.1l-0.3,0.2l-0.6,0.4l-0.6,0.4l-0.6,0.5
	l-0.6,0.5l-0.6,0.6l-0.6,0.7l-0.6,0.7l-0.6,0.8l-0.6,0.9l-0.6,0.9l-0.5,0.9l-0.5,0.9l-0.5,0.9l-0.5,0.9l-0.4,0.9l-0.4,0.9l-0.4,0.9
	l-0.4,0.9l-0.3,0.9l-0.3,0.9l-0.3,0.9l-0.3,1l-0.2,1l-0.2,1l-0.2,1l-0.2,1h-8.1l0-0.2l0.2-0.9l0.2-0.9l0.2-0.9l0.3-0.9l0.3-0.9
	l0.3-0.9l0.4-0.9l0.4-0.9l0.4-0.9l0.4-0.9l0,0l0.5-0.9l0.5-0.9l0.5-0.8l0.5-0.8l0.5-0.8l0.5-0.8l0.6-0.8l0.6-0.7l0.6-0.7l0.6-0.7
	l0.6-0.7l0.6-0.7l0.6-0.6l0.7-0.6l0.7-0.6l0.7-0.6l0.7-0.6l0.7-0.5l0.7-0.5l0.7-0.5l0.7-0.4l0.7-0.4l0.7-0.4l0.7-0.3l0.7-0.3
	l0.7-0.2l0.7-0.2l0.7-0.2l0.7-0.1l0.7-0.1l0.7-0.1l0.7,0l0.4,0l0.4,0l0.4,0l0.4,0.1l0.4,0.1l0.4,0.1l0.4,0.1l0.4,0.1l0.3,0.1
	l0.3,0.1l0.3,0.2l0.3,0.2l0.3,0.2l0.3,0.2l0.3,0.2l0.3,0.2l0.3,0.3l0.3,0.3l0.2,0.3l0.2,0.3l0.2,0.3l0.2,0.3l0.2,0.3l0.2,0.3
	l0.1,0.3l0.1,0.3l0.1,0.4l0.1,0.4l0.1,0.4l0,0.4l0,0.4l0,0.4l0,0.8l-0.1,0.8l-0.1,0.8l-0.2,0.8l-0.2,0.8l-0.3,0.8l-0.3,0.8l-0.4,0.8
	l-0.4,0.8l-0.5,0.8l-0.5,0.8l-0.6,0.8l-0.6,0.8l-0.7,0.7l-0.7,0.7l-0.8,0.7l-0.8,0.7l-0.8,0.7l-0.9,0.7l-0.9,0.7l-0.9,0.7l-1,0.7
	l-1,0.6l-1,0.6l-1.1,0.6l-1.1,0.6l-1.2,0.6l-1.2,0.6l-1.2,0.6l-1.3,0.5l-1.3,0.5l-1.3,0.5l0,0.2l0,0.2l0,0.2l0,0.2l0,0.6l0,0.6
	l0.1,0.6l0.1,0.6l0.1,0.6l0.1,0.5l0.1,0.5l0.2,0.5l0.2,0.5l0.2,0.5l0.2,0.5l0.2,0.4l0.3,0.4l0.3,0.4l0.3,0.4l0.3,0.4l0.3,0.4
	l0.3,0.3l0.4,0.3l0.4,0.3l0.4,0.3l0.4,0.2l0.4,0.2l0.4,0.2l0.4,0.2l0.4,0.1l0.5,0.1l0.5,0.1l0.5,0.1l0.5,0.1l0.5,0l0.5,0l0.4,0
	l0.4,0l0.4,0l0.4-0.1l0.4-0.1l0.4-0.1l0.4-0.1l0.4-0.1l0.4-0.1l0.4-0.2l0.4-0.2l0.4-0.2l0.4-0.2l0.4-0.2l0.4-0.2l0.4-0.3l0.5-0.4
	l0.5-0.4l0.5-0.4l0.5-0.4l0.5-0.4l0.5-0.5l0.5-0.5l0.5-0.5l0.5-0.5l0.4-0.5l0.9-1l0.8-1l0.8-1l1.6-2l1.9-2.6l2.1-3.1l2.2-3.3
	l2.1-3.4l1.9-3.2l0.8-1.5l0.7-1.4l0.6-1.3l0.4-1.1l-0.7-0.5l-0.7-0.5l-0.6-0.5l-0.3-0.3l-0.3-0.3l-0.3-0.3l-0.3-0.3l-0.2-0.3
	l-0.2-0.3l-0.2-0.3l-0.2-0.3l-0.2-0.3l-0.2-0.3l-0.2-0.3l-0.2-0.3l-0.2-0.3l-0.1-0.3l-0.1-0.3l-0.1-0.3l-0.1-0.4l-0.1-0.4l-0.1-0.4
	l-0.1-0.4l-0.1-0.4l-0.1-0.4l0-0.4l0-0.4l0-0.4l0-0.4l0-0.4l0-0.4l0-0.3h4.7l0,0.3l0,0.3l0.1,0.3l0.1,0.3l0.1,0.3l0.1,0.3l0.2,0.3
	l0.2,0.3l0.2,0.3l0.2,0.3l0.3,0.3l0.3,0.3l0.3,0.3l0.3,0.3l0.4,0.3l0.4,0.3l0-0.2l0-0.2l0-0.2l0-0.2l0-0.2l0-0.2l0-0.2l0-0.2l0-0.3
	l0-0.3l0-0.3l0-0.3l0-0.3l0-0.3l0-0.2l0-0.2l-0.1-0.2l-0.1-0.2l-0.1-0.2l-0.1-0.2l-0.1-0.2l-0.1-0.2l-0.1-0.2l-0.1-0.2l0,0l0,0
	l-0.1-0.1l-0.1-0.1l-0.1-0.1l-0.1-0.1l-0.1-0.1l-0.1-0.1l-0.1-0.1l-0.1-0.1l-0.1-0.1l-0.1,0l-0.1,0l-0.1,0l-0.1,0l-0.1,0l-0.1,0
	l-0.1,0l0,0l0,0l0,0l0,0l0,0l0,0l0,0l0,0l0,0l0,0l0,0l0,0l-0.1,0l-0.1,0.1l-0.1,0.1l-0.1,0.1l0,0.1l0,0.1l0,0.1l0,0.1l0,0.1l0,0.1
	l0,0.1l0,0.1l0,0.1l0,0.1l0,0.1l0,0.1l0,0.1l0,0.1l0,0.1l0,0.1h-4.7l0,0l0-0.4l0.1-0.4l0.1-0.4l0.1-0.4l0.1-0.3l0.1-0.3l0.1-0.3
	l0.1-0.3l0.1-0.3l0.2-0.3l0.2-0.3l0.2-0.3l0.2-0.3l0.2-0.3l0.2-0.2l0.2-0.2l0.2-0.2l0.2-0.2l0.2-0.2l0.3-0.2l0.3-0.1l0.3-0.1
	l0.3-0.1l0.3-0.1l0.3-0.1l0.3-0.1l0.3,0l0.3,0l0.3,0L271.4,112.6z"/>
<path class="st0" d="M320.6,121.6l0.4,0l0.4,0l0.4,0.1l0.4,0.1l0.4,0.1l0.4,0.1l0.4,0.1l0.3,0.1l0.3,0.1l0.3,0.2l0.3,0.2l0.3,0.2
	l0.3,0.2l0.3,0.2l0.3,0.2l0.3,0.3l0.3,0.3l0.2,0.3l0.2,0.3l0.2,0.3l0.2,0.3l0.2,0.3l0.2,0.3l0.1,0.3l0.1,0.3l0.1,0.4l0.1,0.4
	l0.1,0.4l0,0.4l0,0.4l0,0.4l0,0.8l-0.1,0.8l-0.1,0.8l-0.2,0.8l-0.2,0.8l-0.3,0.8l-0.3,0.8l-0.4,0.8l-0.4,0.8l-0.5,0.8l-0.5,0.8
	l-0.6,0.8l-0.6,0.8l-0.7,0.7l-0.7,0.7l-0.8,0.7l-0.8,0.7l-0.8,0.7l-0.9,0.7l-0.9,0.7l-0.9,0.7l-1,0.7l-1,0.6l-1.1,0.6l-1.1,0.6
	l-1.1,0.6l-1.2,0.6l-1.2,0.6l-1.2,0.6l-1.3,0.5l-1.3,0.5l-1.3,0.5l0,0.2l0,0.2l0,0.2l0,0.2l0,0.6l0,0.6l0.1,0.6l0.1,0.6l0.1,0.6
	l0.1,0.5l0.1,0.5l0.2,0.5l0.2,0.5l0.2,0.5l0.2,0.5l0.2,0.4l0.3,0.4l0.3,0.4l0.3,0.4l0.3,0.4l0.3,0.4l0.3,0.3l0.4,0.3l0.4,0.3
	l0.4,0.3l0.4,0.2l0.4,0.2l0.4,0.2l0.4,0.2l0.4,0.1l0.5,0.1l0.5,0.1l0.5,0.1l0.5,0.1l0.5,0l0.5,0l0.4,0l0.4,0l0.4,0l0.4-0.1l0.4-0.1
	l0.4-0.1l0.4-0.1l0.4-0.1l0.4-0.1l0.4-0.2l0.4-0.2l0.4-0.2l0.4-0.2l0.4-0.2l0.4-0.2l0.4-0.3l0.4-0.3l0.4-0.3l0.4-0.3l0.4-0.3
	l0.4-0.4l0.4-0.4l0.4-0.4l0.4-0.4l0.4-0.4l0.4-0.5l0.4-0.5l0.4-0.5l0.5-0.5l0.5-0.5l0.5-0.6l0.5-0.6l0.5-0.7l2.6,2.2l-0.5,0.6
	l-0.6,0.8l-0.6,0.7l-0.6,0.7l-0.6,0.7l-0.6,0.7l-0.6,0.6l-0.6,0.6l-0.6,0.6l-0.6,0.6l-0.6,0.5l-0.6,0.5l-0.6,0.5l-0.6,0.5l-0.6,0.4
	l-0.6,0.4l-0.6,0.4l0,0l0,0l0,0h0l0,0l-0.6,0.3l-0.6,0.3l-0.6,0.3l-0.6,0.3l-0.6,0.3l-0.6,0.2l-0.6,0.2l-0.6,0.2l-0.6,0.2l-0.6,0.1
	l-0.6,0.1l-0.6,0.1l-0.7,0.1l-0.7,0.1l-0.7,0l-0.7,0l-0.8,0l-0.8,0l-0.8-0.1l-0.7-0.1l-0.7-0.2l-0.7-0.2l-0.7-0.2l-0.7-0.3l-0.6-0.3
	l-0.6-0.3l-0.6-0.4l-0.6-0.4l-0.6-0.4l-0.5-0.5l-0.5-0.5l-0.5-0.5l-0.5-0.6l-0.4-0.6l-0.4-0.6l-0.4-0.6l-0.4-0.6l-0.3-0.7l-0.3-0.7
	l-0.3-0.7l-0.2-0.7l-0.2-0.7l-0.2-0.8l-0.1-0.8l-0.1-0.8l-0.1-0.8l0-0.8l0-0.9l0-0.9l0-0.9l0.1-0.9l0.1-0.9l0.1-0.9l0.1-0.7h8.1
	l1.7-0.8l1.6-0.9l0.8-0.4l0.7-0.4l0.7-0.4l0.7-0.5l0.7-0.5l0.6-0.5l0.6-0.5l0.6-0.5l0.6-0.5l0.5-0.5l0.5-0.5l0.5-0.5l0.4-0.4
	l0.3-0.4l0.3-0.4l0.3-0.4l0.3-0.4l0.3-0.4l0.3-0.4l0.3-0.4l0.3-0.4l0.3-0.4l0.3-0.4l0.3-0.4l0.2-0.4l0.2-0.4l0.2-0.4l0.2-0.4
	l0.2-0.4l0.2-0.4l0.2-0.4l0.2-0.4l0.2-0.4l0.1-0.4l0.1-0.4l0.1-0.4l0.1-0.4l0.1-0.4l0.1-0.4l0.1-0.3l0-0.3l0-0.3l0-0.3l0-0.3l0-0.2
	l0-0.2l0-0.2l0-0.2l0-0.2l0-0.1l0-0.1l0-0.1l0-0.1l0-0.1l0-0.1l-0.1-0.1l-0.1-0.1l-0.1-0.1l-0.1-0.1l-0.1-0.1l-0.1-0.1l-0.1-0.1
	l-0.1-0.1l-0.1-0.1l-0.1-0.1l-0.1-0.1l-0.1,0l-0.1,0l-0.1,0l-0.1,0l-0.1,0l-0.1,0l-0.1,0l-0.2,0l-0.2,0l-0.2,0l-0.3,0l-0.3,0l-0.3,0
	l-0.3,0l-0.3,0.1l-0.3,0.1l-0.3,0.1l-0.3,0.1l-0.3,0.1l-0.3,0.1l-0.3,0.1l-0.3,0.2l-0.6,0.4l-0.6,0.4l-0.6,0.5l-0.6,0.5l-0.6,0.6
	l-0.6,0.7l-0.6,0.7l-0.6,0.8l-0.6,0.9l-0.6,0.9l-0.5,0.9l-0.5,0.9l-0.5,0.9l-0.5,0.9l-0.4,0.9l-0.4,0.9l-0.4,0.9l-0.4,0.9l-0.3,0.9
	l-0.3,0.9l-0.3,0.9l-0.3,1l-0.2,1l-0.2,1l-0.2,1l-0.2,1h-8.1l0-0.2l0.2-0.9l0.2-0.9l0.2-0.9l0.3-0.9l0.3-0.9l0.3-0.9l0.4-0.9
	l0.4-0.9l0.4-0.9l0.4-0.9l0,0l0,0v0l0.5-0.9l0.5-0.9l0.5-0.8l0.5-0.8l0.5-0.8l0.5-0.8l0.6-0.8l0.6-0.7l0.6-0.7l0.6-0.7l0.6-0.7
	l0.6-0.7l0.6-0.7l0.7-0.6l0.7-0.6l0.7-0.6l0.7-0.6l0.7-0.5l0.7-0.5l0.7-0.5l0.7-0.4l0.7-0.4l0.7-0.4l0.7-0.3l0.7-0.3l0.7-0.2
	l0.7-0.2l0.7-0.2l0.7-0.1l0.7-0.1l0.7-0.1l0.7,0L320.6,121.6z"/>
<path class="st0" d="M212.9,146.9l-0.7,2.9l-0.2,1l-0.2,1l-0.2,0.9l-0.1,0.9l-0.1,0.8l-0.1,0.8l0,0.7l0,0.7l0,0.3l0,0.3l0,0.3l0,0.2
	l0,0.2l0,0.2l0,0.2l0,0.2l0,0.2l0.1,0.2l0.1,0.2l0.1,0.2l0.1,0.2l0.1,0.2l0.1,0.2l0.1,0.2l0.1,0.1l0.1,0.1l0.1,0.1l0.1,0.1l0.1,0.1
	l0.1,0.1l0.1,0.1l0.1,0.1l0.1,0.1l0.1,0l0.1,0l0.1,0l0.1,0l0.1,0l0.1,0l0.1,0l0.1,0l0.1,0l0.1,0l0.1,0l0.1,0l0.1,0l0.1-0.1l0.2-0.1
	l0.2-0.1l0.2-0.1l0.2-0.1l0.2-0.1l0.2-0.1l0.2-0.1l0.2-0.2l0.2-0.2l0.5-0.4l0.5-0.4l0.5-0.4l0.5-0.5l0.6-0.5l0.6-0.6l0.6-0.6
	l0.6-0.7l0.5-0.6l2.4,2.1l-1.3,1.4l-1,1.2l-1,1.1l-0.9,1l-0.8,0.9l-0.8,0.8l-0.7,0.7l-0.6,0.6l-0.6,0.5l0,0l0,0l0,0l-0.3,0.2
	l-0.3,0.2l-0.3,0.2l-0.3,0.2l-0.3,0.2l-0.3,0.2l-0.3,0.1l-0.3,0.1l-0.3,0.1l-0.3,0.1l-0.3,0.1l-0.3,0.1l-0.3,0.1l-0.3,0l-0.3,0
	l-0.3,0l-0.3,0l-0.3,0l-0.3-0.1l-0.3-0.1l-0.3-0.1l-0.3-0.1l-0.3-0.1l-0.3-0.2l-0.3-0.2l-0.3-0.2l-0.3-0.2l-0.3-0.3l-0.3-0.3
	l-0.3-0.3l-0.2-0.3l-0.2-0.3l0,0l0,0l-0.2-0.4l-0.2-0.4l-0.2-0.4l-0.2-0.4l-0.2-0.4l-0.1-0.4l-0.1-0.4l-0.1-0.4l-0.1-0.4l-0.1-0.4
	l-0.1-0.4l-0.1-0.4l0-0.4l0-0.4l0-0.4l0-0.4l0-0.6l0-0.7l0.1-0.8l0.1-0.9l0.1-1l0.2-1l0.2-1.1l0.2-1.2L223.3,63l9.8-4.8L212.9,146.9
	z"/>
<path class="st0" d="M190.6,146.9l-0.7,2.9l-0.2,1l-0.2,1l-0.2,0.9l-0.1,0.9l-0.1,0.8l-0.1,0.8l0,0.7l0,0.7l0,0.3l0,0.3l0,0.3l0,0.2
	l0,0.2l0,0.2l0,0.2l0,0.2l0,0.2l0.1,0.2l0.1,0.2l0.1,0.2l0.1,0.2l0.1,0.2l0.1,0.2l0.1,0.2l0.1,0.1l0.1,0.1l0.1,0.1l0.1,0.1l0.1,0.1
	l0.1,0.1l0.1,0.1l0.1,0.1l0.1,0.1l0.1,0l0.1,0l0.1,0l0.1,0l0.1,0l0.1,0l0.1,0l0.1,0l0.1,0l0.1,0l0.1,0l0.1,0l0.1,0l0.1-0.1l0.2-0.1
	l0.2-0.1l0.2-0.1l0.2-0.1l0.2-0.1l0.2-0.1l0.2-0.1l0.2-0.2l0.2-0.2l0.5-0.4l0.5-0.4l0.5-0.4l0.5-0.5l0.6-0.5l0.6-0.6l0.6-0.6
	l0.6-0.7l0.5-0.6l2.4,2.1l-1.3,1.4l-1,1.2l-1,1.1l-0.9,1l-0.8,0.9l-0.8,0.8l-0.7,0.7l-0.6,0.6l-0.6,0.5l0,0l0,0l-0.9,0.8l-0.2,0.2
	l-0.2,0.2l-0.2,0.1l-0.2,0.1l-0.2,0.1l-0.2,0.1l-0.2,0.1l-0.1,0l-0.1,0l-0.1,0l-0.1,0l-0.1,0l-0.1,0l-0.1,0l-0.1,0l-0.1,0l-0.1,0
	l-0.4,0l-0.4,0l-0.4-0.1l-0.4-0.1l-0.4-0.1l-0.4-0.1l-0.4-0.1l-0.4-0.2l-0.4-0.2l-0.4-0.2l-0.3-0.2l-0.3-0.3l-0.3-0.3l-0.3-0.3
	l-0.3-0.3l-0.2-0.3l0,0l0,0l-0.2-0.4l-0.2-0.4l-0.2-0.4l-0.2-0.4l-0.2-0.4l-0.1-0.4l-0.1-0.4l-0.1-0.4l-0.1-0.4l-0.1-0.4l-0.1-0.4
	l-0.1-0.4l0-0.4l0-0.4l0-0.4l0-0.4l0-0.6l0-0.7l0.1-0.8l0.1-0.9l0.1-1l0.2-1l0.2-1.1l0.2-1.2L201,63l9.8-4.8L190.6,146.9z"/>
<path class="st0" d="M80.4,54L80.4,54l-0.2,0.7l-0.1,0.6L80,55.9l-0.1,0.6l-0.1,0.5l-0.1,0.5l0,0.4l0,0.2l0,0.2l0,0.2l0,0.1l0,0.1
	l0,0.1l0,0.1l0,0.1l0,0.1l0,0.1l0,0.1l0,0.1l0,0.1l0,0.1l0,0.1l0.1,0.1l0.1,0.1l0.1,0.1l0,0l0,0l0,0l0,0l0,0l0,0l0,0l0,0l0,0l0,0
	l0,0l0,0l0,0l0,0l0,0l0,0l0,0l0,0l0,0l0,0l0,0l0,0l0,0l0,0l0,0l0,0l0,0l0,0l0,0l0,0l0.1,0l0.1,0l0.1,0l0.1,0l0.1,0l0.1,0l0.1,0
	l0.1-0.1l0.1-0.1l0.1-0.1l0.1-0.1l0.1-0.1l0.1-0.1l0.3-0.2l0.3-0.2l0.3-0.3l0.3-0.3l0.3-0.3l0.4-0.3l0.4-0.4l0.4-0.4l0.6-0.6
	l1.8,1.8l-1,1.2l0,0l-0.6,0.7l-0.6,0.7l-0.5,0.6l-0.5,0.5l-0.5,0.5l-0.4,0.4L82.8,64l-0.4,0.3l0,0l-0.2,0.1l-0.2,0.1l-0.2,0.1
	l-0.2,0.1L81.5,65l-0.2,0.1l-0.2,0.1L81,65.3l-0.2,0.1l-0.2,0.1l-0.2,0.1l-0.2,0.1l-0.2,0l-0.2,0l-0.2,0l-0.2,0l-0.1,0l-0.1,0
	l-0.1,0l-0.1,0l-0.1,0l-0.1,0l-0.1,0l-0.1,0l-0.1,0l-0.1,0l-0.1,0l-0.1,0l-0.2-0.1l-0.2-0.1l-0.2-0.1l-0.2-0.1l-0.2-0.2l-0.2-0.2
	l-0.2-0.2l-0.2-0.2L76.4,64l-0.2-0.2l0,0l0,0L76,63.5l-0.1-0.2l-0.1-0.2l-0.1-0.2l-0.1-0.2l-0.1-0.3l-0.1-0.3l-0.1-0.3l-0.1-0.3
	l-0.1-0.3L75.1,61l0-0.3l0-0.3l0-0.3l0-0.3l0-0.3l0-0.3l0-0.3l0-0.4l0-0.4l0.1-0.4l0.1-0.5l0.1-0.5l0.1-0.6l-0.2,0.4L74.9,57
	l-0.3,0.4l-0.3,0.4l-0.3,0.4l-0.3,0.4l-0.3,0.4l-0.3,0.4v0L72.6,60L72,60.8l-0.6,0.7l-0.6,0.6l-0.6,0.6l-0.6,0.5l-0.6,0.5l-0.6,0.4
	l-0.6,0.4L67,64.9l-0.6,0.3l-0.6,0.2l-0.6,0.2l-0.6,0.1l-0.6,0.1l-0.3,0l-0.3,0l-0.4,0l-0.4,0l-0.4,0l-0.3-0.1l-0.3-0.1L61,65.5
	l-0.3-0.1l-0.3-0.1l-0.3-0.1L59.8,65l-0.3-0.2l-0.3-0.2L59,64.4l-0.3-0.2l-0.2-0.3l-0.2-0.3L58,63.3L57.8,63l-0.2-0.3l-0.2-0.3
	l-0.2-0.3l-0.1-0.3L57,61.4L56.9,61l-0.1-0.4l-0.1-0.4l-0.1-0.4l-0.1-0.4l0-0.4l0-0.4l0-0.4l0-0.4l0-0.6h5.7l0,0.3l0,0.3l0,0.3
	l0,0.2l0,0.2l0,0.2l0,0.2l0,0.2l0.1,0.2l0.1,0.2l0.1,0.2l0.1,0.2l0.1,0.2l0.1,0.2l0.1,0.2l0.1,0.1l0.1,0.1l0.1,0.1l0.1,0.1l0.1,0.1
	l0.1,0.1l0.1,0.1l0.1,0.1l0.1,0.1l0.1,0.1l0.1,0.1l0.1,0l0.1,0l0.1,0l0.1,0l0.2,0l0.2,0l0.2,0l0.2,0l0.2,0l0.2,0l0.2-0.1l0.2-0.1
	l0.2-0.1l0.2-0.1l0.3-0.1l0.3-0.1l0.3-0.2l0.3-0.2l0.3-0.2l0.3-0.2l0.3-0.2l0.3-0.2l0.3-0.2l0.3-0.3l0.3-0.3l0.3-0.3l0.3-0.3
	l0.3-0.3l0.3-0.3l0.3-0.3l0.6-0.7l0.6-0.8l0.6-0.8l0.6-0.9l0,0l0,0l0.3-0.5l0.3-0.5l0.3-0.5l0.3-0.5l0.3-0.5l0.2-0.5l0.2-0.5
	l0.2-0.5l0.2-0.6l0.2-0.6l0.2-0.7l0.2-0.7l0.5-1.6l0.5-1.8l0.4-1.4l-0.1-0.2l-0.1-0.2L77.6,42l-0.1-0.2l-0.1-0.2l-0.1-0.1l-0.1-0.1
	l-0.1-0.1L77,41.1L76.9,41l-0.1-0.1l-0.1-0.1l-0.1-0.1l-0.1-0.1l-0.1-0.1l-0.1-0.1l0,0l0,0L76,40.2l-0.1-0.1L75.8,40l-0.1-0.1
	l-0.1-0.1l-0.2-0.1l-0.2-0.1L75,39.7l-0.2-0.1l-0.2,0l-0.2,0l-0.2,0l-0.2,0l-0.2,0l-0.2,0l-0.2,0l-0.2,0l-0.2,0l-0.2,0l-0.2,0
	l-0.2,0.1l-0.2,0.1L72,39.8l-0.2,0.1L71.5,40l-0.2,0.1L71,40.2l-0.3,0.2l-0.3,0.2l-0.3,0.2L70,41l-0.3,0.2l0,0l0,0l-0.3,0.2
	l-0.3,0.2l-0.3,0.3l-0.3,0.3l-0.3,0.3l-0.3,0.3L67.9,43l-0.3,0.3l-0.3,0.3L67.1,44l-0.2,0.3l-0.2,0.4l-0.2,0.4l-0.2,0.4l-0.2,0.4
	l-0.2,0.4L65.3,47l-0.3,0.7l-0.3,0.7l-0.3,0.7L64,49.8l-0.3,0.8l-0.3,0.8l-0.3,0.8l-0.2,0.8l-0.2,0.7l-0.2,0.7L62.4,55l-0.1,0.6
	l0,0.3l0,0.3l0,0.3l0,0.3l0,0.3l0,0.3h-5.7v0l0-0.6l0.1-0.6l0.1-0.6l0.1-0.6l0.1-0.6l0.1-0.6l0.2-0.6l0.2-0.6l0.2-0.6l0.2-0.6
	l0.2-0.6l0.3-0.6l0.3-0.6l0.3-0.6l0.3-0.6l0,0l0,0l0.3-0.6l0.3-0.6l0.4-0.6l0.4-0.6l0.4-0.6l0.4-0.6l0.4-0.5l0.4-0.5l0.4-0.5
	l0.4-0.5l0.4-0.5l0.4-0.5l0.5-0.5l0.5-0.4l0.5-0.4l0.5-0.4l0.5-0.4l0.5-0.4l0.5-0.4l0.5-0.3l0.5-0.3l0.5-0.3l0.5-0.3l0.5-0.2
	l0.5-0.2l0.5-0.2l0.5-0.1l0.5-0.1l0.5-0.1l0.5-0.1l0.5,0l0.5,0l0.4,0l0.4,0l0.4,0l0.4,0.1l0.4,0.1l0.4,0.1l0.3,0.1l0.3,0.1l0.3,0.1
	l0.3,0.1l0.3,0.2l0.3,0.2l0.3,0.2l0.3,0.2l0.3,0.2l0.3,0.2l0.2-0.7l6.4-2.6L80.4,54z"/>
<path class="st0" d="M52,0l0.3,0l0.3,0l0.3,0l0.3,0l0.3,0.1l0.3,0.1l0.3,0.1l0.3,0.1l0.3,0.1l0.3,0.1l0.3,0.1l0.3,0.1l0.3,0.1
	l0.2,0.1l0.2,0.1l0.2,0.2l0.2,0.2l0.2,0.2l0.2,0.2l0.2,0.2l0.2,0.2l0.2,0.2l0.2,0.2L58,2.9l0.2,0.2l0.2,0.2l0.2,0.2l0.1,0.3l0.1,0.3
	l0.1,0.3L59,4.7l0.1,0.3l0.1,0.3l0.1,0.3l0.1,0.3l0.1,0.3l0.1,0.3l0.1,0.3L59.8,7l0.1,0.3l0,0.3l0,0.3l0,0.3l0,0.3L60,9l0,0.3l0,0.3
	l0,0.7l0,0.7l-0.1,0.7l-0.1,0.8l-0.1,0.8l-0.2,0.8l-0.2,0.9L59.1,16l-0.2,0.9l-0.3,0.9l-0.3,0.9L58,19.6l-0.3,0.9l-0.3,0.8l-0.3,0.8
	L56.7,23l-0.2,0.4l-6.5,1l0.8-1.5l0.5-0.9l0.5-0.9l0.4-1l0.4-1l0.4-1l0.4-1l0.4-1l0.3-1l0.3-1l0.3-1l0.2-0.9l0.2-0.9l0.1-0.9
	l0.1-0.4l0-0.4l0-0.4l0-0.4l0-0.4l0-0.4l0-0.3l0-0.3l0-0.3l0-0.3l0-0.3l0-0.3L55.2,6l-0.1-0.2L55,5.5l-0.1-0.2l-0.1-0.2l-0.1-0.2
	l-0.1-0.2l-0.1-0.2l-0.1-0.2l-0.1-0.2L54.2,4l-0.1-0.1L54,3.8l-0.1-0.1l-0.1-0.1l-0.2-0.1l-0.2-0.1l-0.2-0.1L53,3.2l-0.2-0.1
	l-0.2-0.1l-0.2,0l-0.2,0L52,3l-0.2,0l-0.2,0L51,3l-0.5,0.1L50,3.2l-0.5,0.2L49,3.5l-0.5,0.2L48,4.1l-0.5,0.3l-0.5,0.4l-0.5,0.4
	l-0.4,0.5l-0.4,0.5l-0.4,0.6l-0.4,0.6l-0.4,0.7L44.1,9l-0.2,0.5L43.6,10l-0.2,0.5L43.2,11L43,11.6l-0.2,0.5l-0.2,0.5l-0.2,0.5l0,0
	l-0.2,0.6l-0.2,0.7l-0.4,1.6l-0.5,1.9l-0.5,2.3l0,0L36.5,40l-0.3,1.6L35.8,43l-0.4,1.4l-0.4,1.3L34.7,47l-0.4,1.2L34,49.2l-0.4,1
	L33.3,51l-0.3,0.8l-0.4,0.8l-0.4,0.7L31.8,54l-0.4,0.7l-0.4,0.7l-0.5,0.7l0.1,0l0,0l3.4,1.1l1.6,0.5l1.5,0.4l1.4,0.4l1.3,0.4
	l1.2,0.3l1.1,0.3l1.1,0.2l1,0.2l1,0.2l0.9,0.1l0.9,0.1l0.9,0.1l0.8,0l0.8,0l0.5,0l0.6,0l0.6,0l0.6-0.1l0.6-0.1l0.6-0.1l0.7-0.1
	l0.7-0.1l1.5-0.3l-2.9,6.4l-0.4,0.1l-0.4,0.1l-0.3,0l-0.3,0l-0.3,0l-0.3,0l-0.3,0l-0.3,0l-0.3,0l-0.6,0l-0.6,0l-0.7,0l-0.7-0.1
	l-0.7-0.1l-0.8-0.1L45,66l-0.9-0.1l0,0h0l-1.3-0.3l-1.3-0.3L40.2,65l-1.3-0.3l0,0l0,0l-1.4-0.4L36,63.8l-1.7-0.5l-1.9-0.6l0,0
	l-1.5-0.5l-1.5-0.5l-1.5-0.4l-1.5-0.4l-0.4,0.3l-0.4,0.3l-0.4,0.3l-0.4,0.3l-0.4,0.3l-0.4,0.3L23.5,63l-0.4,0.3l-0.4,0.3l-0.4,0.3
	L21.8,64l-0.5,0.2l-0.5,0.2l-0.5,0.2l-0.5,0.2l-0.5,0.2l0,0l0,0l-0.5,0.2l-0.5,0.2l-0.5,0.2l-0.5,0.2l-0.5,0.1L16.3,66l-0.5,0.1
	l-0.5,0.1l-0.5,0.1l-0.5,0.1l-0.5,0.1l-0.5,0.1l-0.5,0l-0.5,0l-0.5,0l-0.5,0l-0.6,0l-0.6,0l-0.6,0l-0.6,0l-0.5-0.1l-0.5-0.1
	l-0.5-0.1l-0.5-0.1l-0.5-0.1L5.8,66l-0.5-0.1l-0.4-0.2l-0.4-0.2L4,65.3l-0.4-0.2l-0.4-0.2l0,0l0,0l-0.4-0.2l-0.4-0.3l-0.3-0.3
	l-0.3-0.3l-0.3-0.3l-0.3-0.3L1,62.9l-0.2-0.3l-0.2-0.3L0.5,62l-0.1-0.3l-0.1-0.4l-0.1-0.4l-0.1-0.4l0-0.4l0,0h3.3l0,0.2l0,0.2l0,0.1
	l0,0.1l0,0.1l0,0.1l0,0.1l0,0.1l0,0.1l0,0.1l0,0.1l0,0.1l0.1,0.1l0.1,0.1l0.1,0.1l0.1,0.1L4,61.6L4,61.6l0.1,0.1l0.1,0.1L4.4,62
	l0.2,0.2l0.2,0.2l0.2,0.2l0.3,0.2l0.3,0.1l0.3,0.1L6.2,63l0.3,0.1l0.3,0.1l0.3,0.1l0.3,0.1l0.4,0.1l0.4,0.1l0.4,0.1l0.4,0.1l0.4,0
	l0.4,0l0.4,0l0.4,0l0.4,0l0.4,0l0.4,0l0.4,0l0.4,0l0.4,0l0.4-0.1l0.4-0.1l0.4-0.1l0.4-0.1l0.4-0.1l0.4-0.1l0.4-0.1l0.4-0.1l0.4-0.1
	l0.4-0.2l0.4-0.2l0.3-0.1l0.3-0.1l0.3-0.1l0.3-0.2l0.3-0.2l0.3-0.2l0.3-0.2l0.3-0.2l0.3-0.2l0.3-0.2l0.3-0.2l0.3-0.2l0.3-0.2
	l0.3-0.2l0.2-0.2l0.2-0.2l-2-0.6l-1.9-0.5l-1.8-0.4l-1.6-0.3l-1.5-0.3L12,57.3l-1.3-0.1l-1.1,0l-0.8,0l-0.8,0l-0.4,0l-0.3,0l-0.3,0
	l-0.3,0l-0.3,0.1l-0.3,0.1l-0.3,0.1l-0.3,0.1l-0.2,0.1l-0.2,0.1l-0.2,0.1L4.7,58l-0.1,0l-0.1,0l-0.1,0l-0.1,0.1l-0.1,0.1l-0.1,0.1
	l-0.1,0.1L4,58.4L4,58.5l-0.1,0.1l-0.1,0.1l-0.1,0.1l0,0.1l0,0.1l0,0.1l0,0.1l0,0.1l0,0.1l0,0.1l0,0.1l0,0.1l0,0.1l0,0.1l0,0.1
	l0,0.1l0,0.1l0,0.1l0,0.1l0,0.1l0,0.1l0,0.1l0,0.1H0l0-0.4l0-0.2l0-0.2l0-0.2l0-0.2l0-0.2l0-0.2l0-0.2L0.2,58l0.1-0.2l0.1-0.2
	l0.1-0.2l0.1-0.2l0.1-0.2l0.1-0.2l0.1-0.2l0.1-0.2l0.1-0.2l0.1-0.2L1.5,56l0.3-0.3l0.3-0.3l0.3-0.3l0.4-0.3l0.4-0.2l0.4-0.2l0.4-0.2
	l0.5-0.2L5,53.8l0.5-0.2L6,53.4l0.5-0.1L7,53.1L7.6,53l0.6-0.1l0.6-0.1l0.6-0.1l0.6-0.1l0.6,0l0.7,0l0.7,0l0.7,0l1.5,0l1.6,0.1
	l1.6,0.2l1.7,0.2l1.7,0.3l1.7,0.4l1.8,0.4l1.8,0.5l0.3-0.5l0.3-0.5l0.3-0.5l0.2-0.6l0.2-0.6l0.2-0.6l0.2-0.6l0.2-0.6l0,0l0,0
	l0.2-0.7l0.2-0.8l0.2-0.8l0.2-0.9l0.2-1l0.2-1l0.5-2.3v0L33.2,27v0l0,0l0.4-1.7l0.4-1.6l0.4-1.5l0.3-1.4l0.3-1.3l0.3-1.2l0.3-1.1
	l0.3-1l0,0l0,0l0.3-1l0.3-0.9l0.4-0.9l0.4-0.9l0.4-0.8l0.4-0.8l0.4-0.8l0.4-0.7l0.4-0.7L39.7,8l0.4-0.6l0.5-0.6l0.2-0.3l0.2-0.3
	l0.2-0.3l0.2-0.3l0.3-0.3L42.1,5l0.3-0.3l0.3-0.3l0.3-0.3L43.2,4l0.3-0.2l0.3-0.2L44,3.2L44.3,3l0.3-0.2l0.3-0.2l0.3-0.2l0.3-0.2
	L45.6,2l0.3-0.2l0.3-0.2l0.3-0.2l0.3-0.2l0.3-0.1L47.4,1l0.3-0.1L48,0.8l0.3-0.1l0.3-0.1l0.3-0.1l0.3-0.1l0.3-0.1l0.3-0.1L50,0.2
	l0.3-0.1l0.3,0l0.3,0l0.3,0l0.3,0l0.3,0L52,0z"/>
</svg>
