<svg width="802" height="411" viewBox="0 0 802 411" fill="none" xmlns="http://www.w3.org/2000/svg">
<path fill-rule="evenodd" clip-rule="evenodd" d="M128.812 161.173L135.735 145.557L132 146.254C127.563 147.081 123.622 147.486 120.167 147.486C115.226 147.486 109.286 146.71 102.325 145.122C95.4212 143.452 86.2002 140.711 74.6423 136.883L74.6328 136.88L74.4383 136.818C77.4795 132.595 80.028 127.85 82.0905 122.594C84.5247 116.39 86.8533 108.102 89.0892 97.7709L99.3316 49.7813L99.3326 49.7765C101.096 41.726 102.5 36.0462 103.546 32.6832L103.55 32.6714C104.59 29.2533 105.928 25.9064 107.566 22.6299C112.703 12.5089 118.761 8.07764 125.576 8.07764C128.769 8.07764 130.934 9.11286 132.402 10.992C133.946 12.9677 134.855 15.958 134.855 20.2343C134.855 24.7943 133.838 30.4908 131.722 37.3685C129.609 44.1581 126.973 50.4827 123.815 56.3466L121.919 59.8679L137.651 57.4996L138.101 56.5111C140.46 51.3216 142.378 45.677 143.863 39.5832C145.339 33.5209 146.106 28.3992 146.106 24.2626C146.106 19.7522 145.343 15.7097 143.753 12.1846C142.23 8.5593 139.907 5.73171 136.765 3.80623C133.646 1.81844 130.045 0.85498 126.036 0.85498C122.301 0.85498 118.544 1.83306 114.784 3.71331C111.03 5.58993 107.445 8.25981 104.02 11.6842C100.594 15.1103 97.5772 19.0437 94.9656 23.4751C92.1928 28.1497 89.76 33.6558 87.6541 39.9736L87.6505 39.9842L87.6471 39.9948C85.6222 46.3032 83.4192 55.0485 81.0352 66.1994L81.0347 66.2017L72.863 104.643L72.8612 104.652C71.2562 112.371 69.7401 118.346 68.3181 122.612L68.3131 122.627L68.3083 122.642C67.127 126.383 65.5981 129.978 63.7205 133.43C51.8358 130.077 40.9897 128.38 31.1983 128.38C22.2788 128.38 14.9755 129.744 9.44012 132.636C3.81231 135.576 0.6548 139.894 0.6548 145.573C0.6548 150.864 3.41499 155.055 8.40367 158.099L8.42056 158.109L8.43766 158.119C13.4478 161.042 19.8947 162.42 27.6304 162.42C34.3356 162.42 41.0217 161.142 47.6783 158.606L47.688 158.602L47.6976 158.598C53.9974 156.123 59.5411 152.718 64.3105 148.377C69.15 149.743 74.0234 151.208 78.9306 152.772L78.9327 152.773C85.4642 154.848 90.7811 156.466 94.8766 157.625L94.8979 157.631L94.9193 157.637C99.1076 158.723 103.297 159.654 107.487 160.43L107.499 160.432L107.51 160.434C113.309 161.439 118.004 161.959 121.548 161.959C123.38 161.959 125.455 161.752 127.757 161.355L128.812 161.173ZM43.7615 152.136C47.8118 150.4 51.3902 148.147 54.5083 145.377C41.0724 141.351 30.9602 139.401 24.0624 139.401C18.3786 139.401 14.4225 140.155 11.9551 141.446C10.7509 142.076 9.9561 142.805 9.45606 143.59C8.96125 144.367 8.68312 145.31 8.68312 146.493C8.68312 148.504 9.92891 150.57 13.6028 152.552C17.2246 154.429 21.905 155.427 27.7455 155.427C33.3055 155.427 38.6388 154.332 43.7615 152.136Z" fill="black"/>
<path fill-rule="evenodd" clip-rule="evenodd" d="M195.653 131.671L207.465 85.6786L192.058 92.0706L191.559 93.7955C188.3 90.7438 184.014 89.2478 178.865 89.2478C172.486 89.2478 166.1 92.1003 159.742 97.4253C153.455 102.678 148.196 109.377 143.946 117.482L143.943 117.488L143.939 117.495C139.76 125.617 137.618 133.487 137.618 141.084C137.618 146.691 138.961 151.4 141.858 154.998C144.804 158.659 148.853 160.463 153.774 160.463C162.018 160.463 170.169 154.764 178.249 144.508L178.252 144.505C180.112 142.136 181.83 139.723 183.405 137.268C182.737 141.017 182.39 143.727 182.39 145.342C182.39 149.088 183.375 152.477 185.38 155.44L185.399 155.469L185.419 155.496C187.522 158.388 190.214 160.118 193.482 160.118C195.819 160.118 198.16 158.814 200.423 156.874L200.428 156.87C202.768 154.853 205.993 151.461 210.069 146.769L210.078 146.759L212.541 143.848L208.173 139.48L206.76 140.977C204.226 143.662 202.113 145.609 200.407 146.871C198.61 148.2 197.586 148.522 197.165 148.522C196.653 148.522 195.982 148.289 195.204 146.972C194.418 145.642 193.986 144.012 193.986 142.005C193.986 139.642 194.514 136.226 195.651 131.677L195.653 131.671ZM185.403 98.6225C187.113 99.8606 188.391 101.579 189.211 103.869L188.322 107.325C186.717 113.591 185.279 118.425 184.01 121.86C182.763 125.234 181.031 128.631 178.801 132.05L178.786 132.074L178.771 132.098C175.078 138.127 171.406 142.663 167.778 145.783C164.149 148.903 160.913 150.248 158.033 150.248C155.919 150.248 154.397 149.451 153.247 147.794C152.089 146.015 151.401 143.386 151.401 139.703C151.401 136.532 152.146 132.376 153.727 127.177C155.377 122.005 157.395 117.303 159.774 113.065C162.833 107.694 166.137 103.611 169.656 100.739L169.666 100.731L169.675 100.723C173.233 97.7456 176.36 96.4705 179.095 96.4705C181.505 96.4705 183.559 97.1755 185.341 98.5752L185.372 98.5995L185.403 98.6225Z" fill="black"/>
<path d="M511.704 142.011L462.649 357.068L461 364.215C459.434 370.84 458.675 376.348 458.675 380.773C458.675 384.303 459.297 387.037 460.411 389.089C461.63 390.995 462.833 391.582 463.994 391.582C465.196 391.582 467.201 390.809 470.162 388.595C473.04 386.444 476.529 383.159 480.637 378.688L481.958 377.251L487.889 382.44L484.71 385.937C477.768 394.096 472.571 399.735 469.166 402.763L469.15 402.777L469.134 402.79C465.666 405.745 464.167 407.477 460.688 407.477C456.162 407.477 450.388 404.943 447.348 400.582L447.329 400.553L447.31 400.524C444.404 396.033 442.963 390.954 442.963 385.348C442.963 381.476 443.792 375.515 445.381 367.574L487.844 153.6L511.704 142.011Z" fill="black"/>
<path d="M565.868 142.011L516.814 357.068L515.165 364.215C513.599 370.84 512.839 376.348 512.839 380.773C512.839 384.303 513.462 387.037 514.576 389.089C515.794 390.995 516.998 391.582 518.159 391.582C519.361 391.582 521.365 390.809 524.327 388.595C527.205 386.444 530.693 383.159 534.802 378.688L536.123 377.251L542.054 382.44L538.875 385.937C531.933 394.096 526.736 399.735 523.33 402.763L523.315 402.777L523.299 402.79C519.83 405.745 516.332 407.477 512.852 407.477C508.327 407.477 504.553 404.943 501.513 400.582L501.493 400.553L501.475 400.524C498.568 396.033 497.128 390.954 497.128 385.348C497.128 381.475 497.957 375.514 499.546 367.573L542.009 153.6L565.868 142.011Z" fill="black"/>
<path fill-rule="evenodd" clip-rule="evenodd" d="M795.094 372.253L801.427 377.53L800.276 379.052C792.629 389.165 785.078 396.627 777.602 401.315L777.591 401.322L777.581 401.328C770.075 405.908 761.969 408.209 753.3 408.209C742.924 408.209 734.431 404.725 728.03 397.671C721.648 390.638 718.545 381.399 718.545 370.16C718.545 358.82 721.508 347.409 727.364 335.946L727.368 335.938C733.328 324.39 740.743 314.841 749.628 307.333C758.646 299.692 767.749 295.696 776.905 295.696C782.317 295.696 786.911 297.292 790.508 300.606C794.244 303.933 796.106 308.266 796.106 313.433C796.106 323.611 790.547 333.499 780.087 343.088C769.826 352.493 756.003 360.454 738.704 367.017C738.667 367.591 738.648 368.211 738.648 368.879C738.648 376.906 740.847 383.302 745.107 388.24C749.343 393.029 754.762 395.425 761.534 395.425C766.826 395.425 771.995 393.801 777.072 390.457C782.208 386.953 787.794 381.45 793.82 373.857L795.094 372.253ZM765.776 340.216C770.407 335.466 774.131 330.377 776.962 324.951C779.797 319.517 781.127 314.777 781.127 310.688C781.127 308.088 780.528 306.511 779.684 305.588C778.871 304.699 777.525 304.088 775.258 304.088C768.429 304.088 760.9 309.544 752.782 322.024C745.557 333.189 741.051 345.139 739.246 357.888C750.696 352.491 759.511 346.587 765.776 340.216Z" fill="black"/>
<path fill-rule="evenodd" clip-rule="evenodd" d="M629.417 377.53C622.65 386.481 615.196 395.293 605.592 401.315L605.582 401.322L605.571 401.328C598.066 405.908 589.959 408.209 581.29 408.209C570.914 408.209 562.421 404.725 556.02 397.671C549.639 390.638 546.535 381.399 546.535 370.16C546.535 358.82 549.498 347.409 555.355 335.946L555.358 335.938C561.319 324.389 568.734 314.84 577.62 307.331C586.638 299.691 595.741 295.696 604.896 295.696C610.308 295.696 614.902 297.292 618.499 300.606C622.235 303.933 624.097 308.267 624.097 313.433C624.097 323.61 618.538 333.499 608.077 343.088C597.816 352.493 583.994 360.454 566.695 367.017C566.657 367.591 566.638 368.211 566.638 368.879C566.638 376.906 568.837 383.302 573.097 388.24C577.333 393.029 582.752 395.425 589.525 395.425C594.816 395.425 599.985 393.801 605.063 390.457C612.165 385.611 617.782 378.934 623.084 372.253C631.77 361.749 653.387 329.884 657.926 316.904C648.435 311.138 643.519 302.928 643.519 292.389C643.519 287.194 644.756 282.768 647.404 279.285C650.063 275.785 653.559 273.92 657.779 273.92C662.19 273.92 665.758 276.034 668.391 279.907C671.007 283.631 672.223 288.399 672.223 294.036C672.223 297.475 671.701 301.197 670.683 305.193C673.063 305.699 675.225 305.944 677.176 305.944C684.326 305.944 690.046 303.881 694.503 299.869L695.074 299.356H707.861L705.116 304.844L705.099 304.875C696.359 320.9 689.143 336.669 683.446 352.182C677.846 367.645 675.15 378.952 675.15 386.263C675.15 388.69 675.773 390.623 676.928 392.174C678.062 393.582 679.279 394.144 680.653 394.144C682.541 394.144 685.388 393.1 689.342 390.494C693.227 387.934 697.917 384.045 703.425 378.778L704.925 377.345L710.421 383.529L709.22 384.858C705.689 388.768 700.277 393.547 693.05 399.182C686.394 404.454 679.929 407.294 673.699 407.294C668.448 407.294 664.091 405.518 660.856 401.861L660.842 401.845L660.827 401.828C657.751 398.193 656.328 393.353 656.328 387.544C656.328 377.935 660.025 366.016 667.15 351.887C669.743 346.578 673.065 340.552 677.108 333.814C680.13 328.778 683.728 323.031 687.903 316.574C686.9 317.121 685.9 317.604 684.903 318.022L684.888 318.029L684.873 318.035C680.933 319.611 676.464 320.374 671.504 320.374C669.683 320.374 667.803 320.18 665.867 319.801C660.933 333.81 638.937 366.279 629.417 377.53ZM567.237 357.888C578.687 352.49 587.503 346.586 593.768 340.214C598.399 335.464 602.122 330.376 604.952 324.951C607.788 319.517 609.117 314.777 609.117 310.688C609.117 308.088 608.519 306.511 607.675 305.588C606.861 304.699 605.515 304.088 603.249 304.088C596.42 304.088 588.891 309.544 580.772 322.024C573.548 333.189 569.041 345.139 567.237 357.888ZM662.818 301.631C663.007 299.985 663.099 298.554 663.099 297.33C663.099 293.254 662.395 290.306 661.188 288.295L661.169 288.263L661.151 288.23C660.05 286.228 658.86 285.606 657.596 285.606C657.15 285.606 656.581 285.793 655.873 286.674C655.355 287.346 655.022 288.285 655.022 289.645C655.022 293.752 657.359 297.774 662.818 301.631Z" fill="black"/>
<path d="M598.102 228.773L610.25 263.158L603.263 264.996L582.921 233.147L598.102 228.773Z" fill="black"/>
<path d="M212.813 261.873L206.31 244.222L208.371 243.624C219.51 240.39 230.057 235.418 240.016 228.698C249.977 221.977 257.712 214.581 263.278 206.528L263.283 206.52L263.289 206.512C268.969 198.466 271.706 190.687 271.706 183.145C271.706 177.647 269.935 173.536 266.534 170.56L266.522 170.55L266.51 170.539C263.187 167.537 258.588 165.931 252.48 165.931C245.142 165.931 237.001 167.854 228.033 171.801C219.065 175.746 210.125 181.26 201.214 188.365C192.435 195.461 183.996 204.016 175.901 214.044C167.082 225.038 159.721 236.505 153.811 248.444C147.897 260.395 143.435 272.577 140.421 284.993L140.42 284.997C137.41 297.277 135.903 310.048 135.903 323.315C135.903 345.83 141.079 363.463 151.213 376.428C161.294 389.202 175.028 395.608 192.642 395.608C204.044 395.608 215.095 393.057 225.816 387.935L225.824 387.931C236.699 382.792 249.232 374.134 263.433 361.875L263.456 361.856L268.272 357.942L272.339 365.398L271.272 366.456C256.638 380.967 241.887 391.906 227.012 399.22C212.125 406.539 197.064 410.221 181.846 410.221C168.098 410.221 155.778 406.967 144.945 400.417L144.934 400.41L144.922 400.403C134.224 393.733 125.927 384.481 120.037 372.701L120.031 372.69L120.026 372.678C114.258 360.768 111.408 346.918 111.408 331.183C111.408 319.763 113.084 307.876 116.418 295.528C119.753 283.176 124.689 270.72 131.213 258.163L131.217 258.157C137.858 245.49 145.664 233.259 154.634 221.463C164.11 208.91 174.638 197.703 186.218 187.848C197.796 177.871 209.413 170.139 221.073 164.682L221.08 164.678C232.835 159.234 243.498 156.442 253.029 156.442C262.087 156.442 269.515 159.067 275.086 164.496C280.798 169.819 283.575 177.032 283.575 185.89C283.575 195.738 280.312 205.914 273.952 216.389L273.947 216.398C267.587 226.749 259.122 236.013 248.583 244.196L248.577 244.201L248.571 244.205C238.012 252.28 226.683 258.012 214.588 261.378L212.813 261.873Z" fill="black"/>
<path d="M305.291 367.717L324.016 293.012L301.588 302.491L288.946 368.304L288.945 368.311C287.589 375.092 286.895 380.902 286.895 385.714C286.895 392.133 288.877 397.491 292.97 401.584L292.994 401.608L293.018 401.63C297.242 405.582 302.769 407.477 309.389 407.477C321.479 407.477 333.309 400.109 344.911 386.192C345.032 391.87 346.385 396.806 349.073 400.901L349.093 400.932L349.114 400.961C352.077 405.137 355.864 407.477 360.443 407.477C363.923 407.477 367.421 405.745 370.89 402.79L370.906 402.777L370.921 402.763C374.327 399.735 379.523 394.096 386.465 385.937L389.645 382.44L383.714 377.251L382.393 378.688C378.284 383.159 374.796 386.444 371.918 388.595C368.956 390.809 366.952 391.582 365.75 391.582C364.487 391.582 363.296 390.96 362.196 388.959C361.068 386.909 360.43 384.102 360.43 380.407C360.43 374.688 361.721 366.956 364.386 357.143L364.388 357.135L381.543 292.999L358.851 302.493L347.127 367.622L347.125 367.635C347.021 368.26 346.868 369.084 346.665 370.112L346.153 370.88L346.149 370.886C334.963 387.787 324.69 395.425 315.428 395.425C311.589 395.425 308.634 394.289 306.379 392.136C304.151 390.009 302.972 387.148 302.972 383.335C302.972 379.165 303.727 373.971 305.291 367.717Z" fill="black"/>
<path d="M413.466 357.143L430.623 292.999L407.93 302.493L396.211 367.601L396.211 367.602C394.745 375.543 393.982 381.492 393.982 385.348C393.982 391.382 395.332 396.604 398.152 400.901L398.172 400.932L398.193 400.961C401.157 405.137 404.944 407.477 409.523 407.477C413.003 407.477 416.501 405.745 419.969 402.79L419.985 402.777L420.001 402.763C423.407 399.735 428.603 394.096 435.545 385.937L438.724 382.44L432.793 377.251L431.473 378.688C427.364 383.159 423.876 386.444 420.997 388.595C418.036 390.809 416.032 391.582 414.83 391.582C413.566 391.582 412.376 390.96 411.275 388.959C410.148 386.909 409.51 384.102 409.51 380.407C409.51 374.688 410.8 366.956 413.466 357.143Z" fill="black"/>
<path d="M442.045 226.197C439.662 223.814 436.562 222.684 432.945 222.684C429.389 222.684 426.311 223.915 423.846 226.38C421.397 228.828 420.149 231.838 420.149 235.297C420.149 238.692 421.502 241.687 424.029 244.214C426.556 246.741 429.55 248.093 432.945 248.093C436.405 248.093 439.414 246.845 441.862 244.397C444.327 241.931 445.559 238.854 445.559 235.297C445.559 231.68 444.429 228.581 442.045 226.197Z" fill="black"/>
</svg>
