%TF.GenerationSoftware,KiCad,Pcbnew,7.0.6*%
%TF.CreationDate,2024-02-12T15:49:00-05:00*%
%TF.ProjectId,lalettre2040-tripple-stagger-hotswap-pcb,6c616c65-7474-4726-9532-3034302d7472,rev?*%
%TF.SameCoordinates,PX1ea85bbPY7e0978f*%
%TF.FileFunction,Profile,NP*%
%FSLAX46Y46*%
G04 Gerber Fmt 4.6, Leading zero omitted, Abs format (unit mm)*
G04 Created by KiCad (PCBNEW 7.0.6) date 2024-02-12 15:49:00*
%MOMM*%
%LPD*%
G01*
G04 APERTURE LIST*
%TA.AperFunction,Profile*%
%ADD10C,0.090000*%
%TD*%
%ADD11C,0.090000*%
G04 APERTURE END LIST*
D10*
X45412223Y8554506D02*
X47246356Y23492325D01*
D11*
X6941171Y86020367D02*
X6956296Y86122203D01*
X6976340Y86222073D01*
X7001162Y86319869D01*
X7030622Y86415481D01*
X7064581Y86508800D01*
X7102897Y86599715D01*
X7145431Y86688119D01*
X7192043Y86773901D01*
X7242593Y86856952D01*
X7296941Y86937163D01*
X7354946Y87014423D01*
X7416470Y87088625D01*
X7481371Y87159658D01*
X7549510Y87227413D01*
X7620746Y87291780D01*
X7694940Y87352650D01*
X7771951Y87409915D01*
X7851640Y87463463D01*
X7933867Y87513186D01*
X8018491Y87558975D01*
X8105372Y87600720D01*
X8194371Y87638311D01*
X8285347Y87671640D01*
X8378160Y87700597D01*
X8472670Y87725072D01*
X8568738Y87744956D01*
X8666223Y87760139D01*
X8764984Y87770513D01*
X8864883Y87775968D01*
X8965779Y87776393D01*
X9067532Y87771681D01*
X9170002Y87761721D01*
D10*
X233369555Y30475849D02*
X194797222Y25739764D01*
D11*
X2205169Y31037709D02*
X2103333Y31052835D01*
X2003463Y31072879D01*
X1905667Y31097700D01*
X1810055Y31127160D01*
X1716737Y31161118D01*
X1625821Y31199434D01*
X1537417Y31241968D01*
X1451635Y31288580D01*
X1368584Y31339130D01*
X1288374Y31393478D01*
X1211113Y31451483D01*
X1136911Y31513007D01*
X1065878Y31577908D01*
X998123Y31646047D01*
X933756Y31717283D01*
X872886Y31791477D01*
X815621Y31868488D01*
X762073Y31948177D01*
X712349Y32030404D01*
X666560Y32115028D01*
X624816Y32201909D01*
X587224Y32290908D01*
X553895Y32381884D01*
X524939Y32474697D01*
X500463Y32569208D01*
X480579Y32665275D01*
X465396Y32762760D01*
X455022Y32861522D01*
X449568Y32961421D01*
X449142Y33062317D01*
X453854Y33164070D01*
X463814Y33266539D01*
D10*
X193055870Y23510931D02*
X194890000Y8573112D01*
X463814Y33266539D02*
X6941171Y86020367D01*
D11*
X128878762Y75254943D02*
X128969975Y75256035D01*
X129061121Y75259206D01*
X129152163Y75264453D01*
X129243065Y75271775D01*
X129333792Y75281168D01*
X129363990Y75284759D01*
D10*
X9170002Y87761721D02*
X110867052Y75274893D01*
D11*
X47246356Y23492325D02*
X47256315Y23594795D01*
X47261027Y23696548D01*
X47260601Y23797443D01*
X47255147Y23897342D01*
X47244773Y23996104D01*
X47229590Y24093589D01*
X47209706Y24189656D01*
X47185231Y24284167D01*
X47156274Y24376980D01*
X47122945Y24467956D01*
X47085354Y24556955D01*
X47043609Y24643836D01*
X46997820Y24728460D01*
X46948097Y24810687D01*
X46894548Y24890376D01*
X46837284Y24967388D01*
X46776414Y25041582D01*
X46712047Y25112818D01*
X46644292Y25180957D01*
X46573259Y25245858D01*
X46499058Y25307382D01*
X46421797Y25365388D01*
X46341586Y25419735D01*
X46258535Y25470285D01*
X46172754Y25516898D01*
X46084350Y25559432D01*
X45993435Y25597748D01*
X45900116Y25631706D01*
X45804504Y25661166D01*
X45706709Y25685988D01*
X45606839Y25706032D01*
X45505004Y25721157D01*
X110867052Y75274893D02*
X110958552Y75264726D01*
X111050243Y75256668D01*
X111142087Y75250723D01*
X111234048Y75246892D01*
X111326090Y75245177D01*
X111356783Y75245076D01*
X106866028Y-975715D02*
X106773876Y-974716D01*
X106681791Y-971595D01*
X106589811Y-966356D01*
X106497971Y-958999D01*
X106406309Y-949527D01*
X106375801Y-945900D01*
X47153576Y6325675D02*
X47051740Y6340801D01*
X46951870Y6360845D01*
X46854074Y6385667D01*
X46758463Y6415127D01*
X46665144Y6449085D01*
X46574228Y6487402D01*
X46485825Y6529936D01*
X46400043Y6576548D01*
X46316992Y6627098D01*
X46236782Y6681446D01*
X46159521Y6739451D01*
X46085320Y6800974D01*
X46014287Y6865875D01*
X45946532Y6934014D01*
X45882165Y7005251D01*
X45821294Y7079444D01*
X45764030Y7156456D01*
X45710482Y7236145D01*
X45660758Y7318371D01*
X45614970Y7402995D01*
X45573225Y7489877D01*
X45535633Y7578875D01*
X45502304Y7669851D01*
X45473348Y7762664D01*
X45448873Y7857175D01*
X45428989Y7953242D01*
X45413805Y8050727D01*
X45403431Y8149489D01*
X45397977Y8249388D01*
X45397551Y8350284D01*
X45402263Y8452037D01*
X45412223Y8554506D01*
D10*
X228633553Y85458510D02*
X235110907Y32704681D01*
D11*
X226404721Y87199863D02*
X226507190Y87209823D01*
X226608943Y87214535D01*
X226709839Y87214109D01*
X226809738Y87208655D01*
X226908500Y87198281D01*
X227005985Y87183098D01*
X227102053Y87163214D01*
X227196563Y87138739D01*
X227289377Y87109782D01*
X227380353Y87076453D01*
X227469352Y87038862D01*
X227556233Y86997117D01*
X227640857Y86951328D01*
X227723083Y86901605D01*
X227802773Y86848056D01*
X227879784Y86790792D01*
X227953978Y86729922D01*
X228025215Y86665554D01*
X228093353Y86597800D01*
X228158254Y86526767D01*
X228219778Y86452565D01*
X228277783Y86375305D01*
X228332131Y86295094D01*
X228382681Y86212043D01*
X228429293Y86126261D01*
X228471827Y86037858D01*
X228510143Y85946942D01*
X228544101Y85853624D01*
X228573561Y85758012D01*
X228598383Y85660216D01*
X228618427Y85560346D01*
X228633553Y85458510D01*
X133923683Y-927631D02*
X133833115Y-937705D01*
X133742361Y-945712D01*
X133651455Y-951649D01*
X133560434Y-955516D01*
X133469334Y-957308D01*
X133438956Y-957445D01*
D10*
X129363990Y75284759D02*
X226404721Y87199863D01*
X45505004Y25721157D02*
X2205169Y31037709D01*
D11*
X194797222Y25739764D02*
X194695386Y25724639D01*
X194595516Y25704595D01*
X194497720Y25679772D01*
X194402109Y25650312D01*
X194308790Y25616354D01*
X194217875Y25578037D01*
X194129471Y25535503D01*
X194043689Y25488891D01*
X193960638Y25438341D01*
X193880428Y25383993D01*
X193803167Y25325987D01*
X193728965Y25264464D01*
X193657932Y25199563D01*
X193590178Y25131424D01*
X193525810Y25060188D01*
X193464940Y24985994D01*
X193407675Y24908982D01*
X193354127Y24829293D01*
X193304404Y24747067D01*
X193258615Y24662443D01*
X193216870Y24575561D01*
X193179278Y24486563D01*
X193145950Y24395587D01*
X193116993Y24302774D01*
X193092518Y24208263D01*
X193072634Y24112196D01*
X193057451Y24014711D01*
X193047077Y23915949D01*
X193041623Y23816050D01*
X193041197Y23715154D01*
X193045910Y23613401D01*
X193055870Y23510931D01*
D10*
X133438956Y-957445D02*
X106866028Y-975715D01*
X106375801Y-945900D02*
X47153576Y6325675D01*
D11*
X194890000Y8573112D02*
X194899959Y8470643D01*
X194904672Y8368890D01*
X194904246Y8267994D01*
X194898792Y8168095D01*
X194888418Y8069333D01*
X194873235Y7971849D01*
X194853351Y7875781D01*
X194828876Y7781271D01*
X194799920Y7688457D01*
X194766591Y7597481D01*
X194729000Y7508483D01*
X194687255Y7421602D01*
X194641466Y7336978D01*
X194591743Y7254751D01*
X194538194Y7175062D01*
X194480930Y7098051D01*
X194420060Y7023857D01*
X194355693Y6952620D01*
X194287938Y6884482D01*
X194216905Y6819581D01*
X194142703Y6758057D01*
X194065443Y6700052D01*
X193985232Y6645704D01*
X193902181Y6595154D01*
X193816399Y6548542D01*
X193727996Y6506007D01*
X193637080Y6467691D01*
X193543762Y6433733D01*
X193448150Y6404273D01*
X193350354Y6379450D01*
X193250484Y6359406D01*
X193148649Y6344280D01*
X235110907Y32704681D02*
X235120866Y32602212D01*
X235125578Y32500459D01*
X235125152Y32399563D01*
X235119698Y32299665D01*
X235109324Y32200903D01*
X235094141Y32103418D01*
X235074257Y32007351D01*
X235049782Y31912841D01*
X235020825Y31820027D01*
X234987496Y31729052D01*
X234949905Y31640053D01*
X234908160Y31553172D01*
X234862371Y31468548D01*
X234812648Y31386321D01*
X234759099Y31306632D01*
X234701835Y31229621D01*
X234640965Y31155427D01*
X234576598Y31084190D01*
X234508843Y31016052D01*
X234437810Y30951151D01*
X234363609Y30889627D01*
X234286348Y30831621D01*
X234206137Y30777274D01*
X234123086Y30726724D01*
X234037305Y30680111D01*
X233948901Y30637577D01*
X233857986Y30599261D01*
X233764667Y30565302D01*
X233669055Y30535842D01*
X233571260Y30511020D01*
X233471390Y30490976D01*
X233369555Y30475849D01*
D10*
X193148649Y6344280D02*
X133923683Y-927631D01*
X111356783Y75245076D02*
X128878762Y75254943D01*
M02*
