M48
; DRILL file {KiCad 7.0.6} date Mon Feb 12 15:49:08 2024
; FORMAT={-:-/ absolute / metric / decimal}
; #@! TF.CreationDate,2024-02-12T15:49:08-05:00
; #@! TF.GenerationSoftware,Kicad,Pcbnew,7.0.6
; #@! TF.FileFunction,NonPlated,1,2,NPTH
FMAT,2
METRIC
; #@! TA.AperFunction,NonPlated,NPTH,ComponentDrill
T1C1.750
; #@! TA.AperFunction,NonPlated,NPTH,ComponentDrill
T2C3.000
; #@! TA.AperFunction,NonPlated,NPTH,ComponentDrill
T3C3.048
; #@! TA.AperFunction,NonPlated,NPTH,ComponentDrill
T4C3.988
%
G90
G05
T1
X8.114Y59.102
X10.436Y78.01
X10.478Y58.812
X10.52Y39.613
X12.883Y39.323
X18.199Y57.864
X20.52Y76.772
X20.562Y57.573
X20.604Y38.375
X22.968Y38.085
X27.022Y56.78
X29.344Y75.688
X31.749Y56.2
X34.155Y36.711
X37.107Y55.542
X38.882Y36.131
X39.428Y74.45
X41.834Y54.962
X44.239Y35.473
X45.93Y54.458
X48.252Y73.366
X48.966Y34.893
X50.657Y53.878
X53.063Y34.39
X53.105Y15.191
X56.015Y53.22
X57.79Y33.809
X58.336Y72.128
X60.742Y52.64
X63.147Y33.151
X63.189Y13.953
X64.838Y52.137
X67.16Y71.045
X67.874Y32.571
X69.565Y51.556
X71.971Y32.068
X74.923Y50.899
X76.698Y31.488
X77.244Y69.807
X79.65Y50.318
X82.055Y30.83
X83.83Y11.419
X86.068Y68.723
X86.11Y49.525
X86.782Y30.249
X88.473Y49.235
X93.242Y29.456
X93.914Y10.181
X95.606Y29.166
X96.152Y67.485
X96.194Y48.287
X98.558Y47.997
X103.327Y28.218
X105.69Y27.928
X134.606Y27.992
X134.69Y66.389
X137.053Y66.679
X141.696Y28.863
X141.738Y48.061
X144.69Y29.231
X144.774Y67.627
X146.382Y10.245
X147.138Y67.917
X151.781Y30.101
X151.823Y49.299
X153.514Y30.314
X153.598Y68.71
X156.466Y11.483
X158.325Y69.291
X160.646Y50.383
X163.598Y31.552
X163.682Y69.949
X167.695Y32.055
X168.409Y70.529
X170.731Y51.621
X172.422Y32.636
X172.506Y71.032
X177.107Y14.018
X177.233Y71.612
X177.779Y33.293
X179.554Y52.704
X182.506Y33.874
X182.59Y72.27
X186.603Y34.377
X187.191Y15.256
X187.317Y72.851
X189.639Y53.943
X191.33Y34.957
X191.414Y73.354
X196.141Y73.934
X196.687Y35.615
X198.462Y55.026
X201.414Y36.195
X201.498Y74.592
X206.225Y75.172
X208.547Y56.264
X212.601Y37.569
X212.685Y75.966
X214.965Y37.859
X215.049Y76.256
X217.37Y57.348
X222.686Y38.807
X222.77Y77.204
X225.049Y39.097
X225.133Y77.494
X227.455Y58.586
T2
X9.684Y61.468
X12.006Y80.376
X12.09Y41.98
X12.38Y53.46
X14.785Y33.971
X16.297Y63.215
X18.618Y82.123
X18.702Y43.727
X18.992Y55.207
X21.397Y35.719
X28.592Y59.146
X30.914Y78.054
X33.651Y50.848
X35.205Y60.894
X35.725Y39.078
X37.526Y79.802
X40.264Y52.595
X40.784Y30.779
X42.337Y40.825
X47.396Y32.526
X47.5Y56.825
X49.822Y75.733
X52.559Y48.526
X54.113Y58.572
X54.633Y36.756
X54.675Y17.558
X56.434Y77.48
X59.172Y50.274
X59.692Y28.458
X61.245Y38.503
X61.287Y19.305
X66.304Y30.205
X66.408Y54.503
X68.73Y73.411
X71.467Y46.205
X73.021Y56.25
X73.541Y34.434
X75.342Y75.158
X78.08Y47.952
X78.6Y26.136
X80.153Y36.182
X85.212Y27.883
X85.4Y13.785
X87.638Y71.09
X87.68Y51.891
X90.375Y43.883
X92.012Y15.532
X94.25Y72.837
X94.292Y53.639
X94.812Y31.823
X96.988Y45.63
X97.508Y23.814
X101.425Y33.57
X104.12Y25.562
X135.557Y30.668
X135.641Y69.065
X140.193Y61.946
X141.55Y33.963
X141.634Y72.36
X142.689Y50.737
X144.837Y24.13
X146.187Y65.241
X147.333Y12.921
X148.683Y54.032
X150.83Y27.425
X153.326Y16.216
X154.465Y32.99
X154.549Y71.386
X160.458Y36.285
X160.542Y74.681
X161.465Y64.558
X161.597Y53.059
X167.458Y67.853
X167.591Y56.354
X168.646Y34.731
X173.457Y73.708
X174.639Y38.026
X175.562Y27.903
X178.058Y16.694
X179.45Y77.003
X180.373Y66.88
X180.505Y55.38
X181.555Y31.198
X184.051Y19.989
X186.366Y70.175
X186.499Y58.675
X187.554Y37.053
X192.365Y76.03
X193.547Y40.348
X194.47Y30.225
X198.358Y79.324
X199.281Y69.202
X199.413Y57.702
X200.463Y33.52
X205.274Y72.496
X205.407Y60.997
X213.552Y40.245
X213.636Y78.641
X218.105Y33.127
X218.189Y71.523
X218.321Y60.024
X219.546Y43.54
X219.629Y81.936
X224.098Y36.422
X224.182Y74.818
X224.315Y63.318
T3
X76.172Y5.322
X99.87Y2.412
X140.426Y2.477
X164.124Y5.386
T4
X13.157Y58.483
X15.478Y77.391
X15.52Y58.192
X15.562Y38.994
X17.925Y38.704
X32.065Y56.161
X34.386Y75.069
X36.792Y55.581
X39.197Y36.092
X43.924Y35.512
X50.973Y53.839
X53.294Y72.747
X55.7Y53.259
X58.105Y33.771
X58.147Y14.572
X62.832Y33.19
X69.881Y51.518
X72.202Y70.426
X74.608Y50.937
X77.013Y31.449
X78.029Y20.448
X81.74Y30.869
X88.872Y10.8
X91.11Y68.104
X91.152Y48.906
X93.516Y48.616
X98.284Y28.837
X100.648Y28.547
X101.727Y17.538
X138.569Y17.603
X139.648Y28.612
X139.732Y67.008
X142.095Y67.298
X146.739Y29.482
X146.781Y48.68
X151.424Y10.864
X158.556Y30.933
X158.64Y69.33
X162.267Y20.513
X163.367Y69.91
X165.689Y51.002
X172.737Y32.674
X177.464Y33.255
X177.548Y71.651
X182.149Y14.637
X182.275Y72.232
X184.597Y53.324
X191.645Y34.996
X196.372Y35.576
X196.456Y73.973
X201.183Y74.553
X203.505Y55.645
X217.644Y38.188
X217.727Y76.585
X220.007Y38.478
X220.091Y76.875
X222.413Y57.967
T0
M30
