%TF.GenerationSoftware,KiCad,Pcbnew,7.0.6*%
%TF.CreationDate,2024-02-12T15:49:00-05:00*%
%TF.ProjectId,lalettre2040-tripple-stagger-hotswap-pcb,6c616c65-7474-4726-9532-3034302d7472,rev?*%
%TF.SameCoordinates,PX1ea85bbPY7e0978f*%
%TF.FileFunction,AssemblyDrawing,Top*%
%FSLAX46Y46*%
G04 Gerber Fmt 4.6, Leading zero omitted, Abs format (unit mm)*
G04 Created by KiCad (PCBNEW 7.0.6) date 2024-02-12 15:49:00*
%MOMM*%
%LPD*%
G01*
G04 APERTURE LIST*
%ADD10C,0.150000*%
%ADD11C,0.100000*%
G04 APERTURE END LIST*
D10*
X113223150Y1855063D02*
X113270769Y1997920D01*
X113270769Y1997920D02*
X113270769Y2236015D01*
X113270769Y2236015D02*
X113223150Y2331253D01*
X113223150Y2331253D02*
X113175530Y2378872D01*
X113175530Y2378872D02*
X113080292Y2426491D01*
X113080292Y2426491D02*
X112985054Y2426491D01*
X112985054Y2426491D02*
X112889816Y2378872D01*
X112889816Y2378872D02*
X112842197Y2331253D01*
X112842197Y2331253D02*
X112794578Y2236015D01*
X112794578Y2236015D02*
X112746959Y2045539D01*
X112746959Y2045539D02*
X112699340Y1950301D01*
X112699340Y1950301D02*
X112651721Y1902682D01*
X112651721Y1902682D02*
X112556483Y1855063D01*
X112556483Y1855063D02*
X112461245Y1855063D01*
X112461245Y1855063D02*
X112366007Y1902682D01*
X112366007Y1902682D02*
X112318388Y1950301D01*
X112318388Y1950301D02*
X112270769Y2045539D01*
X112270769Y2045539D02*
X112270769Y2283634D01*
X112270769Y2283634D02*
X112318388Y2426491D01*
X112270769Y2759825D02*
X113270769Y2997920D01*
X113270769Y2997920D02*
X112556483Y3188396D01*
X112556483Y3188396D02*
X113270769Y3378872D01*
X113270769Y3378872D02*
X112270769Y3616967D01*
X113270769Y3997920D02*
X112270769Y3997920D01*
X112270769Y3997920D02*
X112270769Y4236015D01*
X112270769Y4236015D02*
X112318388Y4378872D01*
X112318388Y4378872D02*
X112413626Y4474110D01*
X112413626Y4474110D02*
X112508864Y4521729D01*
X112508864Y4521729D02*
X112699340Y4569348D01*
X112699340Y4569348D02*
X112842197Y4569348D01*
X112842197Y4569348D02*
X113032673Y4521729D01*
X113032673Y4521729D02*
X113127911Y4474110D01*
X113127911Y4474110D02*
X113223150Y4378872D01*
X113223150Y4378872D02*
X113270769Y4236015D01*
X113270769Y4236015D02*
X113270769Y3997920D01*
X119892616Y3757386D02*
X119892616Y3043101D01*
X119892616Y3043101D02*
X119844997Y2900244D01*
X119844997Y2900244D02*
X119749759Y2805005D01*
X119749759Y2805005D02*
X119606902Y2757386D01*
X119606902Y2757386D02*
X119511664Y2757386D01*
X120321188Y3662148D02*
X120368807Y3709767D01*
X120368807Y3709767D02*
X120464045Y3757386D01*
X120464045Y3757386D02*
X120702140Y3757386D01*
X120702140Y3757386D02*
X120797378Y3709767D01*
X120797378Y3709767D02*
X120844997Y3662148D01*
X120844997Y3662148D02*
X120892616Y3566910D01*
X120892616Y3566910D02*
X120892616Y3471672D01*
X120892616Y3471672D02*
X120844997Y3328815D01*
X120844997Y3328815D02*
X120273569Y2757386D01*
X120273569Y2757386D02*
X120892616Y2757386D01*
D11*
%TO.C,J2*%
X113875950Y1942205D02*
X113875950Y4482205D01*
X126575950Y1942205D02*
X113875950Y1942205D01*
X126575950Y3847205D02*
X126575950Y1942205D01*
X113875950Y4482205D02*
X125940950Y4482205D01*
X125940950Y4482205D02*
X126575950Y3847205D01*
%TD*%
%TO.C,MX51*%
X178654305Y33293453D02*
G75*
G03*
X178654305Y33293453I-875000J0D01*
G01*
X176139142Y38026040D02*
G75*
G03*
X176139142Y38026040I-1500000J0D01*
G01*
X174731071Y32674357D02*
G75*
G03*
X174731071Y32674357I-1993900J0D01*
G01*
X170146022Y34731102D02*
G75*
G03*
X170146022Y34731102I-1500000J0D01*
G01*
X168570037Y32055261D02*
G75*
G03*
X168570037Y32055261I-875000J0D01*
G01*
%TD*%
%TO.C,MX27*%
X164473301Y31552246D02*
G75*
G03*
X164473301Y31552246I-875000J0D01*
G01*
X161958138Y36284833D02*
G75*
G03*
X161958138Y36284833I-1500000J0D01*
G01*
X160550067Y30933150D02*
G75*
G03*
X160550067Y30933150I-1993900J0D01*
G01*
X155965018Y32989895D02*
G75*
G03*
X155965018Y32989895I-1500000J0D01*
G01*
X154389033Y30314054D02*
G75*
G03*
X154389033Y30314054I-875000J0D01*
G01*
%TD*%
%TO.C,MX50*%
X142571462Y28863054D02*
G75*
G03*
X142571462Y28863054I-875000J0D01*
G01*
X146336625Y24130467D02*
G75*
G03*
X146336625Y24130467I-1500000J0D01*
G01*
X148732496Y29482150D02*
G75*
G03*
X148732496Y29482150I-1993900J0D01*
G01*
X152329745Y27425405D02*
G75*
G03*
X152329745Y27425405I-1500000J0D01*
G01*
X152655730Y30101246D02*
G75*
G03*
X152655730Y30101246I-875000J0D01*
G01*
%TD*%
X115145950Y4062205D02*
X115145950Y4062205D01*
X115145950Y4062205D02*
G75*
G03*
X115145950Y2362205I0J-850000D01*
G01*
X115145950Y2362205D02*
X115145950Y2362205D01*
X115145950Y2362205D02*
G75*
G03*
X115145950Y4062205I0J850000D01*
G01*
X117685950Y4062205D02*
X117685950Y4062205D01*
X117685950Y4062205D02*
G75*
G03*
X117685950Y2362205I0J-850000D01*
G01*
X117685950Y2362205D02*
X117685950Y2362205D01*
X117685950Y2362205D02*
G75*
G03*
X117685950Y4062205I0J850000D01*
G01*
X120225950Y4062205D02*
X120225950Y4062205D01*
X120225950Y4062205D02*
G75*
G03*
X120225950Y2362205I0J-850000D01*
G01*
X120225950Y2362205D02*
X120225950Y2362205D01*
X120225950Y2362205D02*
G75*
G03*
X120225950Y4062205I0J850000D01*
G01*
X122765950Y4062205D02*
X122765950Y4062205D01*
X122765950Y4062205D02*
G75*
G03*
X122765950Y2362205I0J-850000D01*
G01*
X122765950Y2362205D02*
X122765950Y2362205D01*
X122765950Y2362205D02*
G75*
G03*
X122765950Y4062205I0J850000D01*
G01*
%TO.C,J2*%
X124455950Y4062205D02*
X124455950Y2362205D01*
X126155950Y2362205D01*
X126155950Y4062205D01*
X124455950Y4062205D01*
%TD*%
%TO.C,MX44*%
X97069167Y48286879D02*
G75*
G03*
X97069167Y48286879I-875000J0D01*
G01*
X95792196Y53638561D02*
G75*
G03*
X95792196Y53638561I-1500000J0D01*
G01*
X93145933Y48905975D02*
G75*
G03*
X93145933Y48905975I-1993900J0D01*
G01*
X89179980Y51891364D02*
G75*
G03*
X89179980Y51891364I-1500000J0D01*
G01*
X86984899Y49525071D02*
G75*
G03*
X86984899Y49525071I-875000J0D01*
G01*
%TD*%
%TO.C,MX41*%
X32624387Y56199702D02*
G75*
G03*
X32624387Y56199702I-875000J0D01*
G01*
X35151358Y50848020D02*
G75*
G03*
X35151358Y50848020I-1500000J0D01*
G01*
X38785421Y55580606D02*
G75*
G03*
X38785421Y55580606I-1993900J0D01*
G01*
X41763574Y52595217D02*
G75*
G03*
X41763574Y52595217I-1500000J0D01*
G01*
X42708655Y54961510D02*
G75*
G03*
X42708655Y54961510I-875000J0D01*
G01*
%TD*%
%TO.C,MX14*%
X75797661Y50898691D02*
G75*
G03*
X75797661Y50898691I-875000J0D01*
G01*
X74520690Y56250373D02*
G75*
G03*
X74520690Y56250373I-1500000J0D01*
G01*
X71874427Y51517787D02*
G75*
G03*
X71874427Y51517787I-1993900J0D01*
G01*
X67908474Y54503176D02*
G75*
G03*
X67908474Y54503176I-1500000J0D01*
G01*
X65713393Y52136883D02*
G75*
G03*
X65713393Y52136883I-875000J0D01*
G01*
%TD*%
%TO.C,MX28*%
X173297038Y32635664D02*
G75*
G03*
X173297038Y32635664I-875000J0D01*
G01*
X177062201Y27903077D02*
G75*
G03*
X177062201Y27903077I-1500000J0D01*
G01*
X179458072Y33254760D02*
G75*
G03*
X179458072Y33254760I-1993900J0D01*
G01*
X183055321Y31198015D02*
G75*
G03*
X183055321Y31198015I-1500000J0D01*
G01*
X183381306Y33873856D02*
G75*
G03*
X183381306Y33873856I-875000J0D01*
G01*
%TD*%
%TO.C,MX17*%
X171605693Y51621055D02*
G75*
G03*
X171605693Y51621055I-875000J0D01*
G01*
X169090530Y56353642D02*
G75*
G03*
X169090530Y56353642I-1500000J0D01*
G01*
X167682459Y51001959D02*
G75*
G03*
X167682459Y51001959I-1993900J0D01*
G01*
X163097410Y53058704D02*
G75*
G03*
X163097410Y53058704I-1500000J0D01*
G01*
X161521425Y50382863D02*
G75*
G03*
X161521425Y50382863I-875000J0D01*
G01*
%TD*%
%TO.C,MX22*%
X45114046Y35473102D02*
G75*
G03*
X45114046Y35473102I-875000J0D01*
G01*
X43837075Y40824784D02*
G75*
G03*
X43837075Y40824784I-1500000J0D01*
G01*
X41190812Y36092198D02*
G75*
G03*
X41190812Y36092198I-1993900J0D01*
G01*
X37224859Y39077587D02*
G75*
G03*
X37224859Y39077587I-1500000J0D01*
G01*
X35029778Y36711294D02*
G75*
G03*
X35029778Y36711294I-875000J0D01*
G01*
%TD*%
%TO.C,MX9*%
X202373089Y74591879D02*
G75*
G03*
X202373089Y74591879I-875000J0D01*
G01*
X199857926Y79324466D02*
G75*
G03*
X199857926Y79324466I-1500000J0D01*
G01*
X198449855Y73972783D02*
G75*
G03*
X198449855Y73972783I-1993900J0D01*
G01*
X193864806Y76029528D02*
G75*
G03*
X193864806Y76029528I-1500000J0D01*
G01*
X192288821Y73353687D02*
G75*
G03*
X192288821Y73353687I-875000J0D01*
G01*
%TD*%
%TO.C,MX6*%
X145649009Y67627053D02*
G75*
G03*
X145649009Y67627053I-875000J0D01*
G01*
X143133846Y72359640D02*
G75*
G03*
X143133846Y72359640I-1500000J0D01*
G01*
X141725775Y67007957D02*
G75*
G03*
X141725775Y67007957I-1993900J0D01*
G01*
X137140726Y69064702D02*
G75*
G03*
X137140726Y69064702I-1500000J0D01*
G01*
X135564741Y66388861D02*
G75*
G03*
X135564741Y66388861I-875000J0D01*
G01*
%TD*%
%TO.C,MX47*%
X58664783Y33809282D02*
G75*
G03*
X58664783Y33809282I-875000J0D01*
G01*
X61191754Y28457600D02*
G75*
G03*
X61191754Y28457600I-1500000J0D01*
G01*
X64825817Y33190186D02*
G75*
G03*
X64825817Y33190186I-1993900J0D01*
G01*
X67803970Y30204797D02*
G75*
G03*
X67803970Y30204797I-1500000J0D01*
G01*
X68749051Y32571090D02*
G75*
G03*
X68749051Y32571090I-875000J0D01*
G01*
%TD*%
%TO.C,MX53*%
X215839980Y37859296D02*
G75*
G03*
X215839980Y37859296I-875000J0D01*
G01*
X219605143Y33126709D02*
G75*
G03*
X219605143Y33126709I-1500000J0D01*
G01*
X222001014Y38478392D02*
G75*
G03*
X222001014Y38478392I-1993900J0D01*
G01*
X225598263Y36421647D02*
G75*
G03*
X225598263Y36421647I-1500000J0D01*
G01*
X225924248Y39097488D02*
G75*
G03*
X225924248Y39097488I-875000J0D01*
G01*
%TD*%
%TO.C,MX8*%
X183465086Y72270267D02*
G75*
G03*
X183465086Y72270267I-875000J0D01*
G01*
X180949923Y77002854D02*
G75*
G03*
X180949923Y77002854I-1500000J0D01*
G01*
X179541852Y71651171D02*
G75*
G03*
X179541852Y71651171I-1993900J0D01*
G01*
X174956803Y73707916D02*
G75*
G03*
X174956803Y73707916I-1500000J0D01*
G01*
X173380818Y71032075D02*
G75*
G03*
X173380818Y71032075I-875000J0D01*
G01*
%TD*%
%TO.C,MX48*%
X77572785Y31487671D02*
G75*
G03*
X77572785Y31487671I-875000J0D01*
G01*
X80099756Y26135989D02*
G75*
G03*
X80099756Y26135989I-1500000J0D01*
G01*
X83733819Y30868575D02*
G75*
G03*
X83733819Y30868575I-1993900J0D01*
G01*
X86711972Y27883186D02*
G75*
G03*
X86711972Y27883186I-1500000J0D01*
G01*
X87657053Y30249479D02*
G75*
G03*
X87657053Y30249479I-875000J0D01*
G01*
%TD*%
%TO.C,MX38*%
X197015822Y73934089D02*
G75*
G03*
X197015822Y73934089I-875000J0D01*
G01*
X200780985Y69201502D02*
G75*
G03*
X200780985Y69201502I-1500000J0D01*
G01*
X203176856Y74553185D02*
G75*
G03*
X203176856Y74553185I-1993900J0D01*
G01*
X206774105Y72496440D02*
G75*
G03*
X206774105Y72496440I-1500000J0D01*
G01*
X207100090Y75172281D02*
G75*
G03*
X207100090Y75172281I-875000J0D01*
G01*
%TD*%
%TO.C,MX15*%
X89348400Y49234869D02*
G75*
G03*
X89348400Y49234869I-875000J0D01*
G01*
X91875371Y43883187D02*
G75*
G03*
X91875371Y43883187I-1500000J0D01*
G01*
X95509434Y48615773D02*
G75*
G03*
X95509434Y48615773I-1993900J0D01*
G01*
X98487587Y45630384D02*
G75*
G03*
X98487587Y45630384I-1500000J0D01*
G01*
X99432668Y47996677D02*
G75*
G03*
X99432668Y47996677I-875000J0D01*
G01*
%TD*%
%TO.C,MX25*%
X104201557Y28218069D02*
G75*
G03*
X104201557Y28218069I-875000J0D01*
G01*
X102924586Y33569751D02*
G75*
G03*
X102924586Y33569751I-1500000J0D01*
G01*
X100278323Y28837165D02*
G75*
G03*
X100278323Y28837165I-1993900J0D01*
G01*
X96312370Y31822554D02*
G75*
G03*
X96312370Y31822554I-1500000J0D01*
G01*
X94117289Y29456261D02*
G75*
G03*
X94117289Y29456261I-875000J0D01*
G01*
%TD*%
%TO.C,MX10*%
X223644525Y77203698D02*
G75*
G03*
X223644525Y77203698I-875000J0D01*
G01*
X221129362Y81936285D02*
G75*
G03*
X221129362Y81936285I-1500000J0D01*
G01*
X219721291Y76584602D02*
G75*
G03*
X219721291Y76584602I-1993900J0D01*
G01*
X215136242Y78641347D02*
G75*
G03*
X215136242Y78641347I-1500000J0D01*
G01*
X213560257Y75965506D02*
G75*
G03*
X213560257Y75965506I-875000J0D01*
G01*
%TD*%
%TO.C,MX42*%
X51532390Y53878092D02*
G75*
G03*
X51532390Y53878092I-875000J0D01*
G01*
X54059361Y48526410D02*
G75*
G03*
X54059361Y48526410I-1500000J0D01*
G01*
X57693424Y53258996D02*
G75*
G03*
X57693424Y53258996I-1993900J0D01*
G01*
X60671577Y50273607D02*
G75*
G03*
X60671577Y50273607I-1500000J0D01*
G01*
X61616658Y52639900D02*
G75*
G03*
X61616658Y52639900I-875000J0D01*
G01*
%TD*%
%TO.C,MX19*%
X209421702Y56264277D02*
G75*
G03*
X209421702Y56264277I-875000J0D01*
G01*
X206906539Y60996864D02*
G75*
G03*
X206906539Y60996864I-1500000J0D01*
G01*
X205498468Y55645181D02*
G75*
G03*
X205498468Y55645181I-1993900J0D01*
G01*
X200913419Y57701926D02*
G75*
G03*
X200913419Y57701926I-1500000J0D01*
G01*
X199337434Y55026085D02*
G75*
G03*
X199337434Y55026085I-875000J0D01*
G01*
%TD*%
%TO.C,MX40*%
X11352881Y58811514D02*
G75*
G03*
X11352881Y58811514I-875000J0D01*
G01*
X13879852Y53459832D02*
G75*
G03*
X13879852Y53459832I-1500000J0D01*
G01*
X17513915Y58192418D02*
G75*
G03*
X17513915Y58192418I-1993900J0D01*
G01*
X20492068Y55207029D02*
G75*
G03*
X20492068Y55207029I-1500000J0D01*
G01*
X21437149Y57573322D02*
G75*
G03*
X21437149Y57573322I-875000J0D01*
G01*
%TD*%
%TO.C,MX30*%
X223560746Y38807288D02*
G75*
G03*
X223560746Y38807288I-875000J0D01*
G01*
X221045583Y43539875D02*
G75*
G03*
X221045583Y43539875I-1500000J0D01*
G01*
X219637512Y38188192D02*
G75*
G03*
X219637512Y38188192I-1993900J0D01*
G01*
X215052463Y40244937D02*
G75*
G03*
X215052463Y40244937I-1500000J0D01*
G01*
X213476478Y37569096D02*
G75*
G03*
X213476478Y37569096I-875000J0D01*
G01*
%TD*%
%TO.C,MX33*%
X165647982Y5386289D02*
G75*
G03*
X165647982Y5386289I-1524000J0D01*
G01*
X164260594Y20512693D02*
G75*
G03*
X164260594Y20512693I-1993900J0D01*
G01*
X157340843Y11483444D02*
G75*
G03*
X157340843Y11483444I-875000J0D01*
G01*
X154825680Y16216031D02*
G75*
G03*
X154825680Y16216031I-1500000J0D01*
G01*
X153417609Y10864348D02*
G75*
G03*
X153417609Y10864348I-1993900J0D01*
G01*
X148832560Y12921093D02*
G75*
G03*
X148832560Y12921093I-1500000J0D01*
G01*
X147256575Y10245252D02*
G75*
G03*
X147256575Y10245252I-875000J0D01*
G01*
X141949950Y2476537D02*
G75*
G03*
X141949950Y2476537I-1524000J0D01*
G01*
X140562562Y17602940D02*
G75*
G03*
X140562562Y17602940I-1993900J0D01*
G01*
%TD*%
%TO.C,MX31*%
X64063938Y13953286D02*
G75*
G03*
X64063938Y13953286I-875000J0D01*
G01*
X62786967Y19304968D02*
G75*
G03*
X62786967Y19304968I-1500000J0D01*
G01*
X60140704Y14572382D02*
G75*
G03*
X60140704Y14572382I-1993900J0D01*
G01*
X56174751Y17557771D02*
G75*
G03*
X56174751Y17557771I-1500000J0D01*
G01*
X53979670Y15191478D02*
G75*
G03*
X53979670Y15191478I-875000J0D01*
G01*
%TD*%
%TO.C,MX45*%
X13758271Y39323107D02*
G75*
G03*
X13758271Y39323107I-875000J0D01*
G01*
X16285242Y33971425D02*
G75*
G03*
X16285242Y33971425I-1500000J0D01*
G01*
X19919305Y38704011D02*
G75*
G03*
X19919305Y38704011I-1993900J0D01*
G01*
X22897458Y35718622D02*
G75*
G03*
X22897458Y35718622I-1500000J0D01*
G01*
X23842539Y38084915D02*
G75*
G03*
X23842539Y38084915I-875000J0D01*
G01*
%TD*%
%TO.C,MX46*%
X39756777Y36130892D02*
G75*
G03*
X39756777Y36130892I-875000J0D01*
G01*
X42283748Y30779210D02*
G75*
G03*
X42283748Y30779210I-1500000J0D01*
G01*
X45917811Y35511796D02*
G75*
G03*
X45917811Y35511796I-1993900J0D01*
G01*
X48895964Y32526407D02*
G75*
G03*
X48895964Y32526407I-1500000J0D01*
G01*
X49841045Y34892700D02*
G75*
G03*
X49841045Y34892700I-875000J0D01*
G01*
%TD*%
%TO.C,MX23*%
X64022048Y33151491D02*
G75*
G03*
X64022048Y33151491I-875000J0D01*
G01*
X62745077Y38503173D02*
G75*
G03*
X62745077Y38503173I-1500000J0D01*
G01*
X60098814Y33770587D02*
G75*
G03*
X60098814Y33770587I-1993900J0D01*
G01*
X56132861Y36755976D02*
G75*
G03*
X56132861Y36755976I-1500000J0D01*
G01*
X53937780Y34389683D02*
G75*
G03*
X53937780Y34389683I-875000J0D01*
G01*
%TD*%
%TO.C,MX29*%
X192205043Y34957277D02*
G75*
G03*
X192205043Y34957277I-875000J0D01*
G01*
X195970206Y30224690D02*
G75*
G03*
X195970206Y30224690I-1500000J0D01*
G01*
X198366077Y35576373D02*
G75*
G03*
X198366077Y35576373I-1993900J0D01*
G01*
X201963326Y33519628D02*
G75*
G03*
X201963326Y33519628I-1500000J0D01*
G01*
X202289311Y36195469D02*
G75*
G03*
X202289311Y36195469I-875000J0D01*
G01*
%TD*%
%TO.C,MX32*%
X101394071Y2411954D02*
G75*
G03*
X101394071Y2411954I-1524000J0D01*
G01*
X103721259Y17538357D02*
G75*
G03*
X103721259Y17538357I-1993900J0D01*
G01*
X94789446Y10180669D02*
G75*
G03*
X94789446Y10180669I-875000J0D01*
G01*
X93512475Y15532351D02*
G75*
G03*
X93512475Y15532351I-1500000J0D01*
G01*
X90866212Y10799765D02*
G75*
G03*
X90866212Y10799765I-1993900J0D01*
G01*
X86900259Y13785154D02*
G75*
G03*
X86900259Y13785154I-1500000J0D01*
G01*
X84705178Y11418861D02*
G75*
G03*
X84705178Y11418861I-875000J0D01*
G01*
X77696039Y5321706D02*
G75*
G03*
X77696039Y5321706I-1524000J0D01*
G01*
X80023227Y20448110D02*
G75*
G03*
X80023227Y20448110I-1993900J0D01*
G01*
%TD*%
%TO.C,MX36*%
X159199812Y69290868D02*
G75*
G03*
X159199812Y69290868I-875000J0D01*
G01*
X162964975Y64558281D02*
G75*
G03*
X162964975Y64558281I-1500000J0D01*
G01*
X165360846Y69909964D02*
G75*
G03*
X165360846Y69909964I-1993900J0D01*
G01*
X168958095Y67853219D02*
G75*
G03*
X168958095Y67853219I-1500000J0D01*
G01*
X169284080Y70529060D02*
G75*
G03*
X169284080Y70529060I-875000J0D01*
G01*
%TD*%
%TO.C,MX2*%
X40303264Y74449917D02*
G75*
G03*
X40303264Y74449917I-875000J0D01*
G01*
X39026293Y79801599D02*
G75*
G03*
X39026293Y79801599I-1500000J0D01*
G01*
X36380030Y75069013D02*
G75*
G03*
X36380030Y75069013I-1993900J0D01*
G01*
X32414077Y78054402D02*
G75*
G03*
X32414077Y78054402I-1500000J0D01*
G01*
X30218996Y75688109D02*
G75*
G03*
X30218996Y75688109I-875000J0D01*
G01*
%TD*%
%TO.C,MX52*%
X197562310Y35615065D02*
G75*
G03*
X197562310Y35615065I-875000J0D01*
G01*
X195047147Y40347652D02*
G75*
G03*
X195047147Y40347652I-1500000J0D01*
G01*
X193639076Y34995969D02*
G75*
G03*
X193639076Y34995969I-1993900J0D01*
G01*
X189054027Y37052714D02*
G75*
G03*
X189054027Y37052714I-1500000J0D01*
G01*
X187478042Y34376873D02*
G75*
G03*
X187478042Y34376873I-875000J0D01*
G01*
%TD*%
%TO.C,MX39*%
X215923825Y76255700D02*
G75*
G03*
X215923825Y76255700I-875000J0D01*
G01*
X219688988Y71523113D02*
G75*
G03*
X219688988Y71523113I-1500000J0D01*
G01*
X222084859Y76874796D02*
G75*
G03*
X222084859Y76874796I-1993900J0D01*
G01*
X225682108Y74818051D02*
G75*
G03*
X225682108Y74818051I-1500000J0D01*
G01*
X226008093Y77493892D02*
G75*
G03*
X226008093Y77493892I-875000J0D01*
G01*
%TD*%
%TO.C,MX20*%
X228329704Y58585887D02*
G75*
G03*
X228329704Y58585887I-875000J0D01*
G01*
X225814541Y63318474D02*
G75*
G03*
X225814541Y63318474I-1500000J0D01*
G01*
X224406470Y57966791D02*
G75*
G03*
X224406470Y57966791I-1993900J0D01*
G01*
X219821421Y60023536D02*
G75*
G03*
X219821421Y60023536I-1500000J0D01*
G01*
X218245436Y57347695D02*
G75*
G03*
X218245436Y57347695I-875000J0D01*
G01*
%TD*%
%TO.C,MX43*%
X70440394Y51556481D02*
G75*
G03*
X70440394Y51556481I-875000J0D01*
G01*
X72967365Y46204799D02*
G75*
G03*
X72967365Y46204799I-1500000J0D01*
G01*
X76601428Y50937385D02*
G75*
G03*
X76601428Y50937385I-1993900J0D01*
G01*
X79579581Y47951996D02*
G75*
G03*
X79579581Y47951996I-1500000J0D01*
G01*
X80524662Y50318289D02*
G75*
G03*
X80524662Y50318289I-875000J0D01*
G01*
%TD*%
%TO.C,MX21*%
X21479039Y38375117D02*
G75*
G03*
X21479039Y38375117I-875000J0D01*
G01*
X20202068Y43726799D02*
G75*
G03*
X20202068Y43726799I-1500000J0D01*
G01*
X17555805Y38994213D02*
G75*
G03*
X17555805Y38994213I-1993900J0D01*
G01*
X13589852Y41979602D02*
G75*
G03*
X13589852Y41979602I-1500000J0D01*
G01*
X11394771Y39613309D02*
G75*
G03*
X11394771Y39613309I-875000J0D01*
G01*
%TD*%
%TO.C,MX34*%
X188066350Y15256062D02*
G75*
G03*
X188066350Y15256062I-875000J0D01*
G01*
X185551187Y19988649D02*
G75*
G03*
X185551187Y19988649I-1500000J0D01*
G01*
X184143116Y14636966D02*
G75*
G03*
X184143116Y14636966I-1993900J0D01*
G01*
X179558067Y16693711D02*
G75*
G03*
X179558067Y16693711I-1500000J0D01*
G01*
X177982082Y14017870D02*
G75*
G03*
X177982082Y14017870I-875000J0D01*
G01*
%TD*%
%TO.C,MX3*%
X59211270Y72128305D02*
G75*
G03*
X59211270Y72128305I-875000J0D01*
G01*
X57934299Y77479987D02*
G75*
G03*
X57934299Y77479987I-1500000J0D01*
G01*
X55288036Y72747401D02*
G75*
G03*
X55288036Y72747401I-1993900J0D01*
G01*
X51322083Y75732790D02*
G75*
G03*
X51322083Y75732790I-1500000J0D01*
G01*
X49127002Y73366497D02*
G75*
G03*
X49127002Y73366497I-875000J0D01*
G01*
%TD*%
%TO.C,MX18*%
X190513697Y53942666D02*
G75*
G03*
X190513697Y53942666I-875000J0D01*
G01*
X187998534Y58675253D02*
G75*
G03*
X187998534Y58675253I-1500000J0D01*
G01*
X186590463Y53323570D02*
G75*
G03*
X186590463Y53323570I-1993900J0D01*
G01*
X182005414Y55380315D02*
G75*
G03*
X182005414Y55380315I-1500000J0D01*
G01*
X180429429Y52704474D02*
G75*
G03*
X180429429Y52704474I-875000J0D01*
G01*
%TD*%
%TO.C,MX24*%
X82930054Y30829881D02*
G75*
G03*
X82930054Y30829881I-875000J0D01*
G01*
X81653083Y36181563D02*
G75*
G03*
X81653083Y36181563I-1500000J0D01*
G01*
X79006820Y31448977D02*
G75*
G03*
X79006820Y31448977I-1993900J0D01*
G01*
X75040867Y34434366D02*
G75*
G03*
X75040867Y34434366I-1500000J0D01*
G01*
X72845786Y32068073D02*
G75*
G03*
X72845786Y32068073I-875000J0D01*
G01*
%TD*%
%TO.C,MX11*%
X19073650Y57863523D02*
G75*
G03*
X19073650Y57863523I-875000J0D01*
G01*
X17796679Y63215205D02*
G75*
G03*
X17796679Y63215205I-1500000J0D01*
G01*
X15150416Y58482619D02*
G75*
G03*
X15150416Y58482619I-1993900J0D01*
G01*
X11184463Y61468008D02*
G75*
G03*
X11184463Y61468008I-1500000J0D01*
G01*
X8989382Y59101715D02*
G75*
G03*
X8989382Y59101715I-875000J0D01*
G01*
%TD*%
%TO.C,MX7*%
X164557080Y69948658D02*
G75*
G03*
X164557080Y69948658I-875000J0D01*
G01*
X162041917Y74681245D02*
G75*
G03*
X162041917Y74681245I-1500000J0D01*
G01*
X160633846Y69329562D02*
G75*
G03*
X160633846Y69329562I-1993900J0D01*
G01*
X156048797Y71386307D02*
G75*
G03*
X156048797Y71386307I-1500000J0D01*
G01*
X154472812Y68710466D02*
G75*
G03*
X154472812Y68710466I-875000J0D01*
G01*
%TD*%
%TO.C,MX12*%
X37981653Y55541912D02*
G75*
G03*
X37981653Y55541912I-875000J0D01*
G01*
X36704682Y60893594D02*
G75*
G03*
X36704682Y60893594I-1500000J0D01*
G01*
X34058419Y56161008D02*
G75*
G03*
X34058419Y56161008I-1993900J0D01*
G01*
X30092466Y59146397D02*
G75*
G03*
X30092466Y59146397I-1500000J0D01*
G01*
X27897385Y56780104D02*
G75*
G03*
X27897385Y56780104I-875000J0D01*
G01*
%TD*%
%TO.C,MX5*%
X97027278Y67485083D02*
G75*
G03*
X97027278Y67485083I-875000J0D01*
G01*
X95750307Y72836765D02*
G75*
G03*
X95750307Y72836765I-1500000J0D01*
G01*
X93104044Y68104179D02*
G75*
G03*
X93104044Y68104179I-1993900J0D01*
G01*
X89138091Y71089568D02*
G75*
G03*
X89138091Y71089568I-1500000J0D01*
G01*
X86943010Y68723275D02*
G75*
G03*
X86943010Y68723275I-875000J0D01*
G01*
%TD*%
%TO.C,MX13*%
X56889658Y53220302D02*
G75*
G03*
X56889658Y53220302I-875000J0D01*
G01*
X55612687Y58571984D02*
G75*
G03*
X55612687Y58571984I-1500000J0D01*
G01*
X52966424Y53839398D02*
G75*
G03*
X52966424Y53839398I-1993900J0D01*
G01*
X49000471Y56824787D02*
G75*
G03*
X49000471Y56824787I-1500000J0D01*
G01*
X46805390Y54458494D02*
G75*
G03*
X46805390Y54458494I-875000J0D01*
G01*
%TD*%
%TO.C,MX49*%
X96480790Y29166059D02*
G75*
G03*
X96480790Y29166059I-875000J0D01*
G01*
X99007761Y23814377D02*
G75*
G03*
X99007761Y23814377I-1500000J0D01*
G01*
X102641824Y28546963D02*
G75*
G03*
X102641824Y28546963I-1993900J0D01*
G01*
X105619977Y25561574D02*
G75*
G03*
X105619977Y25561574I-1500000J0D01*
G01*
X106565058Y27927867D02*
G75*
G03*
X106565058Y27927867I-875000J0D01*
G01*
%TD*%
%TO.C,MX35*%
X137928240Y66679062D02*
G75*
G03*
X137928240Y66679062I-875000J0D01*
G01*
X141693403Y61946475D02*
G75*
G03*
X141693403Y61946475I-1500000J0D01*
G01*
X144089274Y67298158D02*
G75*
G03*
X144089274Y67298158I-1993900J0D01*
G01*
X147686523Y65241413D02*
G75*
G03*
X147686523Y65241413I-1500000J0D01*
G01*
X148012508Y67917254D02*
G75*
G03*
X148012508Y67917254I-875000J0D01*
G01*
%TD*%
%TO.C,MX16*%
X152697688Y49299444D02*
G75*
G03*
X152697688Y49299444I-875000J0D01*
G01*
X150182525Y54032031D02*
G75*
G03*
X150182525Y54032031I-1500000J0D01*
G01*
X148774454Y48680348D02*
G75*
G03*
X148774454Y48680348I-1993900J0D01*
G01*
X144189405Y50737093D02*
G75*
G03*
X144189405Y50737093I-1500000J0D01*
G01*
X142613420Y48061252D02*
G75*
G03*
X142613420Y48061252I-875000J0D01*
G01*
%TD*%
%TO.C,MX4*%
X78119272Y69806694D02*
G75*
G03*
X78119272Y69806694I-875000J0D01*
G01*
X76842301Y75158376D02*
G75*
G03*
X76842301Y75158376I-1500000J0D01*
G01*
X74196038Y70425790D02*
G75*
G03*
X74196038Y70425790I-1993900J0D01*
G01*
X70230085Y73411179D02*
G75*
G03*
X70230085Y73411179I-1500000J0D01*
G01*
X68035004Y71044886D02*
G75*
G03*
X68035004Y71044886I-875000J0D01*
G01*
%TD*%
%TO.C,MX37*%
X178107819Y71612478D02*
G75*
G03*
X178107819Y71612478I-875000J0D01*
G01*
X181872982Y66879891D02*
G75*
G03*
X181872982Y66879891I-1500000J0D01*
G01*
X184268853Y72231574D02*
G75*
G03*
X184268853Y72231574I-1993900J0D01*
G01*
X187866102Y70174829D02*
G75*
G03*
X187866102Y70174829I-1500000J0D01*
G01*
X188192087Y72850670D02*
G75*
G03*
X188192087Y72850670I-875000J0D01*
G01*
%TD*%
%TO.C,MX26*%
X145565298Y29230634D02*
G75*
G03*
X145565298Y29230634I-875000J0D01*
G01*
X143050135Y33963221D02*
G75*
G03*
X143050135Y33963221I-1500000J0D01*
G01*
X141642064Y28611538D02*
G75*
G03*
X141642064Y28611538I-1993900J0D01*
G01*
X137057015Y30668283D02*
G75*
G03*
X137057015Y30668283I-1500000J0D01*
G01*
X135481030Y27992442D02*
G75*
G03*
X135481030Y27992442I-875000J0D01*
G01*
%TD*%
%TO.C,MX1*%
X21395259Y76771529D02*
G75*
G03*
X21395259Y76771529I-875000J0D01*
G01*
X20118288Y82123211D02*
G75*
G03*
X20118288Y82123211I-1500000J0D01*
G01*
X17472025Y77390625D02*
G75*
G03*
X17472025Y77390625I-1993900J0D01*
G01*
X13506072Y80376014D02*
G75*
G03*
X13506072Y80376014I-1500000J0D01*
G01*
X11310991Y78009721D02*
G75*
G03*
X11310991Y78009721I-875000J0D01*
G01*
%TD*%
M02*
