%TF.GenerationSoftware,KiCad,Pcbnew,7.0.6*%
%TF.CreationDate,2024-02-12T15:49:00-05:00*%
%TF.ProjectId,lalettre2040-tripple-stagger-hotswap-pcb,6c616c65-7474-4726-9532-3034302d7472,rev?*%
%TF.SameCoordinates,PX1ea85bbPY7e0978f*%
%TF.FileFunction,Other,User*%
%FSLAX46Y46*%
G04 Gerber Fmt 4.6, Leading zero omitted, Abs format (unit mm)*
G04 Created by KiCad (PCBNEW 7.0.6) date 2024-02-12 15:49:00*
%MOMM*%
%LPD*%
G01*
G04 APERTURE LIST*
%ADD10C,0.150000*%
%ADD11C,0.127000*%
%ADD12C,0.050000*%
G04 APERTURE END LIST*
D10*
%TO.C,MX51*%
X179331837Y37322693D02*
X176810770Y37013144D01*
X179022289Y39843760D02*
X179331837Y37322693D01*
D11*
X177144580Y40268088D02*
X177680805Y35900885D01*
X177144580Y40268088D02*
X167913901Y39134703D01*
D10*
X176810770Y37013144D02*
X176501222Y39534212D01*
X176501222Y39534212D02*
X179022289Y39843760D01*
D11*
X172023292Y35206229D02*
X177680805Y35900885D01*
D10*
X166783942Y33222930D02*
X166513088Y35428864D01*
X166513088Y35428864D02*
X163992020Y35119316D01*
D11*
X166212499Y32477734D02*
X170281939Y32977398D01*
X165737209Y36348664D02*
X166212499Y32477734D01*
D10*
X164262875Y32913382D02*
X166783942Y33222930D01*
X163992020Y35119316D02*
X164262875Y32913382D01*
D11*
X172023292Y35206228D02*
G75*
G03*
X170281940Y32977398I243738J-1985090D01*
G01*
X167913901Y39134701D02*
G75*
G03*
X165737210Y36348664I304673J-2481364D01*
G01*
D10*
X176163142Y38026040D02*
G75*
G03*
X176163142Y38026040I-1524000J0D01*
G01*
X170170022Y34731102D02*
G75*
G03*
X170170022Y34731102I-1524000J0D01*
G01*
%TO.C,MX27*%
X165112140Y35896619D02*
X162591072Y35587071D01*
X164841285Y38102553D02*
X165112140Y35896619D01*
D11*
X162963576Y38526881D02*
X163499801Y34159678D01*
X162963576Y38526881D02*
X153732897Y37393496D01*
D10*
X162591072Y35587071D02*
X162320218Y37793005D01*
X162320218Y37793005D02*
X164841285Y38102553D01*
D11*
X157842288Y33465022D02*
X163499801Y34159678D01*
D10*
X152602938Y31481723D02*
X152293390Y34002790D01*
X152293390Y34002790D02*
X149772323Y33693242D01*
D11*
X152031495Y30736527D02*
X156100935Y31236191D01*
X151556205Y34607457D02*
X152031495Y30736527D01*
D10*
X150081871Y31172175D02*
X152602938Y31481723D01*
X149772323Y33693242D02*
X150081871Y31172175D01*
D11*
X157842288Y33465021D02*
G75*
G03*
X156100936Y31236191I243738J-1985090D01*
G01*
X153732897Y37393494D02*
G75*
G03*
X151556206Y34607457I304673J-2481364D01*
G01*
D10*
X161982138Y36284833D02*
G75*
G03*
X161982138Y36284833I-1524000J0D01*
G01*
X155989018Y32989895D02*
G75*
G03*
X155989018Y32989895I-1524000J0D01*
G01*
%TO.C,MX50*%
X140143930Y24833814D02*
X142664997Y25143363D01*
X140453478Y22312747D02*
X140143930Y24833814D01*
D11*
X142331187Y21888419D02*
X141794962Y26255622D01*
X142331187Y21888419D02*
X151561866Y23021804D01*
D10*
X142664997Y25143363D02*
X142974545Y22622295D01*
X142974545Y22622295D02*
X140453478Y22312747D01*
D11*
X147452475Y26950278D02*
X141794962Y26255622D01*
D10*
X152691825Y28933577D02*
X155212892Y29243125D01*
X153001373Y26412510D02*
X152691825Y28933577D01*
D11*
X153263268Y29678773D02*
X149193828Y29179109D01*
X153738558Y25807843D02*
X153263268Y29678773D01*
D10*
X155212892Y29243125D02*
X155522440Y26722058D01*
X155522440Y26722058D02*
X153001373Y26412510D01*
D11*
X147452475Y26950279D02*
G75*
G03*
X149193827Y29179109I-243738J1985090D01*
G01*
X151561866Y23021806D02*
G75*
G03*
X153738557Y25807843I-304673J2481364D01*
G01*
D10*
X146360625Y24130467D02*
G75*
G03*
X146360625Y24130467I-1524000J0D01*
G01*
X152353745Y27425405D02*
G75*
G03*
X152353745Y27425405I-1524000J0D01*
G01*
D12*
%TO.C,R_FLASH2*%
X125040311Y19575029D02*
X125980311Y19575029D01*
X125980311Y19575029D02*
X125980311Y21435029D01*
X125040311Y21435029D02*
X125040311Y19575029D01*
X125980311Y21435029D02*
X125040311Y21435029D01*
%TO.C,D9*%
X211108288Y71541904D02*
X208825432Y71261605D01*
X208825432Y71261605D02*
X209398218Y66596638D01*
X211681074Y66876937D02*
X211108288Y71541904D01*
X211681074Y66876937D02*
X209398218Y66596638D01*
%TO.C,R_DATA2*%
X116705928Y43358800D02*
X117645928Y43358800D01*
X117645928Y43358800D02*
X117645928Y45218800D01*
X116705928Y45218800D02*
X116705928Y43358800D01*
X117645928Y45218800D02*
X116705928Y45218800D01*
D10*
%TO.C,MX44*%
X98675343Y51820841D02*
X96154276Y52130389D01*
X98984892Y54341908D02*
X98675343Y51820841D01*
D11*
X97265613Y55207891D02*
X96729388Y50840687D01*
X97265613Y55207891D02*
X88034934Y56341275D01*
D10*
X96154276Y52130389D02*
X96463824Y54651456D01*
X96463824Y54651456D02*
X98984892Y54341908D01*
D11*
X91071875Y51535343D02*
X96729388Y50840687D01*
D10*
X85508352Y50878469D02*
X82987285Y51188017D01*
X85817901Y53399537D02*
X85508352Y50878469D01*
D11*
X84773605Y50293653D02*
X88843044Y49793989D01*
X85248895Y54164583D02*
X84773605Y50293653D01*
D10*
X82987285Y51188017D02*
X83296833Y53709085D01*
X83296833Y53709085D02*
X85817901Y53399537D01*
D11*
X91071875Y51535342D02*
G75*
G03*
X88843044Y49793989I-243740J-1985090D01*
G01*
X88034934Y56341274D02*
G75*
G03*
X85248896Y54164583I-304674J-2481364D01*
G01*
D10*
X95816197Y53638561D02*
G75*
G03*
X95816197Y53638561I-1524001J0D01*
G01*
X89203981Y51891364D02*
G75*
G03*
X89203981Y51891364I-1524001J0D01*
G01*
%TO.C,MX41*%
X29268211Y52665740D02*
X31789278Y52356192D01*
X28958662Y50144673D02*
X29268211Y52665740D01*
D11*
X30677941Y49278690D02*
X31214166Y53645894D01*
X30677941Y49278690D02*
X39908620Y48145306D01*
D10*
X31789278Y52356192D02*
X31479730Y49835125D01*
X31479730Y49835125D02*
X28958662Y50144673D01*
D11*
X36871679Y52951238D02*
X31214166Y53645894D01*
D10*
X42435202Y53608112D02*
X42125653Y51087044D01*
X42125653Y51087044D02*
X44646721Y50777496D01*
D11*
X43169949Y54192928D02*
X39100510Y54692592D01*
X42694659Y50321998D02*
X43169949Y54192928D01*
D10*
X44956269Y53298564D02*
X42435202Y53608112D01*
X44646721Y50777496D02*
X44956269Y53298564D01*
D11*
X36871679Y52951239D02*
G75*
G03*
X39100510Y54692592I243740J1985090D01*
G01*
X39908620Y48145307D02*
G75*
G03*
X42694658Y50321998I304674J2481364D01*
G01*
D10*
X35175359Y50848020D02*
G75*
G03*
X35175359Y50848020I-1524001J0D01*
G01*
X41787575Y52595217D02*
G75*
G03*
X41787575Y52595217I-1524001J0D01*
G01*
%TO.C,MX14*%
X77403837Y54432653D02*
X74882770Y54742201D01*
X77713386Y56953720D02*
X77403837Y54432653D01*
D11*
X75994107Y57819703D02*
X75457882Y53452499D01*
X75994107Y57819703D02*
X66763428Y58953087D01*
D10*
X74882770Y54742201D02*
X75192318Y57263268D01*
X75192318Y57263268D02*
X77713386Y56953720D01*
D11*
X69800369Y54147155D02*
X75457882Y53452499D01*
D10*
X64236846Y53490281D02*
X64546395Y56011349D01*
X64546395Y56011349D02*
X62025327Y56320897D01*
D11*
X63502099Y52905465D02*
X67571538Y52405801D01*
X63977389Y56776395D02*
X63502099Y52905465D01*
D10*
X61715779Y53799829D02*
X64236846Y53490281D01*
X62025327Y56320897D02*
X61715779Y53799829D01*
D11*
X69800369Y54147154D02*
G75*
G03*
X67571538Y52405801I-243740J-1985090D01*
G01*
X66763428Y58953086D02*
G75*
G03*
X63977390Y56776395I-304674J-2481364D01*
G01*
D10*
X74544691Y56250373D02*
G75*
G03*
X74544691Y56250373I-1524001J0D01*
G01*
X67932475Y54503176D02*
G75*
G03*
X67932475Y54503176I-1524001J0D01*
G01*
%TO.C,MX28*%
X170869506Y28606424D02*
X173390573Y28915973D01*
X171179054Y26085357D02*
X170869506Y28606424D01*
D11*
X173056763Y25661029D02*
X172520538Y30028232D01*
X173056763Y25661029D02*
X182287442Y26794414D01*
D10*
X173390573Y28915973D02*
X173700121Y26394905D01*
X173700121Y26394905D02*
X171179054Y26085357D01*
D11*
X178178051Y30722888D02*
X172520538Y30028232D01*
D10*
X183417401Y32706187D02*
X183726949Y30185120D01*
X183726949Y30185120D02*
X186248016Y30494668D01*
D11*
X183988844Y33451383D02*
X179919404Y32951719D01*
X184464134Y29580453D02*
X183988844Y33451383D01*
D10*
X185938468Y33015735D02*
X183417401Y32706187D01*
X186248016Y30494668D02*
X185938468Y33015735D01*
D11*
X178178051Y30722889D02*
G75*
G03*
X179919403Y32951719I-243738J1985090D01*
G01*
X182287442Y26794416D02*
G75*
G03*
X184464133Y29580453I-304673J2481364D01*
G01*
D10*
X177086201Y27903077D02*
G75*
G03*
X177086201Y27903077I-1524000J0D01*
G01*
X183079321Y31198015D02*
G75*
G03*
X183079321Y31198015I-1524000J0D01*
G01*
D12*
%TO.C,C_ESD2*%
X111960923Y44748800D02*
X111960923Y43828800D01*
X111960923Y43828800D02*
X113780923Y43828800D01*
X113780923Y44748800D02*
X111960923Y44748800D01*
X113780923Y43828800D02*
X113780923Y44748800D01*
D10*
%TO.C,MX17*%
X172283225Y55650295D02*
X169762158Y55340746D01*
X171973677Y58171362D02*
X172283225Y55650295D01*
D11*
X170095968Y58595690D02*
X170632193Y54228487D01*
X170095968Y58595690D02*
X160865289Y57462305D01*
D10*
X169762158Y55340746D02*
X169452610Y57861814D01*
X169452610Y57861814D02*
X171973677Y58171362D01*
D11*
X164974680Y53533831D02*
X170632193Y54228487D01*
D10*
X159735330Y51550532D02*
X159425782Y54071599D01*
X159425782Y54071599D02*
X156904715Y53762051D01*
D11*
X159163887Y50805336D02*
X163233327Y51305000D01*
X158688597Y54676266D02*
X159163887Y50805336D01*
D10*
X157214263Y51240984D02*
X159735330Y51550532D01*
X156904715Y53762051D02*
X157214263Y51240984D01*
D11*
X164974680Y53533830D02*
G75*
G03*
X163233328Y51305000I243738J-1985090D01*
G01*
X160865289Y57462303D02*
G75*
G03*
X158688598Y54676266I304673J-2481364D01*
G01*
D10*
X169114530Y56353642D02*
G75*
G03*
X169114530Y56353642I-1524000J0D01*
G01*
X163121410Y53058704D02*
G75*
G03*
X163121410Y53058704I-1524000J0D01*
G01*
D12*
%TO.C,D19*%
X212248149Y52488785D02*
X209965293Y52208486D01*
X209965293Y52208486D02*
X210538079Y47543519D01*
X212820935Y47823818D02*
X212248149Y52488785D01*
X212820935Y47823818D02*
X210538079Y47543519D01*
%TO.C,R_FLASH3*%
X126230935Y21840968D02*
X127170935Y21840968D01*
X127170935Y21840968D02*
X127170935Y23700968D01*
X126230935Y23700968D02*
X126230935Y21840968D01*
X127170935Y23700968D02*
X126230935Y23700968D01*
D10*
%TO.C,MX22*%
X46720222Y39007064D02*
X44199155Y39316612D01*
X47029771Y41528131D02*
X46720222Y39007064D01*
D11*
X45310492Y42394114D02*
X44774267Y38026910D01*
X45310492Y42394114D02*
X36079813Y43527498D01*
D10*
X44199155Y39316612D02*
X44508703Y41837679D01*
X44508703Y41837679D02*
X47029771Y41528131D01*
D11*
X39116754Y38721566D02*
X44774267Y38026910D01*
D10*
X33553231Y38064692D02*
X33862780Y40585760D01*
X33862780Y40585760D02*
X31341712Y40895308D01*
D11*
X32818484Y37479876D02*
X36887923Y36980212D01*
X33293774Y41350806D02*
X32818484Y37479876D01*
D10*
X31032164Y38374240D02*
X33553231Y38064692D01*
X31341712Y40895308D02*
X31032164Y38374240D01*
D11*
X39116754Y38721565D02*
G75*
G03*
X36887923Y36980212I-243740J-1985090D01*
G01*
X36079813Y43527497D02*
G75*
G03*
X33293775Y41350806I-304674J-2481364D01*
G01*
D10*
X43861076Y40824784D02*
G75*
G03*
X43861076Y40824784I-1524001J0D01*
G01*
X37248860Y39077587D02*
G75*
G03*
X37248860Y39077587I-1524001J0D01*
G01*
D12*
%TO.C,C_3V3_3*%
X120017178Y45198800D02*
X119097178Y45198800D01*
X119097178Y45198800D02*
X119097178Y43378800D01*
X120017178Y43378800D02*
X120017178Y45198800D01*
X119097178Y43378800D02*
X120017178Y43378800D01*
%TO.C,SW2*%
X115902493Y14546586D02*
X115902493Y8546586D01*
X115902493Y8546586D02*
X124402493Y8546586D01*
X124402493Y14546586D02*
X115902493Y14546586D01*
X124402493Y8546586D02*
X124402493Y14546586D01*
D10*
%TO.C,MX9*%
X203050621Y78621119D02*
X200529554Y78311570D01*
X202741073Y81142186D02*
X203050621Y78621119D01*
D11*
X200863364Y81566514D02*
X201399589Y77199311D01*
X200863364Y81566514D02*
X191632685Y80433129D01*
D10*
X200529554Y78311570D02*
X200220006Y80832638D01*
X200220006Y80832638D02*
X202741073Y81142186D01*
D11*
X195742076Y76504655D02*
X201399589Y77199311D01*
D10*
X190502726Y74521356D02*
X190193178Y77042423D01*
X190193178Y77042423D02*
X187672111Y76732875D01*
D11*
X189931283Y73776160D02*
X194000723Y74275824D01*
X189455993Y77647090D02*
X189931283Y73776160D01*
D10*
X187981659Y74211808D02*
X190502726Y74521356D01*
X187672111Y76732875D02*
X187981659Y74211808D01*
D11*
X195742076Y76504654D02*
G75*
G03*
X194000724Y74275824I243738J-1985090D01*
G01*
X191632685Y80433127D02*
G75*
G03*
X189455994Y77647090I304673J-2481364D01*
G01*
D10*
X199881926Y79324466D02*
G75*
G03*
X199881926Y79324466I-1524000J0D01*
G01*
X193888806Y76029528D02*
G75*
G03*
X193888806Y76029528I-1524000J0D01*
G01*
D12*
%TO.C,C_3V3_6*%
X111960923Y36605045D02*
X111960923Y35685045D01*
X111960923Y35685045D02*
X113780923Y35685045D01*
X113780923Y36605045D02*
X111960923Y36605045D01*
X113780923Y35685045D02*
X113780923Y36605045D01*
%TO.C,D14*%
X83509632Y45614306D02*
X81226776Y45894605D01*
X81226776Y45894605D02*
X80653990Y41229638D01*
X82936846Y40949339D02*
X83509632Y45614306D01*
X82936846Y40949339D02*
X80653990Y41229638D01*
%TO.C,D24*%
X90642031Y25545481D02*
X88359175Y25825780D01*
X88359175Y25825780D02*
X87786389Y21160813D01*
X90069245Y20880514D02*
X90642031Y25545481D01*
X90069245Y20880514D02*
X87786389Y21160813D01*
%TO.C,C_XTAL2*%
X118535333Y24860395D02*
X117884795Y24209857D01*
X117884795Y24209857D02*
X119171729Y22922923D01*
X119822267Y23573461D02*
X118535333Y24860395D01*
X119171729Y22922923D02*
X119822267Y23573461D01*
%TO.C,D21*%
X26827462Y33380925D02*
X24544606Y33661224D01*
X24544606Y33661224D02*
X23971820Y28996257D01*
X26254676Y28715958D02*
X26827462Y33380925D01*
X26254676Y28715958D02*
X23971820Y28996257D01*
%TO.C,D27*%
X159618328Y26833578D02*
X157335472Y26553279D01*
X157335472Y26553279D02*
X157908258Y21888312D01*
X160191114Y22168611D02*
X159618328Y26833578D01*
X160191114Y22168611D02*
X157908258Y21888312D01*
D10*
%TO.C,MX6*%
X146326541Y71656293D02*
X143805474Y71346744D01*
X146016993Y74177360D02*
X146326541Y71656293D01*
D11*
X144139284Y74601688D02*
X144675509Y70234485D01*
X144139284Y74601688D02*
X134908605Y73468303D01*
D10*
X143805474Y71346744D02*
X143495926Y73867812D01*
X143495926Y73867812D02*
X146016993Y74177360D01*
D11*
X139017996Y69539829D02*
X144675509Y70234485D01*
D10*
X133778646Y67556530D02*
X133469098Y70077597D01*
X133469098Y70077597D02*
X130948031Y69768049D01*
D11*
X133207203Y66811334D02*
X137276643Y67310998D01*
X132731913Y70682264D02*
X133207203Y66811334D01*
D10*
X131257579Y67246982D02*
X133778646Y67556530D01*
X130948031Y69768049D02*
X131257579Y67246982D01*
D11*
X139017996Y69539828D02*
G75*
G03*
X137276644Y67310998I243738J-1985090D01*
G01*
X134908605Y73468301D02*
G75*
G03*
X132731914Y70682264I304673J-2481364D01*
G01*
D10*
X143157846Y72359640D02*
G75*
G03*
X143157846Y72359640I-1524000J0D01*
G01*
X137164726Y69064702D02*
G75*
G03*
X137164726Y69064702I-1524000J0D01*
G01*
D12*
%TO.C,J1*%
X124052492Y47557243D02*
X116252492Y47557243D01*
X124052492Y54117243D02*
X124052492Y47557243D01*
X116252492Y47557243D02*
X116252492Y54117243D01*
X116252492Y54117243D02*
X124052492Y54117243D01*
%TO.C,D28*%
X187389483Y30243445D02*
X185106627Y29963146D01*
X185106627Y29963146D02*
X185679413Y25298179D01*
X187962269Y25578478D02*
X187389483Y30243445D01*
X187962269Y25578478D02*
X185679413Y25298179D01*
%TO.C,R_FLASH1*%
X126230936Y19575028D02*
X127170936Y19575028D01*
X127170936Y19575028D02*
X127170936Y21435028D01*
X126230936Y21435028D02*
X126230936Y19575028D01*
X127170936Y21435028D02*
X126230936Y21435028D01*
%TO.C,D17*%
X174432108Y47845558D02*
X172149252Y47565259D01*
X172149252Y47565259D02*
X172722038Y42900292D01*
X175004894Y43180591D02*
X174432108Y47845558D01*
X175004894Y43180591D02*
X172722038Y42900292D01*
D10*
%TO.C,MX47*%
X55308607Y30275320D02*
X57829674Y29965772D01*
X54999058Y27754253D02*
X55308607Y30275320D01*
D11*
X56718337Y26888270D02*
X57254562Y31255474D01*
X56718337Y26888270D02*
X65949016Y25754886D01*
D10*
X57829674Y29965772D02*
X57520126Y27444705D01*
X57520126Y27444705D02*
X54999058Y27754253D01*
D11*
X62912075Y30560818D02*
X57254562Y31255474D01*
D10*
X68475598Y31217692D02*
X68166049Y28696624D01*
X68166049Y28696624D02*
X70687117Y28387076D01*
D11*
X69210345Y31802508D02*
X65140906Y32302172D01*
X68735055Y27931578D02*
X69210345Y31802508D01*
D10*
X70996665Y30908144D02*
X68475598Y31217692D01*
X70687117Y28387076D02*
X70996665Y30908144D01*
D11*
X62912075Y30560819D02*
G75*
G03*
X65140906Y32302172I243740J1985090D01*
G01*
X65949016Y25754887D02*
G75*
G03*
X68735054Y27931578I304674J2481364D01*
G01*
D10*
X61215755Y28457600D02*
G75*
G03*
X61215755Y28457600I-1524001J0D01*
G01*
X67827971Y30204797D02*
G75*
G03*
X67827971Y30204797I-1524001J0D01*
G01*
D12*
%TO.C,C_3V3_5*%
X111960925Y40205044D02*
X111960925Y39285044D01*
X111960925Y39285044D02*
X113780925Y39285044D01*
X113780925Y40205044D02*
X111960925Y40205044D01*
X113780925Y39285044D02*
X113780925Y40205044D01*
D10*
%TO.C,MX53*%
X213412448Y33830056D02*
X215933515Y34139605D01*
X213721996Y31308989D02*
X213412448Y33830056D01*
D11*
X215599705Y30884661D02*
X215063480Y35251864D01*
X215599705Y30884661D02*
X224830384Y32018046D01*
D10*
X215933515Y34139605D02*
X216243063Y31618537D01*
X216243063Y31618537D02*
X213721996Y31308989D01*
D11*
X220720993Y35946520D02*
X215063480Y35251864D01*
D10*
X225960343Y37929819D02*
X228481410Y38239367D01*
X226269891Y35408752D02*
X225960343Y37929819D01*
D11*
X226531786Y38675015D02*
X222462346Y38175351D01*
X227007076Y34804085D02*
X226531786Y38675015D01*
D10*
X228481410Y38239367D02*
X228790958Y35718300D01*
X228790958Y35718300D02*
X226269891Y35408752D01*
D11*
X220720993Y35946521D02*
G75*
G03*
X222462345Y38175351I-243738J1985090D01*
G01*
X224830384Y32018048D02*
G75*
G03*
X227007075Y34804085I-304673J2481364D01*
G01*
D10*
X219629143Y33126709D02*
G75*
G03*
X219629143Y33126709I-1524000J0D01*
G01*
X225622263Y36421647D02*
G75*
G03*
X225622263Y36421647I-1524000J0D01*
G01*
D12*
%TO.C,U2*%
X124432188Y47744114D02*
X133732188Y47744114D01*
X124432188Y42024114D02*
X124432188Y47744114D01*
X133732188Y47744114D02*
X133732188Y42024114D01*
X133732188Y42024114D02*
X124432188Y42024114D01*
%TO.C,D6*%
X152020723Y64286866D02*
X149737867Y64006567D01*
X149737867Y64006567D02*
X150310653Y59341600D01*
X152593509Y59621899D02*
X152020723Y64286866D01*
X152593509Y59621899D02*
X150310653Y59341600D01*
D10*
%TO.C,MX8*%
X184142618Y76299507D02*
X181621551Y75989958D01*
X183833070Y78820574D02*
X184142618Y76299507D01*
D11*
X181955361Y79244902D02*
X182491586Y74877699D01*
X181955361Y79244902D02*
X172724682Y78111517D01*
D10*
X181621551Y75989958D02*
X181312003Y78511026D01*
X181312003Y78511026D02*
X183833070Y78820574D01*
D11*
X176834073Y74183043D02*
X182491586Y74877699D01*
D10*
X171594723Y72199744D02*
X171285175Y74720811D01*
X171285175Y74720811D02*
X168764108Y74411263D01*
D11*
X171023280Y71454548D02*
X175092720Y71954212D01*
X170547990Y75325478D02*
X171023280Y71454548D01*
D10*
X169073656Y71890196D02*
X171594723Y72199744D01*
X168764108Y74411263D02*
X169073656Y71890196D01*
D11*
X176834073Y74183042D02*
G75*
G03*
X175092721Y71954212I243738J-1985090D01*
G01*
X172724682Y78111515D02*
G75*
G03*
X170547991Y75325478I304673J-2481364D01*
G01*
D10*
X180973923Y77002854D02*
G75*
G03*
X180973923Y77002854I-1524000J0D01*
G01*
X174980803Y73707916D02*
G75*
G03*
X174980803Y73707916I-1524000J0D01*
G01*
D12*
%TO.C,D23*%
X71734011Y27867096D02*
X69451155Y28147395D01*
X69451155Y28147395D02*
X68878369Y23482428D01*
X71161225Y23202129D02*
X71734011Y27867096D01*
X71161225Y23202129D02*
X68878369Y23482428D01*
D10*
%TO.C,MX48*%
X74216609Y27953709D02*
X76737676Y27644161D01*
X73907060Y25432642D02*
X74216609Y27953709D01*
D11*
X75626339Y24566659D02*
X76162564Y28933863D01*
X75626339Y24566659D02*
X84857018Y23433275D01*
D10*
X76737676Y27644161D02*
X76428128Y25123094D01*
X76428128Y25123094D02*
X73907060Y25432642D01*
D11*
X81820077Y28239207D02*
X76162564Y28933863D01*
D10*
X87383600Y28896081D02*
X87074051Y26375013D01*
X87074051Y26375013D02*
X89595119Y26065465D01*
D11*
X88118347Y29480897D02*
X84048908Y29980561D01*
X87643057Y25609967D02*
X88118347Y29480897D01*
D10*
X89904667Y28586533D02*
X87383600Y28896081D01*
X89595119Y26065465D02*
X89904667Y28586533D01*
D11*
X81820077Y28239208D02*
G75*
G03*
X84048908Y29980561I243740J1985090D01*
G01*
X84857018Y23433276D02*
G75*
G03*
X87643056Y25609967I304674J2481364D01*
G01*
D10*
X80123757Y26135989D02*
G75*
G03*
X80123757Y26135989I-1524001J0D01*
G01*
X86735973Y27883186D02*
G75*
G03*
X86735973Y27883186I-1524001J0D01*
G01*
%TO.C,MX38*%
X194588290Y69904849D02*
X197109357Y70214398D01*
X194897838Y67383782D02*
X194588290Y69904849D01*
D11*
X196775547Y66959454D02*
X196239322Y71326657D01*
X196775547Y66959454D02*
X206006226Y68092839D01*
D10*
X197109357Y70214398D02*
X197418905Y67693330D01*
X197418905Y67693330D02*
X194897838Y67383782D01*
D11*
X201896835Y72021313D02*
X196239322Y71326657D01*
D10*
X207136185Y74004612D02*
X207445733Y71483545D01*
X207445733Y71483545D02*
X209966800Y71793093D01*
D11*
X207707628Y74749808D02*
X203638188Y74250144D01*
X208182918Y70878878D02*
X207707628Y74749808D01*
D10*
X209657252Y74314160D02*
X207136185Y74004612D01*
X209966800Y71793093D02*
X209657252Y74314160D01*
D11*
X201896835Y72021314D02*
G75*
G03*
X203638187Y74250144I-243738J1985090D01*
G01*
X206006226Y68092841D02*
G75*
G03*
X208182917Y70878878I-304673J2481364D01*
G01*
D10*
X200804985Y69201502D02*
G75*
G03*
X200804985Y69201502I-1524000J0D01*
G01*
X206798105Y72496440D02*
G75*
G03*
X206798105Y72496440I-1524000J0D01*
G01*
%TO.C,MX15*%
X85992224Y45700907D02*
X88513291Y45391359D01*
X85682675Y43179840D02*
X85992224Y45700907D01*
D11*
X87401954Y42313857D02*
X87938179Y46681061D01*
X87401954Y42313857D02*
X96632633Y41180473D01*
D10*
X88513291Y45391359D02*
X88203743Y42870292D01*
X88203743Y42870292D02*
X85682675Y43179840D01*
D11*
X93595692Y45986405D02*
X87938179Y46681061D01*
D10*
X99159215Y46643279D02*
X98849666Y44122211D01*
X98849666Y44122211D02*
X101370734Y43812663D01*
D11*
X99893962Y47228095D02*
X95824523Y47727759D01*
X99418672Y43357165D02*
X99893962Y47228095D01*
D10*
X101680282Y46333731D02*
X99159215Y46643279D01*
X101370734Y43812663D02*
X101680282Y46333731D01*
D11*
X93595692Y45986406D02*
G75*
G03*
X95824523Y47727759I243740J1985090D01*
G01*
X96632633Y41180474D02*
G75*
G03*
X99418671Y43357165I304674J2481364D01*
G01*
D10*
X91899372Y43883187D02*
G75*
G03*
X91899372Y43883187I-1524001J0D01*
G01*
X98511588Y45630384D02*
G75*
G03*
X98511588Y45630384I-1524001J0D01*
G01*
D12*
%TO.C,D30*%
X229932527Y35467075D02*
X227649671Y35186776D01*
X227649671Y35186776D02*
X228222457Y30521809D01*
X230505313Y30802108D02*
X229932527Y35467075D01*
X230505313Y30802108D02*
X228222457Y30521809D01*
%TO.C,D34*%
X190457545Y15025780D02*
X188174689Y14745481D01*
X188174689Y14745481D02*
X188747475Y10080514D01*
X191030331Y10360813D02*
X190457545Y15025780D01*
X191030331Y10360813D02*
X188747475Y10080514D01*
D10*
%TO.C,MX25*%
X105807733Y31752031D02*
X103286666Y32061579D01*
X106117282Y34273098D02*
X105807733Y31752031D01*
D11*
X104398003Y35139081D02*
X103861778Y30771877D01*
X104398003Y35139081D02*
X95167324Y36272465D01*
D10*
X103286666Y32061579D02*
X103596214Y34582646D01*
X103596214Y34582646D02*
X106117282Y34273098D01*
D11*
X98204265Y31466533D02*
X103861778Y30771877D01*
D10*
X92640742Y30809659D02*
X90119675Y31119207D01*
X92950291Y33330727D02*
X92640742Y30809659D01*
D11*
X91905995Y30224843D02*
X95975434Y29725179D01*
X92381285Y34095773D02*
X91905995Y30224843D01*
D10*
X90119675Y31119207D02*
X90429223Y33640275D01*
X90429223Y33640275D02*
X92950291Y33330727D01*
D11*
X98204265Y31466532D02*
G75*
G03*
X95975434Y29725179I-243740J-1985090D01*
G01*
X95167324Y36272464D02*
G75*
G03*
X92381286Y34095773I-304674J-2481364D01*
G01*
D10*
X102948587Y33569751D02*
G75*
G03*
X102948587Y33569751I-1524001J0D01*
G01*
X96336371Y31822554D02*
G75*
G03*
X96336371Y31822554I-1524001J0D01*
G01*
D12*
%TO.C,R_RST1*%
X125725949Y4996803D02*
X125725949Y5936803D01*
X125725949Y5936803D02*
X123865949Y5936803D01*
X123865949Y4996803D02*
X125725949Y4996803D01*
X123865949Y5936803D02*
X123865949Y4996803D01*
%TO.C,C_3V3_4*%
X121207805Y45198800D02*
X120287805Y45198800D01*
X120287805Y45198800D02*
X120287805Y43378800D01*
X121207805Y43378800D02*
X121207805Y45198800D01*
X120287805Y43378800D02*
X121207805Y43378800D01*
D10*
%TO.C,MX10*%
X224322057Y81232938D02*
X221800990Y80923389D01*
X224012509Y83754005D02*
X224322057Y81232938D01*
D11*
X222134800Y84178333D02*
X222671025Y79811130D01*
X222134800Y84178333D02*
X212904121Y83044948D01*
D10*
X221800990Y80923389D02*
X221491442Y83444457D01*
X221491442Y83444457D02*
X224012509Y83754005D01*
D11*
X217013512Y79116474D02*
X222671025Y79811130D01*
D10*
X211774162Y77133175D02*
X209253095Y76823627D01*
X211464614Y79654242D02*
X211774162Y77133175D01*
D11*
X211202719Y76387979D02*
X215272159Y76887643D01*
X210727429Y80258909D02*
X211202719Y76387979D01*
D10*
X209253095Y76823627D02*
X208943547Y79344694D01*
X208943547Y79344694D02*
X211464614Y79654242D01*
D11*
X217013512Y79116473D02*
G75*
G03*
X215272160Y76887643I243738J-1985090D01*
G01*
X212904121Y83044946D02*
G75*
G03*
X210727430Y80258909I304673J-2481364D01*
G01*
D10*
X221153362Y81936285D02*
G75*
G03*
X221153362Y81936285I-1524000J0D01*
G01*
X215160242Y78641347D02*
G75*
G03*
X215160242Y78641347I-1524000J0D01*
G01*
D12*
%TO.C,D10*%
X230016307Y73863517D02*
X227733451Y73583218D01*
X227733451Y73583218D02*
X228306237Y68918251D01*
X230589093Y69198550D02*
X230016307Y73863517D01*
X230589093Y69198550D02*
X228306237Y68918251D01*
D10*
%TO.C,MX42*%
X48176214Y50344130D02*
X50697281Y50034582D01*
X47866665Y47823063D02*
X48176214Y50344130D01*
D11*
X49585944Y46957080D02*
X50122169Y51324284D01*
X49585944Y46957080D02*
X58816623Y45823696D01*
D10*
X50697281Y50034582D02*
X50387733Y47513515D01*
X50387733Y47513515D02*
X47866665Y47823063D01*
D11*
X55779682Y50629628D02*
X50122169Y51324284D01*
D10*
X61343205Y51286502D02*
X61033656Y48765434D01*
X61033656Y48765434D02*
X63554724Y48455886D01*
D11*
X62077952Y51871318D02*
X58008513Y52370982D01*
X61602662Y48000388D02*
X62077952Y51871318D01*
D10*
X63864272Y50976954D02*
X61343205Y51286502D01*
X63554724Y48455886D02*
X63864272Y50976954D01*
D11*
X55779682Y50629629D02*
G75*
G03*
X58008513Y52370982I243740J1985090D01*
G01*
X58816623Y45823697D02*
G75*
G03*
X61602661Y48000388I304674J2481364D01*
G01*
D10*
X54083362Y48526410D02*
G75*
G03*
X54083362Y48526410I-1524001J0D01*
G01*
X60695578Y50273607D02*
G75*
G03*
X60695578Y50273607I-1524001J0D01*
G01*
%TO.C,MX19*%
X210099234Y60293517D02*
X207578167Y59983968D01*
X209789686Y62814584D02*
X210099234Y60293517D01*
D11*
X207911977Y63238912D02*
X208448202Y58871709D01*
X207911977Y63238912D02*
X198681298Y62105527D01*
D10*
X207578167Y59983968D02*
X207268619Y62505036D01*
X207268619Y62505036D02*
X209789686Y62814584D01*
D11*
X202790689Y58177053D02*
X208448202Y58871709D01*
D10*
X197551339Y56193754D02*
X197241791Y58714821D01*
X197241791Y58714821D02*
X194720724Y58405273D01*
D11*
X196979896Y55448558D02*
X201049336Y55948222D01*
X196504606Y59319488D02*
X196979896Y55448558D01*
D10*
X195030272Y55884206D02*
X197551339Y56193754D01*
X194720724Y58405273D02*
X195030272Y55884206D01*
D11*
X202790689Y58177052D02*
G75*
G03*
X201049337Y55948222I243738J-1985090D01*
G01*
X198681298Y62105525D02*
G75*
G03*
X196504607Y59319488I304673J-2481364D01*
G01*
D10*
X206930539Y60996864D02*
G75*
G03*
X206930539Y60996864I-1524000J0D01*
G01*
X200937419Y57701926D02*
G75*
G03*
X200937419Y57701926I-1524000J0D01*
G01*
%TO.C,MX40*%
X7996705Y55277552D02*
X10517772Y54968004D01*
X7687156Y52756485D02*
X7996705Y55277552D01*
D11*
X9406435Y51890502D02*
X9942660Y56257706D01*
X9406435Y51890502D02*
X18637114Y50757118D01*
D10*
X10517772Y54968004D02*
X10208224Y52446937D01*
X10208224Y52446937D02*
X7687156Y52756485D01*
D11*
X15600173Y55563050D02*
X9942660Y56257706D01*
D10*
X21163696Y56219924D02*
X23684763Y55910376D01*
X20854147Y53698856D02*
X21163696Y56219924D01*
D11*
X21898443Y56804740D02*
X17829004Y57304404D01*
X21423153Y52933810D02*
X21898443Y56804740D01*
D10*
X23684763Y55910376D02*
X23375215Y53389308D01*
X23375215Y53389308D02*
X20854147Y53698856D01*
D11*
X15600173Y55563051D02*
G75*
G03*
X17829004Y57304404I243740J1985090D01*
G01*
X18637114Y50757119D02*
G75*
G03*
X21423152Y52933810I304674J2481364D01*
G01*
D10*
X13903853Y53459832D02*
G75*
G03*
X13903853Y53459832I-1524001J0D01*
G01*
X20516069Y55207029D02*
G75*
G03*
X20516069Y55207029I-1524001J0D01*
G01*
%TO.C,MX30*%
X224238278Y42836528D02*
X221717211Y42526979D01*
X223928730Y45357595D02*
X224238278Y42836528D01*
D11*
X222051021Y45781923D02*
X222587246Y41414720D01*
X222051021Y45781923D02*
X212820342Y44648538D01*
D10*
X221717211Y42526979D02*
X221407663Y45048047D01*
X221407663Y45048047D02*
X223928730Y45357595D01*
D11*
X216929733Y40720064D02*
X222587246Y41414720D01*
D10*
X211690383Y38736765D02*
X209169316Y38427217D01*
X211380835Y41257832D02*
X211690383Y38736765D01*
D11*
X211118940Y37991569D02*
X215188380Y38491233D01*
X210643650Y41862499D02*
X211118940Y37991569D01*
D10*
X209169316Y38427217D02*
X208859768Y40948284D01*
X208859768Y40948284D02*
X211380835Y41257832D01*
D11*
X216929733Y40720063D02*
G75*
G03*
X215188381Y38491233I243738J-1985090D01*
G01*
X212820342Y44648536D02*
G75*
G03*
X210643651Y41862499I304673J-2481364D01*
G01*
D10*
X221069583Y43539875D02*
G75*
G03*
X221069583Y43539875I-1524000J0D01*
G01*
X215076463Y40244937D02*
G75*
G03*
X215076463Y40244937I-1524000J0D01*
G01*
D12*
%TO.C,D1*%
X23198429Y72212671D02*
X20915573Y72492970D01*
X20915573Y72492970D02*
X20342787Y67828003D01*
X22625643Y67547704D02*
X23198429Y72212671D01*
X22625643Y67547704D02*
X20342787Y67828003D01*
D10*
%TO.C,MX33*%
X158018375Y15512684D02*
X155497308Y15203135D01*
X157708827Y18033751D02*
X158018375Y15512684D01*
D11*
X155831118Y18458079D02*
X156367343Y14090876D01*
X155831118Y18458079D02*
X146600439Y17324694D01*
D10*
X155497308Y15203135D02*
X155187760Y17724203D01*
X155187760Y17724203D02*
X157708827Y18033751D01*
D11*
X150709830Y13396220D02*
X156367343Y14090876D01*
D10*
X145470480Y11412921D02*
X142949413Y11103373D01*
X145160932Y13933988D02*
X145470480Y11412921D01*
D11*
X144899037Y10667725D02*
X148968477Y11167389D01*
X144423747Y14538655D02*
X144899037Y10667725D01*
D10*
X142949413Y11103373D02*
X142639865Y13624440D01*
X142639865Y13624440D02*
X145160932Y13933988D01*
D11*
X150709830Y13396219D02*
G75*
G03*
X148968478Y11167389I243738J-1985090D01*
G01*
X146600439Y17324692D02*
G75*
G03*
X144423748Y14538655I304673J-2481364D01*
G01*
D10*
X154849680Y16216031D02*
G75*
G03*
X154849680Y16216031I-1524000J0D01*
G01*
X148856560Y12921093D02*
G75*
G03*
X148856560Y12921093I-1524000J0D01*
G01*
%TO.C,MX31*%
X65670114Y17487248D02*
X63149047Y17796796D01*
X65979663Y20008315D02*
X65670114Y17487248D01*
D11*
X64260384Y20874298D02*
X63724159Y16507094D01*
X64260384Y20874298D02*
X55029705Y22007682D01*
D10*
X63149047Y17796796D02*
X63458595Y20317863D01*
X63458595Y20317863D02*
X65979663Y20008315D01*
D11*
X58066646Y17201750D02*
X63724159Y16507094D01*
D10*
X52503123Y16544876D02*
X49982056Y16854424D01*
X52812672Y19065944D02*
X52503123Y16544876D01*
D11*
X51768376Y15960060D02*
X55837815Y15460396D01*
X52243666Y19830990D02*
X51768376Y15960060D01*
D10*
X49982056Y16854424D02*
X50291604Y19375492D01*
X50291604Y19375492D02*
X52812672Y19065944D01*
D11*
X58066646Y17201749D02*
G75*
G03*
X55837815Y15460396I-243740J-1985090D01*
G01*
X55029705Y22007681D02*
G75*
G03*
X52243667Y19830990I-304674J-2481364D01*
G01*
D10*
X62810968Y19304968D02*
G75*
G03*
X62810968Y19304968I-1524001J0D01*
G01*
X56198752Y17557771D02*
G75*
G03*
X56198752Y17557771I-1524001J0D01*
G01*
D12*
%TO.C,C_1V1_2*%
X123502482Y45202312D02*
X122851944Y45852850D01*
X122851944Y45852850D02*
X121565010Y44565916D01*
X122215548Y43915378D02*
X123502482Y45202312D01*
X121565010Y44565916D02*
X122215548Y43915378D01*
D10*
%TO.C,MX45*%
X10402095Y35789145D02*
X12923162Y35479597D01*
X10092546Y33268078D02*
X10402095Y35789145D01*
D11*
X11811825Y32402095D02*
X12348050Y36769299D01*
X11811825Y32402095D02*
X21042504Y31268711D01*
D10*
X12923162Y35479597D02*
X12613614Y32958530D01*
X12613614Y32958530D02*
X10092546Y33268078D01*
D11*
X18005563Y36074643D02*
X12348050Y36769299D01*
D10*
X23569086Y36731517D02*
X26090153Y36421969D01*
X23259537Y34210449D02*
X23569086Y36731517D01*
D11*
X24303833Y37316333D02*
X20234394Y37815997D01*
X23828543Y33445403D02*
X24303833Y37316333D01*
D10*
X26090153Y36421969D02*
X25780605Y33900901D01*
X25780605Y33900901D02*
X23259537Y34210449D01*
D11*
X18005563Y36074644D02*
G75*
G03*
X20234394Y37815997I243740J1985090D01*
G01*
X21042504Y31268712D02*
G75*
G03*
X23828542Y33445403I304674J2481364D01*
G01*
D10*
X16309243Y33971425D02*
G75*
G03*
X16309243Y33971425I-1524001J0D01*
G01*
X22921459Y35718622D02*
G75*
G03*
X22921459Y35718622I-1524001J0D01*
G01*
D12*
%TO.C,D4*%
X79922490Y65247832D02*
X77639634Y65528131D01*
X77639634Y65528131D02*
X77066848Y60863164D01*
X79349704Y60582865D02*
X79922490Y65247832D01*
X79349704Y60582865D02*
X77066848Y60863164D01*
%TO.C,C_XTAL1*%
X122960278Y26711471D02*
X123610816Y27362009D01*
X123610816Y27362009D02*
X122323882Y28648943D01*
X121673344Y27998405D02*
X122960278Y26711471D01*
X122323882Y28648943D02*
X121673344Y27998405D01*
D10*
%TO.C,MX46*%
X36400601Y32596930D02*
X38921668Y32287382D01*
X36091052Y30075863D02*
X36400601Y32596930D01*
D11*
X37810331Y29209880D02*
X38346556Y33577084D01*
X37810331Y29209880D02*
X47041010Y28076496D01*
D10*
X38921668Y32287382D02*
X38612120Y29766315D01*
X38612120Y29766315D02*
X36091052Y30075863D01*
D11*
X44004069Y32882428D02*
X38346556Y33577084D01*
D10*
X49567592Y33539302D02*
X49258043Y31018234D01*
X49258043Y31018234D02*
X51779111Y30708686D01*
D11*
X50302339Y34124118D02*
X46232900Y34623782D01*
X49827049Y30253188D02*
X50302339Y34124118D01*
D10*
X52088659Y33229754D02*
X49567592Y33539302D01*
X51779111Y30708686D02*
X52088659Y33229754D01*
D11*
X44004069Y32882429D02*
G75*
G03*
X46232900Y34623782I243740J1985090D01*
G01*
X47041010Y28076497D02*
G75*
G03*
X49827048Y30253188I304674J2481364D01*
G01*
D10*
X42307749Y30779210D02*
G75*
G03*
X42307749Y30779210I-1524001J0D01*
G01*
X48919965Y32526407D02*
G75*
G03*
X48919965Y32526407I-1524001J0D01*
G01*
D12*
%TO.C,C_3V3_8*%
X128801563Y35685044D02*
X128801563Y36605044D01*
X128801563Y36605044D02*
X126981563Y36605044D01*
X126981563Y35685044D02*
X128801563Y35685044D01*
X126981563Y36605044D02*
X126981563Y35685044D01*
%TO.C,D13*%
X64601613Y47935919D02*
X62318757Y48216218D01*
X62318757Y48216218D02*
X61745971Y43551251D01*
X64028827Y43270952D02*
X64601613Y47935919D01*
X64028827Y43270952D02*
X61745971Y43551251D01*
%TO.C,D20*%
X231156168Y54810397D02*
X228873312Y54530098D01*
X228873312Y54530098D02*
X229446098Y49865131D01*
X231728954Y50145430D02*
X231156168Y54810397D01*
X231728954Y50145430D02*
X229446098Y49865131D01*
D10*
%TO.C,MX23*%
X65628224Y36685453D02*
X63107157Y36995001D01*
X65937773Y39206520D02*
X65628224Y36685453D01*
D11*
X64218494Y40072503D02*
X63682269Y35705299D01*
X64218494Y40072503D02*
X54987815Y41205887D01*
D10*
X63107157Y36995001D02*
X63416705Y39516068D01*
X63416705Y39516068D02*
X65937773Y39206520D01*
D11*
X58024756Y36399955D02*
X63682269Y35705299D01*
D10*
X52461233Y35743081D02*
X52770782Y38264149D01*
X52770782Y38264149D02*
X50249714Y38573697D01*
D11*
X51726486Y35158265D02*
X55795925Y34658601D01*
X52201776Y39029195D02*
X51726486Y35158265D01*
D10*
X49940166Y36052629D02*
X52461233Y35743081D01*
X50249714Y38573697D02*
X49940166Y36052629D01*
D11*
X58024756Y36399954D02*
G75*
G03*
X55795925Y34658601I-243740J-1985090D01*
G01*
X54987815Y41205886D02*
G75*
G03*
X52201777Y39029195I-304674J-2481364D01*
G01*
D10*
X62769078Y38503173D02*
G75*
G03*
X62769078Y38503173I-1524001J0D01*
G01*
X56156862Y36755976D02*
G75*
G03*
X56156862Y36755976I-1524001J0D01*
G01*
D12*
%TO.C,R_XTAL1*%
X120017844Y27831113D02*
X119353164Y28495793D01*
X119353164Y28495793D02*
X118037946Y27180575D01*
X118702626Y26515895D02*
X120017844Y27831113D01*
X118037946Y27180575D02*
X118702626Y26515895D01*
D10*
%TO.C,MX29*%
X189777511Y30928037D02*
X192298578Y31237586D01*
X190087059Y28406970D02*
X189777511Y30928037D01*
D11*
X191964768Y27982642D02*
X191428543Y32349845D01*
X191964768Y27982642D02*
X201195447Y29116027D01*
D10*
X192298578Y31237586D02*
X192608126Y28716518D01*
X192608126Y28716518D02*
X190087059Y28406970D01*
D11*
X197086056Y33044501D02*
X191428543Y32349845D01*
D10*
X202325406Y35027800D02*
X202634954Y32506733D01*
X202634954Y32506733D02*
X205156021Y32816281D01*
D11*
X202896849Y35772996D02*
X198827409Y35273332D01*
X203372139Y31902066D02*
X202896849Y35772996D01*
D10*
X204846473Y35337348D02*
X202325406Y35027800D01*
X205156021Y32816281D02*
X204846473Y35337348D01*
D11*
X197086056Y33044502D02*
G75*
G03*
X198827408Y35273332I-243738J1985090D01*
G01*
X201195447Y29116029D02*
G75*
G03*
X203372138Y31902066I-304673J2481364D01*
G01*
D10*
X195994206Y30224690D02*
G75*
G03*
X195994206Y30224690I-1524000J0D01*
G01*
X201987326Y33519628D02*
G75*
G03*
X201987326Y33519628I-1524000J0D01*
G01*
%TO.C,MX32*%
X96395622Y13714631D02*
X93874555Y14024179D01*
X96705171Y16235698D02*
X96395622Y13714631D01*
D11*
X94985892Y17101681D02*
X94449667Y12734477D01*
X94985892Y17101681D02*
X85755213Y18235065D01*
D10*
X93874555Y14024179D02*
X94184103Y16545246D01*
X94184103Y16545246D02*
X96705171Y16235698D01*
D11*
X88792154Y13429133D02*
X94449667Y12734477D01*
D10*
X83228631Y12772259D02*
X80707564Y13081807D01*
X83538180Y15293327D02*
X83228631Y12772259D01*
D11*
X82493884Y12187443D02*
X86563323Y11687779D01*
X82969174Y16058373D02*
X82493884Y12187443D01*
D10*
X80707564Y13081807D02*
X81017112Y15602875D01*
X81017112Y15602875D02*
X83538180Y15293327D01*
D11*
X88792154Y13429132D02*
G75*
G03*
X86563323Y11687779I-243740J-1985090D01*
G01*
X85755213Y18235064D02*
G75*
G03*
X82969175Y16058373I-304674J-2481364D01*
G01*
D10*
X93536476Y15532351D02*
G75*
G03*
X93536476Y15532351I-1524001J0D01*
G01*
X86924260Y13785154D02*
G75*
G03*
X86924260Y13785154I-1524001J0D01*
G01*
D12*
%TO.C,R_DATA1*%
X117896556Y43358800D02*
X118836556Y43358800D01*
X118836556Y43358800D02*
X118836556Y45218800D01*
X117896556Y45218800D02*
X117896556Y43358800D01*
X118836556Y45218800D02*
X117896556Y45218800D01*
D10*
%TO.C,MX36*%
X156772280Y65261628D02*
X159293347Y65571177D01*
X157081828Y62740561D02*
X156772280Y65261628D01*
D11*
X158959537Y62316233D02*
X158423312Y66683436D01*
X158959537Y62316233D02*
X168190216Y63449618D01*
D10*
X159293347Y65571177D02*
X159602895Y63050109D01*
X159602895Y63050109D02*
X157081828Y62740561D01*
D11*
X164080825Y67378092D02*
X158423312Y66683436D01*
D10*
X169320175Y69361391D02*
X169629723Y66840324D01*
X169629723Y66840324D02*
X172150790Y67149872D01*
D11*
X169891618Y70106587D02*
X165822178Y69606923D01*
X170366908Y66235657D02*
X169891618Y70106587D01*
D10*
X171841242Y69670939D02*
X169320175Y69361391D01*
X172150790Y67149872D02*
X171841242Y69670939D01*
D11*
X164080825Y67378093D02*
G75*
G03*
X165822177Y69606923I-243738J1985090D01*
G01*
X168190216Y63449620D02*
G75*
G03*
X170366907Y66235657I-304673J2481364D01*
G01*
D10*
X162988975Y64558281D02*
G75*
G03*
X162988975Y64558281I-1524000J0D01*
G01*
X168982095Y67853219D02*
G75*
G03*
X168982095Y67853219I-1524000J0D01*
G01*
D12*
%TO.C,D26*%
X156663950Y26470825D02*
X154381094Y26190526D01*
X154381094Y26190526D02*
X154953880Y21525559D01*
X157236736Y21805858D02*
X156663950Y26470825D01*
X157236736Y21805858D02*
X154953880Y21525559D01*
D10*
%TO.C,MX2*%
X41909440Y77983879D02*
X39388373Y78293427D01*
X42218989Y80504946D02*
X41909440Y77983879D01*
D11*
X40499710Y81370929D02*
X39963485Y77003725D01*
X40499710Y81370929D02*
X31269031Y82504313D01*
D10*
X39388373Y78293427D02*
X39697921Y80814494D01*
X39697921Y80814494D02*
X42218989Y80504946D01*
D11*
X34305972Y77698381D02*
X39963485Y77003725D01*
D10*
X28742449Y77041507D02*
X29051998Y79562575D01*
X29051998Y79562575D02*
X26530930Y79872123D01*
D11*
X28007702Y76456691D02*
X32077141Y75957027D01*
X28482992Y80327621D02*
X28007702Y76456691D01*
D10*
X26221382Y77351055D02*
X28742449Y77041507D01*
X26530930Y79872123D02*
X26221382Y77351055D01*
D11*
X34305972Y77698380D02*
G75*
G03*
X32077141Y75957027I-243740J-1985090D01*
G01*
X31269031Y82504312D02*
G75*
G03*
X28482993Y80327621I-304674J-2481364D01*
G01*
D10*
X39050294Y79801599D02*
G75*
G03*
X39050294Y79801599I-1524001J0D01*
G01*
X32438078Y78054402D02*
G75*
G03*
X32438078Y78054402I-1524001J0D01*
G01*
%TO.C,MX52*%
X198239842Y39644305D02*
X195718775Y39334756D01*
X197930294Y42165372D02*
X198239842Y39644305D01*
D11*
X196052585Y42589700D02*
X196588810Y38222497D01*
X196052585Y42589700D02*
X186821906Y41456315D01*
D10*
X195718775Y39334756D02*
X195409227Y41855824D01*
X195409227Y41855824D02*
X197930294Y42165372D01*
D11*
X190931297Y37527841D02*
X196588810Y38222497D01*
D10*
X185691947Y35544542D02*
X185382399Y38065609D01*
X185382399Y38065609D02*
X182861332Y37756061D01*
D11*
X185120504Y34799346D02*
X189189944Y35299010D01*
X184645214Y38670276D02*
X185120504Y34799346D01*
D10*
X183170880Y35234994D02*
X185691947Y35544542D01*
X182861332Y37756061D02*
X183170880Y35234994D01*
D11*
X190931297Y37527840D02*
G75*
G03*
X189189945Y35299010I243738J-1985090D01*
G01*
X186821906Y41456313D02*
G75*
G03*
X184645215Y38670276I304673J-2481364D01*
G01*
D10*
X195071147Y40347652D02*
G75*
G03*
X195071147Y40347652I-1524000J0D01*
G01*
X189078027Y37052714D02*
G75*
G03*
X189078027Y37052714I-1524000J0D01*
G01*
%TO.C,MX39*%
X213496293Y72226460D02*
X216017360Y72536009D01*
X213805841Y69705393D02*
X213496293Y72226460D01*
D11*
X215683550Y69281065D02*
X215147325Y73648268D01*
X215683550Y69281065D02*
X224914229Y70414450D01*
D10*
X216017360Y72536009D02*
X216326908Y70014941D01*
X216326908Y70014941D02*
X213805841Y69705393D01*
D11*
X220804838Y74342924D02*
X215147325Y73648268D01*
D10*
X226044188Y76326223D02*
X226353736Y73805156D01*
X226353736Y73805156D02*
X228874803Y74114704D01*
D11*
X226615631Y77071419D02*
X222546191Y76571755D01*
X227090921Y73200489D02*
X226615631Y77071419D01*
D10*
X228565255Y76635771D02*
X226044188Y76326223D01*
X228874803Y74114704D02*
X228565255Y76635771D01*
D11*
X220804838Y74342925D02*
G75*
G03*
X222546190Y76571755I-243738J1985090D01*
G01*
X224914229Y70414452D02*
G75*
G03*
X227090920Y73200489I-304673J2481364D01*
G01*
D10*
X219712988Y71523113D02*
G75*
G03*
X219712988Y71523113I-1524000J0D01*
G01*
X225706108Y74818051D02*
G75*
G03*
X225706108Y74818051I-1524000J0D01*
G01*
%TO.C,MX20*%
X229007236Y62615127D02*
X226486169Y62305578D01*
X228697688Y65136194D02*
X229007236Y62615127D01*
D11*
X226819979Y65560522D02*
X227356204Y61193319D01*
X226819979Y65560522D02*
X217589300Y64427137D01*
D10*
X226486169Y62305578D02*
X226176621Y64826646D01*
X226176621Y64826646D02*
X228697688Y65136194D01*
D11*
X221698691Y60498663D02*
X227356204Y61193319D01*
D10*
X216459341Y58515364D02*
X216149793Y61036431D01*
X216149793Y61036431D02*
X213628726Y60726883D01*
D11*
X215887898Y57770168D02*
X219957338Y58269832D01*
X215412608Y61641098D02*
X215887898Y57770168D01*
D10*
X213938274Y58205816D02*
X216459341Y58515364D01*
X213628726Y60726883D02*
X213938274Y58205816D01*
D11*
X221698691Y60498662D02*
G75*
G03*
X219957339Y58269832I243738J-1985090D01*
G01*
X217589300Y64427135D02*
G75*
G03*
X215412609Y61641098I304673J-2481364D01*
G01*
D10*
X225838541Y63318474D02*
G75*
G03*
X225838541Y63318474I-1524000J0D01*
G01*
X219845421Y60023536D02*
G75*
G03*
X219845421Y60023536I-1524000J0D01*
G01*
D12*
%TO.C,D2*%
X42106449Y69891058D02*
X39823593Y70171357D01*
X39823593Y70171357D02*
X39250807Y65506390D01*
X41533663Y65226091D02*
X42106449Y69891058D01*
X41533663Y65226091D02*
X39250807Y65506390D01*
%TO.C,D33*%
X159732012Y11253160D02*
X157449156Y10972861D01*
X157449156Y10972861D02*
X158021942Y6307894D01*
X160304798Y6588193D02*
X159732012Y11253160D01*
X160304798Y6588193D02*
X158021942Y6307894D01*
D10*
%TO.C,MX43*%
X67084218Y48022519D02*
X69605285Y47712971D01*
X66774669Y45501452D02*
X67084218Y48022519D01*
D11*
X68493948Y44635469D02*
X69030173Y49002673D01*
X68493948Y44635469D02*
X77724627Y43502085D01*
D10*
X69605285Y47712971D02*
X69295737Y45191904D01*
X69295737Y45191904D02*
X66774669Y45501452D01*
D11*
X74687686Y48308017D02*
X69030173Y49002673D01*
D10*
X80251209Y48964891D02*
X79941660Y46443823D01*
X79941660Y46443823D02*
X82462728Y46134275D01*
D11*
X80985956Y49549707D02*
X76916517Y50049371D01*
X80510666Y45678777D02*
X80985956Y49549707D01*
D10*
X82772276Y48655343D02*
X80251209Y48964891D01*
X82462728Y46134275D02*
X82772276Y48655343D01*
D11*
X74687686Y48308018D02*
G75*
G03*
X76916517Y50049371I243740J1985090D01*
G01*
X77724627Y43502086D02*
G75*
G03*
X80510665Y45678777I304674J2481364D01*
G01*
D10*
X72991366Y46204799D02*
G75*
G03*
X72991366Y46204799I-1524001J0D01*
G01*
X79603582Y47951996D02*
G75*
G03*
X79603582Y47951996I-1524001J0D01*
G01*
D12*
%TO.C,D31*%
X66302443Y12939629D02*
X64019587Y13219928D01*
X64019587Y13219928D02*
X63446801Y8554961D01*
X65729657Y8274662D02*
X66302443Y12939629D01*
X65729657Y8274662D02*
X63446801Y8554961D01*
%TO.C,D16*%
X155524091Y45523945D02*
X153241235Y45243646D01*
X153241235Y45243646D02*
X153814021Y40578679D01*
X156096877Y40858978D02*
X155524091Y45523945D01*
X156096877Y40858978D02*
X153814021Y40578679D01*
%TO.C,D5*%
X98830510Y62926219D02*
X96547654Y63206518D01*
X96547654Y63206518D02*
X95974868Y58541551D01*
X98257724Y58261252D02*
X98830510Y62926219D01*
X98257724Y58261252D02*
X95974868Y58541551D01*
%TO.C,D12*%
X45693594Y50257532D02*
X43410738Y50537831D01*
X43410738Y50537831D02*
X42837952Y45872864D01*
X45120808Y45592565D02*
X45693594Y50257532D01*
X45120808Y45592565D02*
X42837952Y45872864D01*
D10*
%TO.C,MX21*%
X23085215Y41909079D02*
X20564148Y42218627D01*
X23394764Y44430146D02*
X23085215Y41909079D01*
D11*
X21675485Y45296129D02*
X21139260Y40928925D01*
X21675485Y45296129D02*
X12444806Y46429513D01*
D10*
X20564148Y42218627D02*
X20873696Y44739694D01*
X20873696Y44739694D02*
X23394764Y44430146D01*
D11*
X15481747Y41623581D02*
X21139260Y40928925D01*
D10*
X9918224Y40966707D02*
X7397157Y41276255D01*
X10227773Y43487775D02*
X9918224Y40966707D01*
D11*
X9183477Y40381891D02*
X13252916Y39882227D01*
X9658767Y44252821D02*
X9183477Y40381891D01*
D10*
X7397157Y41276255D02*
X7706705Y43797323D01*
X7706705Y43797323D02*
X10227773Y43487775D01*
D11*
X15481747Y41623580D02*
G75*
G03*
X13252916Y39882227I-243740J-1985090D01*
G01*
X12444806Y46429512D02*
G75*
G03*
X9658768Y44252821I-304674J-2481364D01*
G01*
D10*
X20226069Y43726799D02*
G75*
G03*
X20226069Y43726799I-1524001J0D01*
G01*
X13613853Y41979602D02*
G75*
G03*
X13613853Y41979602I-1524001J0D01*
G01*
D12*
%TO.C,D15*%
X102417652Y43292694D02*
X100134796Y43572993D01*
X100134796Y43572993D02*
X99562010Y38908026D01*
X101844866Y38627727D02*
X102417652Y43292694D01*
X101844866Y38627727D02*
X99562010Y38908026D01*
%TO.C,Y1*%
X123434811Y26068776D02*
X120464962Y23098927D01*
X121030648Y28472939D02*
X123434811Y26068776D01*
X120464962Y23098927D02*
X118060799Y25503090D01*
X118060799Y25503090D02*
X121030648Y28472939D01*
D10*
%TO.C,MX34*%
X188743882Y19285302D02*
X186222815Y18975753D01*
X188434334Y21806369D02*
X188743882Y19285302D01*
D11*
X186556625Y22230697D02*
X187092850Y17863494D01*
X186556625Y22230697D02*
X177325946Y21097312D01*
D10*
X186222815Y18975753D02*
X185913267Y21496821D01*
X185913267Y21496821D02*
X188434334Y21806369D01*
D11*
X181435337Y17168838D02*
X187092850Y17863494D01*
D10*
X176195987Y15185539D02*
X173674920Y14875991D01*
X175886439Y17706606D02*
X176195987Y15185539D01*
D11*
X175624544Y14440343D02*
X179693984Y14940007D01*
X175149254Y18311273D02*
X175624544Y14440343D01*
D10*
X173674920Y14875991D02*
X173365372Y17397058D01*
X173365372Y17397058D02*
X175886439Y17706606D01*
D11*
X181435337Y17168837D02*
G75*
G03*
X179693985Y14940007I243738J-1985090D01*
G01*
X177325946Y21097310D02*
G75*
G03*
X175149255Y18311273I304673J-2481364D01*
G01*
D10*
X185575187Y19988649D02*
G75*
G03*
X185575187Y19988649I-1524000J0D01*
G01*
X179582067Y16693711D02*
G75*
G03*
X179582067Y16693711I-1524000J0D01*
G01*
%TO.C,MX3*%
X60817446Y75662267D02*
X58296379Y75971815D01*
X61126995Y78183334D02*
X60817446Y75662267D01*
D11*
X59407716Y79049317D02*
X58871491Y74682113D01*
X59407716Y79049317D02*
X50177037Y80182701D01*
D10*
X58296379Y75971815D02*
X58605927Y78492882D01*
X58605927Y78492882D02*
X61126995Y78183334D01*
D11*
X53213978Y75376769D02*
X58871491Y74682113D01*
D10*
X47650455Y74719895D02*
X47960004Y77240963D01*
X47960004Y77240963D02*
X45438936Y77550511D01*
D11*
X46915708Y74135079D02*
X50985147Y73635415D01*
X47390998Y78006009D02*
X46915708Y74135079D01*
D10*
X45129388Y75029443D02*
X47650455Y74719895D01*
X45438936Y77550511D02*
X45129388Y75029443D01*
D11*
X53213978Y75376768D02*
G75*
G03*
X50985147Y73635415I-243740J-1985090D01*
G01*
X50177037Y80182700D02*
G75*
G03*
X47390999Y78006009I-304674J-2481364D01*
G01*
D10*
X57958300Y77479987D02*
G75*
G03*
X57958300Y77479987I-1524001J0D01*
G01*
X51346084Y75732790D02*
G75*
G03*
X51346084Y75732790I-1524001J0D01*
G01*
D12*
%TO.C,C_ESD1*%
X113780924Y50377243D02*
X113780924Y51297243D01*
X113780924Y51297243D02*
X111960924Y51297243D01*
X111960924Y50377243D02*
X113780924Y50377243D01*
X111960924Y51297243D02*
X111960924Y50377243D01*
%TO.C,C_1V1_3*%
X116375395Y28871410D02*
X117025933Y28220872D01*
X117025933Y28220872D02*
X118312867Y29507806D01*
X117662329Y30158344D02*
X116375395Y28871410D01*
X118312867Y29507806D02*
X117662329Y30158344D01*
D10*
%TO.C,MX18*%
X191191229Y57971906D02*
X188670162Y57662357D01*
X190881681Y60492973D02*
X191191229Y57971906D01*
D11*
X189003972Y60917301D02*
X189540197Y56550098D01*
X189003972Y60917301D02*
X179773293Y59783916D01*
D10*
X188670162Y57662357D02*
X188360614Y60183425D01*
X188360614Y60183425D02*
X190881681Y60492973D01*
D11*
X183882684Y55855442D02*
X189540197Y56550098D01*
D10*
X178643334Y53872143D02*
X178333786Y56393210D01*
X178333786Y56393210D02*
X175812719Y56083662D01*
D11*
X178071891Y53126947D02*
X182141331Y53626611D01*
X177596601Y56997877D02*
X178071891Y53126947D01*
D10*
X176122267Y53562595D02*
X178643334Y53872143D01*
X175812719Y56083662D02*
X176122267Y53562595D01*
D11*
X183882684Y55855441D02*
G75*
G03*
X182141332Y53626611I243738J-1985090D01*
G01*
X179773293Y59783914D02*
G75*
G03*
X177596602Y56997877I304673J-2481364D01*
G01*
D10*
X188022534Y58675253D02*
G75*
G03*
X188022534Y58675253I-1524000J0D01*
G01*
X182029414Y55380315D02*
G75*
G03*
X182029414Y55380315I-1524000J0D01*
G01*
%TO.C,MX24*%
X84536230Y34363843D02*
X82015163Y34673391D01*
X84845779Y36884910D02*
X84536230Y34363843D01*
D11*
X83126500Y37750893D02*
X82590275Y33383689D01*
X83126500Y37750893D02*
X73895821Y38884277D01*
D10*
X82015163Y34673391D02*
X82324711Y37194458D01*
X82324711Y37194458D02*
X84845779Y36884910D01*
D11*
X76932762Y34078345D02*
X82590275Y33383689D01*
D10*
X71369239Y33421471D02*
X71678788Y35942539D01*
X71678788Y35942539D02*
X69157720Y36252087D01*
D11*
X70634492Y32836655D02*
X74703931Y32336991D01*
X71109782Y36707585D02*
X70634492Y32836655D01*
D10*
X68848172Y33731019D02*
X71369239Y33421471D01*
X69157720Y36252087D02*
X68848172Y33731019D01*
D11*
X76932762Y34078344D02*
G75*
G03*
X74703931Y32336991I-243740J-1985090D01*
G01*
X73895821Y38884276D02*
G75*
G03*
X71109783Y36707585I-304674J-2481364D01*
G01*
D10*
X81677084Y36181563D02*
G75*
G03*
X81677084Y36181563I-1524001J0D01*
G01*
X75064868Y34434366D02*
G75*
G03*
X75064868Y34434366I-1524001J0D01*
G01*
D12*
%TO.C,U3*%
X110493422Y49320052D02*
X114333422Y49320052D01*
X110493422Y45920052D02*
X110493422Y49320052D01*
X114333422Y49320052D02*
X114333422Y45920052D01*
X114333422Y45920052D02*
X110493422Y45920052D01*
D10*
%TO.C,MX11*%
X20679826Y61397485D02*
X18158759Y61707033D01*
X20989375Y63918552D02*
X20679826Y61397485D01*
D11*
X19270096Y64784535D02*
X18733871Y60417331D01*
X19270096Y64784535D02*
X10039417Y65917919D01*
D10*
X18158759Y61707033D02*
X18468307Y64228100D01*
X18468307Y64228100D02*
X20989375Y63918552D01*
D11*
X13076358Y61111987D02*
X18733871Y60417331D01*
D10*
X7512835Y60455113D02*
X7822384Y62976181D01*
X7822384Y62976181D02*
X5301316Y63285729D01*
D11*
X6778088Y59870297D02*
X10847527Y59370633D01*
X7253378Y63741227D02*
X6778088Y59870297D01*
D10*
X4991768Y60764661D02*
X7512835Y60455113D01*
X5301316Y63285729D02*
X4991768Y60764661D01*
D11*
X13076358Y61111986D02*
G75*
G03*
X10847527Y59370633I-243740J-1985090D01*
G01*
X10039417Y65917918D02*
G75*
G03*
X7253379Y63741227I-304674J-2481364D01*
G01*
D10*
X17820680Y63215205D02*
G75*
G03*
X17820680Y63215205I-1524001J0D01*
G01*
X11208464Y61468008D02*
G75*
G03*
X11208464Y61468008I-1524001J0D01*
G01*
%TO.C,MX7*%
X165234612Y73977898D02*
X162713545Y73668349D01*
X164925064Y76498965D02*
X165234612Y73977898D01*
D11*
X163047355Y76923293D02*
X163583580Y72556090D01*
X163047355Y76923293D02*
X153816676Y75789908D01*
D10*
X162713545Y73668349D02*
X162403997Y76189417D01*
X162403997Y76189417D02*
X164925064Y76498965D01*
D11*
X157926067Y71861434D02*
X163583580Y72556090D01*
D10*
X152686717Y69878135D02*
X152377169Y72399202D01*
X152377169Y72399202D02*
X149856102Y72089654D01*
D11*
X152115274Y69132939D02*
X156184714Y69632603D01*
X151639984Y73003869D02*
X152115274Y69132939D01*
D10*
X150165650Y69568587D02*
X152686717Y69878135D01*
X149856102Y72089654D02*
X150165650Y69568587D01*
D11*
X157926067Y71861433D02*
G75*
G03*
X156184715Y69632603I243738J-1985090D01*
G01*
X153816676Y75789906D02*
G75*
G03*
X151639985Y73003869I304673J-2481364D01*
G01*
D10*
X162065917Y74681245D02*
G75*
G03*
X162065917Y74681245I-1524000J0D01*
G01*
X156072797Y71386307D02*
G75*
G03*
X156072797Y71386307I-1524000J0D01*
G01*
%TO.C,MX12*%
X39587829Y59075874D02*
X37066762Y59385422D01*
X39897378Y61596941D02*
X39587829Y59075874D01*
D11*
X38178099Y62462924D02*
X37641874Y58095720D01*
X38178099Y62462924D02*
X28947420Y63596308D01*
D10*
X37066762Y59385422D02*
X37376310Y61906489D01*
X37376310Y61906489D02*
X39897378Y61596941D01*
D11*
X31984361Y58790376D02*
X37641874Y58095720D01*
D10*
X26420838Y58133502D02*
X26730387Y60654570D01*
X26730387Y60654570D02*
X24209319Y60964118D01*
D11*
X25686091Y57548686D02*
X29755530Y57049022D01*
X26161381Y61419616D02*
X25686091Y57548686D01*
D10*
X23899771Y58443050D02*
X26420838Y58133502D01*
X24209319Y60964118D02*
X23899771Y58443050D01*
D11*
X31984361Y58790375D02*
G75*
G03*
X29755530Y57049022I-243740J-1985090D01*
G01*
X28947420Y63596307D02*
G75*
G03*
X26161382Y61419616I-304674J-2481364D01*
G01*
D10*
X36728683Y60893594D02*
G75*
G03*
X36728683Y60893594I-1524001J0D01*
G01*
X30116467Y59146397D02*
G75*
G03*
X30116467Y59146397I-1524001J0D01*
G01*
%TO.C,MX5*%
X98633454Y71019045D02*
X96112387Y71328593D01*
X98943003Y73540112D02*
X98633454Y71019045D01*
D11*
X97223724Y74406095D02*
X96687499Y70038891D01*
X97223724Y74406095D02*
X87993045Y75539479D01*
D10*
X96112387Y71328593D02*
X96421935Y73849660D01*
X96421935Y73849660D02*
X98943003Y73540112D01*
D11*
X91029986Y70733547D02*
X96687499Y70038891D01*
D10*
X85466463Y70076673D02*
X85776012Y72597741D01*
X85776012Y72597741D02*
X83254944Y72907289D01*
D11*
X84731716Y69491857D02*
X88801155Y68992193D01*
X85207006Y73362787D02*
X84731716Y69491857D01*
D10*
X82945396Y70386221D02*
X85466463Y70076673D01*
X83254944Y72907289D02*
X82945396Y70386221D01*
D11*
X91029986Y70733546D02*
G75*
G03*
X88801155Y68992193I-243740J-1985090D01*
G01*
X87993045Y75539478D02*
G75*
G03*
X85207007Y73362787I-304674J-2481364D01*
G01*
D10*
X95774308Y72836765D02*
G75*
G03*
X95774308Y72836765I-1524001J0D01*
G01*
X89162092Y71089568D02*
G75*
G03*
X89162092Y71089568I-1524001J0D01*
G01*
D12*
%TO.C,D11*%
X24422068Y52869348D02*
X22139212Y53149647D01*
X22139212Y53149647D02*
X21566426Y48484680D01*
X23849282Y48204381D02*
X24422068Y52869348D01*
X23849282Y48204381D02*
X21566426Y48484680D01*
%TO.C,D25*%
X109550051Y23223869D02*
X107267195Y23504168D01*
X107267195Y23504168D02*
X106694409Y18839201D01*
X108977265Y18558902D02*
X109550051Y23223869D01*
X108977265Y18558902D02*
X106694409Y18839201D01*
D10*
%TO.C,MX13*%
X58495834Y56754264D02*
X55974767Y57063812D01*
X58805383Y59275331D02*
X58495834Y56754264D01*
D11*
X57086104Y60141314D02*
X56549879Y55774110D01*
X57086104Y60141314D02*
X47855425Y61274698D01*
D10*
X55974767Y57063812D02*
X56284315Y59584879D01*
X56284315Y59584879D02*
X58805383Y59275331D01*
D11*
X50892366Y56468766D02*
X56549879Y55774110D01*
D10*
X45328843Y55811892D02*
X45638392Y58332960D01*
X45638392Y58332960D02*
X43117324Y58642508D01*
D11*
X44594096Y55227076D02*
X48663535Y54727412D01*
X45069386Y59098006D02*
X44594096Y55227076D01*
D10*
X42807776Y56121440D02*
X45328843Y55811892D01*
X43117324Y58642508D02*
X42807776Y56121440D01*
D11*
X50892366Y56468765D02*
G75*
G03*
X48663535Y54727412I-243740J-1985090D01*
G01*
X47855425Y61274697D02*
G75*
G03*
X45069387Y59098006I-304674J-2481364D01*
G01*
D10*
X55636688Y58571984D02*
G75*
G03*
X55636688Y58571984I-1524001J0D01*
G01*
X49024472Y56824787D02*
G75*
G03*
X49024472Y56824787I-1524001J0D01*
G01*
%TO.C,MX49*%
X93124614Y25632097D02*
X95645681Y25322549D01*
X92815065Y23111030D02*
X93124614Y25632097D01*
D11*
X94534344Y22245047D02*
X95070569Y26612251D01*
X94534344Y22245047D02*
X103765023Y21111663D01*
D10*
X95645681Y25322549D02*
X95336133Y22801482D01*
X95336133Y22801482D02*
X92815065Y23111030D01*
D11*
X100728082Y25917595D02*
X95070569Y26612251D01*
D10*
X106291605Y26574469D02*
X105982056Y24053401D01*
X105982056Y24053401D02*
X108503124Y23743853D01*
D11*
X107026352Y27159285D02*
X102956913Y27658949D01*
X106551062Y23288355D02*
X107026352Y27159285D01*
D10*
X108812672Y26264921D02*
X106291605Y26574469D01*
X108503124Y23743853D02*
X108812672Y26264921D01*
D11*
X100728082Y25917596D02*
G75*
G03*
X102956913Y27658949I243740J1985090D01*
G01*
X103765023Y21111664D02*
G75*
G03*
X106551061Y23288355I304674J2481364D01*
G01*
D10*
X99031762Y23814377D02*
G75*
G03*
X99031762Y23814377I-1524001J0D01*
G01*
X105643978Y25561574D02*
G75*
G03*
X105643978Y25561574I-1524001J0D01*
G01*
D12*
%TO.C,D3*%
X61014468Y67569446D02*
X58731612Y67849745D01*
X58731612Y67849745D02*
X58158826Y63184778D01*
X60441682Y62904479D02*
X61014468Y67569446D01*
X60441682Y62904479D02*
X58158826Y63184778D01*
%TO.C,C_3V3_1*%
X111960923Y42962861D02*
X111960923Y42042861D01*
X111960923Y42042861D02*
X113780923Y42042861D01*
X113780923Y42962861D02*
X111960923Y42962861D01*
X113780923Y42042861D02*
X113780923Y42962861D01*
%TO.C,C_3V3_9*%
X117217278Y28029527D02*
X117867816Y27378989D01*
X117867816Y27378989D02*
X119154750Y28665923D01*
X118504212Y29316461D02*
X117217278Y28029527D01*
X119154750Y28665923D02*
X118504212Y29316461D01*
%TO.C,C_1V1_1*%
X116445302Y45198801D02*
X115525302Y45198801D01*
X115525302Y45198801D02*
X115525302Y43378801D01*
X116445302Y43378801D02*
X116445302Y45198801D01*
X115525302Y43378801D02*
X116445302Y43378801D01*
%TO.C,D32*%
X97027977Y9167009D02*
X94745121Y9447308D01*
X94745121Y9447308D02*
X94172335Y4782341D01*
X96455191Y4502042D02*
X97027977Y9167009D01*
X96455191Y4502042D02*
X94172335Y4782341D01*
%TO.C,D7*%
X173292246Y66898679D02*
X171009390Y66618380D01*
X171009390Y66618380D02*
X171582176Y61953413D01*
X173865032Y62233712D02*
X173292246Y66898679D01*
X173865032Y62233712D02*
X171582176Y61953413D01*
%TO.C,U1*%
X116047496Y33040044D02*
X116047496Y41250044D01*
X124257496Y41250044D02*
X116047496Y41250044D01*
X124257496Y33040044D02*
X116047496Y33040044D01*
X124257496Y33040044D02*
X124257496Y41250044D01*
D10*
%TO.C,MX35*%
X135500708Y62649822D02*
X138021775Y62959371D01*
X135810256Y60128755D02*
X135500708Y62649822D01*
D11*
X137687965Y59704427D02*
X137151740Y64071630D01*
X137687965Y59704427D02*
X146918644Y60837812D01*
D10*
X138021775Y62959371D02*
X138331323Y60438303D01*
X138331323Y60438303D02*
X135810256Y60128755D01*
D11*
X142809253Y64766286D02*
X137151740Y64071630D01*
D10*
X148048603Y66749585D02*
X150569670Y67059133D01*
X148358151Y64228518D02*
X148048603Y66749585D01*
D11*
X148620046Y67494781D02*
X144550606Y66995117D01*
X149095336Y63623851D02*
X148620046Y67494781D01*
D10*
X150569670Y67059133D02*
X150879218Y64538066D01*
X150879218Y64538066D02*
X148358151Y64228518D01*
D11*
X142809253Y64766287D02*
G75*
G03*
X144550605Y66995117I-243738J1985090D01*
G01*
X146918644Y60837814D02*
G75*
G03*
X149095335Y63623851I-304673J2481364D01*
G01*
D10*
X141717403Y61946475D02*
G75*
G03*
X141717403Y61946475I-1524000J0D01*
G01*
X147710523Y65241413D02*
G75*
G03*
X147710523Y65241413I-1524000J0D01*
G01*
D12*
%TO.C,C_FLASH1*%
X125050309Y21890969D02*
X125970309Y21890969D01*
X125970309Y21890969D02*
X125970309Y23710969D01*
X125050309Y23710969D02*
X125050309Y21890969D01*
X125970309Y23710969D02*
X125050309Y23710969D01*
%TO.C,C_3V3_2*%
X111960923Y41772235D02*
X111960923Y40852235D01*
X111960923Y40852235D02*
X113780923Y40852235D01*
X113780923Y41772235D02*
X111960923Y41772235D01*
X113780923Y40852235D02*
X113780923Y41772235D01*
D10*
%TO.C,MX16*%
X153375220Y53328684D02*
X150854153Y53019135D01*
X153065672Y55849751D02*
X153375220Y53328684D01*
D11*
X151187963Y56274079D02*
X151724188Y51906876D01*
X151187963Y56274079D02*
X141957284Y55140694D01*
D10*
X150854153Y53019135D02*
X150544605Y55540203D01*
X150544605Y55540203D02*
X153065672Y55849751D01*
D11*
X146066675Y51212220D02*
X151724188Y51906876D01*
D10*
X140827325Y49228921D02*
X140517777Y51749988D01*
X140517777Y51749988D02*
X137996710Y51440440D01*
D11*
X140255882Y48483725D02*
X144325322Y48983389D01*
X139780592Y52354655D02*
X140255882Y48483725D01*
D10*
X138306258Y48919373D02*
X140827325Y49228921D01*
X137996710Y51440440D02*
X138306258Y48919373D01*
D11*
X146066675Y51212219D02*
G75*
G03*
X144325323Y48983389I243738J-1985090D01*
G01*
X141957284Y55140692D02*
G75*
G03*
X139780593Y52354655I304673J-2481364D01*
G01*
D10*
X150206525Y54032031D02*
G75*
G03*
X150206525Y54032031I-1524000J0D01*
G01*
X144213405Y50737093D02*
G75*
G03*
X144213405Y50737093I-1524000J0D01*
G01*
%TO.C,MX4*%
X79725448Y73340656D02*
X77204381Y73650204D01*
X80034997Y75861723D02*
X79725448Y73340656D01*
D11*
X78315718Y76727706D02*
X77779493Y72360502D01*
X78315718Y76727706D02*
X69085039Y77861090D01*
D10*
X77204381Y73650204D02*
X77513929Y76171271D01*
X77513929Y76171271D02*
X80034997Y75861723D01*
D11*
X72121980Y73055158D02*
X77779493Y72360502D01*
D10*
X66558457Y72398284D02*
X66868006Y74919352D01*
X66868006Y74919352D02*
X64346938Y75228900D01*
D11*
X65823710Y71813468D02*
X69893149Y71313804D01*
X66299000Y75684398D02*
X65823710Y71813468D01*
D10*
X64037390Y72707832D02*
X66558457Y72398284D01*
X64346938Y75228900D02*
X64037390Y72707832D01*
D11*
X72121980Y73055157D02*
G75*
G03*
X69893149Y71313804I-243740J-1985090D01*
G01*
X69085039Y77861089D02*
G75*
G03*
X66299001Y75684398I-304674J-2481364D01*
G01*
D10*
X76866302Y75158376D02*
G75*
G03*
X76866302Y75158376I-1524001J0D01*
G01*
X70254086Y73411179D02*
G75*
G03*
X70254086Y73411179I-1524001J0D01*
G01*
D12*
%TO.C,D8*%
X192200266Y69220291D02*
X189917410Y68939992D01*
X189917410Y68939992D02*
X190490196Y64275025D01*
X192773052Y64555324D02*
X192200266Y69220291D01*
X192773052Y64555324D02*
X190490196Y64275025D01*
%TO.C,C_3V3_7*%
X128801561Y39285045D02*
X128801561Y40205045D01*
X128801561Y40205045D02*
X126981561Y40205045D01*
X126981561Y39285045D02*
X128801561Y39285045D01*
X126981561Y40205045D02*
X126981561Y39285045D01*
D10*
%TO.C,MX37*%
X175680287Y67583238D02*
X178201354Y67892787D01*
X175989835Y65062171D02*
X175680287Y67583238D01*
D11*
X177867544Y64637843D02*
X177331319Y69005046D01*
X177867544Y64637843D02*
X187098223Y65771228D01*
D10*
X178201354Y67892787D02*
X178510902Y65371719D01*
X178510902Y65371719D02*
X175989835Y65062171D01*
D11*
X182988832Y69699702D02*
X177331319Y69005046D01*
D10*
X188228182Y71683001D02*
X188537730Y69161934D01*
X188537730Y69161934D02*
X191058797Y69471482D01*
D11*
X188799625Y72428197D02*
X184730185Y71928533D01*
X189274915Y68557267D02*
X188799625Y72428197D01*
D10*
X190749249Y71992549D02*
X188228182Y71683001D01*
X191058797Y69471482D02*
X190749249Y71992549D01*
D11*
X182988832Y69699703D02*
G75*
G03*
X184730184Y71928533I-243738J1985090D01*
G01*
X187098223Y65771230D02*
G75*
G03*
X189274914Y68557267I-304673J2481364D01*
G01*
D10*
X181896982Y66879891D02*
G75*
G03*
X181896982Y66879891I-1524000J0D01*
G01*
X187890102Y70174829D02*
G75*
G03*
X187890102Y70174829I-1524000J0D01*
G01*
D12*
%TO.C,D18*%
X193340130Y50167174D02*
X191057274Y49886875D01*
X191057274Y49886875D02*
X191630060Y45221908D01*
X193912916Y45502207D02*
X193340130Y50167174D01*
X193912916Y45502207D02*
X191630060Y45221908D01*
%TO.C,D29*%
X206297503Y32565060D02*
X204014647Y32284761D01*
X204014647Y32284761D02*
X204587433Y27619794D01*
X206870289Y27900093D02*
X206297503Y32565060D01*
X206870289Y27900093D02*
X204587433Y27619794D01*
D10*
%TO.C,MX26*%
X146242830Y33259874D02*
X143721763Y32950325D01*
X145933282Y35780941D02*
X146242830Y33259874D01*
D11*
X144055573Y36205269D02*
X144591798Y31838066D01*
X144055573Y36205269D02*
X134824894Y35071884D01*
D10*
X143721763Y32950325D02*
X143412215Y35471393D01*
X143412215Y35471393D02*
X145933282Y35780941D01*
D11*
X138934285Y31143410D02*
X144591798Y31838066D01*
D10*
X133694935Y29160111D02*
X133385387Y31681178D01*
X133385387Y31681178D02*
X130864320Y31371630D01*
D11*
X133123492Y28414915D02*
X137192932Y28914579D01*
X132648202Y32285845D02*
X133123492Y28414915D01*
D10*
X131173868Y28850563D02*
X133694935Y29160111D01*
X130864320Y31371630D02*
X131173868Y28850563D01*
D11*
X138934285Y31143409D02*
G75*
G03*
X137192933Y28914579I243738J-1985090D01*
G01*
X134824894Y35071882D02*
G75*
G03*
X132648203Y32285845I304673J-2481364D01*
G01*
D10*
X143074135Y33963221D02*
G75*
G03*
X143074135Y33963221I-1524000J0D01*
G01*
X137081015Y30668283D02*
G75*
G03*
X137081015Y30668283I-1524000J0D01*
G01*
%TO.C,MX1*%
X23001435Y80305491D02*
X20480368Y80615039D01*
X23310984Y82826558D02*
X23001435Y80305491D01*
D11*
X21591705Y83692541D02*
X21055480Y79325337D01*
X21591705Y83692541D02*
X12361026Y84825925D01*
D10*
X20480368Y80615039D02*
X20789916Y83136106D01*
X20789916Y83136106D02*
X23310984Y82826558D01*
D11*
X15397967Y80019993D02*
X21055480Y79325337D01*
D10*
X9834444Y79363119D02*
X10143993Y81884187D01*
X10143993Y81884187D02*
X7622925Y82193735D01*
D11*
X9099697Y78778303D02*
X13169136Y78278639D01*
X9574987Y82649233D02*
X9099697Y78778303D01*
D10*
X7313377Y79672667D02*
X9834444Y79363119D01*
X7622925Y82193735D02*
X7313377Y79672667D01*
D11*
X15397967Y80019992D02*
G75*
G03*
X13169136Y78278639I-243740J-1985090D01*
G01*
X12361026Y84825924D02*
G75*
G03*
X9574988Y82649233I-304674J-2481364D01*
G01*
D10*
X20142289Y82123211D02*
G75*
G03*
X20142289Y82123211I-1524001J0D01*
G01*
X13530073Y80376014D02*
G75*
G03*
X13530073Y80376014I-1524001J0D01*
G01*
D12*
%TO.C,D22*%
X52825992Y30188709D02*
X50543136Y30469008D01*
X50543136Y30469008D02*
X49970350Y25804041D01*
X52253206Y25523742D02*
X52825992Y30188709D01*
X52253206Y25523742D02*
X49970350Y25804041D01*
%TO.C,SW1*%
X124402495Y15095028D02*
X124402495Y21095028D01*
X124402495Y21095028D02*
X115902495Y21095028D01*
X115902495Y15095028D02*
X124402495Y15095028D01*
X115902495Y21095028D02*
X115902495Y15095028D01*
%TD*%
M02*
